<svg xmlns="http://www.w3.org/2000/svg" fill="none" viewBox="0 0 1792 1621"><path fill="#C9FBFF" d="M471.883 529.82C397.663 538.76 320.983 554.121 266.083 580.401C222.643 601.221 192.823 628.821 188.563 665.541L188.083 236.061C186.463 220.701 186.343 204.5 188.023 187.4C211.063 -44.8595 710.623 4.76043 710.623 4.76043V517.82C710.563 517.82 594.582 515.06 471.883 529.82Z" opacity=".48"/><path fill="#7CBDDD" d="M1640.32 404C1683.76 383.18 1713.58 355.58 1717.84 318.86L1718.32 748.34C1711 678.5 1672.18 625.64 1625.44 586.64C1542.4 517.22 1434.46 491.48 1434.46 491.48V454.64C1508.74 445.64 1585.42 430.28 1640.32 404Z" opacity=".45"/><path fill="#ABE0FF" d="M1718.08 298.46V317.54C1713.82 354.26 1684 381.92 1640.56 402.68C1585.66 428.96 1508.98 444.38 1434.76 453.26V55.2803C1434.76 55.3403 1697.44 118.52 1718.08 298.46Z" opacity=".45"/><path fill="#C1675B" d="M470.503 337.94C470.503 337.94 447.282 378.98 449.322 396.5C451.302 414.08 484.483 426.981 484.483 426.981L498.042 382.46L470.503 337.94Z"/><path fill="#58B4ED" d="M356.563 1171.22C404.563 1178.96 566.443 1170.62 566.443 1170.62L570.462 1088.12L591.643 1085.3L596.863 1178.66L568.182 1205.12C568.182 1205.12 553.963 1231.04 535.903 1253.6C510.643 1255.82 475.003 1256.9 436.063 1251.92C360.823 1242.26 305.383 1212.38 305.383 1212.38C305.383 1212.38 356.022 1164.14 334.542 1106.66C341.322 1106 348.343 1105.4 355.423 1104.74C369.463 1135.94 356.563 1171.22 356.563 1171.22Z"/><path fill="#CFF9FF" d="M570.462 1088.18L566.442 1170.68C566.442 1170.68 404.563 1179.02 356.563 1171.28C356.563 1171.28 369.463 1136 355.423 1104.86C429.583 1098.56 517.783 1095.2 517.783 1095.2L570.462 1088.18Z"/><path fill="#2791DF" d="M305.382 1212.44C305.382 1212.44 360.823 1242.32 436.063 1251.98C475.063 1256.96 510.643 1255.88 535.903 1253.66C523.963 1268.6 510.342 1282.1 498.102 1285.46C467.442 1293.92 287.323 1260.44 262.063 1217.3C236.803 1174.22 246.883 1115.84 324.703 1107.68C327.943 1107.32 331.182 1107.02 334.542 1106.72C356.022 1164.2 305.382 1212.44 305.382 1212.44Z"/><path stroke="#000" stroke-miterlimit="10" stroke-width="6" d="M334.542 1106.66C334.542 1106.66 356.443 1153.28 305.383 1212.38C305.383 1212.38 404.923 1268 535.903 1253.6"/><path stroke="#000" stroke-miterlimit="10" stroke-width="6" d="M541.843 1172.78C541.843 1172.78 379.543 1177.1 356.563 1171.28C356.563 1171.28 369.343 1128.5 355.423 1104.86"/><path stroke="#000" stroke-miterlimit="10" stroke-width="6" d="M561.703 1216.22C561.703 1216.22 455.503 1191.26 398.983 1245.32"/><path stroke="#000" stroke-miterlimit="10" stroke-width="6" d="M374.263 1238.66C374.263 1238.66 434.502 1171.16 557.082 1197.32"/><path fill="#58B4ED" d="M963.942 1514.66C966.702 1466.12 941.742 1305.98 941.742 1305.98L859.302 1310.48L854.322 1289.66L946.662 1274.9L975.942 1300.7C975.942 1300.7 1003.24 1312.22 1027.48 1327.82C1032.28 1352.72 1037.02 1388 1036.06 1427.36C1034.2 1503.14 1010.2 1561.4 1010.2 1561.4C1010.2 1561.4 957.042 1515.98 902.022 1543.22C900.642 1536.56 899.323 1529.66 898.003 1522.64C927.523 1505.48 963.942 1514.66 963.942 1514.66Z"/><path fill="#CFF9FF" d="M859.302 1310.48L941.742 1305.98C941.742 1305.98 966.702 1466.12 963.942 1514.66C963.942 1514.66 927.522 1505.42 897.942 1522.58C884.082 1449.5 871.722 1362.14 871.722 1362.14L859.302 1310.48Z"/><path fill="#2791DF" d="M1010.2 1561.4C1010.2 1561.4 1034.26 1503.14 1036.06 1427.36C1037.02 1388.06 1032.28 1352.78 1027.48 1327.82C1043.62 1338.2 1058.38 1350.32 1063 1362.14C1074.58 1391.72 1059.82 1574.36 1019.5 1603.94C979.242 1633.46 920.143 1629.44 904.003 1552.94C903.343 1549.76 902.682 1546.58 902.022 1543.28C956.982 1515.92 1010.2 1561.4 1010.2 1561.4Z"/><path fill="#DD5114" d="M990.463 639.98C902.743 618.86 908.983 556.7 920.443 521.66C951.943 531.2 985.303 547.82 1020.04 574.1C1020.04 574.1 1058.86 527.06 1131.22 537.44C1119.58 579.8 1084.36 662.6 990.463 639.98Z"/><path fill="#FC7227" d="M657.763 598.94C657.763 598.94 766.303 474.98 920.443 521.66C908.983 556.7 902.743 618.86 990.463 639.98C1084.36 662.6 1119.58 579.8 1131.22 537.38C1143.94 539.18 1157.74 542.78 1172.5 548.72C1271.32 588.5 1294.3 685.34 1294.3 685.34C1294.3 685.34 1366.18 607.52 1420.06 598.94C1455.4 593.3 1506.22 635.54 1509.46 714.44C1489.72 748.46 1447.3 777.201 1358.92 705.681C1358.92 705.681 1357.48 850.22 1284.34 837.14C1211.26 824.06 1136.26 638.42 1136.26 638.42C1136.26 638.42 1131.64 836.3 1062.88 945.44C1002.7 950.24 928.963 951.8 886.663 936.86L850.123 829.041C850.123 829.041 803.323 699.8 841.303 598.88C841.303 598.88 744.823 795.32 620.563 776.78C519.703 761.72 497.563 579.201 492.763 511.041C541.543 460.281 635.203 471.38 657.763 598.94Z"/><path fill="#DD5114" d="M1284.46 837.201C1357.54 850.281 1359.04 705.741 1359.04 705.741C1447.36 777.321 1489.78 748.521 1509.58 714.501C1511.32 755.961 1499.92 807.561 1466.38 867.621C1368.82 1042.16 1186.96 903.561 1159.84 849.681V934.401C1159.84 934.401 1116.88 941.241 1063.06 945.561C1131.76 836.421 1136.44 638.541 1136.44 638.541C1136.44 638.541 1211.32 824.121 1284.46 837.201Z"/><path fill="#DD5114" d="M475.483 535.88C480.223 526.52 486.103 518.24 492.883 511.1C497.623 579.26 519.763 761.78 620.683 776.84C744.943 795.38 841.423 598.94 841.423 598.94C803.383 699.8 850.243 829.1 850.243 829.1C850.243 829.1 742.423 918.92 606.403 880.46C470.383 841.94 437.023 612.26 475.483 535.88Z"/><path stroke="#000" stroke-miterlimit="10" stroke-width="6" d="M905.263 429.08C903.763 429.2 866.383 418.821 868.423 447.261"/><path fill="#1593D1" d="M1179.88 386.9C1179.4 411.74 1174.6 436.52 1165.54 459.62C1163.86 463.88 1161.94 468.2 1159.72 472.28L1144.54 435.8L1152.4 404.48C1157.86 403.22 1163.14 401.18 1167.94 398.12C1172.62 395.24 1176.7 391.4 1179.88 386.9Z"/><path fill="#24AFFF" d="M1179.46 368.78C1179.58 370.1 1179.64 371.42 1179.7 372.68C1179.94 377.42 1179.94 382.16 1179.88 386.84C1176.64 391.34 1172.56 395.18 1167.94 398.12C1163.14 401.12 1157.86 403.16 1152.4 404.48L1157.56 383.84C1157.56 383.9 1167.16 376.82 1179.46 368.78Z"/><path fill="#000" d="M1179.76 372.74C1179.7 371.42 1179.58 370.161 1179.52 368.841C1196.38 357.861 1218.34 345.02 1227.82 345.86C1244.2 347.36 1241.32 437.36 1241.32 437.36L1210.36 433.94L1235.32 451.761L1223.44 495.38L1196.02 465.32L1212.1 507.8L1193.38 511.82C1184.2 513.8 1174.96 508.94 1171.36 500.24L1159.78 472.341C1162 468.261 1163.92 463.941 1165.6 459.681C1176.34 432.081 1181.2 402.26 1179.76 372.74Z"/><path fill="#000" d="M940.303 442.401C940.303 438.981 948.343 353.96 948.343 353.96C948.343 353.96 936.883 318.38 971.323 298.82C1005.76 279.32 1052.86 317.181 1052.86 317.181L1093.06 334.401C1093.06 334.401 1122.94 309.141 1156.24 336.681C1189.54 364.221 1183.78 545.66 1023.04 528.44L940.303 442.401Z"/><path fill="#F9A698" d="M948.343 353.96C959.023 381.38 993.463 380.48 1015.42 376.82C1012.36 398.36 1011.94 419.961 1018.24 440.541C1014.16 441.201 1015.48 445.101 1014.04 448.941C1004.98 473.121 1005.1 500.661 1014.4 524.781C1014.4 524.781 988.783 537.8 954.103 525.02C824.323 467.66 948.343 353.96 948.343 353.96Z"/><path fill="#D87264" d="M1014.4 524.841C1005.1 500.721 1004.92 473.18 1014.04 449C1015.48 445.1 1014.16 441.26 1018.24 440.6C1011.94 419.96 1012.36 398.36 1015.42 376.88C1026.52 375.02 1034.5 372.44 1034.5 372.44C1016.14 427.58 1041.4 455.96 1041.4 455.96C1041.4 455.96 1075.84 431 1082.74 460.88C1089.64 490.76 1047.16 507.981 1047.16 507.981L1042.18 565.58C1041.64 571.94 1038.94 578 1034.32 582.38C1015.66 600.26 993.703 600.981 976.363 597.201C958.723 593.301 947.202 576.201 949.662 558.261L954.102 525.201C988.782 537.861 1014.4 524.841 1014.4 524.841Z"/><path fill="#E1F6FF" d="M1103.56 351.86C1098.4 361.7 1089.58 369.98 1078.9 372.92C1075.96 373.76 1072.96 374.12 1069.9 374.3C1070.08 354.5 1066.42 332.66 1052.86 317.24L1039.72 308.36C1039.72 308.36 1062.1 290.66 1095.64 302.6C1101.94 304.82 1106.86 308.78 1110.28 314C1110.46 315.86 1110.52 317.78 1110.52 319.58C1110.58 330.68 1108.78 342.02 1103.56 351.86Z"/><path fill="#BADAE5" d="M1078.9 372.98C1089.64 369.98 1098.4 361.76 1103.56 351.92C1108.72 342.08 1110.58 330.74 1110.52 319.58C1110.52 317.72 1110.4 315.86 1110.28 314C1125.22 336.56 1114.42 383.78 1083.46 429.14L1062.76 422.84C1062.76 422.84 1069.66 400.34 1069.9 374.36C1072.96 374.18 1075.96 373.76 1078.9 372.98Z"/><path fill="#8DD5FF" d="M1056.4 404.301C1070.74 404.301 1083.7 409.821 1093.48 418.821C1094.44 427.581 1092.1 436.461 1088.86 444.801C1084.48 437.421 1077.58 431.481 1068.82 428.481C1049.08 421.641 1027.54 432.081 1020.7 451.761C1015.9 465.561 1019.62 480.201 1028.98 490.101C1022.8 490.401 1016.62 489.981 1010.5 488.841C1004.92 480.261 1001.62 470.061 1001.62 459.021C1001.62 428.841 1026.16 404.301 1056.4 404.301Z"/><path fill="#5BA8CE" d="M1028.98 490.16C1033 494.42 1038.1 497.84 1044.04 499.88C1063.78 506.72 1085.32 496.28 1092.16 476.6C1096 465.62 1094.44 454.1 1088.92 444.86C1092.22 436.52 1094.5 427.58 1093.54 418.88C1104.4 428.9 1111.24 443.181 1111.24 459.141C1111.24 489.381 1086.7 513.921 1056.46 513.921C1037.2 513.921 1020.28 503.96 1010.5 488.96C1016.56 489.98 1022.8 490.46 1028.98 490.16Z"/><path fill="#ABFFDE" d="M1078.6 464.661C1068.7 478.401 1052.62 487.101 1035.88 489.501C1033.6 489.801 1031.32 490.041 1028.98 490.161C1019.62 480.261 1015.96 465.561 1020.7 451.821C1027.54 432.081 1049.08 421.642 1068.82 428.542C1077.58 431.602 1084.48 437.481 1088.86 444.861C1088.38 446.061 1087.9 447.201 1087.42 448.341C1084.96 454.041 1082.2 459.621 1078.6 464.661Z"/><path fill="#7DDBB3" d="M1092.1 476.601C1085.26 496.341 1063.72 506.781 1043.98 499.881C1038.04 497.841 1032.94 494.421 1028.92 490.161C1031.2 490.041 1033.54 489.861 1035.82 489.501C1052.56 487.101 1068.64 478.401 1078.54 464.661C1082.2 459.621 1084.96 454.041 1087.42 448.341C1087.9 447.201 1088.38 446.001 1088.86 444.861C1094.38 454.101 1095.94 465.621 1092.1 476.601Z"/><path stroke="#000" stroke-miterlimit="10" stroke-width="6" d="M1020.04 406.881C1019.68 401.661 1015.6 397.401 1010.98 395.061C1005.58 392.361 999.163 391.761 993.403 393.381"/><path stroke="#000" stroke-miterlimit="10" stroke-width="6" d="M957.763 375.38C956.923 371.9 955.303 368.48 952.663 366.02C950.023 363.56 946.243 362.181 942.703 362.901C941.683 363.141 940.723 363.5 939.943 364.16"/><path stroke="#000" stroke-miterlimit="10" stroke-width="6" d="M961.303 403.16C951.583 411.26 942.043 419.54 932.683 428.06C930.763 429.8 928.723 431.78 928.243 434.36C927.523 438.08 930.343 441.56 933.403 443.84C938.503 447.62 944.743 449.84 951.103 449.96"/><path stroke="#000" stroke-miterlimit="10" stroke-width="6" d="M975.943 465.32C974.563 472.58 967.543 477.921 960.163 478.701C952.783 479.481 945.463 476.24 939.943 471.32"/><path fill="#000" d="M984.103 429.08C987.582 429.08 990.403 426.26 990.403 422.78C990.403 419.301 987.582 416.48 984.103 416.48C980.623 416.48 977.803 419.301 977.803 422.78C977.803 426.26 980.623 429.08 984.103 429.08Z"/><path fill="#000" d="M933.583 403.1C937.062 403.1 939.883 400.279 939.883 396.8C939.883 393.321 937.062 390.5 933.583 390.5C930.103 390.5 927.283 393.321 927.283 396.8C927.283 400.279 930.103 403.1 933.583 403.1Z"/><path fill="#000" d="M874.723 471.801L878.203 470.601C883.183 468.921 885.883 463.521 884.203 458.541L880.783 448.341C879.103 443.361 873.703 440.661 868.723 442.341L865.243 443.541C860.263 445.221 857.563 450.621 859.243 455.601L862.663 465.801C864.343 470.781 869.743 473.481 874.723 471.801Z"/><path stroke="#000" stroke-miterlimit="10" stroke-width="6" d="M954.102 525.081C954.102 525.081 990.403 542.961 1028.98 517.701"/><path stroke="#000" stroke-miterlimit="10" stroke-width="6" d="M1025.8 413.66C1025.8 413.66 996.283 433.16 1003.18 472.1C1010.08 510.98 1057.06 518.42 1066.9 512.9"/><path stroke="#000" stroke-miterlimit="10" stroke-width="6" d="M1172.5 548.78C1172.5 548.78 1132.78 565.46 1136.32 638.48C1139.86 711.5 1154.26 829.1 1154.26 829.1"/><path stroke="#000" stroke-miterlimit="10" stroke-width="6" d="M1294.3 685.34C1294.3 685.34 1254.28 723.5 1258.84 795.68"/><path stroke="#000" stroke-miterlimit="10" stroke-width="6" d="M1040.62 572.541C1040.62 572.541 1031.2 599.421 991.542 599.001C951.882 598.581 948.523 566.721 949.663 558.201"/><path stroke="#000" stroke-miterlimit="10" stroke-width="6" d="M657.763 598.94C657.763 598.94 691.783 652.701 679.903 742.041"/><path stroke="#000" stroke-miterlimit="10" stroke-width="6" d="M834.042 766.101C834.042 766.101 803.502 652.161 862.662 549.801"/><path fill="#FFEDC0" d="M745.603 1148.06C639.763 1127.36 547.003 954.62 506.563 867.92C519.223 837.44 540.703 816.14 559.903 804.62C616.783 770.48 741.943 743.18 807.943 879.74C840.343 946.76 881.383 1049.36 914.803 1136.54C876.523 1151 819.103 1162.46 745.603 1148.06Z"/><path fill="#CCB685" d="M745.603 1148.06C819.103 1162.46 876.523 1150.94 914.803 1136.54C949.483 1226.96 975.943 1300.7 975.943 1300.7C968.743 1332.56 871.723 1362.14 871.723 1362.14C871.723 1362.14 812.503 1337.12 619.123 1148.24C490.903 1023.02 481.723 927.86 506.623 867.98C547.003 954.68 639.823 1127.36 745.603 1148.06Z"/><path fill="#E8CD91" d="M786.583 1093.94C991.543 1014.86 1035.46 1140.8 1162.84 1069.52C1226.38 1034 1234.9 976.101 1227.52 927.021C1311.46 1003.46 1353.52 1113.2 1283.56 1196C1172.08 1328 922.183 1207.4 922.183 1207.4L559.963 1230.14C559.963 1230.14 532.483 1214.6 511.303 1165.34C571.123 1171.04 661.003 1142.36 786.583 1093.94Z"/><path fill="#FFEDC0" d="M1048.72 838.76C1113.28 848.06 1177.72 881.66 1227.46 927.02C1234.84 976.1 1226.32 1034 1162.78 1069.52C1035.4 1140.8 991.483 1014.86 786.523 1093.94C660.883 1142.42 571.063 1171.04 511.183 1165.4C503.143 1146.68 495.943 1123.1 491.563 1093.64C491.623 1093.64 875.383 813.74 1048.72 838.76Z"/><path stroke="#000" stroke-miterlimit="10" stroke-width="6" d="M816.822 898.581C816.822 898.581 640.243 990.441 542.623 1058.18"/><path stroke="#000" stroke-miterlimit="10" stroke-width="6" d="M931.063 1179.32C931.063 1179.32 993.643 1118.84 975.943 1008.86"/><path stroke="#000" stroke-miterlimit="10" stroke-width="6" d="M922.123 1207.4L690.522 1221.98"/><path stroke="#000" stroke-miterlimit="10" stroke-width="6" d="M975.942 1300.7C975.942 1300.7 973.242 1329.62 871.722 1362.14"/><path stroke="#000" stroke-miterlimit="10" stroke-width="6" d="M902.022 1543.22C902.022 1543.22 946.183 1516.64 1010.2 1561.4C1010.2 1561.4 1055.32 1456.7 1027.48 1327.82"/><path stroke="#000" stroke-miterlimit="10" stroke-width="6" d="M946.423 1330.22C946.423 1330.22 967.422 1491.2 963.942 1514.72C963.942 1514.72 920.082 1506.38 897.942 1522.64"/><path stroke="#000" stroke-miterlimit="10" stroke-width="6" d="M987.582 1305.98C987.582 1305.98 973.662 1414.22 1033.3 1464.8"/><path stroke="#000" stroke-miterlimit="10" stroke-width="6" d="M1029.22 1490.18C1029.22 1490.18 955.902 1437.2 969.282 1312.64"/><path stroke="#000" stroke-miterlimit="10" stroke-width="6" d="M491.623 1093.64C491.623 1093.64 498.223 1181.36 559.903 1230.14"/><path fill="#D87264" d="M429.403 369.98C430.243 369.8 431.083 369.74 431.983 369.74C434.923 387.5 443.563 404.48 455.263 418.34C471.463 437.6 493.063 451.64 515.263 463.52C542.863 478.34 546.103 515.18 546.163 550.46C537.223 550.76 527.023 549.201 515.683 544.401L501.403 484.22C483.643 479.78 452.623 429.02 436.363 415.22C420.043 401.42 413.143 373.82 429.403 369.98Z"/><path fill="#F9A698" d="M515.203 463.52C493.003 451.64 471.463 437.601 455.203 418.341C443.503 404.481 434.863 387.5 431.923 369.74C448.603 369.74 476.203 402.38 476.203 402.38C472.783 390.08 466.363 351.141 466.363 351.141C446.143 334.401 431.383 295.94 446.623 291.98C461.863 288.02 496.423 334.341 496.423 334.341C508.723 328.881 518.623 337.94 518.623 337.94C534.403 329.66 542.263 338.3 542.263 338.3C584.623 330.92 588.583 431.421 580.543 448.701C580.543 448.701 580.723 481.22 583.903 505.88L587.323 532.82C587.323 532.82 572.203 549.62 546.103 550.46C545.983 515.24 542.803 478.34 515.203 463.52Z"/><path stroke="#000" stroke-miterlimit="10" stroke-width="6" d="M595.483 499.761C599.143 504.081 599.922 510.321 598.542 515.841C597.162 521.361 593.743 526.101 589.903 530.301C571.123 550.461 538.483 556.101 514.003 543.441C507.403 540.021 500.622 533.601 502.242 526.341"/><path stroke="#000" stroke-miterlimit="10" stroke-width="6" d="M496.423 334.4L514.423 387.56"/><path stroke="#000" stroke-miterlimit="10" stroke-width="6" d="M518.563 337.94L538.962 385.58"/><path stroke="#000" stroke-miterlimit="10" stroke-width="6" d="M542.263 338.36C542.263 338.36 560.143 381.68 560.623 383.12"/><path stroke="#000" stroke-miterlimit="10" stroke-width="6" d="M476.203 402.38L484.423 421.16"/><path stroke="#000" stroke-miterlimit="10" stroke-width="6" d="M501.343 484.22C501.343 484.22 517.363 489.5 525.703 484.22"/><path fill="#F9A698" d="M1473.34 616.281C1473.34 616.281 1428.58 683.601 1389.4 680.061C1388.68 675.441 1388.5 670.761 1388.56 665.901C1388.56 665.901 1427.08 542.541 1443.52 524.481C1459.96 506.421 1545.52 467.301 1555.12 482.841C1564.72 498.381 1518.34 526.401 1518.34 526.401C1518.34 526.401 1542.34 522.381 1551.1 540.801C1551.1 540.801 1567.9 531.981 1580.68 548.781C1580.68 548.781 1605.46 548.001 1604.68 568.761C1603.9 589.521 1589.08 648.201 1571.92 643.821C1562.32 641.361 1557.76 634.461 1557.76 634.461C1557.76 634.461 1524.76 663.261 1473.34 616.281Z"/><path fill="#D87264" d="M1473.34 616.281C1524.76 663.261 1557.76 634.461 1557.76 634.461C1557.76 634.461 1550.56 675.921 1509.7 671.901L1479.28 715.821C1479.28 715.821 1454.92 732.201 1423.84 718.821C1400.08 708.561 1391.8 695.061 1389.4 680.061C1428.58 683.601 1473.34 616.281 1473.34 616.281Z"/><path stroke="#000" stroke-miterlimit="10" stroke-width="6" d="M1498.48 686.841C1496.8 701.661 1485.34 714.261 1471.54 719.781C1457.74 725.301 1441.96 724.521 1427.74 720.141C1415.86 716.481 1404.4 710.121 1397.26 699.981C1387.9 686.721 1387.3 669.08 1389.76 653C1391.38 642.38 1394.38 631.64 1400.68 622.94"/><path stroke="#000" stroke-miterlimit="10" stroke-width="6" d="M1580.68 548.781C1580.68 548.781 1564.42 617.361 1557.76 634.461C1551.04 651.621 1525.42 640.641 1524.76 626.841C1524.76 626.841 1551.82 565.821 1551.1 540.801"/><path stroke="#000" stroke-miterlimit="10" stroke-width="6" d="M1434.76 563.72C1434.76 563.72 1455.76 555.861 1473.52 551.901C1491.28 547.941 1531.36 555.861 1528.72 576.201C1526.08 596.601 1489.3 588.681 1486 591.981C1482.7 595.281 1497.34 615.261 1496.62 638.42"/><path stroke="#000" stroke-miterlimit="10" stroke-width="6" d="M1524.76 626.841C1524.76 626.841 1509.16 635.54 1496.62 622.94"/><path stroke="#000" stroke-miterlimit="10" stroke-width="6" d="M1501.78 590.9L1493.26 616.28"/><path stroke="#000" stroke-miterlimit="10" stroke-width="6" d="M1518.34 526.4L1490.62 540.8C1490.62 540.8 1470.88 530.42 1457.74 533.6"/><path stroke="#000" stroke-miterlimit="10" stroke-width="6" d="M1509.7 671.901C1509.7 671.901 1478.8 672.86 1451.2 652.46"/><path fill="#FFC0EC" d="M1350.4 1328.06L1638.88 1257.8V1092.38L1350.4 1162.64V1328.06Z"/><path stroke="#fff" stroke-miterlimit="10" stroke-width="6" d="M1350.4 1162.64L1510.72 1221.98L1638.88 1092.38"/><path fill="#FFC0EC" d="M1557.76 1427.6L1718.08 1388.6V1296.68L1557.76 1335.68V1427.6Z"/><path stroke="#fff" stroke-miterlimit="10" stroke-width="6" d="M1557.76 1335.68L1646.86 1368.68L1718.08 1296.68"/><path fill="#FFC0EC" d="M374.263 927.5L169.663 877.64V760.4L374.263 810.2V927.5Z"/><path stroke="#fff" stroke-miterlimit="10" stroke-width="6" d="M374.263 810.2L260.563 852.26L169.663 760.4"/><path fill="#FFC0EC" d="M227.203 1035.2L22.6025 985.401V868.101L227.203 917.961V1035.2Z"/><path stroke="#fff" stroke-miterlimit="10" stroke-width="6" d="M227.203 917.961L113.503 959.961L22.6025 868.101"/><path stroke="#fff" stroke-miterlimit="10" stroke-width="6" d="M1718.08 317.541V298.46C1718.86 305.06 1718.8 311.421 1718.08 317.541Z" opacity=".45"/><path fill="#C9FBFF" d="M1434.76 453.32C1508.98 444.38 1585.66 429.02 1640.56 402.74C1684 381.92 1713.82 354.32 1718.08 317.6L1718.56 747.08C1720.18 762.44 1720.3 778.64 1718.62 795.74C1695.58 1028 1196.02 978.38 1196.02 978.38V465.32C1196.02 465.32 1312.06 468.08 1434.76 453.32Z" opacity=".48"/><path fill="#7CBDDD" d="M266.263 579.141C222.823 599.961 193.003 627.561 188.743 664.281L188.263 234.801C195.583 304.641 234.403 357.501 281.143 396.501C364.183 465.921 472.123 491.661 472.123 491.661V528.501C397.903 537.501 321.223 552.861 266.263 579.141Z" opacity=".45"/><path fill="#ABE0FF" d="M188.503 684.68V665.6C192.763 628.88 222.583 601.22 266.023 580.46C320.923 554.18 397.602 538.76 471.822 529.88V927.86C471.882 927.8 209.143 864.62 188.503 684.68Z" opacity=".45"/><path stroke="#fff" stroke-miterlimit="10" stroke-width="6" d="M188.503 665.6V684.68C187.783 678.02 187.783 671.72 188.503 665.6Z" opacity=".45"/><path fill="#FF62C3" d="M717.883 362.72C790.983 362.72 850.243 303.46 850.243 230.36C850.243 157.26 790.983 98 717.883 98C644.782 98 585.523 157.26 585.523 230.36C585.523 303.46 644.782 362.72 717.883 362.72Z"/><path fill="#fff" d="M627.161 263.77V257.404L651.066 231.235C653.872 228.17 656.182 225.506 657.998 223.243C659.813 220.956 661.157 218.811 662.029 216.807C662.925 214.779 663.373 212.658 663.373 210.442C663.373 207.895 662.76 205.691 661.534 203.829C660.332 201.966 658.681 200.528 656.583 199.514C654.485 198.501 652.127 197.994 649.51 197.994C646.729 197.994 644.3 198.571 642.226 199.726C640.175 200.858 638.583 202.449 637.452 204.501C636.343 206.552 635.789 208.956 635.789 211.715H627.444C627.444 207.471 628.422 203.746 630.379 200.54C632.336 197.334 635 194.835 638.371 193.043C641.766 191.251 645.573 190.355 649.793 190.355C654.037 190.355 657.797 191.251 661.074 193.043C664.351 194.835 666.921 197.251 668.783 200.292C670.646 203.334 671.577 206.717 671.577 210.442C671.577 213.106 671.094 215.711 670.127 218.257C669.184 220.779 667.534 223.597 665.176 226.709C662.842 229.797 659.601 233.569 655.451 238.025L639.184 255.424V255.99H672.85V263.77H627.161ZM684.202 248.917V241.703L716.029 191.345H721.263V202.52H717.726L693.679 240.571V241.137H736.54V248.917H684.202ZM718.292 263.77V246.724V243.365V191.345H726.638V263.77H718.292ZM775.537 187.95L752.197 274.661H744.558L767.898 187.95H775.537ZM787.551 263.77L819.944 199.691V199.125H782.6V191.345H828.997V199.55L796.746 263.77H787.551Z"/><path fill="#FFA048" d="M0.282654 582.74C0.282654 537.56 36.9427 500.9 82.1227 500.9C127.303 500.9 163.962 537.56 163.962 582.74C163.962 615.08 145.243 642.98 118.063 656.3V640.7C118.063 617.84 99.5826 599.36 76.7226 599.36C53.8626 599.36 35.3825 617.84 35.3825 640.7V649.88C14.1425 635.12 0.282654 610.58 0.282654 582.74Z"/><path fill="#fff" d="M78.2226 599.36C95.2551 599.36 109.063 585.553 109.063 568.52C109.063 551.488 95.2551 537.681 78.2226 537.681C61.1901 537.681 47.3825 551.488 47.3825 568.52C47.3825 585.553 61.1901 599.36 78.2226 599.36Z"/><path fill="#fff" d="M76.6627 599.36C99.5227 599.36 118.003 617.84 118.003 640.7V656.3C107.143 661.58 94.9628 664.58 82.0628 664.58C64.6628 664.58 48.5229 659.12 35.2629 649.88V640.7C35.3229 617.84 53.8627 599.36 76.6627 599.36Z"/><path fill="#FFA048" d="M1628.2 982.761C1628.2 937.581 1664.86 900.921 1710.04 900.921C1755.22 900.921 1791.88 937.581 1791.88 982.761C1791.88 1015.1 1773.16 1043 1745.98 1056.32V1040.72C1745.98 1017.86 1727.5 999.381 1704.64 999.381C1681.78 999.381 1663.3 1017.86 1663.3 1040.72V1049.9C1642.06 1035.14 1628.2 1010.6 1628.2 982.761Z"/><path fill="#fff" d="M1706.14 999.381C1723.17 999.381 1736.98 985.574 1736.98 968.541C1736.98 951.509 1723.17 937.701 1706.14 937.701C1689.11 937.701 1675.3 951.509 1675.3 968.541C1675.3 985.574 1689.11 999.381 1706.14 999.381Z"/><path fill="#fff" d="M1704.64 999.38C1727.5 999.38 1745.98 1017.86 1745.98 1040.72V1056.32C1735.12 1061.6 1722.94 1064.6 1710.04 1064.6C1692.64 1064.6 1676.5 1059.14 1663.24 1049.9V1040.72C1663.24 1017.92 1681.78 999.38 1704.64 999.38Z"/></svg>