<svg xmlns="http://www.w3.org/2000/svg" enable-background="new 0 0 5000 5000" viewBox="0 0 5000 5000"><path fill="#83a2b5" d="M417.169,3419.7l1069.851-798.045c50.292-37.515,91.439-5.446,91.439,71.263v319.103h2786.335
			c51.892,0,94.348,42.456,94.348,94.348v914.575c0,51.892-79.518,166.208-131.408,166.208l-2749.274-71.86v268.166
			c0,76.709-80.521,199.008-129.502,158.539l-1131.373-943.36C268.604,3558.167,366.878,3457.214,417.169,3419.7z"/><defs><filter id="a" width="4154.868" height="1944.042" x="304.274" y="2605.958" filterUnits="userSpaceOnUse"><feFlood flood-color="#fff" flood-opacity="1" result="back"/><feBlend in="SourceGraphic" in2="back"/></filter></defs><mask id="c" width="4154.868" height="1944.042" x="304.274" y="2605.958" maskUnits="userSpaceOnUse"><g filter="url(#a)"><defs><filter id="b" width="4154.868" height="1944.042" x="304.274" y="2605.958" filterUnits="userSpaceOnUse"><feFlood flood-color="#fff" flood-opacity="1" result="back"/><feBlend in="SourceGraphic" in2="back"/></filter></defs><linearGradient id="d" x1="4459.143" x2="304.274" y1="3577.979" y2="3577.98" gradientUnits="userSpaceOnUse"><stop offset="0" stop-color="#fff"/><stop offset="1"/></linearGradient><path fill="url(#d)" d="M417.169,3419.7l1069.851-798.045
					c50.292-37.515,91.439-5.446,91.439,71.263v319.103h2786.335c51.892,0,94.348,42.456,94.348,94.348v914.575
					c0,51.892-79.518,166.208-131.408,166.208l-2749.274-71.86v268.166c0,76.709-80.521,199.008-129.502,158.539l-1131.373-943.36
					C268.604,3558.167,366.878,3457.214,417.169,3419.7z" mask="url(#c)"/></g></mask><linearGradient id="e" x1="4459.143" x2="304.274" y1="3577.979" y2="3577.98" gradientUnits="userSpaceOnUse"><stop offset="0" stop-color="#5f76b4"/><stop offset="1" stop-color="#5f76b4"/></linearGradient><path fill="url(#e)" d="M417.169,3419.7l1069.851-798.045c50.292-37.515,91.439-5.446,91.439,71.263
			v319.103h2786.335c51.892,0,94.348,42.456,94.348,94.348v914.575c0,51.892-79.518,166.208-131.408,166.208l-2749.274-71.86
			v268.166c0,76.709-80.521,199.008-129.502,158.539l-1131.373-943.36C268.604,3558.167,366.878,3457.214,417.169,3419.7z" opacity=".5"/><defs><filter id="f" width="212.969" height="504.528" x="1466.668" y="2606.848" filterUnits="userSpaceOnUse"><feFlood flood-color="#fff" flood-opacity="1" result="back"/><feBlend in="SourceGraphic" in2="back"/></filter></defs><mask id="h" width="212.969" height="504.528" x="1466.668" y="2606.848" maskUnits="userSpaceOnUse"><g filter="url(#f)"><defs><filter id="g" width="212.969" height="504.528" x="1466.668" y="2606.848" filterUnits="userSpaceOnUse"><feFlood flood-color="#fff" flood-opacity="1" result="back"/><feBlend in="SourceGraphic" in2="back"/></filter></defs><linearGradient id="i" x1="1417.25" x2="1665.401" y1="2675.008" y2="3104.818" gradientUnits="userSpaceOnUse"><stop offset="0" stop-color="#fff"/><stop offset="1"/></linearGradient><path fill="url(#i)" d="M1578.46,3012.021v-319.103c0,0-0.538-72.633-43.154-86.07
					c0,0-30.387,68.679-58.342,91.393c-27.955,22.713,8.736,399.29,19.219,410.181c10.483,10.89,183.454-11.823,183.454-11.823
					v-84.577H1578.46z" mask="url(#h)"/></g></mask><linearGradient id="j" x1="1417.25" x2="1665.401" y1="2675.008" y2="3104.818" gradientUnits="userSpaceOnUse"><stop offset="0" stop-color="#6c4990"/><stop offset="1" stop-color="#6c4990"/></linearGradient><path fill="url(#j)" d="M1578.46,3012.021v-319.103c0,0-0.538-72.633-43.154-86.07
			c0,0-30.387,68.679-58.342,91.393c-27.955,22.713,8.736,399.29,19.219,410.181c10.483,10.89,183.454-11.823,183.454-11.823
			v-84.577H1578.46z" opacity=".5"/><defs><filter id="k" width="172.948" height="457.061" x="1405.512" y="4088.762" filterUnits="userSpaceOnUse"><feFlood flood-color="#fff" flood-opacity="1" result="back"/><feBlend in="SourceGraphic" in2="back"/></filter></defs><mask id="m" width="172.948" height="457.061" x="1405.512" y="4088.762" maskUnits="userSpaceOnUse"><g filter="url(#k)"><defs><filter id="l" width="172.948" height="457.061" x="1405.512" y="4088.762" filterUnits="userSpaceOnUse"><feFlood flood-color="#fff" flood-opacity="1" result="back"/><feBlend in="SourceGraphic" in2="back"/></filter></defs><linearGradient id="n" x1="1578.46" x2="1405.512" y1="4317.292" y2="4317.292" gradientUnits="userSpaceOnUse"><stop offset="0" stop-color="#fff"/><stop offset="1"/></linearGradient><path fill="url(#n)" d="M1578.46,4167.62v223.64c0,0-33.891,173.076-119.235,152.932
					c-85.344-20.146-43.412-449.953-43.412-455.194S1578.46,4167.62,1578.46,4167.62z" mask="url(#m)"/></g></mask><linearGradient id="o" x1="1578.46" x2="1405.512" y1="4317.292" y2="4317.292" gradientUnits="userSpaceOnUse"><stop offset="0" stop-color="#6c4990"/><stop offset="1" stop-color="#6c4990"/></linearGradient><path fill="url(#o)" d="M1578.46,4167.62v223.64c0,0-33.891,173.076-119.235,152.932
			c-85.344-20.146-43.412-449.953-43.412-455.194S1578.46,4167.62,1578.46,4167.62z" opacity=".5"/><path fill="#bfdded" d="M349.805,3496.677l1069.851-798.045c50.292-37.515,91.44-5.446,91.44,71.264v319.102H4297.43
			c51.892,0,94.349,42.456,94.349,94.349v914.574c0,51.892-42.457,94.348-94.349,94.348H1511.095v268.166
			c0,76.709-40.076,106.361-89.056,65.893L347.421,3638.464C298.44,3597.996,299.514,3534.191,349.805,3496.677z"/><defs><filter id="p" width="4080.403" height="1861.506" x="311.375" y="2682.935" filterUnits="userSpaceOnUse"><feFlood flood-color="#fff" flood-opacity="1" result="back"/><feBlend in="SourceGraphic" in2="back"/></filter></defs><mask id="r" width="4080.403" height="1861.506" x="311.375" y="2682.935" maskUnits="userSpaceOnUse"><g filter="url(#p)"><defs><filter id="q" width="4080.403" height="1861.506" x="311.375" y="2682.935" filterUnits="userSpaceOnUse"><feFlood flood-color="#fff" flood-opacity="1" result="back"/><feBlend in="SourceGraphic" in2="back"/></filter></defs><linearGradient id="s" x1="4391.778" x2="311.375" y1="3613.688" y2="3613.688" gradientUnits="userSpaceOnUse"><stop offset="0" stop-color="#fff"/><stop offset="1"/></linearGradient><path fill="url(#s)" d="M349.805,3496.677l1069.851-798.045
					c50.292-37.515,91.44-5.446,91.44,71.264v319.102H4297.43c51.892,0,94.349,42.456,94.349,94.349v914.574
					c0,51.892-42.457,94.348-94.349,94.348H1511.095v268.166c0,76.709-40.076,106.361-89.056,65.893L347.421,3638.464
					C298.44,3597.996,299.514,3534.191,349.805,3496.677z" mask="url(#r)"/></g></mask><linearGradient id="t" x1="4391.778" x2="311.375" y1="3613.688" y2="3613.688" gradientUnits="userSpaceOnUse"><stop offset="0" stop-color="#6f92c0"/><stop offset="1" stop-color="#6f92c0"/></linearGradient><path fill="url(#t)" d="M349.805,3496.677l1069.851-798.045c50.292-37.515,91.44-5.446,91.44,71.264
			v319.102H4297.43c51.892,0,94.349,42.456,94.349,94.349v914.574c0,51.892-42.457,94.348-94.349,94.348H1511.095v268.166
			c0,76.709-40.076,106.361-89.056,65.893L347.421,3638.464C298.44,3597.996,299.514,3534.191,349.805,3496.677z" opacity=".4"/><defs><filter id="u" width="1055.306" height="1230.688" x="403.918" y="2778.54" filterUnits="userSpaceOnUse"><feFlood flood-color="#fff" flood-opacity="1" result="back"/><feBlend in="SourceGraphic" in2="back"/></filter></defs><mask id="w" width="1055.306" height="1230.688" x="403.918" y="2778.54" maskUnits="userSpaceOnUse"><g filter="url(#u)"><defs><filter id="v" width="1055.306" height="1230.688" x="403.918" y="2778.54" filterUnits="userSpaceOnUse"><feFlood flood-color="#fff" flood-opacity="1" result="back"/><feBlend in="SourceGraphic" in2="back"/></filter></defs><linearGradient id="x" x1="931.572" x2="931.572" y1="4009.227" y2="2778.54" gradientUnits="userSpaceOnUse"><stop offset="0" stop-color="#fff"/><stop offset="1"/></linearGradient><path fill="url(#x)" d="M430.402,3487.127l890.302-667.865
					c0,0,117.312-110.582,127.176,32.709c9.865,143.291,37.82,499.715-60.022,471.761c-97.842-27.955-215.171-35.435-443.044,73.136
					c-227.874,108.571-237.126,322.533-13.487,555.85C1154.966,4186.033,239.05,3630.671,430.402,3487.127z" mask="url(#w)"/></g></mask><linearGradient id="y" x1="931.572" x2="931.572" y1="4009.227" y2="2778.54" gradientUnits="userSpaceOnUse"><stop offset="0" stop-color="#6c4990"/><stop offset="1" stop-color="#6c4990"/></linearGradient><path fill="url(#y)" d="M430.402,3487.127l890.302-667.865c0,0,117.312-110.582,127.176,32.709
			c9.865,143.291,37.82,499.715-60.022,471.761c-97.842-27.955-215.171-35.435-443.044,73.136
			c-227.874,108.571-237.126,322.533-13.487,555.85C1154.966,4186.033,239.05,3630.671,430.402,3487.127z"/><defs><filter id="z" width="1175.844" height="602.313" x="3161.479" y="3539.121" filterUnits="userSpaceOnUse"><feFlood flood-color="#fff" flood-opacity="1" result="back"/><feBlend in="SourceGraphic" in2="back"/></filter></defs><mask id="B" width="1175.844" height="602.313" x="3161.479" y="3539.121" maskUnits="userSpaceOnUse"><g filter="url(#z)"><defs><filter id="A" width="1175.844" height="602.313" x="3161.479" y="3539.121" filterUnits="userSpaceOnUse"><feFlood flood-color="#fff" flood-opacity="1" result="back"/><feBlend in="SourceGraphic" in2="back"/></filter></defs><linearGradient id="C" x1="3749.401" x2="3749.401" y1="4141.434" y2="3539.121" gradientUnits="userSpaceOnUse"><stop offset="0" stop-color="#fff"/><stop offset="1"/></linearGradient><path fill="url(#C)" d="M3211.916,4141.412h971.434c0,0,160.74,6.989,153.752-230.628
					c-6.989-237.616-27.955-412.335-48.922-363.413c-20.965,48.92,13.979,476.436-188.695,461.856
					C3896.812,3994.649,2932.367,4090.557,3211.916,4141.412z" mask="url(#B)"/></g></mask><linearGradient id="D" x1="3749.401" x2="3749.401" y1="4141.434" y2="3539.121" gradientUnits="userSpaceOnUse"><stop offset="0" stop-color="#6c4990"/><stop offset="1" stop-color="#6c4990"/></linearGradient><path fill="url(#D)" d="M3211.916,4141.412h971.434c0,0,160.74,6.989,153.752-230.628
			c-6.989-237.616-27.955-412.335-48.922-363.413c-20.965,48.92,13.979,476.436-188.695,461.856
			C3896.812,3994.649,2932.367,4090.557,3211.916,4141.412z"/><defs><filter id="E" width="449.196" height="76.977" x="2060.842" y="3003.338" filterUnits="userSpaceOnUse"><feFlood flood-color="#fff" flood-opacity="1" result="back"/><feBlend in="SourceGraphic" in2="back"/></filter></defs><mask id="G" width="449.196" height="76.977" x="2060.842" y="3003.338" maskUnits="userSpaceOnUse"><g filter="url(#E)"><defs><filter id="F" width="449.196" height="76.977" x="2060.842" y="3003.338" filterUnits="userSpaceOnUse"><feFlood flood-color="#fff" flood-opacity="1" result="back"/><feBlend in="SourceGraphic" in2="back"/></filter></defs><linearGradient id="H" x1="2060.842" x2="2510.038" y1="3041.826" y2="3041.826" gradientUnits="userSpaceOnUse"><stop offset="0" stop-color="#fff"/><stop offset="1"/></linearGradient><path fill="url(#H)" d="M2231.404,3003.338c0,0-187.645,17.853-169.3,47.415
				c18.346,29.562,328.63,29.562,394.943,29.562s95.25-76.977-65.196-76.977S2231.404,3003.338,2231.404,3003.338z" mask="url(#G)"/></g></mask><linearGradient id="I" x1="2060.842" x2="2510.038" y1="3041.826" y2="3041.826" gradientUnits="userSpaceOnUse"><stop offset="0" stop-color="#845e9c"/><stop offset="1" stop-color="#845e9c"/></linearGradient><path fill="url(#I)" d="M2231.404,3003.338c0,0-187.645,17.853-169.3,47.415
		c18.346,29.562,328.63,29.562,394.943,29.562s95.25-76.977-65.196-76.977S2231.404,3003.338,2231.404,3003.338z" opacity=".5"/><defs><filter id="J" width="449.196" height="76.977" x="3467.534" y="3003.338" filterUnits="userSpaceOnUse"><feFlood flood-color="#fff" flood-opacity="1" result="back"/><feBlend in="SourceGraphic" in2="back"/></filter></defs><mask id="L" width="449.196" height="76.977" x="3467.534" y="3003.338" maskUnits="userSpaceOnUse"><g filter="url(#J)"><defs><filter id="K" width="449.196" height="76.977" x="3467.534" y="3003.338" filterUnits="userSpaceOnUse"><feFlood flood-color="#fff" flood-opacity="1" result="back"/><feBlend in="SourceGraphic" in2="back"/></filter></defs><linearGradient id="M" x1="3467.534" x2="3916.731" y1="3041.826" y2="3041.826" gradientUnits="userSpaceOnUse"><stop offset="0" stop-color="#fff"/><stop offset="1"/></linearGradient><path fill="url(#M)" d="M3638.097,3003.338c0,0-187.646,17.853-169.3,47.415
				c18.346,29.562,328.629,29.562,394.942,29.562s95.251-76.977-65.196-76.977
				C3638.097,3003.338,3638.097,3003.338,3638.097,3003.338z" mask="url(#L)"/></g></mask><linearGradient id="N" x1="3467.534" x2="3916.731" y1="3041.826" y2="3041.826" gradientUnits="userSpaceOnUse"><stop offset="0" stop-color="#845e9c"/><stop offset="1" stop-color="#845e9c"/></linearGradient><path fill="url(#N)" d="M3638.097,3003.338c0,0-187.646,17.853-169.3,47.415
		c18.346,29.562,328.629,29.562,394.942,29.562s95.251-76.977-65.196-76.977C3638.097,3003.338,3638.097,3003.338,3638.097,3003.338
		z" opacity=".5"/><path fill="#7ba3bc" d="M3264.56,1853.514c0,0-297.817-149.146-326.88-433.487
				c-29.064-284.341,64.831-898.883,320.323-954.592c255.493-55.709,703.354,40.621,836.641,268.996
				c133.287,228.376-225.36,931.108-449.733,1068.676S3264.56,1853.514,3264.56,1853.514z"/><path fill="#9bbfd2" d="M3273.395,1823.23c0,0-284.77-142.611-312.56-414.495
					c-27.79-271.883,61.991-859.501,306.29-912.77c244.299-53.268,672.539,38.841,799.986,257.211s-215.487,890.314-430.03,1021.855
					C3422.537,1906.573,3273.395,1823.23,3273.395,1823.23z"/><defs><filter id="O" width="934.217" height="1156.22" x="3115.816" y="564.595" filterUnits="userSpaceOnUse"><feFlood flood-color="#fff" flood-opacity="1" result="back"/><feBlend in="SourceGraphic" in2="back"/></filter></defs><g mask="url(#P)"><path fill="#b6c2c9" d="M3368.236,1700.366c0,0-230.432-116.891-249.66-346.248
					c-19.229-229.356,61.415-726.956,261.318-775.048c199.904-48.092,547.979,24.318,649.154,207.203
					c101.177,182.885-186.983,754.929-363.609,868.775C3488.813,1768.895,3368.236,1700.366,3368.236,1700.366z"/></g><path fill="#b790bd" d="M3724.049,569.294c-23.65,11.896-13.176,69.755-3.482,107.259
			c-8.104,9.526-17.046,20.06-25.975,30.626c-6.17,7.3-12.273,14.549-18.146,21.548c-15.405-12.971-30.436-23.218-44.053-30.619
			c-24.317-13.215-61.813-31.155-106.426-42.794c1.989-6.181,4.03-12.498,6.102-18.896c31.188-11.03,79.229-41.863,85.746-67.073
			c9.163-35.447-144.451-88.129-170.531-58.011c-17.329,20.013,14.413,69.51,37.67,100.487
			c-3.421,10.545-7.158,22.111-10.904,33.768c-116.544-13.056-260.729,32.441-351.426,284.649
			c-58.808,163.526-77.757,285.406-77.076,378.477c-0.011,0.514-0.05,0.889-0.05,1.456c0,79.022-5.632,93.228-13.494,148.074
			c-5.289,36.894,53.727,10.483,53.727,10.483c1.118-0.473,1.764-2.342,2.083-5.133c11.884-1.404,23.948-1.124,32.488-0.825
			c17.753,0.623,35.609,4.562,49.676,14.59v0c2.48,1.769,4.811,3.775,7.045,5.922c0.885,0.869,1.792,1.705,2.629,2.641
			c0.754,0.826,1.467,1.708,2.18,2.591c1.721,2.169,3.395,4.404,4.859,6.92c1.585,2.721,2.965,5.527,4.223,8.378
			c0.447,1.013,0.811,2.057,1.217,3.084c0.733,1.851,1.438,3.713,2.044,5.609c0.408,1.281,0.765,2.577,1.116,3.876
			c0.459,1.688,0.877,3.385,1.242,5.1c0.299,1.405,0.58,2.813,0.818,4.234c4.435,26.48-1.595,55.626-13.892,81.502
			c-12.579-10.525-23.64-16.098-26.77-10.102c0,0-27.717,44.583-14.613,62.928c6.203,8.684,19.633,15.565,34.64,19.336
			c27.547,35.414,56.168,63.831,79.139,83.264c43.565,36.854,41.714,105.202,41.714,105.202
			c25.148,87.018,74.143,19.523,74.143,19.523c48.09-184.926,137.828-137.944,348.547-520.267
			c161.972-293.875,85.856-496.965-6.329-601.51c11.912-14.221,26.006-30.905,40.817-48.338
			c33.038,1.692,89.204-8.496,104.84-29.318C3881.57,658.659,3759.641,551.394,3724.049,569.294z"/><g opacity=".3"><defs><filter id="Q" width="830.55" height="1409.935" x="3031.668" y="502.388" filterUnits="userSpaceOnUse"><feFlood flood-color="#fff" flood-opacity="1" result="back"/><feBlend in="SourceGraphic" in2="back"/></filter></defs><mask id="S" width="830.55" height="1409.935" x="3031.668" y="502.388" maskUnits="userSpaceOnUse"><g filter="url(#Q)"><defs><filter id="R" width="830.55" height="1409.935" x="3031.668" y="502.388" filterUnits="userSpaceOnUse"><feFlood flood-color="#fff" flood-opacity="1" result="back"/><feBlend in="SourceGraphic" in2="back"/></filter></defs><linearGradient id="T" x1="3446.943" x2="3446.943" y1="502.388" y2="1912.323" gradientUnits="userSpaceOnUse"><stop offset="0" stop-color="#fff"/><stop offset="1"/></linearGradient><path fill="url(#T)" d="M3724.049,569.294c-23.65,11.896-13.176,69.755-3.482,107.259
						c-8.104,9.526-17.046,20.06-25.975,30.626c-6.17,7.3-12.273,14.549-18.146,21.548c-15.405-12.971-30.436-23.218-44.053-30.619
						c-24.317-13.215-61.813-31.155-106.426-42.794c1.989-6.181,4.03-12.498,6.102-18.896c31.188-11.03,79.229-41.863,85.746-67.073
						c9.163-35.447-144.451-88.129-170.531-58.011c-17.329,20.013,14.413,69.51,37.67,100.487
						c-3.421,10.545-7.158,22.111-10.904,33.768c-116.544-13.056-260.729,32.441-351.426,284.649
						c-58.808,163.526-77.757,285.406-77.076,378.477c-0.011,0.514-0.05,0.889-0.05,1.456c0,79.022-5.632,93.228-13.494,148.074
						c-5.289,36.894,53.727,10.483,53.727,10.483c1.118-0.473,1.764-2.342,2.083-5.133c11.884-1.404,23.948-1.124,32.488-0.825
						c17.753,0.623,35.609,4.562,49.676,14.59v0c2.48,1.769,4.811,3.775,7.045,5.922c0.885,0.869,1.792,1.705,2.629,2.641
						c0.754,0.826,1.467,1.708,2.18,2.591c1.721,2.169,3.395,4.404,4.859,6.92c1.585,2.721,2.965,5.527,4.223,8.378
						c0.447,1.013,0.811,2.057,1.217,3.084c0.733,1.851,1.438,3.713,2.044,5.609c0.408,1.281,0.765,2.577,1.116,3.876
						c0.459,1.688,0.877,3.385,1.242,5.1c0.299,1.405,0.58,2.813,0.818,4.234c4.435,26.48-1.595,55.626-13.892,81.502
						c-12.579-10.525-23.64-16.098-26.77-10.102c0,0-27.717,44.583-14.613,62.928c6.203,8.684,19.633,15.565,34.64,19.336
						c27.547,35.414,56.168,63.831,79.139,83.264c43.565,36.854,41.714,105.202,41.714,105.202
						c25.148,87.018,74.143,19.523,74.143,19.523c48.09-184.926,137.828-137.944,348.547-520.267
						c161.972-293.875,85.856-496.965-6.329-601.51c11.912-14.221,26.006-30.905,40.817-48.338
						c33.038,1.692,89.204-8.496,104.84-29.318C3881.57,658.659,3759.641,551.394,3724.049,569.294z" mask="url(#S)"/></g></mask><linearGradient id="U" x1="3446.943" x2="3446.943" y1="502.388" y2="1912.323" gradientUnits="userSpaceOnUse"><stop offset="0" stop-color="#784a90"/><stop offset="1" stop-color="#784a90"/></linearGradient><path fill="url(#U)" d="M3724.049,569.294c-23.65,11.896-13.176,69.755-3.482,107.259
				c-8.104,9.526-17.046,20.06-25.975,30.626c-6.17,7.3-12.273,14.549-18.146,21.548c-15.405-12.971-30.436-23.218-44.053-30.619
				c-24.317-13.215-61.813-31.155-106.426-42.794c1.989-6.181,4.03-12.498,6.102-18.896c31.188-11.03,79.229-41.863,85.746-67.073
				c9.163-35.447-144.451-88.129-170.531-58.011c-17.329,20.013,14.413,69.51,37.67,100.487
				c-3.421,10.545-7.158,22.111-10.904,33.768c-116.544-13.056-260.729,32.441-351.426,284.649
				c-58.808,163.526-77.757,285.406-77.076,378.477c-0.011,0.514-0.05,0.889-0.05,1.456c0,79.022-5.632,93.228-13.494,148.074
				c-5.289,36.894,53.727,10.483,53.727,10.483c1.118-0.473,1.764-2.342,2.083-5.133c11.884-1.404,23.948-1.124,32.488-0.825
				c17.753,0.623,35.609,4.562,49.676,14.59v0c2.48,1.769,4.811,3.775,7.045,5.922c0.885,0.869,1.792,1.705,2.629,2.641
				c0.754,0.826,1.467,1.708,2.18,2.591c1.721,2.169,3.395,4.404,4.859,6.92c1.585,2.721,2.965,5.527,4.223,8.378
				c0.447,1.013,0.811,2.057,1.217,3.084c0.733,1.851,1.438,3.713,2.044,5.609c0.408,1.281,0.765,2.577,1.116,3.876
				c0.459,1.688,0.877,3.385,1.242,5.1c0.299,1.405,0.58,2.813,0.818,4.234c4.435,26.48-1.595,55.626-13.892,81.502
				c-12.579-10.525-23.64-16.098-26.77-10.102c0,0-27.717,44.583-14.613,62.928c6.203,8.684,19.633,15.565,34.64,19.336
				c27.547,35.414,56.168,63.831,79.139,83.264c43.565,36.854,41.714,105.202,41.714,105.202
				c25.148,87.018,74.143,19.523,74.143,19.523c48.09-184.926,137.828-137.944,348.547-520.267
				c161.972-293.875,85.856-496.965-6.329-601.51c11.912-14.221,26.006-30.905,40.817-48.338
				c33.038,1.692,89.204-8.496,104.84-29.318C3881.57,658.659,3759.641,551.394,3724.049,569.294z"/></g><path fill="#7289b4" d="M3990.112,2024.366c-14.168-2.989-28.05,6.143-30.999,20.311
		c-0.327,1.556-33.772,156.192-143.052,167.985c-109.617,11.712-329.255-179.656-404.658-254.45
		c-0.867-0.859-1.835-1.54-2.785-2.254c4.91-23.088,8.975-38.447,8.975-38.447s-90.183-65.37-126.949-37.643
		c0,0-4.734,11.22-13.137,27.889c-546.502-80.386-1016.298-210.836-1021.117-212.18c-13.933-3.941-28.398,4.249-32.289,18.182
		c-3.9,13.933,4.238,28.398,18.182,32.289c4.781,1.338,466.274,129.51,1007.67,210.606c-21.429,33.967-49.783,69.956-81.334,86.679
		c0,0-96.646,4.875-160.416,96.729c-33.05,47.603-47.018,134.252-5.273,216.198c-113.086,77.73-369.135,272.599-581.072,571.912
		c-8.364,11.804-5.569,28.163,6.245,36.527c4.602,3.255,9.889,4.821,15.125,4.821c8.21,0,16.303-3.849,21.412-11.066
		c207.056-292.413,456.876-482.615,566.849-558.264c21.927,27.331,51.279,53.154,89.752,75.613
		c45.219,26.396,89.336,33.939,130.115,29.51c2.16,29.896,9.827,65.352,28.672,103.288
		c56.511,113.758,187.217,201.84,388.484,261.801c2.497,0.747,5.016,1.105,7.493,1.105c11.292,0,21.719-7.36,25.107-18.734
		c4.131-13.872-3.763-28.471-17.634-32.596c-183.249-54.597-306.293-135.349-355.816-233.516
		c-17.894-35.469-23.771-67.908-24.617-93.621c81.471-29.885,142.309-102.724,158.979-148.744
		c27.688-76.435-0.426-138.603-49.819-179.42c-25.898-21.401-23.146-88.354-14.679-147.219
		c71.214,67.288,274.892,247.891,409.372,247.891c5.027,0,9.962-0.256,14.783-0.778c146.773-15.837,187.099-201.513,188.742-209.406
		C4013.377,2041.196,4004.281,2027.314,3990.112,2024.366z"/><defs><filter id="V" width="1787.855" height="1274.933" x="2223.125" y="1694.587" filterUnits="userSpaceOnUse"><feFlood flood-color="#fff" flood-opacity="1" result="back"/><feBlend in="SourceGraphic" in2="back"/></filter></defs><mask id="X" width="1787.855" height="1274.933" x="2223.125" y="1694.587" maskUnits="userSpaceOnUse"><g filter="url(#V)"><defs><filter id="W" width="1787.855" height="1274.933" x="2223.125" y="1694.587" filterUnits="userSpaceOnUse"><feFlood flood-color="#fff" flood-opacity="1" result="back"/><feBlend in="SourceGraphic" in2="back"/></filter></defs><linearGradient id="Y" x1="2223.125" x2="4010.981" y1="2332.054" y2="2332.054" gradientUnits="userSpaceOnUse"><stop offset="0" stop-color="#fff"/><stop offset="1"/></linearGradient><path fill="url(#Y)" d="M3990.112,2024.366c-14.168-2.989-28.05,6.143-30.999,20.311
				c-0.327,1.556-33.772,156.192-143.052,167.985c-109.617,11.712-329.255-179.656-404.658-254.45
				c-0.867-0.859-1.835-1.54-2.785-2.254c4.91-23.088,8.975-38.447,8.975-38.447s-90.183-65.37-126.949-37.643
				c0,0-4.734,11.22-13.137,27.889c-546.502-80.386-1016.298-210.836-1021.117-212.18c-13.933-3.941-28.398,4.249-32.289,18.182
				c-3.9,13.933,4.238,28.398,18.182,32.289c4.781,1.338,466.274,129.51,1007.67,210.606
				c-21.429,33.967-49.783,69.956-81.334,86.679c0,0-96.646,4.875-160.416,96.729c-33.05,47.603-47.018,134.252-5.273,216.198
				c-113.086,77.73-369.135,272.599-581.072,571.912c-8.364,11.804-5.569,28.163,6.245,36.527c4.602,3.255,9.889,4.821,15.125,4.821
				c8.21,0,16.303-3.849,21.412-11.066c207.056-292.413,456.876-482.615,566.849-558.264c21.927,27.331,51.279,53.154,89.752,75.613
				c45.219,26.396,89.336,33.939,130.115,29.51c2.16,29.896,9.827,65.352,28.672,103.288
				c56.511,113.758,187.217,201.84,388.484,261.801c2.497,0.747,5.016,1.105,7.493,1.105c11.292,0,21.719-7.36,25.107-18.734
				c4.131-13.872-3.763-28.471-17.634-32.596c-183.249-54.597-306.293-135.349-355.816-233.516
				c-17.894-35.469-23.771-67.908-24.617-93.621c81.471-29.885,142.309-102.724,158.979-148.744
				c27.688-76.435-0.426-138.603-49.819-179.42c-25.898-21.401-23.146-88.354-14.679-147.219
				c71.214,67.288,274.892,247.891,409.372,247.891c5.027,0,9.962-0.256,14.783-0.778
				c146.773-15.837,187.099-201.513,188.742-209.406C4013.377,2041.196,4004.281,2027.314,3990.112,2024.366z" mask="url(#X)"/></g></mask><linearGradient id="Z" x1="2223.125" x2="4010.981" y1="2332.054" y2="2332.054" gradientUnits="userSpaceOnUse"><stop offset="0" stop-color="#784a90"/><stop offset="1" stop-color="#784a90"/></linearGradient><path fill="url(#Z)" d="M3990.112,2024.366c-14.168-2.989-28.05,6.143-30.999,20.311
		c-0.327,1.556-33.772,156.192-143.052,167.985c-109.617,11.712-329.255-179.656-404.658-254.45
		c-0.867-0.859-1.835-1.54-2.785-2.254c4.91-23.088,8.975-38.447,8.975-38.447s-90.183-65.37-126.949-37.643
		c0,0-4.734,11.22-13.137,27.889c-546.502-80.386-1016.298-210.836-1021.117-212.18c-13.933-3.941-28.398,4.249-32.289,18.182
		c-3.9,13.933,4.238,28.398,18.182,32.289c4.781,1.338,466.274,129.51,1007.67,210.606c-21.429,33.967-49.783,69.956-81.334,86.679
		c0,0-96.646,4.875-160.416,96.729c-33.05,47.603-47.018,134.252-5.273,216.198c-113.086,77.73-369.135,272.599-581.072,571.912
		c-8.364,11.804-5.569,28.163,6.245,36.527c4.602,3.255,9.889,4.821,15.125,4.821c8.21,0,16.303-3.849,21.412-11.066
		c207.056-292.413,456.876-482.615,566.849-558.264c21.927,27.331,51.279,53.154,89.752,75.613
		c45.219,26.396,89.336,33.939,130.115,29.51c2.16,29.896,9.827,65.352,28.672,103.288
		c56.511,113.758,187.217,201.84,388.484,261.801c2.497,0.747,5.016,1.105,7.493,1.105c11.292,0,21.719-7.36,25.107-18.734
		c4.131-13.872-3.763-28.471-17.634-32.596c-183.249-54.597-306.293-135.349-355.816-233.516
		c-17.894-35.469-23.771-67.908-24.617-93.621c81.471-29.885,142.309-102.724,158.979-148.744
		c27.688-76.435-0.426-138.603-49.819-179.42c-25.898-21.401-23.146-88.354-14.679-147.219
		c71.214,67.288,274.892,247.891,409.372,247.891c5.027,0,9.962-0.256,14.783-0.778c146.773-15.837,187.099-201.513,188.742-209.406
		C4013.377,2041.196,4004.281,2027.314,3990.112,2024.366z" opacity=".5"/><defs><filter id="aa" width="135.222" height="36.564" x="3277.507" y="1888.619" filterUnits="userSpaceOnUse"><feFlood flood-color="#fff" flood-opacity="1" result="back"/><feBlend in="SourceGraphic" in2="back"/></filter></defs><mask id="ac" width="135.222" height="36.564" x="3277.507" y="1888.619" maskUnits="userSpaceOnUse"><g filter="url(#aa)"><defs><filter id="ab" width="135.222" height="36.564" x="3277.507" y="1888.619" filterUnits="userSpaceOnUse"><feFlood flood-color="#fff" flood-opacity="1" result="back"/><feBlend in="SourceGraphic" in2="back"/></filter></defs><linearGradient id="ad" x1="3277.507" x2="3412.729" y1="1906.901" y2="1906.901" gradientUnits="userSpaceOnUse"><stop offset="0" stop-color="#fff"/><stop offset="1"/></linearGradient><path fill="url(#ad)" d="M3286.238,1889.701l-8.731,18.057c0,0,127.712,24.747,134.935,15.26
				C3419.665,1913.531,3288.219,1882.468,3286.238,1889.701z" mask="url(#ac)"/></g></mask><linearGradient id="ae" x1="3277.507" x2="3412.729" y1="1906.901" y2="1906.901" gradientUnits="userSpaceOnUse"><stop offset="0" stop-color="#845e9c"/><stop offset="1" stop-color="#845e9c"/></linearGradient><path fill="url(#ae)" d="M3286.238,1889.701l-8.731,18.057c0,0,127.712,24.747,134.935,15.26
		C3419.665,1913.531,3288.219,1882.468,3286.238,1889.701z" opacity=".5"/><defs><filter id="af" width="328.505" height="385.518" x="3113.836" y="845.606" filterUnits="userSpaceOnUse"><feFlood flood-color="#fff" flood-opacity="1" result="back"/><feBlend in="SourceGraphic" in2="back"/></filter></defs><mask id="ah" width="328.505" height="385.518" x="3113.836" y="845.606" maskUnits="userSpaceOnUse"><g filter="url(#af)"><defs><filter id="ag" width="328.505" height="385.518" x="3113.836" y="845.606" filterUnits="userSpaceOnUse"><feFlood flood-color="#fff" flood-opacity="1" result="back"/><feBlend in="SourceGraphic" in2="back"/></filter></defs><linearGradient id="ai" x1="3278.088" x2="3278.088" y1="845.606" y2="1231.124" gradientUnits="userSpaceOnUse"><stop offset="0" stop-color="#fff"/><stop offset="1"/></linearGradient><path fill="url(#ai)" d="M3115.816,1181.025c1.315-5.061,19.365-212.292,126.882-302.704
				c107.517-90.413,198.678,27.75,199.616,99.052c0.938,71.302-23.105,108.095-92.591,148.597s-151.119,75.661-172.011,95.677
				C3156.82,1241.663,3102.873,1230.82,3115.816,1181.025z" mask="url(#ah)"/></g></mask><linearGradient id="aj" x1="3278.088" x2="3278.088" y1="845.606" y2="1231.124" gradientUnits="userSpaceOnUse"><stop offset="0" stop-color="#845e9c"/><stop offset="1" stop-color="#845e9c"/></linearGradient><path fill="url(#aj)" d="M3115.816,1181.025c1.315-5.061,19.365-212.292,126.882-302.704
		c107.517-90.413,198.678,27.75,199.616,99.052c0.938,71.302-23.105,108.095-92.591,148.597s-151.119,75.661-172.011,95.677
		C3156.82,1241.663,3102.873,1230.82,3115.816,1181.025z" opacity=".5"/><path fill="#4f5a83" d="M3263.635,1889.146c-13.138-3.896-21.158-17.378-18.081-30.924
			c3.208-14.115,17.245-22.958,31.362-19.755l147.139,33.431c14.184,3.319,22.949,17.258,19.749,31.366
			c-3.208,14.115-17.245,22.958-31.362,19.755l-147.139-33.431C3264.739,1889.452,3264.18,1889.307,3263.635,1889.146z"/><path fill="#4e5d78" d="M2463.244,2995.921c0,0,47.222-82.591,66.892-102.835c19.669-20.244,0.078-23.189-21.87-43.286
			s-33.257-38.525-45.23-18.617c-11.973,19.908-84.221,133.759-106.101,134.489c-39.256,1.311-162.215,38.602-180.777,83.864
			c-12.007,29.276,183.46,3.691,234.97,11.668C2462.637,3069.181,2463.244,2995.921,2463.244,2995.921z"/><path fill="#4e5d78" d="M3763.323,2848.808c0,0-87.008-38.479-109.168-55.964c-22.159-17.484-23.074,2.307-40.808,26.205
			c-17.733,23.897-34.902,37.041-13.868,46.904c21.033,9.863,121.867,60.261,123.571,82.086
			c2.779,35.602-129.262,84.746-86.328,108.197c75.014,40.972,196.966-90.067,196.896-162.3
			C3833.568,2841.813,3763.323,2848.808,3763.323,2848.808z"/><path fill="#354157" d="M3116.644,1165.371c1.393-7.738,54.364-264.366,168.841-285.005
		c132.53-23.895,229.861,167.729,34.178,262.339C3245.049,1178.778,3085.402,1338.993,3116.644,1165.371z"/><path fill="#7d2d4e" d="M3187.512,1385.91c0,0,79.051-58.047,117.548-132.084c18.839-36.23,57.429,97.429,15.229,226.697
		c-35.099,107.515-183.432,204.461-166.873,142.334c16.405-61.553-7.075-116.927-32.249-135.561
		C3095.991,1468.662,3187.512,1385.91,3187.512,1385.91z"/><defs><filter id="ak" width="222.502" height="394.548" x="3116.784" y="1247.799" filterUnits="userSpaceOnUse"><feFlood flood-color="#fff" flood-opacity="1" result="back"/><feBlend in="SourceGraphic" in2="back"/></filter></defs><mask id="am" width="222.502" height="394.548" x="3116.784" y="1247.799" maskUnits="userSpaceOnUse"><g filter="url(#ak)"><defs><filter id="al" width="222.502" height="394.548" x="3116.784" y="1247.799" filterUnits="userSpaceOnUse"><feFlood flood-color="#fff" flood-opacity="1" result="back"/><feBlend in="SourceGraphic" in2="back"/></filter></defs><linearGradient id="an" x1="3228.035" x2="3228.035" y1="1247.799" y2="1642.347" gradientUnits="userSpaceOnUse"><stop offset="0" stop-color="#fff"/><stop offset="1"/></linearGradient><path fill="url(#an)" d="M3187.512,1385.91c0,0,79.051-58.047,117.548-132.084
				c18.839-36.23,57.429,97.429,15.229,226.697c-35.099,107.515-183.432,204.461-166.873,142.334
				c16.405-61.553-7.075-116.927-32.249-135.561C3095.991,1468.662,3187.512,1385.91,3187.512,1385.91z" mask="url(#am)"/></g></mask><linearGradient id="ao" x1="3228.035" x2="3228.035" y1="1247.799" y2="1642.347" gradientUnits="userSpaceOnUse"><stop offset="0" stop-color="#5f418b"/><stop offset="1" stop-color="#5f418b"/></linearGradient><path fill="url(#ao)" d="M3187.512,1385.91c0,0,79.051-58.047,117.548-132.084
		c18.839-36.23,57.429,97.429,15.229,226.697c-35.099,107.515-183.432,204.461-166.873,142.334
		c16.405-61.553-7.075-116.927-32.249-135.561C3095.991,1468.662,3187.512,1385.91,3187.512,1385.91z"/><path fill="#e4e8eb" d="M3070.71,1462.534c0,0,34.303,85.102,60.511,72.871c26.207-12.23,0-78.088,0-78.088
		s52.928,70.611,63.271,33.92s-10.466-74.924-10.466-74.924s52.534,55.134,67.35,16.696c14.814-38.438-21.883-83.258-21.883-83.258
		S3158.07,1420.245,3070.71,1462.534z"/><path fill="#4e5d78" d="M2239.252,1619.177c0,0-167.99-104.432-201.907-125.522c-61.642-38.329-77.302,19.823-33.972,53.66
			c0,0-49.531-36.567-68.191-22.229c-18.661,14.338-23.455,49.167-9.912,62.349s102.878,67.963,142.906,82.072
			c0,0,37.217,24.764-109.02-13.098c-58.409-15.122-46.828,35.139-16.538,51.436c30.291,16.297,198.135,96.939,320.791,82.433
			c0,0,276.837,116.799,297.328,92.62s60.989-184.587,44.869-198.248c-16.119-13.661-316.979-44.294-316.979-44.294
			s-54.712-92.813-72.48-133.438c-17.769-40.625-44.882-31.007-48.955-9.105c-4.073,21.901,6.087,89.101,40.183,120.767
			L2239.252,1619.177z"/><path fill="#4e5d78" d="M4002.723,2007.987c0,0-72.154-127.393-144.308-163.509c-72.153-36.116-24.052-72.193,9.62-64.978
		s96.205,74.638,108.23,64.978c12.026-9.66-71.223-206.88-64.473-252.577c6.75-45.698,81.31-11.852,90.93,49.392
		c9.621,61.244,19.24,123.777,31.267,126.182c12.025,2.405-3.805-181.827,12.627-196.717c52.312-47.403,52.312,62.03,54.716,86.081
		c0,0,13.947-41.787,31.268-40.887c57.828,3.006,38.481,271.779-81.774,392.035H4002.723z"/><path fill="#4e5d78" d="M3977.604,1968.033c0,0-28.396,121.729-140.234,219.136c0,0,41.488,64.938,95.604,97.407
		c54.115,32.469,136.992-298.046,136.992-298.046L3977.604,1968.033z"/><defs><filter id="ap" width="317.718" height="366.37" x="3112.643" y="878.322" filterUnits="userSpaceOnUse"><feFlood flood-color="#fff" flood-opacity="1" result="back"/><feBlend in="SourceGraphic" in2="back"/></filter></defs><mask id="ar" width="317.718" height="366.37" x="3112.643" y="878.322" maskUnits="userSpaceOnUse"><g filter="url(#ap)"><defs><filter id="aq" width="317.718" height="366.37" x="3112.643" y="878.322" filterUnits="userSpaceOnUse"><feFlood flood-color="#fff" flood-opacity="1" result="back"/><feBlend in="SourceGraphic" in2="back"/></filter></defs><linearGradient id="as" x1="3271.502" x2="3271.502" y1="1244.692" y2="878.322" gradientUnits="userSpaceOnUse"><stop offset="0" stop-color="#fff"/><stop offset="1"/></linearGradient><path fill="url(#as)" d="M3116.644,1165.371c1.393-7.738,54.364-264.366,168.841-285.005
				c132.53-23.895,229.861,167.729,34.178,262.339C3245.049,1178.778,3085.402,1338.993,3116.644,1165.371z" mask="url(#ar)"/></g></mask><linearGradient id="at" x1="3271.502" x2="3271.502" y1="1244.692" y2="878.322" gradientUnits="userSpaceOnUse"><stop offset="0" stop-color="#5f418b"/><stop offset="1" stop-color="#5f418b"/></linearGradient><path fill="url(#at)" d="M3116.644,1165.371c1.393-7.738,54.364-264.366,168.841-285.005
		c132.53-23.895,229.861,167.729,34.178,262.339C3245.049,1178.778,3085.402,1338.993,3116.644,1165.371z"/><defs><filter id="au" width="161.716" height="251.418" x="3242.697" y="892.095" filterUnits="userSpaceOnUse"><feFlood flood-color="#fff" flood-opacity="1" result="back"/><feBlend in="SourceGraphic" in2="back"/></filter></defs><mask id="aw" width="161.716" height="251.418" x="3242.697" y="892.095" maskUnits="userSpaceOnUse"><g filter="url(#au)"><defs><filter id="av" width="161.716" height="251.418" x="3242.697" y="892.095" filterUnits="userSpaceOnUse"><feFlood flood-color="#fff" flood-opacity="1" result="back"/><feBlend in="SourceGraphic" in2="back"/></filter></defs><linearGradient id="ax" x1="3323.555" x2="3323.555" y1="892.095" y2="1143.513" gradientUnits="userSpaceOnUse"><stop offset="0" stop-color="#fff"/><stop offset="1"/></linearGradient><path fill="url(#ax)" d="M3344.68,1100.218c0,0,70.233-43.421,58.388-116.188
				c-11.847-72.767-57.657-94.348-93.475-91.727c-35.817,2.621-82.118,43.68-62.025,66.393s76.876,19.219,60.278,61.151
				c-16.599,41.933-70.88,91.738-46.064,117.062C3286.598,1162.232,3335.262,1107.046,3344.68,1100.218z" mask="url(#aw)"/></g></mask><linearGradient id="ay" x1="3323.555" x2="3323.555" y1="892.095" y2="1143.513" gradientUnits="userSpaceOnUse"><stop offset="0" stop-color="#5f418b"/><stop offset="1" stop-color="#5f418b"/></linearGradient><path fill="url(#ay)" d="M3344.68,1100.218c0,0,70.233-43.421,58.388-116.188
		c-11.847-72.767-57.657-94.348-93.475-91.727c-35.817,2.621-82.118,43.68-62.025,66.393s76.876,19.219,60.278,61.151
		c-16.599,41.933-70.88,91.738-46.064,117.062C3286.598,1162.232,3335.262,1107.046,3344.68,1100.218z" opacity=".4"/><defs><filter id="az" width="95.489" height="135.875" x="3288.603" y="909.437" filterUnits="userSpaceOnUse"><feFlood flood-color="#fff" flood-opacity="1" result="back"/><feBlend in="SourceGraphic" in2="back"/></filter></defs><mask id="aB" width="95.489" height="135.875" x="3288.603" y="909.437" maskUnits="userSpaceOnUse"><g filter="url(#az)"><defs><filter id="aA" width="95.489" height="135.875" x="3288.603" y="909.437" filterUnits="userSpaceOnUse"><feFlood flood-color="#fff" flood-opacity="1" result="back"/><feBlend in="SourceGraphic" in2="back"/></filter></defs><linearGradient id="aC" x1="3336.348" x2="3336.348" y1="1045.312" y2="909.437" gradientUnits="userSpaceOnUse"><stop offset="0" stop-color="#fff"/><stop offset="1"/></linearGradient><path fill="url(#aC)" d="M3310.903,909.775c0,0,27.518-2.621,47.174,16.38
				c19.655,19,28.173,48.484,25.552,75.347c-2.62,26.863-25.744,53.07-36.131,40.622c-10.388-12.448,13.199-66.174-16.939-79.934
				C3300.42,948.432,3264.385,905.189,3310.903,909.775z" mask="url(#aB)"/></g></mask><linearGradient id="aD" x1="3336.348" x2="3336.348" y1="1045.312" y2="909.437" gradientUnits="userSpaceOnUse"><stop offset="0" stop-color="#5f418b"/><stop offset="1" stop-color="#5f418b"/></linearGradient><path fill="url(#aD)" d="M3310.903,909.775c0,0,27.518-2.621,47.174,16.38
		c19.655,19,28.173,48.484,25.552,75.347c-2.62,26.863-25.744,53.07-36.131,40.622c-10.388-12.448,13.199-66.174-16.939-79.934
		C3300.42,948.432,3264.385,905.189,3310.903,909.775z" opacity=".9"/><defs><filter id="aE" width="475.104" height="181.737" x="3227.796" y="662.549" filterUnits="userSpaceOnUse"><feFlood flood-color="#fff" flood-opacity="1" result="back"/><feBlend in="SourceGraphic" in2="back"/></filter></defs><mask id="aG" width="475.104" height="181.737" x="3227.796" y="662.549" maskUnits="userSpaceOnUse"><g filter="url(#aE)"><defs><filter id="aF" width="475.104" height="181.737" x="3227.796" y="662.549" filterUnits="userSpaceOnUse"><feFlood flood-color="#fff" flood-opacity="1" result="back"/><feBlend in="SourceGraphic" in2="back"/></filter></defs><linearGradient id="aH" x1="3465.348" x2="3465.348" y1="662.549" y2="844.286" gradientUnits="userSpaceOnUse"><stop offset="0" stop-color="#fff"/><stop offset="1"/></linearGradient><path fill="url(#aH)" d="M3558.566,767.38c0,0-79.497-38.438-161.615,0
				c-82.117,38.438-174.472,111.819-168.916,57.657c5.555-54.163,72.854-162.534,197.745-162.488s240.237,52.416,272.561,133.66
				C3730.664,877.452,3581.302,775.646,3558.566,767.38z" mask="url(#aG)"/></g></mask><linearGradient id="aI" x1="3465.348" x2="3465.348" y1="662.549" y2="844.286" gradientUnits="userSpaceOnUse"><stop offset="0" stop-color="#784a90"/><stop offset="1" stop-color="#784a90"/></linearGradient><path fill="url(#aI)" d="M3558.566,767.38c0,0-79.497-38.438-161.615,0
		c-82.117,38.438-174.472,111.819-168.916,57.657c5.555-54.163,72.854-162.534,197.745-162.488s240.237,52.416,272.561,133.66
		C3730.664,877.452,3581.302,775.646,3558.566,767.38z"/><defs><filter id="aJ" width="160.29" height="244.403" x="3048.612" y="1198.792" filterUnits="userSpaceOnUse"><feFlood flood-color="#fff" flood-opacity="1" result="back"/><feBlend in="SourceGraphic" in2="back"/></filter></defs><mask id="aL" width="160.29" height="244.403" x="3048.612" y="1198.792" maskUnits="userSpaceOnUse"><g filter="url(#aJ)"><defs><filter id="aK" width="160.29" height="244.403" x="3048.612" y="1198.792" filterUnits="userSpaceOnUse"><feFlood flood-color="#fff" flood-opacity="1" result="back"/><feBlend in="SourceGraphic" in2="back"/></filter></defs><linearGradient id="aM" x1="3128.758" x2="3128.758" y1="1198.792" y2="1443.194" gradientUnits="userSpaceOnUse"><stop offset="0" stop-color="#fff"/><stop offset="1"/></linearGradient><path fill="url(#aM)" d="M3076.344,1207.355c-2.41,8.821-17.035,47.051-15.725,91.604
				s-20.966,145.608-7.862,144.22c13.104-1.388,162.488-107.529,155.937-142.91c-6.553-35.38-69.814,10.483-91.909-26.208
				C3094.689,1237.372,3084.857,1176.194,3076.344,1207.355z" mask="url(#aL)"/></g></mask><linearGradient id="aN" x1="3128.758" x2="3128.758" y1="1198.792" y2="1443.194" gradientUnits="userSpaceOnUse"><stop offset="0" stop-color="#784a90"/><stop offset="1" stop-color="#784a90"/></linearGradient><path fill="url(#aN)" d="M3076.344,1207.355c-2.41,8.821-17.035,47.051-15.725,91.604s-20.966,145.608-7.862,144.22
		c13.104-1.388,162.488-107.529,155.937-142.91c-6.553-35.38-69.814,10.483-91.909-26.208
		C3094.689,1237.372,3084.857,1176.194,3076.344,1207.355z"/><defs><filter id="aO" width="195.717" height="116.642" x="3233.591" y="1126.394" filterUnits="userSpaceOnUse"><feFlood flood-color="#fff" flood-opacity="1" result="back"/><feBlend in="SourceGraphic" in2="back"/></filter></defs><mask id="aQ" width="195.717" height="116.642" x="3233.591" y="1126.394" maskUnits="userSpaceOnUse"><g filter="url(#aO)"><defs><filter id="aP" width="195.717" height="116.642" x="3233.591" y="1126.394" filterUnits="userSpaceOnUse"><feFlood flood-color="#fff" flood-opacity="1" result="back"/><feBlend in="SourceGraphic" in2="back"/></filter></defs><linearGradient id="aR" x1="3331.449" x2="3331.449" y1="1126.394" y2="1243.036" gradientUnits="userSpaceOnUse"><stop offset="0" stop-color="#fff"/><stop offset="1"/></linearGradient><path fill="url(#aR)" d="M3242.698,1221.647c0,0,30.204-48.817,87.86-78.135
				c57.657-29.317,115.314-20.272,94.348,21.724c-20.966,41.996-96.969,28.892-119.245,49.858S3207.678,1262.439,3242.698,1221.647z
				" mask="url(#aQ)"/></g></mask><linearGradient id="aS" x1="3331.449" x2="3331.449" y1="1126.394" y2="1243.036" gradientUnits="userSpaceOnUse"><stop offset="0" stop-color="#784a90"/><stop offset="1" stop-color="#784a90"/></linearGradient><path fill="url(#aS)" d="M3242.698,1221.647c0,0,30.204-48.817,87.86-78.135
		c57.657-29.317,115.314-20.272,94.348,21.724c-20.966,41.996-96.969,28.892-119.245,49.858S3207.678,1262.439,3242.698,1221.647z"/><defs><filter id="aT" width="58.02" height="43.5" x="3474.049" y="611.814" filterUnits="userSpaceOnUse"><feFlood flood-color="#fff" flood-opacity="1" result="back"/><feBlend in="SourceGraphic" in2="back"/></filter></defs><mask id="aV" width="58.02" height="43.5" x="3474.049" y="611.814" maskUnits="userSpaceOnUse"><g filter="url(#aT)"><defs><filter id="aU" width="58.02" height="43.5" x="3474.049" y="611.814" filterUnits="userSpaceOnUse"><feFlood flood-color="#fff" flood-opacity="1" result="back"/><feBlend in="SourceGraphic" in2="back"/></filter></defs><linearGradient id="aW" x1="3503.059" x2="3503.059" y1="611.814" y2="655.314" gradientUnits="userSpaceOnUse"><stop offset="0" stop-color="#fff"/><stop offset="1"/></linearGradient><path fill="url(#aW)" d="M3474.049,645.59l51.918,9.725l6.102-18.896
				c0,0-36.863-25.093-47.115-24.597L3474.049,645.59z" mask="url(#aV)"/></g></mask><linearGradient id="aX" x1="3503.059" x2="3503.059" y1="611.814" y2="655.314" gradientUnits="userSpaceOnUse"><stop offset="0" stop-color="#845e9c"/><stop offset="1" stop-color="#845e9c"/></linearGradient><path fill="url(#aX)" d="M3474.049,645.59l51.918,9.725l6.102-18.896c0,0-36.863-25.093-47.115-24.597
		L3474.049,645.59z" opacity=".5"/><defs><filter id="aY" width="78.3" height="89.039" x="3676.445" y="676.553" filterUnits="userSpaceOnUse"><feFlood flood-color="#fff" flood-opacity="1" result="back"/><feBlend in="SourceGraphic" in2="back"/></filter></defs><mask id="ba" width="78.3" height="89.039" x="3676.445" y="676.553" maskUnits="userSpaceOnUse"><g filter="url(#aY)"><defs><filter id="aZ" width="78.3" height="89.039" x="3676.445" y="676.553" filterUnits="userSpaceOnUse"><feFlood flood-color="#fff" flood-opacity="1" result="back"/><feBlend in="SourceGraphic" in2="back"/></filter></defs><linearGradient id="bb" x1="3715.596" x2="3715.596" y1="676.553" y2="765.592" gradientUnits="userSpaceOnUse"><stop offset="0" stop-color="#fff"/><stop offset="1"/></linearGradient><polygon fill="url(#bb)" points="3676.445 728.728 3720.566 676.553 3754.745 717.254 3713.928 765.592" mask="url(#ba)"/></g></mask><linearGradient id="bc" x1="3715.596" x2="3715.596" y1="676.553" y2="765.592" gradientUnits="userSpaceOnUse"><stop offset="0" stop-color="#845e9c"/><stop offset="1" stop-color="#845e9c"/></linearGradient><polygon fill="url(#bc)" points="3676.445 728.728 3720.566 676.553 3754.745 717.254 3713.928 765.592" opacity=".5"/><defs><filter id="bd" width="103.896" height="103.005" x="3739.381" y="581.147" filterUnits="userSpaceOnUse"><feFlood flood-color="#fff" flood-opacity="1" result="back"/><feBlend in="SourceGraphic" in2="back"/></filter></defs><mask id="bf" width="103.896" height="103.005" x="3739.381" y="581.147" maskUnits="userSpaceOnUse"><g filter="url(#bd)"><defs><filter id="be" width="103.896" height="103.005" x="3739.381" y="581.147" filterUnits="userSpaceOnUse"><feFlood flood-color="#fff" flood-opacity="1" result="back"/><feBlend in="SourceGraphic" in2="back"/></filter></defs><linearGradient id="bg" x1="3791.328" x2="3791.328" y1="581.147" y2="684.152" gradientUnits="userSpaceOnUse"><stop offset="0" stop-color="#fff"/><stop offset="1"/></linearGradient><path fill="url(#bg)" d="M3747.262,583.489c0,0,86.493,44.744,94.348,79.06
				c7.854,34.316-13.104,22.713-40.622,0C3773.47,639.835,3719.074,567.268,3747.262,583.489z" mask="url(#bf)"/></g></mask><linearGradient id="bh" x1="3791.328" x2="3791.328" y1="581.147" y2="684.152" gradientUnits="userSpaceOnUse"><stop offset="0" stop-color="#784a90"/><stop offset="1" stop-color="#784a90"/></linearGradient><path fill="url(#bh)" d="M3747.262,583.489c0,0,86.493,44.744,94.348,79.06c7.854,34.316-13.104,22.713-40.622,0
		C3773.47,639.835,3719.074,567.268,3747.262,583.489z"/><defs><filter id="bi" width="142.684" height="51.963" x="3463.313" y="512.604" filterUnits="userSpaceOnUse"><feFlood flood-color="#fff" flood-opacity="1" result="back"/><feBlend in="SourceGraphic" in2="back"/></filter></defs><mask id="bk" width="142.684" height="51.963" x="3463.313" y="512.604" maskUnits="userSpaceOnUse"><g filter="url(#bi)"><defs><filter id="bj" width="142.684" height="51.963" x="3463.313" y="512.604" filterUnits="userSpaceOnUse"><feFlood flood-color="#fff" flood-opacity="1" result="back"/><feBlend in="SourceGraphic" in2="back"/></filter></defs><linearGradient id="bl" x1="3534.655" x2="3534.655" y1="512.604" y2="564.567" gradientUnits="userSpaceOnUse"><stop offset="0" stop-color="#fff"/><stop offset="1"/></linearGradient><path fill="url(#bl)" d="M3599.188,553.35c-3.107-2.741-73.481-39.229-112.692-40.622
				c-39.212-1.393-23.587,9.173,9.173,20.311S3633.537,583.653,3599.188,553.35z" mask="url(#bk)"/></g></mask><linearGradient id="bm" x1="3534.655" x2="3534.655" y1="512.604" y2="564.567" gradientUnits="userSpaceOnUse"><stop offset="0" stop-color="#784a90"/><stop offset="1" stop-color="#784a90"/></linearGradient><path fill="url(#bm)" d="M3599.188,553.35c-3.107-2.741-73.481-39.229-112.692-40.622
		c-39.212-1.393-23.587,9.173,9.173,20.311S3633.537,583.653,3599.188,553.35z"/><defs><filter id="bn" width="171.395" height="135.017" x="3070.71" y="1349.751" filterUnits="userSpaceOnUse"><feFlood flood-color="#fff" flood-opacity="1" result="back"/><feBlend in="SourceGraphic" in2="back"/></filter></defs><mask id="bp" width="171.395" height="135.017" x="3070.71" y="1349.751" maskUnits="userSpaceOnUse"><g filter="url(#bn)"><defs><filter id="bo" width="171.395" height="135.017" x="3070.71" y="1349.751" filterUnits="userSpaceOnUse"><feFlood flood-color="#fff" flood-opacity="1" result="back"/><feBlend in="SourceGraphic" in2="back"/></filter></defs><linearGradient id="bq" x1="3156.407" x2="3156.407" y1="1349.752" y2="1484.768" gradientUnits="userSpaceOnUse"><stop offset="0" stop-color="#fff"/><stop offset="1"/></linearGradient><path fill="url(#bq)" d="M3242.104,1369.23c-6.32-11.73-12.612-19.479-12.612-19.479
				s-71.422,70.493-158.782,112.783c0,0,3.985,9.812,10.199,22.234C3119.288,1459.02,3198.477,1405.032,3242.104,1369.23z" mask="url(#bp)"/></g></mask><linearGradient id="br" x1="3156.407" x2="3156.407" y1="1349.752" y2="1484.768" gradientUnits="userSpaceOnUse"><stop offset="0" stop-color="#5f418b"/><stop offset="1" stop-color="#5f418b"/></linearGradient><path fill="url(#br)" d="M3242.104,1369.23c-6.32-11.73-12.612-19.479-12.612-19.479
		s-71.422,70.493-158.782,112.783c0,0,3.985,9.812,10.199,22.234C3119.288,1459.02,3198.477,1405.032,3242.104,1369.23z" opacity=".7"/><defs><filter id="bs" width="139.06" height="111.114" x="3148.631" y="1555.76" filterUnits="userSpaceOnUse"><feFlood flood-color="#fff" flood-opacity="1" result="back"/><feBlend in="SourceGraphic" in2="back"/></filter></defs><mask id="bu" width="139.06" height="111.114" x="3148.631" y="1555.76" maskUnits="userSpaceOnUse"><g filter="url(#bs)"><defs><filter id="bt" width="139.06" height="111.114" x="3148.631" y="1555.76" filterUnits="userSpaceOnUse"><feFlood flood-color="#fff" flood-opacity="1" result="back"/><feBlend in="SourceGraphic" in2="back"/></filter></defs><linearGradient id="bv" x1="3218.16" x2="3218.16" y1="1666.874" y2="1555.76" gradientUnits="userSpaceOnUse"><stop offset="0" stop-color="#fff"/><stop offset="1"/></linearGradient><path fill="url(#bv)" d="M3282.074,1558.417c0,0-68.14,77.193-100.244,85.115
				c-32.104,7.922-41.673,9.233-25.423,19.061s35.388,1.311,62.837-11.138C3246.694,1639.005,3306.151,1538.261,3282.074,1558.417z" mask="url(#bu)"/></g></mask><linearGradient id="bw" x1="3218.16" x2="3218.16" y1="1666.874" y2="1555.76" gradientUnits="userSpaceOnUse"><stop offset="0" stop-color="#784a90"/><stop offset="1" stop-color="#784a90"/></linearGradient><path fill="url(#bw)" d="M3282.074,1558.417c0,0-68.14,77.193-100.244,85.115
		c-32.104,7.922-41.673,9.233-25.423,19.061s35.388,1.311,62.837-11.138C3246.694,1639.005,3306.151,1538.261,3282.074,1558.417z"/><defs><filter id="bx" width="161.92" height="180.145" x="3287.785" y="1456.829" filterUnits="userSpaceOnUse"><feFlood flood-color="#fff" flood-opacity="1" result="back"/><feBlend in="SourceGraphic" in2="back"/></filter></defs><mask id="bz" width="161.92" height="180.145" x="3287.785" y="1456.829" maskUnits="userSpaceOnUse"><g filter="url(#bx)"><defs><filter id="by" width="161.92" height="180.145" x="3287.785" y="1456.829" filterUnits="userSpaceOnUse"><feFlood flood-color="#fff" flood-opacity="1" result="back"/><feBlend in="SourceGraphic" in2="back"/></filter></defs><linearGradient id="bA" x1="3368.745" x2="3368.745" y1="1636.973" y2="1456.829" gradientUnits="userSpaceOnUse"><stop offset="0" stop-color="#fff"/><stop offset="1"/></linearGradient><path fill="url(#bA)" d="M3287.785,1542.659c0,0,25.812,10.589,37.532,22.31
				c27.519,27.518,72.485,119.245,106.142,41.277c33.655-77.968,18.345-147.418-26.208-149.384
				C3360.697,1454.896,3287.785,1542.659,3287.785,1542.659z" mask="url(#bz)"/></g></mask><linearGradient id="bB" x1="3368.745" x2="3368.745" y1="1636.973" y2="1456.829" gradientUnits="userSpaceOnUse"><stop offset="0" stop-color="#5f418b"/><stop offset="1" stop-color="#5f418b"/></linearGradient><path fill="url(#bB)" d="M3287.785,1542.659c0,0,25.812,10.589,37.532,22.31
		c27.519,27.518,72.485,119.245,106.142,41.277c33.655-77.968,18.345-147.418-26.208-149.384
		C3360.697,1454.896,3287.785,1542.659,3287.785,1542.659z" opacity=".4"/><path fill="#a73968" d="M3265.252,1527.469c0,0,9.032-31.222,22.534-46.291c13.501-15.069,1.036-32.231,23.984-47.174
		c22.949-14.943,128.418-48.484,170.351,0s-2.382,127.107-51.968,121.21c-49.587-5.896-126.427-17.913-150.924-12.555
		C3256.485,1547.635,3260.994,1539.976,3265.252,1527.469z"/><path fill="#e4e8eb" d="M3287.786,1542.66c-10.538-12.065-21.622-27.242-33.826-27.114
		c-22.276,0.232-23.895,65.286-23.895,65.286s-20.659-24.897-43.887-30.139c-11.13-2.514-21.598,21.125-29.49,46.424
		c-0.83,8.405-2.276,16.997-4.606,25.739C3137.641,1677.041,3240.354,1615.726,3287.786,1542.66z"/><defs><filter id="bC" width="137.036" height="110.715" x="3150.749" y="1532.779" filterUnits="userSpaceOnUse"><feFlood flood-color="#fff" flood-opacity="1" result="back"/><feBlend in="SourceGraphic" in2="back"/></filter></defs><mask id="bE" width="137.036" height="110.715" x="3150.749" y="1532.779" maskUnits="userSpaceOnUse"><g filter="url(#bC)"><defs><filter id="bD" width="137.036" height="110.715" x="3150.749" y="1532.779" filterUnits="userSpaceOnUse"><feFlood flood-color="#fff" flood-opacity="1" result="back"/><feBlend in="SourceGraphic" in2="back"/></filter></defs><linearGradient id="bF" x1="3219.268" x2="3219.268" y1="1643.494" y2="1532.779" gradientUnits="userSpaceOnUse"><stop offset="0" stop-color="#fff"/><stop offset="1"/></linearGradient><path fill="url(#bF)" d="M3279.29,1532.779c-7.823,22.385-38.337,58.591-96.805,82.64
				c-12.69,5.22-22.674,7.655-30.567,8.204c-13.196,52.753,88.676-8.266,135.867-80.963
				C3284.996,1539.467,3282.166,1536.066,3279.29,1532.779z" mask="url(#bE)"/></g></mask><linearGradient id="bG" x1="3219.268" x2="3219.268" y1="1643.494" y2="1532.779" gradientUnits="userSpaceOnUse"><stop offset="0" stop-color="#5f418b"/><stop offset="1" stop-color="#5f418b"/></linearGradient><path fill="url(#bG)" d="M3279.29,1532.779c-7.823,22.385-38.337,58.591-96.805,82.64
		c-12.69,5.22-22.674,7.655-30.567,8.204c-13.196,52.753,88.676-8.266,135.867-80.963
		C3284.996,1539.467,3282.166,1536.066,3279.29,1532.779z" opacity=".7"/><defs><filter id="bH" width="171.896" height="110.492" x="3302.388" y="1426.177" filterUnits="userSpaceOnUse"><feFlood flood-color="#fff" flood-opacity="1" result="back"/><feBlend in="SourceGraphic" in2="back"/></filter></defs><mask id="bJ" width="171.896" height="110.492" x="3302.388" y="1426.177" maskUnits="userSpaceOnUse"><g filter="url(#bH)"><defs><filter id="bI" width="171.896" height="110.492" x="3302.388" y="1426.177" filterUnits="userSpaceOnUse"><feFlood flood-color="#fff" flood-opacity="1" result="back"/><feBlend in="SourceGraphic" in2="back"/></filter></defs><linearGradient id="bK" x1="3388.336" x2="3388.336" y1="1536.669" y2="1426.177" gradientUnits="userSpaceOnUse"><stop offset="0" stop-color="#fff"/><stop offset="1"/></linearGradient><path fill="url(#bK)" d="M3375.112,1428.033c0,0,64.864-9.673,89.761,15.147
				c24.897,24.82-7.861,31.372-4.586,44.476s-3.694,50.731-35.59,48.953c-31.895-1.779-86.932-16.848-113.794-16.193
				c-26.863,0.655,15.069-50.45,53.07-47.174c38.001,3.276-0.655-15.058-9.828-28.167
				C3344.973,1431.964,3367.904,1425.412,3375.112,1428.033z" mask="url(#bJ)"/></g></mask><linearGradient id="bL" x1="3388.336" x2="3388.336" y1="1536.669" y2="1426.177" gradientUnits="userSpaceOnUse"><stop offset="0" stop-color="#784a90"/><stop offset="1" stop-color="#784a90"/></linearGradient><path fill="url(#bL)" d="M3375.112,1428.033c0,0,64.864-9.673,89.761,15.147
		c24.897,24.82-7.861,31.372-4.586,44.476s-3.694,50.731-35.59,48.953c-31.895-1.779-86.932-16.848-113.794-16.193
		c-26.863,0.655,15.069-50.45,53.07-47.174c38.001,3.276-0.655-15.058-9.828-28.167
		C3344.973,1431.964,3367.904,1425.412,3375.112,1428.033z" opacity=".5"/><g opacity=".6"><defs><filter id="bM" width="199.565" height="85.863" x="3244.896" y="1837.81" filterUnits="userSpaceOnUse"><feFlood flood-color="#fff" flood-opacity="1" result="back"/><feBlend in="SourceGraphic" in2="back"/></filter></defs><mask id="bO" width="199.565" height="85.863" x="3244.896" y="1837.81" maskUnits="userSpaceOnUse"><g filter="url(#bM)"><defs><filter id="bN" width="199.565" height="85.863" x="3244.896" y="1837.81" filterUnits="userSpaceOnUse"><feFlood flood-color="#fff" flood-opacity="1" result="back"/><feBlend in="SourceGraphic" in2="back"/></filter></defs><linearGradient id="bP" x1="3244.896" x2="3444.462" y1="1880.742" y2="1880.742" gradientUnits="userSpaceOnUse"><stop offset="0" stop-color="#fff"/><stop offset="1"/></linearGradient><path fill="url(#bP)" d="M3263.635,1889.146c-13.138-3.896-21.158-17.378-18.081-30.924
					c3.208-14.115,17.245-22.958,31.362-19.755l147.139,33.431c14.184,3.319,22.949,17.258,19.749,31.366
					c-3.208,14.115-17.245,22.958-31.362,19.755l-147.139-33.431C3264.739,1889.452,3264.18,1889.307,3263.635,1889.146z" mask="url(#bO)"/></g></mask><linearGradient id="bQ" x1="3244.896" x2="3444.462" y1="1880.742" y2="1880.742" gradientUnits="userSpaceOnUse"><stop offset="0" stop-color="#3f4d96"/><stop offset="1" stop-color="#3f4d96"/></linearGradient><path fill="url(#bQ)" d="M3263.635,1889.146c-13.138-3.896-21.158-17.378-18.081-30.924
			c3.208-14.115,17.245-22.958,31.362-19.755l147.139,33.431c14.184,3.319,22.949,17.258,19.749,31.366
			c-3.208,14.115-17.245,22.958-31.362,19.755l-147.139-33.431C3264.739,1889.452,3264.18,1889.307,3263.635,1889.146z"/></g><g opacity=".6"><defs><filter id="bR" width="362.615" height="241.377" x="2175.627" y="2822.625" filterUnits="userSpaceOnUse"><feFlood flood-color="#fff" flood-opacity="1" result="back"/><feBlend in="SourceGraphic" in2="back"/></filter></defs><mask id="bT" width="362.615" height="241.377" x="2175.627" y="2822.625" maskUnits="userSpaceOnUse"><g filter="url(#bR)"><defs><filter id="bS" width="362.615" height="241.377" x="2175.627" y="2822.625" filterUnits="userSpaceOnUse"><feFlood flood-color="#fff" flood-opacity="1" result="back"/><feBlend in="SourceGraphic" in2="back"/></filter></defs><linearGradient id="bU" x1="2175.627" x2="2538.242" y1="2943.314" y2="2943.314" gradientUnits="userSpaceOnUse"><stop offset="0" stop-color="#fff"/><stop offset="1"/></linearGradient><path fill="url(#bU)" d="M2463.244,2995.921c0,0,47.222-82.591,66.892-102.835
					c19.669-20.244,0.078-23.189-21.87-43.286s-33.257-38.525-45.23-18.617c-11.973,19.908-84.221,133.759-106.101,134.489
					c-39.256,1.311-162.215,38.602-180.777,83.864c-12.007,29.276,183.46,3.691,234.97,11.668
					C2462.637,3069.181,2463.244,2995.921,2463.244,2995.921z" mask="url(#bT)"/></g></mask><linearGradient id="bV" x1="2175.627" x2="2538.242" y1="2943.314" y2="2943.314" gradientUnits="userSpaceOnUse"><stop offset="0" stop-color="#3f4d96"/><stop offset="1" stop-color="#3f4d96"/></linearGradient><path fill="url(#bV)" d="M2463.244,2995.921c0,0,47.222-82.591,66.892-102.835
			c19.669-20.244,0.078-23.189-21.87-43.286s-33.257-38.525-45.23-18.617c-11.973,19.908-84.221,133.759-106.101,134.489
			c-39.256,1.311-162.215,38.602-180.777,83.864c-12.007,29.276,183.46,3.691,234.97,11.668
			C2462.637,3069.181,2463.244,2995.921,2463.244,2995.921z"/></g><g opacity=".6"><defs><filter id="bW" width="243.834" height="277.822" x="3589.784" y="2786.18" filterUnits="userSpaceOnUse"><feFlood flood-color="#fff" flood-opacity="1" result="back"/><feBlend in="SourceGraphic" in2="back"/></filter></defs><mask id="bY" width="243.834" height="277.822" x="3589.784" y="2786.18" maskUnits="userSpaceOnUse"><g filter="url(#bW)"><defs><filter id="bX" width="243.834" height="277.822" x="3589.784" y="2786.18" filterUnits="userSpaceOnUse"><feFlood flood-color="#fff" flood-opacity="1" result="back"/><feBlend in="SourceGraphic" in2="back"/></filter></defs><linearGradient id="bZ" x1="3589.784" x2="3833.618" y1="2925.091" y2="2925.091" gradientUnits="userSpaceOnUse"><stop offset="0" stop-color="#fff"/><stop offset="1"/></linearGradient><path fill="url(#bZ)" d="M3763.323,2848.808c0,0-87.008-38.479-109.168-55.964
					c-22.159-17.484-23.074,2.307-40.808,26.205c-17.733,23.897-34.902,37.041-13.868,46.904
					c21.033,9.863,121.867,60.261,123.571,82.086c2.779,35.602-129.262,84.746-86.328,108.197
					c75.014,40.972,196.966-90.067,196.896-162.3C3833.568,2841.813,3763.323,2848.808,3763.323,2848.808z" mask="url(#bY)"/></g></mask><linearGradient id="ca" x1="3589.784" x2="3833.618" y1="2925.091" y2="2925.091" gradientUnits="userSpaceOnUse"><stop offset="0" stop-color="#3f4d96"/><stop offset="1" stop-color="#3f4d96"/></linearGradient><path fill="url(#ca)" d="M3763.323,2848.808c0,0-87.008-38.479-109.168-55.964
			c-22.159-17.484-23.074,2.307-40.808,26.205c-17.733,23.897-34.902,37.041-13.868,46.904
			c21.033,9.863,121.867,60.261,123.571,82.086c2.779,35.602-129.262,84.746-86.328,108.197
			c75.014,40.972,196.966-90.067,196.896-162.3C3833.568,2841.813,3763.323,2848.808,3763.323,2848.808z"/></g><g opacity=".6"><defs><filter id="cb" width="691.783" height="407.275" x="1917.526" y="1478.917" filterUnits="userSpaceOnUse"><feFlood flood-color="#fff" flood-opacity="1" result="back"/><feBlend in="SourceGraphic" in2="back"/></filter></defs><mask id="cd" width="691.783" height="407.275" x="1917.526" y="1478.917" maskUnits="userSpaceOnUse"><g filter="url(#cb)"><defs><filter id="cc" width="691.783" height="407.275" x="1917.526" y="1478.917" filterUnits="userSpaceOnUse"><feFlood flood-color="#fff" flood-opacity="1" result="back"/><feBlend in="SourceGraphic" in2="back"/></filter></defs><linearGradient id="ce" x1="1917.526" x2="2609.309" y1="1682.555" y2="1682.555" gradientUnits="userSpaceOnUse"><stop offset="0" stop-color="#fff"/><stop offset="1"/></linearGradient><path fill="url(#ce)" d="M2239.252,1619.177c0,0-167.99-104.432-201.907-125.522
					c-61.642-38.329-77.302,19.823-33.972,53.66c0,0-49.531-36.567-68.191-22.229c-18.661,14.338-23.455,49.167-9.912,62.349
					s102.878,67.963,142.906,82.072c0,0,37.217,24.764-109.02-13.098c-58.409-15.122-46.828,35.139-16.538,51.436
					c30.291,16.297,198.135,96.939,320.791,82.433c0,0,276.837,116.799,297.328,92.62s60.989-184.587,44.869-198.248
					c-16.119-13.661-316.979-44.294-316.979-44.294s-54.712-92.813-72.48-133.438c-17.769-40.625-44.882-31.007-48.955-9.105
					c-4.073,21.901,6.087,89.101,40.183,120.767L2239.252,1619.177z" mask="url(#cd)"/></g></mask><linearGradient id="cf" x1="1917.526" x2="2609.309" y1="1682.555" y2="1682.555" gradientUnits="userSpaceOnUse"><stop offset="0" stop-color="#3f4d96"/><stop offset="1" stop-color="#3f4d96"/></linearGradient><path fill="url(#cf)" d="M2239.252,1619.177c0,0-167.99-104.432-201.907-125.522
			c-61.642-38.329-77.302,19.823-33.972,53.66c0,0-49.531-36.567-68.191-22.229c-18.661,14.338-23.455,49.167-9.912,62.349
			s102.878,67.963,142.906,82.072c0,0,37.217,24.764-109.02-13.098c-58.409-15.122-46.828,35.139-16.538,51.436
			c30.291,16.297,198.135,96.939,320.791,82.433c0,0,276.837,116.799,297.328,92.62s60.989-184.587,44.869-198.248
			c-16.119-13.661-316.979-44.294-316.979-44.294s-54.712-92.813-72.48-133.438c-17.769-40.625-44.882-31.007-48.955-9.105
			c-4.073,21.901,6.087,89.101,40.183,120.767L2239.252,1619.177z"/></g><defs><filter id="cg" width="343.067" height="727.838" x="3820.863" y="1558.982" filterUnits="userSpaceOnUse"><feFlood flood-color="#fff" flood-opacity="1" result="back"/><feBlend in="SourceGraphic" in2="back"/></filter></defs><mask id="ci" width="343.067" height="727.838" x="3820.863" y="1558.982" maskUnits="userSpaceOnUse"><g filter="url(#cg)"><defs><filter id="ch" width="343.067" height="727.838" x="3820.863" y="1558.982" filterUnits="userSpaceOnUse"><feFlood flood-color="#fff" flood-opacity="1" result="back"/><feBlend in="SourceGraphic" in2="back"/></filter></defs><linearGradient id="cj" x1="3820.863" x2="4163.931" y1="1922.901" y2="1922.901" gradientUnits="userSpaceOnUse"><stop offset="0" stop-color="#fff"/><stop offset="1"/></linearGradient><path fill="url(#cj)" d="M4132.6,1615.952c-17.32-0.901-31.268,40.887-31.268,40.887
				c-2.404-24.051-2.404-133.484-54.716-86.081c-16.432,14.89-0.602,199.122-12.628,196.717
				c-12.024-2.405-21.646-64.938-31.266-126.182c-9.62-61.244-84.18-95.09-90.93-49.393s76.498,242.917,64.473,252.578
				c-12.025,9.66-74.559-57.762-108.23-64.978c-33.671-7.215-81.774,28.862-9.62,64.978c45.954,23.002,91.877,82.996,119.19,123.555
				c0,0-28.402,121.732-140.235,219.136c0,0,41.488,64.938,95.604,97.407c54.116,32.469,136.993-298.046,136.993-298.046
				l-0.036-0.007C4172.947,1858.557,4187.207,1618.79,4132.6,1615.952z" mask="url(#ci)"/></g></mask><linearGradient id="ck" x1="3820.863" x2="4163.931" y1="1922.901" y2="1922.901" gradientUnits="userSpaceOnUse"><stop offset="0" stop-color="#3f4d96"/><stop offset="1" stop-color="#3f4d96"/></linearGradient><path fill="url(#ck)" d="M4132.6,1615.952c-17.32-0.901-31.268,40.887-31.268,40.887
		c-2.404-24.051-2.404-133.484-54.716-86.081c-16.432,14.89-0.602,199.122-12.628,196.717
		c-12.024-2.405-21.646-64.938-31.266-126.182c-9.62-61.244-84.18-95.09-90.93-49.393s76.498,242.917,64.473,252.578
		c-12.025,9.66-74.559-57.762-108.23-64.978c-33.671-7.215-81.774,28.862-9.62,64.978c45.954,23.002,91.877,82.996,119.19,123.555
		c0,0-28.402,121.732-140.235,219.136c0,0,41.488,64.938,95.604,97.407c54.116,32.469,136.993-298.046,136.993-298.046l-0.036-0.007
		C4172.947,1858.557,4187.207,1618.79,4132.6,1615.952z" opacity=".6"/><defs><filter id="cl" width="137.056" height="101.351" x="1999.14" y="1489.8" filterUnits="userSpaceOnUse"><feFlood flood-color="#fff" flood-opacity="1" result="back"/><feBlend in="SourceGraphic" in2="back"/></filter></defs><mask id="cn" width="137.056" height="101.351" x="1999.14" y="1489.8" maskUnits="userSpaceOnUse"><g filter="url(#cl)"><defs><filter id="cm" width="137.056" height="101.351" x="1999.14" y="1489.8" filterUnits="userSpaceOnUse"><feFlood flood-color="#fff" flood-opacity="1" result="back"/><feBlend in="SourceGraphic" in2="back"/></filter></defs><linearGradient id="co" x1="1999.14" x2="2136.196" y1="1540.475" y2="1540.475" gradientUnits="userSpaceOnUse"><stop offset="0" stop-color="#fff"/><stop offset="1"/></linearGradient><path fill="url(#co)" d="M2115.831,1589.866c-5.147-1.643-95.714-36.125-111.383-70.761
				c-15.668-34.636,5.242-38.001,38.001-13.104c32.76,24.897,66.83,49.795,83.865,58.968
				C2143.349,1574.141,2137.4,1596.752,2115.831,1589.866z" mask="url(#cn)"/></g></mask><linearGradient id="cp" x1="1999.14" x2="2136.196" y1="1540.475" y2="1540.475" gradientUnits="userSpaceOnUse"><stop offset="0" stop-color="#3f4d96"/><stop offset="1" stop-color="#3f4d96"/></linearGradient><path fill="url(#cp)" d="M2115.831,1589.866c-5.147-1.643-95.714-36.125-111.383-70.761
		c-15.668-34.636,5.242-38.001,38.001-13.104c32.76,24.897,66.83,49.795,83.865,58.968
		C2143.349,1574.141,2137.4,1596.752,2115.831,1589.866z" opacity=".6"/><defs><filter id="cq" width="175.818" height="119.443" x="1932.955" y="1531.646" filterUnits="userSpaceOnUse"><feFlood flood-color="#fff" flood-opacity="1" result="back"/><feBlend in="SourceGraphic" in2="back"/></filter></defs><mask id="cs" width="175.818" height="119.443" x="1932.955" y="1531.646" maskUnits="userSpaceOnUse"><g filter="url(#cq)"><defs><filter id="cr" width="175.818" height="119.443" x="1932.955" y="1531.646" filterUnits="userSpaceOnUse"><feFlood flood-color="#fff" flood-opacity="1" result="back"/><feBlend in="SourceGraphic" in2="back"/></filter></defs><linearGradient id="ct" x1="1932.955" x2="2108.773" y1="1591.367" y2="1591.367" gradientUnits="userSpaceOnUse"><stop offset="0" stop-color="#fff"/><stop offset="1"/></linearGradient><path fill="url(#ct)" d="M2083.071,1601.659c-1.877-1.829-78.251-43.033-110.073-61.184
				c-31.821-18.151-43.197-7.505-39.312,24.494c3.886,31.998,79.267,70.761,133.981,82.991
				C2122.382,1660.19,2117.141,1634.856,2083.071,1601.659z" mask="url(#cs)"/></g></mask><linearGradient id="cu" x1="1932.955" x2="2108.773" y1="1591.367" y2="1591.367" gradientUnits="userSpaceOnUse"><stop offset="0" stop-color="#3f4d96"/><stop offset="1" stop-color="#3f4d96"/></linearGradient><path fill="url(#cu)" d="M2083.071,1601.659c-1.877-1.829-78.251-43.033-110.073-61.184
		c-31.821-18.151-43.197-7.505-39.312,24.494c3.886,31.998,79.267,70.761,133.981,82.991
		C2122.382,1660.19,2117.141,1634.856,2083.071,1601.659z" opacity=".6"/><defs><filter id="cv" width="170.108" height="71.324" x="1931.32" y="1663.148" filterUnits="userSpaceOnUse"><feFlood flood-color="#fff" flood-opacity="1" result="back"/><feBlend in="SourceGraphic" in2="back"/></filter></defs><mask id="cx" width="170.108" height="71.324" x="1931.32" y="1663.148" maskUnits="userSpaceOnUse"><g filter="url(#cv)"><defs><filter id="cw" width="170.108" height="71.324" x="1931.32" y="1663.148" filterUnits="userSpaceOnUse"><feFlood flood-color="#fff" flood-opacity="1" result="back"/><feBlend in="SourceGraphic" in2="back"/></filter></defs><linearGradient id="cy" x1="1931.32" x2="2101.428" y1="1698.811" y2="1698.811" gradientUnits="userSpaceOnUse"><stop offset="0" stop-color="#fff"/><stop offset="1"/></linearGradient><path fill="url(#cy)" d="M2076.082,1689.019c0,0-94.347-13.973-121.429-23.587
				c-27.083-9.614-33.197,13.104-4.368,31.449c28.828,18.345,100.463,38.438,125.797,37.564S2117.404,1704.181,2076.082,1689.019z" mask="url(#cx)"/></g></mask><linearGradient id="cz" x1="1931.32" x2="2101.428" y1="1698.811" y2="1698.811" gradientUnits="userSpaceOnUse"><stop offset="0" stop-color="#3f4d96"/><stop offset="1" stop-color="#3f4d96"/></linearGradient><path fill="url(#cz)" d="M2076.082,1689.019c0,0-94.347-13.973-121.429-23.587
		c-27.083-9.614-33.197,13.104-4.368,31.449c28.828,18.345,100.463,38.438,125.797,37.564S2117.404,1704.181,2076.082,1689.019z" opacity=".6"/><defs><filter id="cA" width="93.839" height="149.6" x="2180.755" y="1495.64" filterUnits="userSpaceOnUse"><feFlood flood-color="#fff" flood-opacity="1" result="back"/><feBlend in="SourceGraphic" in2="back"/></filter></defs><mask id="cC" width="93.839" height="149.6" x="2180.755" y="1495.64" maskUnits="userSpaceOnUse"><g filter="url(#cA)"><defs><filter id="cB" width="93.839" height="149.6" x="2180.755" y="1495.64" filterUnits="userSpaceOnUse"><feFlood flood-color="#fff" flood-opacity="1" result="back"/><feBlend in="SourceGraphic" in2="back"/></filter></defs><linearGradient id="cD" x1="2180.755" x2="2274.595" y1="1570.44" y2="1570.44" gradientUnits="userSpaceOnUse"><stop offset="0" stop-color="#fff"/><stop offset="1"/></linearGradient><path fill="url(#cD)" d="M2272.64,1633.108c0,0-50.946-87.766-63.772-119.682
				c-12.827-31.916-25.334-14.851-27.955,4.368c-2.621,19.219,27.955,78.624,55.036,107.452
				C2263.03,1654.075,2280.68,1647.109,2272.64,1633.108z" mask="url(#cC)"/></g></mask><linearGradient id="cE" x1="2180.755" x2="2274.595" y1="1570.44" y2="1570.44" gradientUnits="userSpaceOnUse"><stop offset="0" stop-color="#3f4d96"/><stop offset="1" stop-color="#3f4d96"/></linearGradient><path fill="url(#cE)" d="M2272.64,1633.108c0,0-50.946-87.766-63.772-119.682
		c-12.827-31.916-25.334-14.851-27.955,4.368c-2.621,19.219,27.955,78.624,55.036,107.452
		C2263.03,1654.075,2280.68,1647.109,2272.64,1633.108z" opacity=".6"/><defs><filter id="cF" width="139.412" height="41.174" x="3263.805" y="1848.526" filterUnits="userSpaceOnUse"><feFlood flood-color="#fff" flood-opacity="1" result="back"/><feBlend in="SourceGraphic" in2="back"/></filter></defs><mask id="cH" width="139.412" height="41.174" x="3263.805" y="1848.526" maskUnits="userSpaceOnUse"><g filter="url(#cF)"><defs><filter id="cG" width="139.412" height="41.174" x="3263.805" y="1848.526" filterUnits="userSpaceOnUse"><feFlood flood-color="#fff" flood-opacity="1" result="back"/><feBlend in="SourceGraphic" in2="back"/></filter></defs><linearGradient id="cI" x1="3263.805" x2="3403.217" y1="1869.113" y2="1869.113" gradientUnits="userSpaceOnUse"><stop offset="0" stop-color="#fff"/><stop offset="1"/></linearGradient><path fill="url(#cI)" d="M3383.848,1873.016c0,0-96.969-29.484-110.072-23.75
				s-19.219,22.273,20.093,31.476C3333.18,1889.944,3448.695,1898.004,3383.848,1873.016z" mask="url(#cH)"/></g></mask><linearGradient id="cJ" x1="3263.805" x2="3403.217" y1="1869.113" y2="1869.113" gradientUnits="userSpaceOnUse"><stop offset="0" stop-color="#3f4d96"/><stop offset="1" stop-color="#3f4d96"/></linearGradient><path fill="url(#cJ)" d="M3383.848,1873.016c0,0-96.969-29.484-110.072-23.75
		s-19.219,22.273,20.093,31.476C3333.18,1889.944,3448.695,1898.004,3383.848,1873.016z" opacity=".6"/><defs><filter id="cK" width="131.828" height="158.023" x="3850.816" y="1784.585" filterUnits="userSpaceOnUse"><feFlood flood-color="#fff" flood-opacity="1" result="back"/><feBlend in="SourceGraphic" in2="back"/></filter></defs><mask id="cM" width="131.828" height="158.023" x="3850.816" y="1784.585" maskUnits="userSpaceOnUse"><g filter="url(#cK)"><defs><filter id="cL" width="131.828" height="158.023" x="3850.816" y="1784.585" filterUnits="userSpaceOnUse"><feFlood flood-color="#fff" flood-opacity="1" result="back"/><feBlend in="SourceGraphic" in2="back"/></filter></defs><linearGradient id="cN" x1="3850.816" x2="3982.644" y1="1863.597" y2="1863.597" gradientUnits="userSpaceOnUse"><stop offset="0" stop-color="#fff"/><stop offset="1"/></linearGradient><path fill="url(#cN)" d="M3975.27,1938.865c0,0-30.576-49.907-79.497-89.599
				s-62.188-79.929-18.346-58.911s63.772,46.241,87.359,90.387C3988.373,1924.888,3984.944,1953.174,3975.27,1938.865z" mask="url(#cM)"/></g></mask><linearGradient id="cO" x1="3850.816" x2="3982.644" y1="1863.597" y2="1863.597" gradientUnits="userSpaceOnUse"><stop offset="0" stop-color="#3f4d96"/><stop offset="1" stop-color="#3f4d96"/></linearGradient><path fill="url(#cO)" d="M3975.27,1938.865c0,0-30.576-49.907-79.497-89.599
		s-62.188-79.929-18.346-58.911s63.772,46.241,87.359,90.387C3988.373,1924.888,3984.944,1953.174,3975.27,1938.865z" opacity=".6"/><defs><filter id="cP" width="68.705" height="229.936" x="3936.809" y="1592.039" filterUnits="userSpaceOnUse"><feFlood flood-color="#fff" flood-opacity="1" result="back"/><feBlend in="SourceGraphic" in2="back"/></filter></defs><mask id="cR" width="68.705" height="229.936" x="3936.809" y="1592.039" maskUnits="userSpaceOnUse"><g filter="url(#cP)"><defs><filter id="cQ" width="68.705" height="229.936" x="3936.809" y="1592.039" filterUnits="userSpaceOnUse"><feFlood flood-color="#fff" flood-opacity="1" result="back"/><feBlend in="SourceGraphic" in2="back"/></filter></defs><linearGradient id="cS" x1="3936.809" x2="4005.514" y1="1707.006" y2="1707.006" gradientUnits="userSpaceOnUse"><stop offset="0" stop-color="#fff"/><stop offset="1"/></linearGradient><path fill="url(#cS)" d="M3992.405,1818.31c0,0-11.417-85.612-38.737-139.775
				c-27.32-54.163-18.584-97.842,5.877-83.864c24.46,13.977,29.701,24.46,36.69,68.14
				C4003.225,1706.49,4014.783,1846.265,3992.405,1818.31z" mask="url(#cR)"/></g></mask><linearGradient id="cT" x1="3936.809" x2="4005.514" y1="1707.006" y2="1707.006" gradientUnits="userSpaceOnUse"><stop offset="0" stop-color="#3f4d96"/><stop offset="1" stop-color="#3f4d96"/></linearGradient><path fill="url(#cT)" d="M3992.405,1818.31c0,0-11.417-85.612-38.737-139.775
		c-27.32-54.163-18.584-97.842,5.877-83.864c24.46,13.977,29.701,24.46,36.69,68.14
		C4003.225,1706.49,4014.783,1846.265,3992.405,1818.31z" opacity=".6"/><defs><filter id="cU" width="38.209" height="193.632" x="4059.511" y="1576.802" filterUnits="userSpaceOnUse"><feFlood flood-color="#fff" flood-opacity="1" result="back"/><feBlend in="SourceGraphic" in2="back"/></filter></defs><mask id="cW" width="38.209" height="193.632" x="4059.511" y="1576.802" maskUnits="userSpaceOnUse"><g filter="url(#cU)"><defs><filter id="cV" width="38.209" height="193.632" x="4059.511" y="1576.802" filterUnits="userSpaceOnUse"><feFlood flood-color="#fff" flood-opacity="1" result="back"/><feBlend in="SourceGraphic" in2="back"/></filter></defs><linearGradient id="cX" x1="4059.511" x2="4097.72" y1="1673.618" y2="1673.618" gradientUnits="userSpaceOnUse"><stop offset="0" stop-color="#fff"/><stop offset="1"/></linearGradient><path fill="url(#cX)" d="M4060.008,1759.779c-1.713-5.871,2.62-74.255,0-122.303
				c-2.621-48.047,5.241-72.508,20.966-55.036s20.53,45.03,13.759,85.85C4087.962,1709.111,4072.237,1801.712,4060.008,1759.779z" mask="url(#cW)"/></g></mask><linearGradient id="cY" x1="4059.511" x2="4097.72" y1="1673.618" y2="1673.618" gradientUnits="userSpaceOnUse"><stop offset="0" stop-color="#3f4d96"/><stop offset="1" stop-color="#3f4d96"/></linearGradient><path fill="url(#cY)" d="M4060.008,1759.779c-1.713-5.871,2.62-74.255,0-122.303
		c-2.621-48.047,5.241-72.508,20.966-55.036s20.53,45.03,13.759,85.85C4087.962,1709.111,4072.237,1801.712,4060.008,1759.779z" opacity=".6"/><defs><filter id="cZ" width="56.636" height="177.675" x="4094.226" y="1624.333" filterUnits="userSpaceOnUse"><feFlood flood-color="#fff" flood-opacity="1" result="back"/><feBlend in="SourceGraphic" in2="back"/></filter></defs><mask id="db" width="56.636" height="177.675" x="4094.226" y="1624.333" maskUnits="userSpaceOnUse"><g filter="url(#cZ)"><defs><filter id="da" width="56.636" height="177.675" x="4094.226" y="1624.333" filterUnits="userSpaceOnUse"><feFlood flood-color="#fff" flood-opacity="1" result="back"/><feBlend in="SourceGraphic" in2="back"/></filter></defs><linearGradient id="dc" x1="4094.226" x2="4150.861" y1="1713.171" y2="1713.171" gradientUnits="userSpaceOnUse"><stop offset="0" stop-color="#fff"/><stop offset="1"/></linearGradient><path fill="url(#dc)" d="M4097.719,1754.538c0.715-2.624,20.322-68.141,25.813-109.199
				s27.33-14.851,27.33,18.346c0,33.196-0.874,86.724-19.22,119.801C4113.297,1816.563,4084.133,1804.394,4097.719,1754.538z" mask="url(#db)"/></g></mask><linearGradient id="dd" x1="4094.226" x2="4150.861" y1="1713.171" y2="1713.171" gradientUnits="userSpaceOnUse"><stop offset="0" stop-color="#3f4d96"/><stop offset="1" stop-color="#3f4d96"/></linearGradient><path fill="url(#dd)" d="M4097.719,1754.538c0.715-2.624,20.322-68.141,25.813-109.199
		s27.33-14.851,27.33,18.346c0,33.196-0.874,86.724-19.22,119.801C4113.297,1816.563,4084.133,1804.394,4097.719,1754.538z" opacity=".6"/><defs><filter id="de" width="188.376" height="116.448" x="3634.938" y="2798.763" filterUnits="userSpaceOnUse"><feFlood flood-color="#fff" flood-opacity="1" result="back"/><feBlend in="SourceGraphic" in2="back"/></filter></defs><mask id="dg" width="188.376" height="116.448" x="3634.938" y="2798.763" maskUnits="userSpaceOnUse"><g filter="url(#de)"><defs><filter id="df" width="188.376" height="116.448" x="3634.938" y="2798.763" filterUnits="userSpaceOnUse"><feFlood flood-color="#fff" flood-opacity="1" result="back"/><feBlend in="SourceGraphic" in2="back"/></filter></defs><linearGradient id="dh" x1="3634.938" x2="3823.314" y1="2856.986" y2="2856.986" gradientUnits="userSpaceOnUse"><stop offset="0" stop-color="#fff"/><stop offset="1"/></linearGradient><path fill="url(#dh)" d="M3756.871,2857.01c0,0-47.196-20.375-73.393-36.832
				s-38.427-31.309-46.289-12.963s4.367,33.197,44.553,46.301s72.508,13.978,75.129,24.46c2.621,10.483,30.576,44.554,44.553,35.817
				c13.979-8.736,34.07-39.312,12.23-46.3C3791.815,2860.504,3775.347,2865.324,3756.871,2857.01z" mask="url(#dg)"/></g></mask><linearGradient id="di" x1="3634.938" x2="3823.314" y1="2856.986" y2="2856.986" gradientUnits="userSpaceOnUse"><stop offset="0" stop-color="#3f4d96"/><stop offset="1" stop-color="#3f4d96"/></linearGradient><path fill="url(#di)" d="M3756.871,2857.01c0,0-47.196-20.375-73.393-36.832
		s-38.427-31.309-46.289-12.963s4.367,33.197,44.553,46.301s72.508,13.978,75.129,24.46c2.621,10.483,30.576,44.554,44.553,35.817
		c13.979-8.736,34.07-39.312,12.23-46.3C3791.815,2860.504,3775.347,2865.324,3756.871,2857.01z" opacity=".6"/><defs><filter id="dj" width="130.392" height="163.394" x="2391.851" y="2887.359" filterUnits="userSpaceOnUse"><feFlood flood-color="#fff" flood-opacity="1" result="back"/><feBlend in="SourceGraphic" in2="back"/></filter></defs><mask id="dl" width="130.392" height="163.394" x="2391.851" y="2887.359" maskUnits="userSpaceOnUse"><g filter="url(#dj)"><defs><filter id="dk" width="130.392" height="163.394" x="2391.851" y="2887.359" filterUnits="userSpaceOnUse"><feFlood flood-color="#fff" flood-opacity="1" result="back"/><feBlend in="SourceGraphic" in2="back"/></filter></defs><linearGradient id="dm" x1="2391.851" x2="2522.243" y1="2969.057" y2="2969.057" gradientUnits="userSpaceOnUse"><stop offset="0" stop-color="#fff"/><stop offset="1"/></linearGradient><path fill="url(#dm)" d="M2401.932,3045.705c0,0,18.346,11.357,31.449,0
				c13.104-11.356,10.483-34.943,19.219-50.668c8.736-15.725,76.876-102.21,69.014-107.451
				c-7.862-5.242-69.887,82.117-86.485,95.221C2418.53,2995.91,2371.356,3037.843,2401.932,3045.705z" mask="url(#dl)"/></g></mask><linearGradient id="dn" x1="2391.851" x2="2522.243" y1="2969.057" y2="2969.057" gradientUnits="userSpaceOnUse"><stop offset="0" stop-color="#3f4d96"/><stop offset="1" stop-color="#3f4d96"/></linearGradient><path fill="url(#dn)" d="M2401.932,3045.705c0,0,18.346,11.357,31.449,0
		c13.104-11.356,10.483-34.943,19.219-50.668c8.736-15.725,76.876-102.21,69.014-107.451c-7.862-5.242-69.887,82.117-86.485,95.221
		C2418.53,2995.91,2371.356,3037.843,2401.932,3045.705z" opacity=".6"/><defs><filter id="do" width="198.58" height="267.362" x="2994.938" y="2065.708" filterUnits="userSpaceOnUse"><feFlood flood-color="#fff" flood-opacity="1" result="back"/><feBlend in="SourceGraphic" in2="back"/></filter></defs><mask id="dq" width="198.58" height="267.362" x="2994.938" y="2065.708" maskUnits="userSpaceOnUse"><g filter="url(#do)"><defs><filter id="dp" width="198.58" height="267.362" x="2994.938" y="2065.708" filterUnits="userSpaceOnUse"><feFlood flood-color="#fff" flood-opacity="1" result="back"/><feBlend in="SourceGraphic" in2="back"/></filter></defs><linearGradient id="dr" x1="2994.938" x2="3193.518" y1="2199.389" y2="2199.389" gradientUnits="userSpaceOnUse"><stop offset="0" stop-color="#fff"/><stop offset="1"/></linearGradient><path fill="url(#dr)" d="M3008.203,2162.505c0,0,43.565-74.692,107.613-90.417
				s45.703-1.311,70.6,31.449c0,0,22.714,7.426-13.104,45.864s-82.991,63.772-82.117,106.578
				c0.873,42.806-36.2,84.139-69.014,76.075C2989.367,2323.99,2988.111,2201.816,3008.203,2162.505z" mask="url(#dq)"/></g></mask><linearGradient id="ds" x1="2994.938" x2="3193.518" y1="2199.389" y2="2199.389" gradientUnits="userSpaceOnUse"><stop offset="0" stop-color="#4d60a4"/><stop offset="1" stop-color="#4d60a4"/></linearGradient><path fill="url(#ds)" d="M3008.203,2162.505c0,0,43.565-74.692,107.613-90.417
		s45.703-1.311,70.6,31.449c0,0,22.714,7.426-13.104,45.864s-82.991,63.772-82.117,106.578c0.873,42.806-36.2,84.139-69.014,76.075
		C2989.367,2323.99,2988.111,2201.816,3008.203,2162.505z" opacity=".6"/><defs><filter id="dt" width="622.642" height="124.184" x="2643.935" y="1817.962" filterUnits="userSpaceOnUse"><feFlood flood-color="#fff" flood-opacity="1" result="back"/><feBlend in="SourceGraphic" in2="back"/></filter></defs><mask id="dv" width="622.642" height="124.184" x="2643.935" y="1817.962" maskUnits="userSpaceOnUse"><g filter="url(#dt)"><defs><filter id="du" width="622.642" height="124.184" x="2643.935" y="1817.962" filterUnits="userSpaceOnUse"><feFlood flood-color="#fff" flood-opacity="1" result="back"/><feBlend in="SourceGraphic" in2="back"/></filter></defs><linearGradient id="dw" x1="2643.935" x2="3266.576" y1="1880.054" y2="1880.054" gradientUnits="userSpaceOnUse"><stop offset="0" stop-color="#fff"/><stop offset="1"/></linearGradient><path fill="url(#dw)" d="M2662.262,1837.81c0,0,568.857,122.895,601.543,101.929
				c32.684-20.966-232.966-52.145-307.837-70.626C2881.096,1850.633,2565.293,1785.676,2662.262,1837.81z" mask="url(#dv)"/></g></mask><linearGradient id="dx" x1="2643.935" x2="3266.576" y1="1880.054" y2="1880.054" gradientUnits="userSpaceOnUse"><stop offset="0" stop-color="#4d60a4"/><stop offset="1" stop-color="#4d60a4"/></linearGradient><path fill="url(#dx)" d="M2662.262,1837.81c0,0,568.857,122.895,601.543,101.929
		c32.684-20.966-232.966-52.145-307.837-70.626C2881.096,1850.633,2565.293,1785.676,2662.262,1837.81z" opacity=".6"/><defs><filter id="dy" width="396.777" height="375.325" x="2533.336" y="2446.266" filterUnits="userSpaceOnUse"><feFlood flood-color="#fff" flood-opacity="1" result="back"/><feBlend in="SourceGraphic" in2="back"/></filter></defs><mask id="dA" width="396.777" height="375.325" x="2533.336" y="2446.266" maskUnits="userSpaceOnUse"><g filter="url(#dy)"><defs><filter id="dz" width="396.777" height="375.325" x="2533.336" y="2446.266" filterUnits="userSpaceOnUse"><feFlood flood-color="#fff" flood-opacity="1" result="back"/><feBlend in="SourceGraphic" in2="back"/></filter></defs><linearGradient id="dB" x1="2533.336" x2="2930.113" y1="2633.929" y2="2633.929" gradientUnits="userSpaceOnUse"><stop offset="0" stop-color="#fff"/><stop offset="1"/></linearGradient><path fill="url(#dB)" d="M2538.242,2805.904c0,0,138.434-193.938,293.06-304.01
				s90.417-27.518,55.036,0c-35.381,27.519-35.381,27.519-35.381,27.519s-90.416,66.83-141.521,121.866
				S2504.011,2873.042,2538.242,2805.904z" mask="url(#dA)"/></g></mask><linearGradient id="dC" x1="2533.336" x2="2930.113" y1="2633.929" y2="2633.929" gradientUnits="userSpaceOnUse"><stop offset="0" stop-color="#4d60a4"/><stop offset="1" stop-color="#4d60a4"/></linearGradient><path fill="url(#dC)" d="M2538.242,2805.904c0,0,138.434-193.938,293.06-304.01s90.417-27.518,55.036,0
		c-35.381,27.519-35.381,27.519-35.381,27.519s-90.416,66.83-141.521,121.866S2504.011,2873.042,2538.242,2805.904z" opacity=".6"/><defs><filter id="dD" width="303.028" height="250.002" x="3287.307" y="2563.915" filterUnits="userSpaceOnUse"><feFlood flood-color="#fff" flood-opacity="1" result="back"/><feBlend in="SourceGraphic" in2="back"/></filter></defs><mask id="dF" width="303.028" height="250.002" x="3287.307" y="2563.915" maskUnits="userSpaceOnUse"><g filter="url(#dD)"><defs><filter id="dE" width="303.028" height="250.002" x="3287.307" y="2563.915" filterUnits="userSpaceOnUse"><feFlood flood-color="#fff" flood-opacity="1" result="back"/><feBlend in="SourceGraphic" in2="back"/></filter></defs><linearGradient id="dG" x1="3287.307" x2="3590.335" y1="2688.916" y2="2688.916" gradientUnits="userSpaceOnUse"><stop offset="0" stop-color="#fff"/><stop offset="1"/></linearGradient><path fill="url(#dG)" d="M3287.316,2579.208c0,0,17.035,85.175,90.416,136.28
				c73.382,51.104,222.819,117.984,212.051,93.037c-10.768-24.947-174.049-70.761-223.844-142.832
				S3286.693,2535.009,3287.316,2579.208z" mask="url(#dF)"/></g></mask><linearGradient id="dH" x1="3287.307" x2="3590.335" y1="2688.916" y2="2688.916" gradientUnits="userSpaceOnUse"><stop offset="0" stop-color="#4d60a4"/><stop offset="1" stop-color="#4d60a4"/></linearGradient><path fill="url(#dH)" d="M3287.316,2579.208c0,0,17.035,85.175,90.416,136.28
		c73.382,51.104,222.819,117.984,212.051,93.037c-10.768-24.947-174.049-70.761-223.844-142.832
		S3286.693,2535.009,3287.316,2579.208z" opacity=".6"/><defs><filter id="dI" width="81.376" height="51.268" x="3227.562" y="1945.636" filterUnits="userSpaceOnUse"><feFlood flood-color="#fff" flood-opacity="1" result="back"/><feBlend in="SourceGraphic" in2="back"/></filter></defs><mask id="dK" width="81.376" height="51.268" x="3227.562" y="1945.636" maskUnits="userSpaceOnUse"><g filter="url(#dI)"><defs><filter id="dJ" width="81.376" height="51.268" x="3227.562" y="1945.636" filterUnits="userSpaceOnUse"><feFlood flood-color="#fff" flood-opacity="1" result="back"/><feBlend in="SourceGraphic" in2="back"/></filter></defs><linearGradient id="dL" x1="3227.561" x2="3308.938" y1="1971.27" y2="1971.27" gradientUnits="userSpaceOnUse"><stop offset="0" stop-color="#fff"/><stop offset="1"/></linearGradient><path fill="url(#dL)" d="M3249.953,1956.654c0,0,45.881,7.982,58.984-11.019
				c0,0-3.932,38.001-35.381,47.829c-31.449,9.828-45.995-4.537-45.995-4.537L3249.953,1956.654z" mask="url(#dK)"/></g></mask><linearGradient id="dM" x1="3227.561" x2="3308.938" y1="1971.27" y2="1971.27" gradientUnits="userSpaceOnUse"><stop offset="0" stop-color="#845e9c"/><stop offset="1" stop-color="#845e9c"/></linearGradient><path fill="url(#dM)" d="M3249.953,1956.654c0,0,45.881,7.982,58.984-11.019
		c0,0-3.932,38.001-35.381,47.829c-31.449,9.828-45.995-4.537-45.995-4.537L3249.953,1956.654z" opacity=".5"/><defs><filter id="dN" width="83.692" height="69.725" x="2947.796" y="2356.26" filterUnits="userSpaceOnUse"><feFlood flood-color="#fff" flood-opacity="1" result="back"/><feBlend in="SourceGraphic" in2="back"/></filter></defs><mask id="dP" width="83.692" height="69.725" x="2947.796" y="2356.26" maskUnits="userSpaceOnUse"><g filter="url(#dN)"><defs><filter id="dO" width="83.692" height="69.725" x="2947.796" y="2356.26" filterUnits="userSpaceOnUse"><feFlood flood-color="#fff" flood-opacity="1" result="back"/><feBlend in="SourceGraphic" in2="back"/></filter></defs><linearGradient id="dQ" x1="2947.796" x2="3031.488" y1="2391.122" y2="2391.122" gradientUnits="userSpaceOnUse"><stop offset="0" stop-color="#fff"/><stop offset="1"/></linearGradient><polygon fill="url(#dQ)" points="3002.93 2356.26 3031.488 2400.19 2994.938 2425.984 2947.796 2395.577" mask="url(#dP)"/></g></mask><linearGradient id="dR" x1="2947.796" x2="3031.488" y1="2391.122" y2="2391.122" gradientUnits="userSpaceOnUse"><stop offset="0" stop-color="#845e9c"/><stop offset="1" stop-color="#845e9c"/></linearGradient><polygon fill="url(#dR)" points="3002.93 2356.26 3031.488 2400.19 2994.938 2425.984 2947.796 2395.577" opacity=".5"/><defs><filter id="dS" width="59.157" height="70.984" x="3251.07" y="2493.041" filterUnits="userSpaceOnUse"><feFlood flood-color="#fff" flood-opacity="1" result="back"/><feBlend in="SourceGraphic" in2="back"/></filter></defs><mask id="dU" width="59.157" height="70.984" x="3251.07" y="2493.041" maskUnits="userSpaceOnUse"><g filter="url(#dS)"><defs><filter id="dT" width="59.157" height="70.984" x="3251.07" y="2493.041" filterUnits="userSpaceOnUse"><feFlood flood-color="#fff" flood-opacity="1" result="back"/><feBlend in="SourceGraphic" in2="back"/></filter></defs><linearGradient id="dV" x1="3251.07" x2="3310.227" y1="2528.533" y2="2528.533" gradientUnits="userSpaceOnUse"><stop offset="0" stop-color="#fff"/><stop offset="1"/></linearGradient><path fill="url(#dV)" d="M3251.355,2505.313l51.689-12.272c0,0,0.436,26.84,7.183,48.023
				c0,0-47.388,24.815-47.964,22.851C3261.688,2561.951,3249.027,2521.399,3251.355,2505.313z" mask="url(#dU)"/></g></mask><linearGradient id="dW" x1="3251.07" x2="3310.227" y1="2528.533" y2="2528.533" gradientUnits="userSpaceOnUse"><stop offset="0" stop-color="#845e9c"/><stop offset="1" stop-color="#845e9c"/></linearGradient><path fill="url(#dW)" d="M3251.355,2505.313l51.689-12.272c0,0,0.436,26.84,7.183,48.023
		c0,0-47.388,24.815-47.964,22.851C3261.688,2561.951,3249.027,2521.399,3251.355,2505.313z" opacity=".5"/><defs><filter id="dX" width="68.523" height="61.472" x="3816.062" y="2203.299" filterUnits="userSpaceOnUse"><feFlood flood-color="#fff" flood-opacity="1" result="back"/><feBlend in="SourceGraphic" in2="back"/></filter></defs><mask id="dZ" width="68.523" height="61.472" x="3816.062" y="2203.299" maskUnits="userSpaceOnUse"><g filter="url(#dX)"><defs><filter id="dY" width="68.523" height="61.472" x="3816.062" y="2203.299" filterUnits="userSpaceOnUse"><feFlood flood-color="#fff" flood-opacity="1" result="back"/><feBlend in="SourceGraphic" in2="back"/></filter></defs><linearGradient id="ea" x1="3816.061" x2="3884.585" y1="2234.035" y2="2234.035" gradientUnits="userSpaceOnUse"><stop offset="0" stop-color="#fff"/><stop offset="1"/></linearGradient><path fill="url(#ea)" d="M3850.816,2203.299l33.769,42.015
				c0,0-33.158,19.416-62.903,19.457l-5.62-52.108C3816.062,2212.662,3841.677,2210.023,3850.816,2203.299z" mask="url(#dZ)"/></g></mask><linearGradient id="eb" x1="3816.061" x2="3884.585" y1="2234.035" y2="2234.035" gradientUnits="userSpaceOnUse"><stop offset="0" stop-color="#845e9c"/><stop offset="1" stop-color="#845e9c"/></linearGradient><path fill="url(#eb)" d="M3850.816,2203.299l33.769,42.015c0,0-33.158,19.416-62.903,19.457
		l-5.62-52.108C3816.062,2212.662,3841.677,2210.023,3850.816,2203.299z" opacity=".5"/><defs><filter id="ec" width="767.17" height="1263.128" x="3245.094" y="509.904" filterUnits="userSpaceOnUse"><feFlood flood-color="#fff" flood-opacity="1" result="back"/><feBlend in="SourceGraphic" in2="back"/></filter></defs><mask id="ee" width="767.17" height="1263.128" x="3245.094" y="509.904" maskUnits="userSpaceOnUse"><g filter="url(#ec)"><defs><filter id="ed" width="767.17" height="1263.128" x="3245.094" y="509.904" filterUnits="userSpaceOnUse"><feFlood flood-color="#fff" flood-opacity="1" result="back"/><feBlend in="SourceGraphic" in2="back"/></filter></defs><linearGradient id="ef" x1="3187.442" x2="2595.418" y1="1010.205" y2="2035.622" gradientTransform="rotate(5.641 7240.778 7095.08)" gradientUnits="userSpaceOnUse"><stop offset="0" stop-color="#fff"/><stop offset="1"/></linearGradient><path fill="url(#ef)" d="M3443.931,574.639c0,0-303.116,35.797-160.843-46.663
				c94.828-54.96,447.73,26.497,490.993,96.52c24.835,40.198-240.183,45.182-190.198,72.37s355.686-12.982,413.302,187.927
				c57.617,200.909-57.103,461.061-221.358,653.914s-380.019,276.841-452.62,213.503c-72.602-63.338,238.77-236.732,347.469-480.317
				c108.699-243.585,108.372-514.235-10.187-510.028c-118.558,4.208-258.686-27.266-217.68-90.591
				C3483.815,607.949,3758.307,591.364,3443.931,574.639z" mask="url(#ee)"/></g></mask><linearGradient id="eg" x1="3187.442" x2="2595.418" y1="1010.205" y2="2035.622" gradientTransform="rotate(5.641 7240.778 7095.08)" gradientUnits="userSpaceOnUse"><stop offset="0" stop-color="#a7d1e7"/><stop offset="1" stop-color="#a7d1e7"/></linearGradient><path fill="url(#eg)" d="M3443.931,574.639c0,0-303.116,35.797-160.843-46.663
		c94.828-54.96,447.73,26.497,490.993,96.52c24.835,40.198-240.183,45.182-190.198,72.37s355.686-12.982,413.302,187.927
		c57.617,200.909-57.103,461.061-221.358,653.914s-380.019,276.841-452.62,213.503c-72.602-63.338,238.77-236.732,347.469-480.317
		c108.699-243.585,108.372-514.235-10.187-510.028c-118.558,4.208-258.686-27.266-217.68-90.591
		C3483.815,607.949,3758.307,591.364,3443.931,574.639z" opacity=".6"/></svg>