<svg xmlns="http://www.w3.org/2000/svg" viewBox="0 0 800 800"><g data-name="Secondary shapes"><path fill="#e9edf7" d="M72.09,680.08c0-7,151.77-12.73,339-12.73s339,5.7,339,12.73-151.77,12.72-339,12.72S72.09,687.1,72.09,680.08Z"/><path fill="none" stroke="#dae0f5" stroke-linecap="round" stroke-linejoin="round" stroke-width="2" d="M373.54,176.44c-15.06-14.22-59.89-72.71-79.52-109"/><path fill="none" stroke="#dae0f5" stroke-linecap="round" stroke-linejoin="round" stroke-width="2" d="M291.1,68.18a4.79,4.79,0,1,1,5.12-4.43A4.79,4.79,0,0,1,291.1,68.18Z"/><path fill="none" stroke="#dae0f5" stroke-linecap="round" stroke-linejoin="round" stroke-width="2" d="M294.52,111.17a4.64,4.64,0,1,1,5-4.29A4.65,4.65,0,0,1,294.52,111.17Z"/><path fill="none" stroke="#dae0f5" stroke-linecap="round" stroke-linejoin="round" stroke-width="2" d="M342.05,115.78a5.26,5.26,0,1,1,5.63-4.87A5.26,5.26,0,0,1,342.05,115.78Z"/><path fill="none" stroke="#dae0f5" stroke-linecap="round" stroke-linejoin="round" stroke-width="2" d="M327.59,153.25a6.1,6.1,0,1,1,6.52-5.64A6.1,6.1,0,0,1,327.59,153.25Z"/><path fill="none" stroke="#dae0f5" stroke-linecap="round" stroke-linejoin="round" stroke-width="2" d="M307.49,68a4,4,0,1,1,4.25-3.67A4,4,0,0,1,307.49,68Z"/><path fill="none" stroke="#dae0f5" stroke-linecap="round" stroke-linejoin="round" stroke-width="2" d="M306.93,67.88c-.48,3.58-2.53,15-1.37,19"/><path fill="none" stroke="#dae0f5" stroke-linecap="round" stroke-linejoin="round" stroke-width="2" d="M299.48,106.88c3.19.23,15.47,1.82,23.27,5.7"/><path fill="none" stroke="#dae0f5" stroke-linecap="round" stroke-linejoin="round" stroke-width="2" d="M342.05,115.78c-1.33,2.64-3.52,15.71-2.28,20.14"/><path fill="none" stroke="#dae0f5" stroke-linecap="round" stroke-linejoin="round" stroke-width="2" d="M333.61,149.6c3.35.88,19.37,5.38,22.27,6.91"/><path fill="none" stroke="#9f9cff" stroke-linecap="round" stroke-linejoin="round" stroke-width="2" d="M723.54,405.84c-21.9,20.81-13.12,35.05-4.4,38.43-2.24,11.41,8.88,24.58,30,21.2"/><path fill="none" stroke="#9f9cff" stroke-linecap="round" stroke-linejoin="round" stroke-width="2" d="M735.5,408.17c-19.35,8.86-23.84,26.26-15.21,35.53,1,9,13.73,21.27,36.17,13.85"/><path fill="none" stroke="#9f9cff" stroke-linecap="round" stroke-linejoin="round" stroke-width="2" d="M750.12,416.06c-6.73-.41-36.26,10.5-28.16,26.75.62,8.94,22.4,14.93,39.81,6.75"/><path fill="none" stroke="#9f9cff" stroke-linecap="round" stroke-linejoin="round" stroke-width="2" d="M751.39,448.4c-4.4.9-20.39-1.53-29.43-5.59,4.52-7.64,18.4-16.74,23.83-17.76"/><path fill="none" stroke="#9f9cff" stroke-linecap="round" stroke-linejoin="round" stroke-width="2" d="M722,442.81c9.5,1.16,19.88,2.32,34.79-1.94"/><path fill="none" stroke="#9f9cff" stroke-linecap="round" stroke-linejoin="round" stroke-width="2" d="M760.45,432.2c-7.69-1.12-29.29,5.4-36.16,10.89"/><path fill="none" stroke="#9f9cff" stroke-linecap="round" stroke-linejoin="round" stroke-width="2" d="M719.14,444.27c-7.61,1.42-51.67,20.7-68.21,31.62"/><path fill="#ced3f8" d="M174.09,570.72c-29.49-12.07-53,6.25-62.29,42.62C140.59,618.91,175.75,605.52,174.09,570.72Z"/><path fill="#dde2f8" d="M182.26,546.43c-28.33-26.55-63.06-15.9-89.4,21.48C123.22,586.75,169.06,586.76,182.26,546.43Z"/><path fill="none" stroke="#bbc0e6" stroke-linecap="round" stroke-linejoin="round" stroke-width="2" d="M182.26,546.43c-15.63,4.71-54.75,11.26-78.57,18.33"/><path fill="#ced3f8" d="M631.55,558.59c39.39-11.88,67.37,14.58,74.8,62.47C668.65,624.67,625.11,603.11,631.55,558.59Z"/><path fill="none" stroke="#bbc0e6" stroke-linecap="round" stroke-linejoin="round" stroke-width="2" d="M631.55,558.59c12.62,11.83,46.71,36.46,66,54.39"/><path fill="#e9edf7" d="M627.21,547.46c21.68-46.73,69.71-50.88,120.68-18C719.89,567.76,663.49,590.54,627.21,547.46Z"/><path fill="none" stroke="#fff" stroke-linecap="round" stroke-linejoin="round" stroke-width="2" d="M627.21,547.46c21.58-2,73-13.33,105.8-16.46"/><path fill="#ced3f8" d="M406.33,220.53c-46.36-15.73-55.17-60.69-29.25-112.2C416.08,130.89,443.34,181.87,406.33,220.53Z"/><path fill="none" stroke="#bbc0e6" stroke-linecap="round" stroke-linejoin="round" stroke-width="2" d="M406.33,220.53c-4.05-20.19-20-67.59-26.31-98.29"/><path fill="#e9edf7" d="M417.59,255.44c-61.28,34-117.41.09-147.08-76.93C332,158.87,412.2,179,417.59,255.44Z"/><path fill="none" stroke="#fff" stroke-linecap="round" stroke-linejoin="round" stroke-width="2" d="M417.59,255.44c-25.29-15.13-90.92-43.8-129.51-66.66"/><path fill="#ced3f8" d="M192.56,531.48c-2.47,4.76-52.28,14.37-54.72,5.06-1.9-7.26,5.83-9.45,8.7-10,4.51-.91,15.52-2.39,14.33-5.6-2.17-5.8-29.54,1.48-36.32,2.84S104.25,526,99,520.5s-6.82-8.25,5.17-10,36-2.24,29.32-7.94-25.29-1-36.92-2.19-33.35-7.35-27.63-14c5.12-5.91,38.59,2.4,37.41-3.47-1-4.69-10.88-3.5-26-6.43S51,470.69,52,461.63c.77-7.28,10-3.38,18.19-1.91s19.61,3.1,17.54-1.09S45,451.05,43.62,439c-.93-8,7.5-4.5,17.1-3.31s13.06.89,12.66-1.06S60.31,429,53.3,427.19s-16.43-6.86-14.91-13.41,12.46-2.44,16.14,0,8.24,3.23,9,2.13-10.83-10-5.23-15.22,15.8,4.41,17.3,11.84,3.78,17.41,6.51,16.86,1-9.15-.36-15.93-.34-9.79,1.48-10.15c6.08-1.23,13,6.56,14,11.51s2.94,33.44,7,32.63,2.18-11.42,1.08-16.9-3.68-18.24,3.1-19.61,13.89,15.11,15.34,25.66,2.49,27.84,5.61,27.21,4.65-14.63,3.31-21.28-7.12-17.82,1.22-19.5,12.08,8.13,14.71,21.18c1.1,5.45,3.68,19,.53,27.22-3.59,9.4-3.83,14.66-1.67,15.58,4.31,1.85,6.35-6.83,6.4-13.35s-1.06-26.77,9.06-25,6.8,18.3,6.14,25.08-5.12,30.45.09,31.44,4.21-12.11,4.33-16.2,3.11-12.49,6.32-10.36S197,523,192.56,531.48Z"/><path fill="#5652cc" d="M344.24,646.07c-1.71,13.89,8.26,25.25,22.15,25.25H589.28c13.89,0,26.65-11.36,28.36-25.25l55.61-452.93c1.7-13.89-8.27-25.25-22.15-25.25H428.21c-13.89,0-26.65,11.36-28.36,25.25Z"/><path fill="#fff" d="M602.7,627.54H365a5.19,5.19,0,0,1-5.14-5.82L411.6,200.29a5.18,5.18,0,0,1,5.14-4.55H654.45a5.19,5.19,0,0,1,5.14,5.82L607.84,623A5.18,5.18,0,0,1,602.7,627.54Z"/><line x1="562.4" x2="512.96" y1="183.94" y2="183.94" fill="none" stroke="#131147" stroke-linecap="round" stroke-linejoin="round" stroke-width="4"/><path fill="none" stroke="#807dfb" stroke-linecap="round" stroke-linejoin="round" stroke-width="3" d="M494.37,648.87a11.93,11.93,0,0,0-12.08-13.78,16,16,0,0,0-15.48,13.78,11.94,11.94,0,0,0,12.09,13.78A16,16,0,0,0,494.37,648.87Z"/><path fill="#362e94" d="M358.55,670a23.83,23.83,0,0,0,7.84,1.31H589.28c13.89,0,26.65-11.36,28.36-25.25l55.61-452.93c1.27-10.32-3.92-19.25-12.37-23.15h0A196.53,196.53,0,0,1,682,182.86c10.77,7.75,13.88,15.63,12.55,26.41l-54.7,445.55c-1.71,13.89-14.47,25.26-28.36,25.26h-219c-3.56,0-6.68.08-11.5-1.82C377.44,676.86,358.55,670,358.55,670Z"/><polygon fill="#dde2f8" points="620.41 411.64 539.49 411.64 545.02 366.58 625.94 366.58 620.41 411.64"/><polygon fill="#e9edf7" points="545.02 366.58 582.72 389.11 625.94 366.58 545.02 366.58"/><polygon fill="#ced3f8" points="545.02 366.58 581.31 400.58 625.94 366.58 582.72 389.11 545.02 366.58"/><path fill="none" stroke="#dde2f8" stroke-linecap="round" stroke-linejoin="round" stroke-width="3" d="M613.82,574.34H350.39c-9.8,0-16.76-7.94-15.56-17.73L367,295.06"/><path fill="#423eaf" d="M601.19,285.37l5.87-47.81a13.32,13.32,0,0,0-13.5-15.39H519.21a17.92,17.92,0,0,0-17.29,15.39l-8.36,68.17a13.32,13.32,0,0,0,13.5,15.39H628.19c2.8,0,4.31-3.65,2.14-5.15l-22.85-15.81A15.4,15.4,0,0,1,601.19,285.37Z"/><path fill="#fcba06" d="M322.53,348.84,328.4,301a17.9,17.9,0,0,1,17.28-15.39h108.1c8.51,0,14.55,6.89,13.51,15.39l-8.37,68.17a17.91,17.91,0,0,1-17.29,15.39H286.75c-2.79,0-3.41-3.65-.87-5.15l26.73-15.82A20.41,20.41,0,0,0,322.53,348.84Z"/><path fill="#6b67e9" d="M574.44,476.19l6.93-56.42c1.23-10-5.9-18.17-15.94-18.17H437.86c-10,0-19.17,8.13-20.4,18.17l-9.88,80.44c-1.23,10,5.91,18.17,15.94,18.17H606.3c3.3,0,5.09-4.31,2.52-6.08l-27-18.66A18.14,18.14,0,0,1,574.44,476.19Z"/><path fill="none" stroke="#423eaf" stroke-linecap="round" stroke-width="4" d="M435.92,437.69c3.71,4.23,10.57,4.23,15.33,0s11.61-4.23,15.32,0,10.57,4.23,15.32,0,11.62-4.23,15.33,0,10.57,4.23,15.32,0,11.61-4.23,15.33,0,10.57,4.23,15.32,0,11.61-4.23,15.32,0"/><path fill="none" stroke="#423eaf" stroke-linecap="round" stroke-width="4" d="M434.05,452.87c3.72,4.23,10.58,4.23,15.33,0s11.61-4.23,15.33,0,10.57,4.23,15.32,0,11.61-4.23,15.32,0,10.58,4.23,15.33,0,11.61-4.23,15.33,0,10.57,4.23,15.32,0,11.61-4.23,15.32,0"/><path fill="none" stroke="#423eaf" stroke-linecap="round" stroke-width="4" d="M432.19,468.05c3.71,4.23,10.58,4.23,15.33,0s11.61-4.23,15.32,0,10.58,4.23,15.32,0,11.62-4.23,15.33,0,10.57,4.23,15.33,0,11.61-4.23,15.32,0,10.57,4.23,15.32,0,11.62-4.23,15.33,0"/><path fill="none" stroke="#423eaf" stroke-linecap="round" stroke-width="4" d="M430.33,483.23c3.71,4.23,10.57,4.23,15.33,0s11.6-4.23,15.32,0,10.57,4.23,15.32,0,11.62-4.23,15.32,0,10.58,4.23,15.33,0,11.61-4.23,15.33,0,10.57,4.23,15.32,0,11.61-4.23,15.32,0"/><polygon fill="#e19100" points="441.95 334.42 342.97 334.42 343.47 330.39 442.45 330.39 441.95 334.42"/><polygon fill="#e19100" points="440.56 345.76 341.58 345.76 342.07 341.73 441.06 341.73 440.56 345.76"/><polygon fill="#e19100" points="418.64 357.11 340.19 357.11 340.68 353.08 419.13 353.08 418.64 357.11"/><ellipse cx="383.26" cy="315.91" fill="#fff" rx="5.55" ry="2.16" transform="rotate(-81.74 383.278 315.902)"/><path fill="#fff" d="M392.56,315.91c.37-3,1.65-5.5,2.85-5.5s1.88,2.46,1.5,5.5-1.65,5.49-2.85,5.49S392.19,318.94,392.56,315.91Z"/><path fill="#fff" d="M404,315.91c.37-3,1.65-5.5,2.85-5.5s1.88,2.46,1.5,5.5-1.65,5.49-2.85,5.49S403.67,318.94,404,315.91Z"/><path fill="#9f9cff" d="M516.66,276.09c.91-2,10.5,7.85,29.92,8.85,14.31.73,34.95-11.89,36.09-10.8s-18.37,18.73-36.14,17.71C529.24,290.85,515.16,279.33,516.66,276.09Z"/><path fill="#9f9cff" d="M537.55,266.58c3.3-4.37,3-10.3,1.86-12.59a3.41,3.41,0,0,0-6-.59c-1.87,2.56-2.95,9.17-2.11,12S535,270,537.55,266.58Z"/><path fill="#9f9cff" d="M560.12,266.58c-2.23-4.37-.43-10.3,1.24-12.59s4.91-3.14,6.16-.59.7,9.17-.84,12S561.85,270,560.12,266.58Z"/><ellipse cx="429.56" cy="574.34" fill="#fcba06" rx="25.36" ry="22.43" transform="rotate(-43.24 429.606 574.365)"/><polygon fill="#fff" points="428.59 582.26 419.39 586.8 422.23 577.19 416.07 570.38 425.9 568.98 431.29 560.23 434.54 568.98 444.02 570.38 436.2 577.19 436.67 586.8 428.59 582.26"/><path fill="#ef5a36" d="M547.08,518.38l-11.49,11.5-11.5-11.5a6.73,6.73,0,0,1,8.69-10.23l2.81,2.22,2.81-2.22a6.73,6.73,0,0,1,8.68,10.23Z"/><circle cx="466.71" cy="108.95" r="32.5" fill="#dde2f8" transform="rotate(-45 466.713 108.961)"/><path fill="#9f9cff" d="M458.16,91.87c-.62-1.49-1.09-1.55-2-1.58-.36,0-.72,0-1.08,0a4.66,4.66,0,0,0-3.28,1.15,10.26,10.26,0,0,0-3.29,7.83c0,4.61,3.36,9.07,3.81,9.69s6.56,10.23,16,14.14c7.39,3.06,9.58,2.78,11.27,2.42,2.45-.53,5.53-2.35,6.31-4.54a8.11,8.11,0,0,0,.55-4.46c-.23-.4-.85-.62-1.8-1.1s-5.54-2.74-6.41-3a1.79,1.79,0,0,0-2.3.7c-.91,1.27-1.8,2.55-2.51,3.33a2,2,0,0,1-2.27.36,23.88,23.88,0,0,1-7.54-4.65,28.92,28.92,0,0,1-5.22-6.48c-.55-.95-.06-1.5.38-2s.92-1,1.4-1.55a6,6,0,0,0,1-1.47,1.91,1.91,0,0,0-.14-1.74c-.22-.47-2.11-5.09-2.89-7Z"/><path fill="#362e94" d="M158.16,424.8c.71,57.05,7.75,70.55,14,123-6.89,24.57-9.13,91-10.36,111h10.36c10.16-27.74,40.24-95.93,37.57-233.95Z"/><path fill="#f8d8d0" d="M159.42,662.54a43.16,43.16,0,0,0,2.41-3.79h10.36c-1,2.93-1.62,5.43-1.22,6.89C168.27,666.68,164.33,664,159.42,662.54Z"/><path fill="#423eaf" d="M159.42,662.54c4.91,1.47,8.85,4.14,11.55,3.1,1.42,1,22.43,8.6,24.57,10.06s1.87,3.82-.45,3.82c-3.38,0-31.28-1.22-31.28-1.22-.57.61-1,1.22-1,1.22h-6.37C154.51,676.22,155,666.33,159.42,662.54Z"/><path fill="#f8d8d0" d="M209.29,257.2c.86,6.64,5.5,26.27,1.6,33.35-3.19,5.82-9.76,6.8-20.34,3.21s-11-22.82-12.41-28.37C175.94,256.6,207.49,243.22,209.29,257.2Z"/><path fill="#f8d8d0" d="M200.05,293.4c.58,3.37,2.56,10,2.56,10-1.46,2-11,5.16-21.38-.75.75-6.2.25-20.58.25-20.58Z"/><path fill="#ed9f00" d="M149.21,372.07c-1.28,19.85,12.58,26.49,12.58,26.49l8.28-48.24c-7.35-1.24-12-3.31-16.35-6.26A142,142,0,0,0,149.21,372.07Z"/><path fill="#ed9f00" d="M153.72,344.06c4.34,2.95,9,5,16.35,6.26L178,304C171,307.94,160,320.83,153.72,344.06Z"/><path fill="#fcba06" d="M181.23,302.68C175,304,163.71,314.26,160,340.6s-1.79,84.2-1.79,84.2h73.25c2.61-15.9.59-65-4.75-89.67-2.87-13.26-9.48-25.66-20.81-30.58C196.1,300.32,181.23,302.68,181.23,302.68Z"/><path fill="#5652cc" d="M158.16,424.8c.71,57.05,38.84,84.47,49.55,121.26,0,41.76,7.88,103.54,8.58,112.69h10.36c5.64-24.65,27.28-155,4.76-233.95Z"/><path fill="#f8d8d0" d="M216.32,662.54c0-1.72,0-3.79,0-3.79h10.36c-.38,2.93.83,5.43,1.22,6.89C225.18,666.68,221.24,664,216.32,662.54Z"/><path fill="#423eaf" d="M216.32,662.54c4.92,1.47,8.86,4.14,11.55,3.1,1.43,1,22.44,8.6,24.58,10.06s1.87,3.82-.45,3.82c-3.39,0-31.29-1.22-31.29-1.22-.56.61-1,1.22-1,1.22h-6.38C211.41,676.22,211.92,666.33,216.32,662.54Z"/><path fill="#ed9f00" d="M231.41,424.8c2.42-14.76.86-58.08-3.65-84L191,324.51c4.2,23.09,21.41,53.35,23.83,60.83s1.6,28.76,1.6,39.46Z"/><path fill="#362e94" d="M181.23,250.13c10.92-4.92,25.21-15.44,26.77-14.07.29.24-.4,1-.07,1.3.55.49,5.58-7.1,10-4.09s1.79,17.47-8.62,23.93-.65,13.28-5.29,16.89-4.33,16.58-12.08,16.7-12.27,4.87-12,0-4.18-14.54-3.72-22.81S175.17,252.85,181.23,250.13Z"/><path fill="#f8d8d0" d="M201.49,271.48c-.09-2,.85-3.58,2.11-3.64s2.34,1.48,2.43,3.43-.86,3.58-2.11,3.64S201.58,273.43,201.49,271.48Z"/><path fill="#f7d3c9" d="M295.77,308.2c-1.95-3.44-25.32,4.53-26.13,4.55s-.4-7.77-1.42-8.15-2,6.24-2.54,8.39.28,4.14-1.26,8.64a13.45,13.45,0,0,1-1.34,2.8l8.52,5.11c.59-.89,1.18-1.76,1.78-2.58,2.13-3.25,4.73-1.1,8.46-6.66C287.42,312,297.72,311.65,295.77,308.2Z"/><path fill="#fcba06" d="M263.08,324.43a16.27,16.27,0,0,1-1.52,2A394.63,394.63,0,0,1,233.69,356c-3.17-8.19-6.5-16.22-7.25-18.59-2.19-6.33-4.2-12.48-6.68-18.16-2.85-6.54-6.92-13.15-14.17-14.54s-16.78,2.43-15.32,15.8c.64,5.88,4.59,16.42,10.55,27.09,3.26,6.48,19.21,30.42,28.07,33.28,3.71,1.19,7.45.88,9.5-1.19,4.94-2.77,11.36-9.15,16.43-18.2s10.55-22.42,16.78-31.95Z"/><path fill="#6b67e9" d="M66.91,339.17l7.12-14a3.3,3.3,0,0,1,4.42-1.44l14,7.13a3.28,3.28,0,0,1,1.44,4.41l-7.12,14a3.29,3.29,0,0,1-4.42,1.44l-14-7.12A3.29,3.29,0,0,1,66.91,339.17Z"/><path fill="#ffd03e" d="M703.85,104.4l6.93,18.31a2.75,2.75,0,0,0,4.71.77l12.4-15.15a2.75,2.75,0,0,0-1.69-4.46l-19.33-3.16A2.75,2.75,0,0,0,703.85,104.4Z"/><path fill="#fcba06" d="M532.82,718l-13.38,14.3a2.76,2.76,0,0,0,1.39,4.57l19.07,4.43a2.75,2.75,0,0,0,3.26-3.48l-5.69-18.73A2.75,2.75,0,0,0,532.82,718Z"/></g></svg>