<svg xmlns="http://www.w3.org/2000/svg" enable-background="new 0 0 2000 2000" viewBox="0 0 2000 2000"><path fill="#aec0d3" d="M1549.489,239.8c16.93,1.539,50.789,27.703,56.946,32.32c6.156,4.617,35.399,23.086,36.938,60.024
		c1.539,36.938-6.156,87.727-13.852,116.97c-7.695,29.242-307.815,1325.144-307.815,1325.144s-16.93,47.711-46.172,67.719
		c-29.242,20.008-55.407,33.86-84.649,32.321c-29.243-1.539-509.434-3.078-509.434-3.078s-23.086,0-38.477-13.852
		c-15.391-13.851-53.868-26.164-55.407-86.188c-1.539-60.024,41.555-212.392,41.555-212.392L909.234,349.074
		c0,0,13.852-53.867,46.172-80.032c32.321-26.164,64.62-29.242,121.587-29.242C1137.017,239.8,1532.559,238.261,1549.489,239.8z"/><path fill="#333" d="M1020.817,255.96l523.286-3.078c0,0,69.258,15.391,61.563,90.805
		c-7.695,75.415-326.284,1412.871-326.284,1412.871s-30.781,87.727-130.821,87.727s-490.965-3.078-490.965-3.078
		s-76.954-4.617-55.407-112.353C623.735,1621.12,920.777,354.461,920.777,354.461S933.089,266.734,1020.817,255.96z"/><path fill="#91a9bc" d="M1569.497,575.319c0,0-36.938,138.517-32.321,140.056c4.617,1.539,13.852,3.078,16.93-1.539
		c3.078-4.617,35.399-135.439,32.321-136.978C1583.349,575.319,1569.497,575.319,1569.497,575.319z"/><path fill="#b5e0aa" d="M1527.388,282.987l-108.315-0.025c-2.724-0.001-5.155,1.684-6.131,4.227
		c-4.119,10.727-10.738,25.188-17.36,28.027c-10.774,4.617-237.018,4.617-247.791,0c-6.587-2.823-7.996-15.995-8.096-25.809
		c-0.037-3.605-2.95-6.511-6.555-6.512l-104.622-0.024c-84.408,10.366-96.255,94.774-96.255,94.774
		S646.776,1598.262,626.044,1701.922c-20.732,103.659,48.377,109.299,48.377,109.299s372.498-1.563,468.753-1.563
		c96.255,0,120.048-84.649,120.048-84.649S1574.405,440.105,1581.81,367.543C1589.214,294.982,1527.388,282.987,1527.388,282.987z"/><path fill="#e3f4da" d="M1318.363,362.742c1.052-4.979-6.073-4.99-7.904-0.003c-0.882,2.401-2.818,8.991-2.629,11.426
					c0.245,3.152,4.48,3.158,6.552,0.002C1316,371.701,1317.856,365.141,1318.363,362.742z"/><path fill="#e3f4da" d="M1328.854,352.833c-0.981,2.863-2.967,9.559-3.951,13.237c-0.771,2.88-1.752,5.792-1.62,8.071
					c0.186,3.197,4.588,3.203,6.628,0.002c1.449-2.275,2.162-5.207,3.053-8.07c1.144-3.678,3.029-10.373,3.705-13.237
					C1337.832,347.91,1330.546,347.898,1328.854,352.833z"/><path fill="#e3f4da" d="M1347.25,342.927c-1.406,4.278-4.507,14.691-5.851,19.377c-1.164,4.01-2.836,8.213-2.661,11.812
					c0.157,3.234,4.672,3.24,6.703,0.002c2.246-3.579,3.026-7.828,4.174-11.812c1.367-4.686,4.29-15.099,5.359-19.378
					C1356.192,338.06,1348.854,338.049,1347.25,342.927z"/><path fill="#e3f4da" d="M1366.268,358.542c1.58-5.694,5.527-19.825,7.014-25.518c1.257-4.814-6.104-4.825-7.635-0.003
					c-1.807,5.693-6.035,19.823-7.751,25.518c-1.548,5.141-3.905,10.63-3.703,15.554c0.134,3.269,4.751,3.275,6.779,0.002
					C1364.002,369.207,1364.852,363.647,1366.268,358.542z"/><path fill="#e3f4da" d="M1418.75,367.368c-1.708,0.427-3.655,2.075-4.016,3.766c-0.006,0.031-0.013,0.061-0.02,0.092
					c-0.464,2.172,0.599,3.647,2.783,3.809c0.031,0.002,0.061,0.005,0.092,0.007c1.535,0.114,3.372-1.059,4.337-2.401
					c0.997-1.385,1.281-3.209,0.411-4.268C1421.572,367.442,1420.242,366.995,1418.75,367.368z"/><path fill="#e3f4da" d="M1421.337,359.349c-2.219,0.039-4.535,0.605-6.694,1.76c-2.16,1.155-4.163,2.898-5.757,5.292
					c-1.156,1.736,0.996,3.013,2.582,1.765c2.597-2.042,4.882-3.885,8.068-4.266c3.279-0.393,5.74,1.049,6.94,3.503
					c1.19,2.432,6.139,0.113,4.989-2.45C1429.826,361.302,1425.775,359.271,1421.337,359.349z"/><path fill="#e3f4da" d="M1436.599,349.786c-2.701-2.321-6.351-3.67-10.493-3.656c-3.484,0.009-7.608,1.215-11.459,3.248
					c-1.971,1.041-3.868,2.303-5.578,3.735c-1.625,1.36-3.072,2.867-4.239,4.472c-1.177,1.619,0.23,2.913,1.605,2.01
					c1.23-0.808,2.963-1.734,4.705-2.982c1.088-0.78,2.213-1.518,3.355-2.184c2.969-1.729,6.055-2.991,8.87-3.208
					c1.476-0.114,2.818,0.013,4.057,0.331c1.287,0.33,2.404,0.887,3.384,1.6c1.922,1.39,3.331,3.388,4.339,5.63
					c0.774,1.721,3.46,0.772,3.375-0.361c0.391,0.057,2.497-2.208,1.36-4.47C1439.074,352.344,1437.95,350.947,1436.599,349.786z"/><path fill="#e3f4da" d="M1449.32,348.327c-0.409-2.319-1.177-4.509-2.268-6.49c-1.09-1.981-2.502-3.753-4.195-5.236
					c-3.387-2.967-7.901-4.78-13.229-4.802c-4.75-0.02-10.682,1.826-16.223,4.735c-2.771,1.455-5.443,3.176-7.822,5.064
					c-2.378,1.887-4.462,3.94-6.056,6.059c-1.838,2.444,0.886,4.439,3.102,2.131c3.133-3.264,7.46-6.526,12.03-8.952
					c4.57-2.426,9.384-4.016,13.492-3.933c4.642,0.092,8.013,1.791,10.516,4.373s4.137,6.049,5.303,9.679
					C1444.913,353.886,1449.848,351.325,1449.32,348.327z"/><path fill="#e3f4da" d="M1501.009,374.924c-36.861-0.013-37.505-0.895-38.188-1.829
						c-0.716-0.981-1.606-2.204,10.38-38.69c0.934-3.103,3.924-3.602,15.105-4.22c6.115-0.338,14.571-0.608,25.132-0.802
						c17.948-0.331,36.031-0.328,36.212-0.328l2.349,0.001l-0.936,7.848c8.944-0.937,9.975,0.475,10.439,1.109
						c0.496,0.68,1.327,1.817-2.046,13.478c-3.374,11.662-4.862,12.798-5.752,13.477c-0.742,0.566-2.567,1.958-9.342,1.189
						c-1.261,3.502-2.639,5.839-4.112,6.963C1539.026,374.054,1537.871,374.937,1501.009,374.924z M1468.355,368.831
						c9.616,0.883,60.416,0.886,69.266-0.017c0.651-1.233,1.577-3.635,2.196-5.773l0.928-3.208l3.077,0.527
						c2.551,0.436,5.419,0.647,6.898,0.549c1.675-3.651,5.002-15.15,5.448-18.822c-1.62-0.136-5.236,0.077-8.665,0.537l-2.792,0.374
						l1.014-8.504c-28.671,0.024-60.047,0.667-67.609,1.857C1473.714,349.83,1469.32,364.218,1468.355,368.831z M1537.198,369.491
						L1537.198,369.491L1537.198,369.491z M1550.288,361.727L1550.288,361.727L1550.288,361.727z M1551.464,360.795
						L1551.464,360.795L1551.464,360.795z M1556.211,341.251L1556.211,341.251L1556.211,341.251z"/><polygon fill="#e3f4da" points="1489.379 338.54 1480.47 338.784 1472.738 365.512 1481.575 365.515"/><polygon fill="#e3f4da" points="1503.996 338.139 1493.26 338.434 1485.425 365.516 1496.075 365.52"/><polygon fill="#e3f4da" points="1507.877 338.032 1499.925 365.521 1509.904 365.525 1517.937 337.757"/><polygon fill="#e3f4da" points="1521.818 337.65 1513.754 365.526 1522.968 365.529 1531.107 337.395"/><path fill="#e3f4da" d="M754.099,1738.279c-0.843-0.537-2.039-0.559-3.198-0.062c-9.782,4.196-33.032,14.578-37.647,20.35
			c-1.044,1.305-2.085,3.459-1.112,6.307c2.618,7.676,20.015,18.804,25.783,18.806c1.327,0,2.738-0.562,3.974-1.582
			c5.794-4.791,10.77-27.864,13.22-41.193C755.321,1739.797,754.94,1738.815,754.099,1738.279z M718.988,1761.187
			c2.798-2.468,14.499-8.568,28.081-14.631c-2.827,14.018-6.268,26.271-8.451,30.147
			C732.152,1775.092,719.805,1764.275,718.988,1761.187z"/><path fill="#e3f4da" d="M931.083,1736.589c-13.267-0.005-27.121,10.571-30.883,23.575
			c-3.762,13.004,3.971,23.588,17.238,23.592c13.267,0.005,27.12-10.572,30.882-23.575
			C952.081,1747.177,944.349,1736.593,931.083,1736.589z M941.393,1760.178c-2.679,9.26-12.544,16.791-21.991,16.787
			c-9.447-0.003-14.953-7.54-12.274-16.799c2.679-9.26,12.544-16.791,21.991-16.787
			C938.565,1743.382,944.071,1750.919,941.393,1760.178z"/><path fill="#e3f4da" d="M1139.161,1738.017l-38.447-0.013c-1.91-0.001-3.904,1.522-4.446,3.393l-11.681,40.377
			c-0.542,1.872,0.571,3.396,2.482,3.396l38.447,0.013c1.91,0.001,3.904-1.522,4.446-3.394l11.681-40.377
			C1142.184,1739.541,1141.071,1738.017,1139.161,1738.017z M1133.733,1744.805l-9.716,33.587l-31.519-0.011l9.716-33.587
			L1133.733,1744.805z"/><g><path fill="#3b877d" d="M1106.788,1390.306c-2.913-1.457-14.567-7.284-18.938,2.914
				c-4.37,10.197-23.308,91.774-87.404,112.169s-100.515-24.764-100.515-50.986c0-26.221,13.111-64.097,8.74-67.01
				c-4.37-2.914-17.481-7.284-23.308,2.913c-5.827,10.197-37.875,128.193,64.825,142.032l-5.827,23.308
				c0,0-59.726-2.913-64.096,4.37c-4.37,7.284-7.284,17.481,1.457,18.938c8.741,1.457,139.847,1.457,145.674-1.457
				s8.74-20.394,1.457-21.851c-7.284-1.457-60.454-0.728-60.454-0.728l7.284-21.851c0,0,59.726,0,99.058-48.072
				C1114.072,1436.922,1109.702,1391.763,1106.788,1390.306z"/><path fill="#3b877d" d="M973.497,1495.92c40.984,4.24,74.294-33.505,84.491-55.356
				c10.197-21.851,26.221-68.467,26.221-94.688c0-26.221-16.024-56.813-50.986-61.183c0,0-42.245-7.284-74.294,27.678
				c-32.048,34.962-45.159,129.65-43.702,139.847C916.684,1462.415,931.251,1491.55,973.497,1495.92z M940.72,1434.009
				c0,0,21.851,2.913,24.765,0c2.914-2.914,7.284-13.111,2.914-14.568s-26.221-1.457-26.221-1.457l5.827-14.567
				c0,0,21.851,0,26.221-5.827c4.37-5.827,0-13.111-5.827-13.111c-5.827,0-16.024-1.457-16.024-1.457l4.37-17.481
				c0,0,24.765,2.913,27.678-1.457c2.914-4.37,5.827-11.654,0-14.567c-5.827-2.913-23.308-1.457-23.308-1.457
				s17.481-33.505,45.159-37.875c27.678-4.37,49.529,18.938,48.072,42.245c0,0-17.481-4.37-21.851,1.457
				c-4.37,5.827-2.913,11.654,0,13.111c2.913,1.457,20.394,4.37,20.394,4.37l-4.37,16.024c0,0-21.851-4.37-24.764,5.827
				c-2.914,10.197,8.74,11.654,18.938,13.111l-5.827,14.567c0,0-18.938-4.37-23.308,2.913c-4.37,7.284-1.457,11.654,1.457,13.111
				s16.024,1.457,16.024,1.457s-18.938,36.419-55.356,36.419S937.807,1436.922,940.72,1434.009z"/><path fill="#78b3ae" d="M1149.762,1399.775c0,1.457-27.678,94.688-21.851,97.601c5.827,2.914,13.111,2.914,16.024-1.457
			c2.913-4.37,26.221-93.231,21.851-96.145C1161.416,1396.862,1149.762,1399.775,1149.762,1399.775z"/><path fill="#78b3ae" d="M1203.661,1361.9c0,1.457-48.072,171.895-42.245,174.808c5.827,2.914,13.111,2.914,16.024-1.457
			c2.913-4.37,46.615-170.438,42.245-173.352C1215.315,1358.986,1203.661,1361.9,1203.661,1361.9z"/><path fill="#78b3ae" d="M1234.253,1414.343c0,1.457-21.851,69.923-16.024,72.837s13.111,2.913,16.024-1.457
			c2.914-4.37,20.394-68.467,16.024-71.38C1245.906,1411.429,1234.253,1414.343,1234.253,1414.343z"/><path fill="#78b3ae" d="M1280.868,1399.775c0,1.457-27.678,94.688-21.851,97.601c5.827,2.914,13.111,2.914,16.024-1.457
			c2.913-4.37,26.221-93.231,21.851-96.145C1292.522,1396.862,1280.868,1399.775,1280.868,1399.775z"/><path fill="#78b3ae" d="M1330.397,1379.381c0,1.457-39.332,132.563-33.505,135.476s13.111,2.913,16.024-1.457
			c2.913-4.37,37.875-131.106,33.505-134.02C1342.051,1376.467,1330.397,1379.381,1330.397,1379.381z"/><path fill="#78b3ae" d="M1381.63,1364.813c0,1.457-46.615,166.068-40.789,168.982c5.827,2.913,13.111,2.913,16.024-1.457
			c2.914-4.37,45.159-164.611,40.789-167.525C1393.284,1361.9,1381.63,1364.813,1381.63,1364.813z"/><path fill="#78b3ae" d="M1427.402,1434.711c9.497-38.108,17.392-72.947,15.411-74.268c-4.37-2.913-16.024,0-16.024,0
			c0,1.457-48.072,171.895-42.245,174.808c5.827,2.913,13.111,2.913,16.024-1.457c1.017-1.526,7.007-22.766,14.185-49.885
			C1418.332,1471.582,1423.464,1451.933,1427.402,1434.711z"/><path fill="#78b3ae" d="M1457.38,1409.972c0,1.457-23.308,75.75-17.481,78.664c5.827,2.914,13.111,2.914,16.024-1.457
			c2.913-4.37,21.851-74.294,17.481-77.207S1457.38,1409.972,1457.38,1409.972z"/><path fill="#78b3ae" d="M563.907,1396.862c0,1.457-27.678,94.688-21.851,97.601c5.827,2.913,13.111,2.913,16.024-1.457
			c2.913-4.37,26.221-93.231,21.851-96.145C575.561,1393.948,563.907,1396.862,563.907,1396.862z"/><path fill="#78b3ae" d="M601.782,1423.083c0,1.457-16.024,46.615-10.197,49.529c5.827,2.913,13.11,2.913,16.024-1.457
			c2.913-4.37,14.567-45.159,10.197-48.072C613.436,1420.169,601.782,1423.083,601.782,1423.083z"/><path fill="#78b3ae" d="M651.311,1396.862c0,1.457-27.678,94.688-21.851,97.601c5.827,2.913,13.111,2.913,16.024-1.457
			c2.914-4.37,26.221-93.231,21.851-96.145C662.965,1393.948,651.311,1396.862,651.311,1396.862z"/><path fill="#78b3ae" d="M711.284,1358.986c0,1.457-45.159,163.154-39.332,166.068c5.827,2.913,13.11,2.913,16.024-1.457
			c2.914-4.37,43.702-161.698,39.332-164.611C722.938,1356.073,711.284,1358.986,711.284,1358.986z"/><path fill="#78b3ae" d="M747.703,1376.467c0,1.457-34.961,131.106-29.135,134.02s13.111,2.914,16.024-1.457
			c2.914-4.37,33.505-129.649,29.135-132.563C759.356,1373.554,747.703,1376.467,747.703,1376.467z"/><path fill="#78b3ae" d="M816.169,1348.789c-4.37-2.913-16.024,0-16.024,0c0,0.503-5.724,21.126-12.981,48.041
			c-0.083,0.02-0.129,0.031-0.129,0.031c0,1.066-14.835,51.324-20.496,79.316c-6.413,26.285-10.609,46.435-8.639,47.42
			c5.827,2.913,13.111,2.913,16.024-1.457C776.837,1517.771,820.539,1351.703,816.169,1348.789z"/><path fill="#78b3ae" d="M830.737,1396.862c0,1.457-27.678,94.688-21.851,97.601c5.827,2.913,13.11,2.913,16.024-1.457
			c2.914-4.37,26.221-93.231,21.851-96.145C842.39,1393.948,830.737,1396.862,830.737,1396.862z"/></g><path fill="#8bbd7b" d="M1508.654,694.547c-3.77,4.047-17.752,27.38-28.439,44.488c-0.632,0.355-1.12,1.041-1.262,2.015
		c-6.22,9.909-11.07,17.231-11.658,16.503c-1.609-1.994,16.01-47.492,10.399-97.295c-4.182-37.121-15.968-38.154-25.747-31.909
		c-9.525,6.082-10.803,32.051-10.863,33.398c-0.011,0.005-0.023,0.011-0.034,0.016c-0.295-0.459-6.344-9.843-14.661-19.542
		c-0.26-0.997-0.942-1.688-1.78-2.039c-10.45-11.762-23.847-23.049-33.922-18.38c-19.173,8.885,3.741,33.202,11.594,44.976
		c7.854,11.774,7.798,46.392,7.798,46.392s-6.471-16.182-24.681-16.306c-18.21-0.124-53.338,21.635-53.077,36.241
		c0.108,6.007,1.64,10.292,3.783,13.198c-0.014,0.031-0.027,0.063-0.041,0.095c-5.136-6.382-9.807-10.848-13.136-10.653
		c-8.915,0.524-18.584,8.15-10.77,33.542c-0.215,0.998,0.027,2.053,0.871,2.676c1.806,5.324,4.324,11.361,7.726,18.221
		c20.988,42.335,30.643,54.301,36.083,63.083c0,0,9.685,25.91,48.534,30.462c4.429,45.005,12.729,161.592-18.816,171.583
		c-0.6-0.642-1.921-0.391-2.99,0.613c-3.085,0.303-6.498-0.287-10.293-1.962c-29.51-13.019-50.686-61.928-62.958-99.215
		c0.21-0.734,0.037-1.847-0.766-3.078c-0.137-0.21-0.285-0.405-0.43-0.605c-0.818-2.553-1.594-5.043-2.324-7.451
		c4.551-38.848,3.629-71.233-1.821-88.975c-0.225-0.733-0.488-1.448-0.765-2.154c0,0,0,0,0,0c-0.266-0.678-0.563-1.339-0.873-1.993
		c-0.046-0.097-0.086-0.198-0.133-0.294c-0.294-0.605-0.615-1.194-0.945-1.779c-0.078-0.138-0.151-0.28-0.231-0.418
		c-0.323-0.554-0.667-1.094-1.02-1.629c-0.104-0.159-0.204-0.32-0.311-0.477c-0.349-0.513-0.716-1.015-1.09-1.511
		c-0.127-0.169-0.253-0.34-0.383-0.508c-0.373-0.479-0.759-0.947-1.154-1.411c-0.149-0.175-0.297-0.351-0.449-0.525
		c-0.393-0.447-0.796-0.886-1.207-1.319c-0.171-0.18-0.341-0.359-0.515-0.536c-0.408-0.417-0.824-0.828-1.248-1.233
		c-0.191-0.183-0.384-0.364-0.578-0.544c-0.42-0.39-0.845-0.774-1.278-1.152c-0.212-0.186-0.427-0.369-0.642-0.551
		c-0.426-0.362-0.855-0.72-1.291-1.071c-0.235-0.189-0.472-0.374-0.709-0.56c-0.428-0.335-0.857-0.669-1.293-0.994
		c-0.257-0.192-0.517-0.379-0.776-0.568c-0.425-0.308-0.849-0.616-1.278-0.916c-0.283-0.197-0.568-0.389-0.853-0.582
		c-0.414-0.281-0.826-0.563-1.243-0.836c-0.313-0.205-0.627-0.403-0.942-0.604c-0.393-0.251-0.786-0.505-1.181-0.75
		c-0.355-0.22-0.71-0.431-1.065-0.646c-0.358-0.216-0.716-0.436-1.074-0.647c-0.435-0.256-0.869-0.503-1.303-0.752
		c-0.278-0.159-0.556-0.323-0.833-0.479c-0.714-0.403-1.427-0.796-2.133-1.18c-2.027-1.099-4.079-2.15-6.154-3.157
		c-6.224-3.021-12.649-5.646-19.182-7.986c-6.533-2.341-13.174-4.397-19.83-6.279c-2.219-0.627-4.439-1.236-6.658-1.828
		c-10.112-2.702-20.35-4.969-30.676-6.858c57.081-23.066,103.745-61.099,133.049-107.475c17.468-5.019,34.438-22.819,47.491-59.723
		c0,0,18.716-6.659,24.881-45.271c6.165-38.612-16.182-59.463-16.182-59.463s-23.932-71.937-62.375-70.221
		c-52.656-73.193-151.65-119.024-261.811-111.781c-46.307,3.044-89.413,15.156-127.022,34.043
		c-4.711,20.146-39.035,166.944-83.141,356.155c30.448,32.078,70.735,57.072,116.918,72.079c-6.861,1.918-13.683,4.058-20.464,6.479
		c-19.445,6.939-47.979,17.871-54.748,39.905c-4.383,14.268-5.835,38.011-3.872,66.962c-21.08,23.177-58.24,57.906-95.826,63.631
		c-2.642,11.359-5.288,22.742-7.936,34.133c45.269-0.921,83.739-23.933,109.738-48.59c12.264,71.718,41.661,157.365,93.223,214.382
		c18.1,20.015,39.544,38.555,64.015,50.664c25.204,12.472,50.005,15.042,76.729,7.162c32.957-9.718,60.608-32.729,83.304-57.826
		c42.884-47.421,70.436-114.648,85.553-177.194c24.829,62.03,76.949,116.846,120.594,82.077
		c10.287-43.141,20.612-86.525,30.803-129.456c-0.672-32.879-3.983-63.235-6.107-79.753c38.979-15.266,38.763-76.186,44.961-88.534
		c0.394-0.784,0.943-1.736,1.596-2.802c7.762-32.986,15.28-65.039,22.457-95.773
		C1509.204,693.991,1508.916,694.265,1508.654,694.547z"/><g><path fill="#5b71cc" d="M539.717,723.323c0,0,41.083,224.053,150.831,270.334c109.748,46.281,198.11-55.261,204.888-87.713
			c6.779-32.452-23.714-19.26-23.714-19.26s-73.829,99.76-138.377,83.796c-76.314-18.874-112.242-69.283-166.523-257.407
			L539.717,723.323z"/><path fill="#fff" d="M490.86,721.001c0,0,34.145,25.234,68.917,9.724c34.772-15.51,29.248-64.547,29.071-83.27
				c-0.177-18.723-4.81-53.851-7.395-59.646c-2.585-5.796-29.063-23.005-30.846-24.253c-1.783-1.248-40.125,64.903-40.125,64.903
				L490.86,721.001z"/><path fill="#6d4e4e" d="M470.884,776.099c-1.427,9.629,11.765,40.121,3.383,63.479
					c-8.382,23.358-32.545,36.997-40.658,35.303c-8.113-1.695-6.418-9.808-4.189-14.889c2.229-5.082,8.829-29.688,4.728-35.216
					c-4.101-5.528-37.088-15.338-44.399-12.485c-7.311,2.852-12.218,45.914-15.25,46.449c-3.031,0.535-15.512-8.204-17.828-39.052
					c-2.316-30.848,12.485-44.399,22.293-50.817c9.808-6.419,35.574-10.964,39.587-14.797
					c4.012-3.833,118.505-205.317,118.505-205.317s22.828-47.786,21.938-61.694c-0.891-13.908-10.696-34.059-7.753-43.955
					c2.943-9.896,24.164-40.208,41.016-50.994c16.851-10.787,14.355-7.221,13.641-2.406c-0.714,4.814-11.237,42.616-8.919,46.896
					s14.799,13.018,25.943,14.178c11.144,1.16,23.003-2.495,26.034-3.029c3.031-0.535,14.803-40.119,19.083-42.437
					c4.28-2.318,20.148,16.763,19.7,49.662c-0.448,32.899-16.344,37.633-21.757,40.564c-10.699,5.794-36.823,12.746-43.064,21.662
					C616.675,526.116,472.312,766.47,470.884,776.099z"/><path fill="#4b3333" d="M599.236,504.927c-1.536-0.908-3.315-1.524-5.255-1.798c-7.731-1.092-15.458,3.312-20.481,8.894
					c-8.976,9.974-15.197,23.212-21.781,34.82c-6.916,12.194-13.592,24.522-20.278,36.843
					c-13.574,25.014-27.411,49.784-42.784,73.748c-14.31,22.306-29.173,44.293-41.596,67.737
					c-6.035,11.39-14.708,25.127-16.233,38.147c-0.729,6.224,2.782,17.308,10.898,16.768c7.515-0.5,13.968-9.535,17.578-15.153
					c7.102-11.052,14.204-22.105,21.306-33.157c1.18-1.837,2.411-4.002,1.746-6.082c-9.166,13.257-18.332,26.514-27.498,39.771
					c-1.955,2.828-4.068,5.789-7.211,7.181c-11.115,4.921-8.724-9.844-6.841-15.325c2.25-6.551,5.642-12.55,8.744-18.711
					c5.882-11.685,12.543-22.953,19.411-34.079c13.516-21.894,28.212-43.038,41.493-65.079
					c13.974-23.191,26.563-47.168,39.575-70.902c6.506-11.866,13.128-23.671,20.098-35.272c3.185-5.301,6.201-11.042,10.483-15.555
					c2.621-2.762,5.857-5.321,9.85-5.615c3.659-0.269,7.814,1.163,8.583,5.136c0.378,1.953-0.026,3.974-0.623,5.871
					c-1.664,5.28-4.785,9.954-7.747,14.631c-5.265,8.313-10.139,16.873-14.602,25.642c2.382-1.675,4.105-4.107,5.753-6.507
					c7.008-10.203,13.547-20.729,19.588-31.534c1.532-2.741,3.061-5.585,3.438-8.702
					C605.479,511.432,603.147,507.238,599.236,504.927z"/><path fill="#fff" d="M504.869,570.061c0,0-13.462-5.44-21.219,3.743c-7.757,9.182,0.979,23.27,0.979,23.27
				s-20.773-2.587-23.181,10.34c-2.408,12.928,6.507,19.169,6.507,19.169s-12.393,0.623-16.584,12.302
				c-4.191,11.679,4.724,17.921,4.724,17.921s-26.48,9.359-16.942,27.994c9.538,18.635,56.88,21.224,66.688,14.805
				c9.808-6.418,1.606-17.474,1.606-17.474s20.506,1.072,21.666-10.073c1.16-11.144-4.724-17.921-4.724-17.921
				s6.33,0.446,10.789-9.717c4.459-10.163-4.456-16.405-4.456-16.405s13.641-2.406,10.433-20.594S504.869,570.061,504.869,570.061z"/><path fill="#fff" d="M582.536,591.67c-2.358-17.402-32.82-42.022-50.741-37.298
				c-17.921,4.724-40.925,33.787-40.925,33.787s-5.793,16.784,15.291,18.468c21.083,1.684,29.376-4.467,29.376-4.467
				s5.349,3.745,2.852,7.311c-2.497,3.566-18.48,58.429-15.797,71.786c2.684,13.357,42.447,17.283,42.447,17.283
				S586.381,620.049,582.536,591.67z"/><path fill="#f1f1f1" d="M584.116,631.014c1.943-2.229-1.842-5.73-3.861-3.519c-12.045,13.191-27.225,21.447-45.386,18.778
				c0.151-0.79,0.284-1.58,0.452-2.371c1.573-7.411,3.732-14.725,6.369-21.826c1.458-3.927,4.244-8.257,3.443-12.464
				c15.457-7.183,18.226-23.44,11.307-37.795c-1.41-2.925-5.915-0.796-4.563,2.168c5.487,12.028-0.72,22.832-9.614,30.536
				c-2.207-2.401-5.266-4.372-8.009-5.26c-2.794-0.905-5.331-0.31-7.86,0.599c0.006-0.062,0.022-0.115,0.025-0.18
				c0.429-9.892-2.681-19.601-10.975-25.517c-2.732-1.949-5.644,2.247-2.979,4.255c6.665,5.023,8.328,12.781,8.446,20.74
				c0.015,1.041,0.505,1.823,1.181,2.321c-0.751,0.259-1.512,0.492-2.291,0.665c-6.137,1.361-20.052,2.443-23.588-4.779
				c-3.684-7.524,5.557-17.335,10.858-21.329c2.812-2.119-0.29-7.092-3.397-5.259c-9.135,5.389-18.87,16.342-15.683,27.861
				c3.526,12.747,21.226,14.32,32.052,12.476c0.543-0.092,1.067-0.229,1.594-0.362c2.211,1.204,4.295,2.52,5.818,4.659
				c2.33,3.271,1.985,6.601,2.508,10.321c-1.126,3.668-2.456,7.317-5.588,9.799c-4.151,3.289-12.329,1.787-17.783,0.747
				c-1.326-1.756-1.966-3.777-1.765-6.157c0.202-2.384,2.231-8.676,5.126-8.886c2.906-0.211,2.712-5.082-0.206-5.144
				c-5.571-0.118-9.202,6.783-10.363,11.539c-0.591,2.421-0.561,4.852,0.005,7.126c-4.29-1.075-8.469-2.458-12.561-4.081
				c0.179-0.745,0.077-1.595-0.474-2.424c-4.429-6.663-3.678-13.961,2.954-18.853c2.353-1.735-0.273-5.937-2.821-4.367
				c-7.486,4.612-11.018,14.337-7.587,22.188c-1.965-0.931-3.919-1.892-5.856-2.9c-3.691-1.92-6.758,4.16-3.354,6.402
				c13.51,8.898,29.656,14.09,45.788,15.186c4.049,0.275,7.43,0.085,10.486-1.211c-1.573,7.984-2.624,16.145-2.915,24.3
				c-0.818,0.243-1.603,0.759-2.254,1.629c-1.968,2.627-5.133,3.837-8.744,4.216c-3.292-6.489-4.353-12.56,0.326-18.909
				c2.1-2.85-2.301-5.863-4.472-3.131c-4.758,5.989-6.369,15.006-2.859,21.907c-5.396-0.638-10.808-2.247-14.302-3.401
				c-4.574-1.511-8.984-3.431-13.302-5.551c0.301-0.836,0.244-1.816-0.418-2.731c-4.151-5.738-6.93-16.736,2.353-19.534
				c3.226-0.972,2.466-6.146-0.932-5.281c-11.246,2.864-12.851,14.38-8.86,23.453c-2.595-1.421-5.17-2.876-7.735-4.331
				c-3.836-2.175-7.845,3.3-3.993,5.703c0.724,0.452,1.448,0.902,2.174,1.353c-2.563,1.599-4.794,3.957-6.437,6.207
				c-3.566,4.881-2.754,9.943-0.847,15.306c1.28,3.6,6.545,1.017,5.345-2.54c-1.184-3.507-1.785-6.663,0.607-9.812
				c1.716-2.259,4.34-4.916,7.207-5.575c6.366,3.807,12.873,7.355,19.724,10.095c-2.604,6.161-2.045,13.478,1.475,19.28
				c1.775,2.925,6.633,0.737,4.888-2.323c-2.772-4.862-2.923-10.128-0.798-14.969c2.124,0.682,4.272,1.304,6.475,1.795
				c7.933,1.768,18.321,2.896,25.503-1.585c0.069,1.209,0.137,2.419,0.246,3.624c0.377,4.161,6.445,4.528,8.154,1.427
				c10.995,18.749,38.464,5.341,50.382-1.425c2.977-1.69,0.803-6.476-2.312-4.867c-10.681,5.517-38.611,15.453-44.849-0.681
				c-0.466-1.206-1.57-1.676-2.68-1.616c0.162-8.262,0.592-16.425,1.766-24.592C554.076,662.966,571.572,645.403,584.116,631.014z"/><path fill="#3d54a5" d="M832.668,931.081c-3.146,1.291-1.706,4.025,1.422,2.867c10.328-3.825,23.847,10.016,18.362,19.9
			c-1.738,3.133,2.701,6.411,4.649,3.255C866.2,942.363,847.878,924.839,832.668,931.081z"/><path fill="#3d54a5" d="M767.759,970.661c-3.378-0.959-5.574,2.631-2.167,3.699c3.93,1.232,6.491,4.601,7.193,8.641
			c0.522,3.005-0.125,6.198-1.775,8.764c-1.344,2.09-3.346,3.827-4.042,6.212c-0.155,0.531-0.237,1.112-0.042,1.629
			c0.35,0.928,1.515,1.339,2.485,1.131c0.97-0.208,1.768-0.883,2.463-1.591c2.147-2.188,3.693-4.943,4.512-7.892
			c0.429-1.546,0.632-3.122,0.672-4.723c0.033-1.32,0.444-2.582,0.403-3.891C777.276,976.781,773.283,972.229,767.759,970.661z"/><path fill="#3d54a5" d="M675.051,952.371c-2.607,10.345-13.246,15.484-22.734,9.712c-2.991-1.82-3.966,2.149-0.996,4.111
			c12.577,8.307,26.177,2.025,29.403-12.528C681.437,950.448,675.862,949.15,675.051,952.371z"/><path fill="#3d54a5" d="M626.953,881.291c-0.183-0.015-0.385,0.073-0.512,0.214c-0.19,0.212-0.257,0.504-0.329,0.779
			c-1.3,5.01-6.436,8.344-11.332,9.175c-5.768,0.978-11.279-1.354-16.346-3.797c-3.239-1.562-5.085,3.639-1.928,5.211
			c6.626,3.3,13.987,5.829,21.413,3.847c6.44-1.718,12.401-7.869,9.45-15.044c-0.042-0.102-0.088-0.206-0.168-0.281
			C627.131,881.332,627.044,881.299,626.953,881.291z"/><path fill="#3d54a5" d="M586.447,790.35c-6.574,7.479-16.859,7.648-24.138,1.248c-2.241-1.971-5.77,1.844-3.551,3.896
			c9.774,9.04,21.988,7.331,30.703-2.803C591.893,789.863,588.869,787.595,586.447,790.35z"/></g><g><path fill="#f6f6f6" d="M1272.652,840.785c-4.112-13.385-17.129-22.292-28.797-28.619
					c-16.214-8.791-34.074-14.507-51.824-19.25c-60.361-16.131-125.16-17.071-187.095-11.199c-31.637,3-62.315,8.485-92.238,19.163
					c-19.445,6.94-47.979,17.871-54.748,39.905c-16.132,52.512,7.333,233.217,95.327,330.519
					c18.101,20.015,39.544,38.555,64.015,50.664c25.204,12.472,50.005,15.042,76.729,7.162
					c32.956-9.718,60.608-32.729,83.304-57.826C1265.319,1074.002,1288.784,893.298,1272.652,840.785z"/><path fill="#e9e9e9" d="M1271.887,838.631c-4.78-12.194-17.003-20.484-28.031-26.464
					c-16.214-8.792-34.074-14.507-51.824-19.25c-60.361-16.131-125.16-17.071-187.095-11.199c-31.638,3-62.316,8.485-92.238,19.163
					c-19.445,6.94-47.979,17.871-54.748,39.905c-0.101,0.328-0.193,0.683-0.291,1.021c5.155,19.057,46.767,49.946,211.671,49.946
					c22.973,0,43.375-0.814,61.523-2.249c-1.005,13.73,0.075,27.441,1.455,41.158c1.496,14.876,4.757,31.145,2.867,46.097
					c-0.972,7.692-7.917,13.385-12.776,18.927c-4.352,4.963-8.705,9.924-13.055,14.889c-8.469,9.665-17.173,19.439-20.213,32.293
					c-3.339,14.115-2.5,29.769-1.972,44.147c0.526,14.321,1.878,28.653,4.172,42.8c2.219,13.69,6.346,26.205,14.711,37.383
					c7.641,10.211,17.272,18.586,26.911,26.832c4.449,3.806,10.942-2.639,6.462-6.476c-9.599-8.221-19.515-16.578-26.905-26.946
					c-8.311-11.66-11.258-25.037-13.184-38.98c-2.131-15.431-3.17-31.029-3.203-46.607c-0.031-14.542-0.584-30.016,7.491-42.735
					c7.416-11.679,18.045-21.864,27.127-32.238c7.846-8.962,13.541-15.358,13.745-27.803c0.458-27.995-6.347-55.466-5.139-83.47
					C1234.917,879.844,1263.573,853.003,1271.887,838.631z"/><path fill="#cbcbcb" d="M1159.083,1133.397c-9.245,7.161-19.137,13.258-29.73,18.207
					c-4.983,2.328-0.641,9.521,4.284,7.345c11.418-5.042,22.008-11.418,31.755-19.23
					C1169.904,1136.103,1163.545,1129.941,1159.083,1133.397z"/><path fill="#cbcbcb" d="M1158.352,1154.979c-6.554,4.319-12.931,8.546-20.124,11.764
					c-4.248,1.901-1.186,9.351,3.201,7.609c7.915-3.144,15.634-7.017,22.154-12.579
					C1167.302,1158.6,1162.438,1152.286,1158.352,1154.979z"/><path fill="#cbcbcb" d="M1162.33,1113.151c-6.991,3.405-13.147,8.542-19.667,12.766
					c-6.575,4.26-13.256,8.345-19.982,12.36c-4.502,2.687-0.537,9.361,4.084,7.001c13.553-6.921,29.621-14.967,40.096-26.243
					C1169.831,1115.838,1166.118,1111.306,1162.33,1113.151z"/><path fill="#fff" d="M1129.868,946.49c-0.859-10.758-1.876-21.5-2.972-32.236c-0.454-4.442-7.37-4.581-7.044,0
					c1.276,17.898,2.42,35.821,3.16,53.75c0.393,9.521-6.046,15.045-11.719,22.05c-5.021,6.2-10.477,12.209-14.893,18.858
					c-2.593,3.904,3.2,8.233,6.411,4.957c6.636-6.771,12.282-14.738,18.249-22.106c4.192-5.176,9.801-10.401,10.503-17.384
					C1132.468,965.385,1130.587,955.485,1129.868,946.49z"/><path fill="#fff" d="M988.426,897.728c-39.484-2.298-77.995-12.289-113.413-29.987
					c-4.699-2.348-8.851,4.672-4.138,7.095c36.554,18.796,76.488,29.787,117.551,31.796
					C994.152,906.913,994.112,898.059,988.426,897.728z"/><path fill="#5b71cc" d="M803.692,461.083c0,0-59.547,29.105-67.253,110.962c-7.706,81.858,37.945,114.842,57.116,122.675
					c19.171,7.833,42.289-64.757,42.289-64.757L803.692,461.083z"/><ellipse cx="1042.033" cy="570.821" fill="#f6f6f6" rx="286.274" ry="239.207" transform="rotate(-3.801 1041.254 570.422)"/><path fill="#5b71cc" d="M1350.594,514.127c0,0-26.2-78.768-67.811-69.502c-41.611,9.267-77.058,69.502-75.517,137.459
					c1.541,67.957,90.484,161.587,134.629,36.776c0,0,18.717-6.659,24.881-45.271
					C1372.941,534.978,1350.594,514.127,1350.594,514.127z"/><path fill="#3d54a5" d="M1340.576,510.266c4.588,0.813,5.013-2.396,0.344-3.602
					c-36.305-9.377-65.669,33.754-66.777,64.621c-0.613,17.076,4.521,35.815,16.837,48.136
					c11.619,11.623,34.455,13.294,48.055,2.047c3.989-3.299-0.229-5.267-4.347-3.281c-32.159,15.511-50.302-23.329-48.115-50.059
					C1288.623,543.062,1311.119,505.047,1340.576,510.266z"/><path fill="#5b71cc" d="M745.687,538.067c0,0-15.412,7.722-16.953,47.879c-1.541,40.156,24.659,52.512,24.659,52.512
					L745.687,538.067z"/><path fill="#2d2d2d" d="M806.34,518.04c0,0-34.035,69.366,2.752,106.232c0,0,269.245,0,273.941,0
					c4.696,0-24.801-45.733,1.028-109.267C1084.061,515.005,807.905,510.196,806.34,518.04z"/><path fill="#e9e9e9" d="M1186.244,448.661c7.855-7.897,14.689-15.802,6.944-26.641
					c-3.954-5.534-8.932-10.397-13.89-15.009c-2.538-2.361-5.245-4.628-7.222-7.505c-2.648-3.854-5.097-13.912,3.171-13.823
					c4.32,0.046,4.233-6.376,0-6.668c-8.463-0.583-14.169,7.653-13.381,15.641c1.143,11.566,13.83,19.627,20.728,27.809
					c4.179,4.957,7.227,9.324,2.427,14.827c-1.833,2.102-4.05,3.922-6.036,5.881c-5.1,5.029-9.922,10.318-14.485,15.84
					c-8.027,9.714-15.326,20.049-21.631,30.968c-26.264,45.481-35.005,100.5-19.343,151.147
					c4.412,14.27,10.662,28.038,18.751,40.595c8.548,13.27,19.122,25.068,27.842,38.216c-7.19,7.154-15.141,13.241-24.041,18.234
					c-6.622,3.714-14.188,7.351-18.405,14.007c-9.697,15.306,4.836,28.98,16.992,36.527c5.07,3.147,9.594-4.744,4.65-7.972
					c-5.536-3.614-12.44-7.977-14.731-14.521c-2.838-8.107,4.468-13.289,10.601-16.873c12.597-7.361,24.084-14.808,34.19-25.522
					c1.385-1.467,1.848-3.883,0.729-5.66c-14.037-22.29-32.393-40.89-42.589-65.592c-9.597-23.252-13.614-48.648-12.315-73.744
					C1127.76,529.382,1151.735,483.354,1186.244,448.661z"/><path fill="#cbcbcb" d="M1222.128,693.953c-4.161,3.699-7.569,8.052-11.48,12.011c-3.479,3.522-7.899,8.911-12.92,9.789
					c-5.913,1.034-4.575,10.893,1.421,10.523c6.997-0.432,11.952-5.085,16.968-9.593c5.393-4.846,10.687-10.054,13.954-16.59
					C1232.654,694.926,1226.495,690.072,1222.128,693.953z"/><path fill="#cbcbcb" d="M1230.775,710.785c-5.517,9.101-13.065,14.969-22.289,19.96
					c-5.403,2.924-1.723,12.207,4.249,10.101c11.925-4.206,21.804-13.319,28.186-24.116
					C1244.787,710.19,1234.699,704.311,1230.775,710.785z"/><polygon fill="#fff" points="819.617 581.095 821.715 565.736 837.787 565.294 835.688 580.653"/><polygon fill="#fff" points="876.25 579.538 878.349 564.18 894.421 563.738 892.322 579.096"/><polygon fill="#fff" points="840.285 562.196 842.384 546.837 858.456 546.396 856.357 561.754"/><polygon fill="#fff" points="860.184 561.649 862.282 546.29 878.354 545.849 876.256 561.207"/><polygon fill="#fff" points="956.201 581.095 958.299 565.736 974.371 565.294 972.272 580.653"/><polygon fill="#fff" points="1012.834 579.538 1014.933 564.18 1031.005 563.738 1028.906 579.096"/><polygon fill="#fff" points="976.869 562.196 978.968 546.837 995.04 546.396 992.941 561.754"/><polygon fill="#fff" points="996.768 561.649 998.866 546.29 1014.938 545.849 1012.839 561.207"/><path fill="#fff" d="M1173.099,430.935c-29.422,24.588-55.773,59.973-63.412,98.141
					c-1.038,5.188,6.788,7.439,7.976,2.204c4.175-18.388,11.877-35.26,22.356-50.892c11.01-16.425,24.931-29.853,38.035-44.488
					C1181.103,432.495,1176.538,428.061,1173.099,430.935z"/><path fill="#fff" d="M1110.029,543.262c-5.392,0-5.401,8.398,0,8.398
					C1115.422,551.66,1115.43,543.262,1110.029,543.262z"/><path fill="#fff" d="M940.675,373.69c-53.912,16.776-101.685,54.979-135.894,99.102
					c-2.469,3.185,1.93,7.727,4.495,4.505c17.185-21.588,37.893-40.898,60.308-56.937c22.879-16.37,47.444-27.855,73.358-38.432
					C947.872,379.915,946.055,372.016,940.675,373.69z"/><g><path fill="#5b71cc" d="M1265.488,895.893c0,0,26.055,122.42,75.463,144.217c57.016,25.154,30.185-187.818,30.185-187.818
				l35.216,1.677c0,0,28.508,179.433-21.8,221.357c-50.308,41.924-112.355-36.893-130.802-109.002
				C1241.647,919.015,1247.042,880.8,1265.488,895.893z"/><path fill="#f6f6f6" d="M1324.515,839.414c0,0,12.75,34.165,67.766,30.933c55.016-3.232,53.903-78.067,60.849-91.904
					c6.946-13.836,57.121-74.078,51.647-91.064c-5.474-16.986-22.268-13.314-28.443-6.685c-6.176,6.629-39.75,65.001-41.359,63.007
					c-1.609-1.994,16.01-47.492,10.399-97.295c-4.182-37.121-15.968-38.154-25.747-31.91c-9.779,6.244-10.866,33.463-10.866,33.463
					s-31.221-48.896-50.394-40.011c-19.173,8.885,3.741,33.202,11.594,44.975c7.853,11.773,7.798,46.392,7.798,46.392
					s-6.471-16.182-24.681-16.306c-18.21-0.124-53.338,21.634-53.077,36.241c0.261,14.607,8.885,19.173,14.483,17.949
					s23.74-17.508,30.754-14.937c7.015,2.572,13.836,6.946,13.066,14.153c-0.77,7.207-13.438,40.478-22.254,37.713
					c-8.816-2.765-34.439-52.884-45.443-52.238c-11.003,0.646-23.162,12.103-2.174,54.438
					C1309.421,818.666,1319.076,830.632,1324.515,839.414z"/><path fill="#e9e9e9" d="M1434.315,711.505c-6.174,0.133-17.313-4.126-19.178-10.989
					c1.483-7.584,2.326-15.452,2.504-23.195c6.86,3.262,16.451,2.111,22.666-1.107c3.727-1.93,1.134-7.861-2.694-5.992
					c-4.93,2.407-15.597,4.685-20.006-0.404c-0.242-6.431-0.987-12.677-2.323-18.473c-1.425-6.189-9.72-4.533-9.516,1.56
					c0.243,7.252,0.851,14.375,1.07,21.538c-8.555,3.296-17.741,2.654-25.553-2.374c-3.304-2.126-6.93,2.695-3.648,4.945
					c8.727,5.982,19.328,7.733,29.245,4.591c-0.042,2.34-0.131,4.687-0.336,7.053c-0.978,11.276-3.66,22.058-5.913,33.106
					c-0.919,4.51,5.97,5.871,7.644,1.879c1.849-4.409,3.44-9.179,4.778-14.15c5.436,5.701,15.127,5.757,21.804,5.289
					C1438.537,714.525,1438.059,711.425,1434.315,711.505z"/><path fill="#e9e9e9" d="M1387.766,628.824c-1.247,7.954-13.704,12.251-20.575,12.044
					c-3.868-0.116-5.03,3.038-1.086,3.483c10.134,1.142,27.338-3.064,28.08-14.841
					C1394.446,625.358,1388.41,624.715,1387.766,628.824z"/><path fill="#e9e9e9" d="M1463.618,739.784c-6.626-0.669-11.27-5.452-11.991-12.019c-0.453-4.127-5.397-3.661-5.029,0.433
					c0.854,9.509,6.898,17.291,16.289,18.427C1467.282,747.156,1468.031,740.229,1463.618,739.784z"/><path fill="#e9e9e9" d="M1487.205,710.507c-5.914,3.291-13.631-8.06-12.016-13.259c1.168-3.755-4.407-6.042-5.744-2.264
					c-3.683,10.416,9.867,29.47,21.272,21.243C1493.788,714.011,1490.591,708.623,1487.205,710.507z"/><path fill="#e9e9e9" d="M1367.077,694.693c-1.12-5.387-5.764-13.294-12.711-10.096c-3.502,1.612-1.213,4.44,2.321,3.242
					c1.223-0.414,3.661,6.584,3.951,7.909c0.703,3.218,0.478,6.392-0.183,9.576c-1.121,5.4-3.711,10.187-6.086,15.113
					c-1.555,3.226,3.735,6.224,5.553,3.073C1364.89,714.898,1369.186,704.839,1367.077,694.693z"/><path fill="#e9e9e9" d="M1303.642,739.553c-6.069,6.197-10.745,14.73-20.748,13.466
					c-3.116-0.394-4.514,4.605-1.353,5.504c11.494,3.27,21.693-6.151,26.536-15.712
					C1309.326,740.344,1305.61,737.544,1303.642,739.553z"/><path fill="#e9e9e9" d="M1324.181,763.414c-14.852-1.336-26.287,12.402-26.91,25.54c-0.199,4.194,6.257,4.94,6.531,0.698
					c0.613-9.481,7.811-23.814,19.17-23.219C1326.876,766.638,1328.129,763.769,1324.181,763.414z"/><path fill="#e9e9e9" d="M1330.513,832.156c-6.917-16.82-8.505-35.19,3.685-50.032c2.603-3.169-2.446-6.78-5.083-3.748
					c-14.027,16.134-13.14,37.927-4.853,56.59C1326.056,839.004,1332.19,836.235,1330.513,832.156z"/><path fill="#e5e5e5" d="M1323.108,702.964c-3.168-2.466-6.656,2.419-3.664,4.968c6.497,5.537,3.84,13.521,2.366,20.599
					c-0.57,2.736,4.316,2.115,5.725-0.333C1332.632,719.346,1331.531,709.519,1323.108,702.964z"/><path fill="#3d54a5" d="M1287.816,978.02c-11.463-0.776-19.291,7.38-20.651,18.489c-0.403,3.298,3.955,4.419,4.511,1.117
				c1.392-8.272,7.742-13.474,16.14-13.265C1291.927,984.463,1291.852,978.293,1287.816,978.02z"/><path fill="#3d54a5" d="M1277.227,937.816c-7.027-10.768-24.872-8.468-26.728,5.122c-0.472,3.454,4.738,5.046,5.357,1.477
				c1.411-8.139,14.408-10.803,19.168-4.021C1277.164,943.444,1279.315,941.017,1277.227,937.816z"/><path fill="#3d54a5" d="M1317.678,1025.574c-4.972,2.564-9.071,7.066-10.981,12.351c-0.927,2.564-1.138,5.903-1.443,8.634
				c-0.383,3.434-0.3,6.981,0.931,10.248c0.421,1.117,1.003,2.225,1.965,2.932c0.183,0.135,0.388,0.257,0.615,0.274
				c0.859,0.067,1.083-1.158,1.003-2.016c-0.905-9.725,1.848-22.066,10.951-27.221
				C1324.112,1028.857,1321.113,1023.802,1317.678,1025.574z"/><path fill="#3d54a5" d="M1363.545,1071.67c-7.991-6.84-12.555-17.94-9.179-28.206c1.161-3.528-3.165-2.919-4.37,0.543
				c-4.152,11.925-0.524,25.003,10.024,32.231C1362.721,1078.089,1366.06,1073.823,1363.545,1071.67z"/><path fill="#3d54a5" d="M1408.028,1003.217c-3.781,7.667-21.208-2.179-24.242-7.112c-1.975-3.211-6.996-0.305-5.068,2.962
				c5.223,8.849,25.193,18.712,31.4,5.919C1411.89,1001.335,1409.838,999.548,1408.028,1003.217z"/><path fill="#3d54a5" d="M1410.051,915.555c-3.349,4.665-8.008,7.98-13.758,8.862c-3.119,0.479-11.506,0.518-13.584-2.807
				c-1.96-3.137-6.86-0.31-4.978,2.909c3.304,5.652,13.147,6.853,18.988,6.147c7.883-0.952,10.307-3.122,14.663-9.619
				C1413.633,917.69,1412.347,912.357,1410.051,915.555z"/></g></g><path fill="#cbcbcb" d="M982.676,685.568c-23.907,14.793-52.331,21.068-78.159,3.795c-5.762-3.854-11.357,3.874-6.348,8.705
		c28.447,27.434,64.355,9.776,91.34-6.748C996.024,687.33,989.245,681.503,982.676,685.568z"/></svg>