<svg xmlns="http://www.w3.org/2000/svg" data-name="1" viewBox="0 0 1005.91 1021.63"><g data-name="21"><ellipse cx="574.89" cy="880.38" fill="#f4d090" rx="362.33" ry="54.23"/><path fill="#fff7e9" d="M664 789.93c-130.69 16.44-261-75.72-389.44-44.65-33.84 8.19-69.05 24.76-101.75 12.21-25.58-9.81-43.25-35.85-53.49-63.19-22.52-60.12-14.65-132.55 20.13-185.3 23.43-35.53 58.31-63.15 72.14-104.21 20.18-59.87-11-127.31 1.08-189.72 12.79-66.11 73.5-111.75 135.07-120.3C425.79 84 508 125.79 550.39 197.91c8.26 14 15.14 29.14 24.94 42 19.61 25.65 49.62 40 80 44.7s61.28.54 91.41-5.64c36.64-7.5 76.74-17.46 109.41 2.06C897 305.38 907 365.19 900.57 415.4c-6.23 48.4-23.81 94.77-20.79 144.13 2.43 39.59-8.77 69.85-29.19 103.18C808.71 731.12 739.48 780.43 664 789.93Z"/><ellipse cx="557.77" cy="514.64" fill="#ffefd2" rx="139.31" ry="151.62"/><path d="M590.4 169.57a.85.85 0 0 1 .91.78l.89 11.22a.85.85 0 0 1-.78.92.86.86 0 0 1-.91-.78l-.89-11.22a.87.87 0 0 1 .78-.92ZM588.86 150.1a.85.85 0 0 1 .92.77l.88 11.23a.85.85 0 0 1-1.69.13l-.88-11.23a.84.84 0 0 1 .77-.9ZM574.73 166.66l11.22-.89a.85.85 0 0 1 .91.78.84.84 0 0 1-.78.91l-11.22.89a.85.85 0 1 1-.13-1.69ZM594.21 165.12l11.22-.89a.86.86 0 0 1 .91.78.84.84 0 0 1-.78.91l-11.22.89a.84.84 0 0 1-.91-.78.85.85 0 0 1 .78-.91Z"/><path d="M590.4 169.57a.85.85 0 0 1 .91.78l.89 11.22a.85.85 0 0 1-.78.92.86.86 0 0 1-.91-.78l-.89-11.22a.87.87 0 0 1 .78-.92ZM588.86 150.1a.85.85 0 0 1 .92.77l.88 11.23a.85.85 0 0 1-1.69.13l-.88-11.23a.84.84 0 0 1 .77-.9Z"/><path fill="#f4d090" d="M116.41 616.06h.18c44.88 5.86 84.07 40.47 95.47 84.27a52.72 52.72 0 0 1 17.33 7.26 150 150 0 0 1 16.82 13c2 1.69 4 3.37 6 5a199.78 199.78 0 0 0 82.85 40.14.84.84 0 1 1-.36 1.65 201.42 201.42 0 0 1-83.57-40.48c-2-1.65-4-3.35-6-5a149.43 149.43 0 0 0-16.64-12.9 52.41 52.41 0 0 0-16-6.87c1.55 6.44 3 15.41 0 23.61-2.69 7.52-10.46 15-19.57 13.93a15.62 15.62 0 0 1-11.16-7.2 19.18 19.18 0 0 1-2.74-15.66c2.55-9 11.77-16.08 22.41-17.14a35.68 35.68 0 0 1 8.72.29c-11.49-42.78-49.89-76.51-93.85-82.25a.84.84 0 0 1 0-1.68Zm94.27 85.72a33.29 33.29 0 0 0-9-.39c-10 1-18.58 7.53-20.95 15.91a17.42 17.42 0 0 0 2.52 14.25 13.91 13.91 0 0 0 9.94 6.46c8.26.93 15.31-5.91 17.78-12.82 2.89-8.1 1.28-17.14-.29-23.41ZM562.71 98.63h.08c28.06.44 56.24 17.7 73.57 45 14 22.08 21.64 50.83 22.76 85.47a.82.82 0 0 1-.81.87.86.86 0 0 1-.88-.82c-1.11-34.32-8.69-62.79-22.51-84.61-17-26.87-44.66-43.82-72.16-44.26a.85.85 0 0 1 0-1.69Z"/><path fill="#67a3c1" d="M584 88a.28.28 0 0 1 .13 0 101 101 0 0 1 69 35.17.84.84 0 1 1-1.29 1.09A99.33 99.33 0 0 0 584 89.66a.85.85 0 0 1 0-1.66Z"/><path d="M150.92 547a14.76 14.76 0 1 1-13.55 15.87A14.77 14.77 0 0 1 150.92 547Zm2.19 27.73a13.06 13.06 0 1 0-14.05-12 13.07 13.07 0 0 0 14.05 12.02ZM406.86 740.28a.85.85 0 0 1 .62.2L423 753.76a.85.85 0 0 1-1.11 1.29l-15.55-13.28a.85.85 0 0 1-.1-1.2.92.92 0 0 1 .62-.29Z"/><path d="M421.28 739.14a.85.85 0 0 1 .62.2.86.86 0 0 1 .09 1.2l-13.28 15.55a.84.84 0 0 1-1.19.1.85.85 0 0 1-.1-1.2l13.28-15.55a.85.85 0 0 1 .58-.3Z"/><path fill="#fff" d="M229 659.18a14.17 14.17 0 1 0 13-15.23 14.17 14.17 0 0 0-13 15.23Z"/><path d="M242 643.1a15 15 0 1 1-13.78 16.15A15 15 0 0 1 242 643.1Zm2.23 28.25a13.32 13.32 0 1 0-14.32-12.23 13.33 13.33 0 0 0 14.3 12.23Z"/><path fill="#e2eef5" d="M235.67 658.66a7.52 7.52 0 1 0 6.9-8.09 7.52 7.52 0 0 0-6.9 8.09Z"/><path fill="#7d93aa" d="m730.37 210.13-25.86 7.76-5.17 33.61-27.8 11.64-14.87 174.53s40 10.35 71.73 0Z"/><path fill="#ffe4ae" d="m764.55 430.56 75.71 439.58s37.49 16.8 38.79 23.27-83.94-11.64-83.94-11.64L693.52 531.41l36.85 349.07s-81.39 10.34-84 3.88 30.31-18.49 30.31-18.49-31.14-152.25-31.14-435.31Z"/><path fill="#392726" d="M676.25 769.72h-38.11s-13.79-488.48 33.4-506.58c0 0-31.26 167.42 4.71 506.58ZM754.5 248h-24.13S720 442.2 742.43 773.17c0 0 77.14.78 119.81-10.6 0 0-74.99-231.16-107.74-514.57ZM701.92 398.24c-24.24-6.93-34.67-83.15-16.37-76 19.93 7.81 29.95 79.88 16.37 76Z"/><path fill="#392726" d="m754.5 248 12.93 106.33-81.88-32c20.39 8 28.44 78.58 16.37 76 0 0 87.92 46.54 106 20.69S802.77 261.41 754.5 248Z"/><path fill="#ff9e7d" d="m730.37 210.13 3.44-64.86-19.48 4.74-9.82 67.88 25.86-7.76z"/><path fill="#ffba98" d="M676.25 226.29c13.93 10.15 56.06-29.74 66.4-62.7s22.62-73-8.41-75-35.55 33.61-35.55 33.61-31.3 97.63-22.44 104.09Z"/><path d="M744.6 164.88c-43-1-14.23-64.32-14.23-64.32L710 95.06c39.76-21.01 61.41-1.94 34.6 69.82Z"/><path fill="#ffba98" d="m678.77 193.53-17.25-4.73 35.09-59.94-17.84 64.67z"/><path fill="#302719" d="M683.58 191.88a11.73 11.73 0 0 0-6.25 1.82 1 1 0 1 0 1.12 1.71c3.07-2 7.65-2 12.56.07 6 2.51 10.75 7.39 11.64 11.9a1 1 0 0 0 2-.4c-1-5.21-6.2-10.59-12.86-13.38a20.17 20.17 0 0 0-8.21-1.72ZM706.54 129.34c-.73 3.08-2.23 5.36-3.35 5.09s-1.44-3-.71-6.05 2.22-5.37 3.35-5.1 1.44 2.98.71 6.06Z"/><ellipse cx="741.69" cy="158.21" fill="#ffba98" rx="20.36" ry="17.62" transform="rotate(-55.28 741.761 158.196)"/><path fill="#302719" d="M735.22 163.64a1 1 0 0 1-.93-.58 1 1 0 0 1 .48-1.37l18.78-9.05a1 1 0 1 1 .89 1.85l-18.78 9a1 1 0 0 1-.44.15Z"/><path fill="#8fb9d1" d="M669.79 338c-9 30.09-27.36 51.17-41 47.09s-17.46-31.79-8.46-61.88 27.36-51.17 41-47.09 17.46 31.8 8.46 61.88Z"/><ellipse cx="636.07" cy="327.93" fill="#c2d9e5" rx="56.86" ry="25.82" transform="rotate(-73.36 636.077 327.924)"/><path d="M623.31 383.44a13 13 0 0 1-3.68-.53c-6.81-2-11.46-9.71-13.08-21.61s-.09-26.29 4.28-40.91 11.07-27.61 18.87-36.55 16-12.92 22.8-10.89 11.46 9.71 13.09 21.61.08 26.29-4.29 40.91-11.07 27.6-18.86 36.55c-6.52 7.48-13.17 11.42-19.13 11.42Zm25.51-110c-5.65 0-12 3.82-18.35 11.06-7.7 8.84-14.32 21.69-18.65 36.17s-5.84 28.86-4.25 40.48c1.57 11.47 6 18.85 12.36 20.76s14.12-1.84 21.73-10.57 14.33-21.69 18.65-36.17c4.33-14.49 5.84-28.86 4.25-40.48-1.56-11.47-6-18.85-12.36-20.76a11.61 11.61 0 0 0-3.38-.48Z"/><path d="M620.59 364.67a6.64 6.64 0 0 1-1.89-.27c-8.35-2.5-9.86-21.25-3.46-42.69s18-36.29 26.31-33.8 9.87 21.25 3.46 42.69c-5.94 19.87-16.29 34.07-24.42 34.07Zm19-76c-7.55 0-17.69 14.19-23.41 33.33-6.14 20.54-4.9 39.12 2.76 41.41a5.93 5.93 0 0 0 1.62.23c7.56 0 17.69-14.19 23.41-33.33 6.14-20.55 4.9-39.12-2.76-41.41a5.52 5.52 0 0 0-1.57-.23Z"/><path fill="#e2eef5" d="M640.05 327.78c-4.3 14.38-12.22 24.7-17.7 23.07s-6.44-14.62-2.15-29 12.22-24.69 17.7-23.06 6.44 14.62 2.15 28.99Z"/><path fill="#ffba98" d="M685.55 322.25s-43.1-15.37-47-15.37-37.49 12.12-37.06 14.9 13.14.47 13.14.47-.43 6 7.33 4.88c0 0 9 13.58 15.08 13.79s3.45-6.89 3.45-6.89 28.84 15.45 54 12.76c0 0 1.62-18.58-8.94-24.54Z"/><path fill="#302719" d="M780.27 427.78c-26.76 0-76.7-27.46-78.84-28.64a1 1 0 0 1 1-1.79c.52.29 52.92 29 78.78 28.37a1.07 1.07 0 0 1 1 1 1 1 0 0 1-1 1ZM767.43 355.31a1 1 0 0 1-.41-.09l-39.26-16.93a1 1 0 0 1-.54-1.35 1 1 0 0 1 1.35-.53l39.26 16.93a1 1 0 0 1-.4 2ZM711 259.18h-1c-4.49-.31-8.33-2.69-11.41-7a1 1 0 0 1 .25-1.43 1 1 0 0 1 1.42.25c2.71 3.84 6 5.92 9.88 6.19 9.52.66 19.47-9.75 19.57-9.86a1 1 0 0 1 1.49 1.41c-.51.35-10.11 10.44-20.2 10.44ZM728.43 316.75a1 1 0 0 1-.37-.07 1 1 0 0 1-.58-1.32l26.06-67.78a1 1 0 0 1 1.92.73l-26.07 67.78a1 1 0 0 1-.96.66ZM803 536.62a1 1 0 0 1-.75-.33l-40.75-44.23a1 1 0 0 1 .06-1.44 1 1 0 0 1 1.45.05l40.74 44.24a1 1 0 0 1-.75 1.71ZM693.52 532.43a1 1 0 0 1-1-.74l-11.62-40a1 1 0 0 1 2-.57l11.61 40a1 1 0 0 1-.7 1.27.9.9 0 0 1-.29.04Z"/><path fill="#f18162" d="M814.58 282.69a.8.8 0 0 1-.56-.21.84.84 0 0 1-.08-1.19l5.36-6.07a.85.85 0 0 1 1.27 1.12l-5.35 6.07a.86.86 0 0 1-.64.28Z"/><path fill="#8fb9d1" d="M530.65 311.15a32.79 32.79 0 1 1-32.78-32.78 32.79 32.79 0 0 1 32.78 32.78Z"/><path d="M487.62 334.54A23.39 23.39 0 1 1 511 311.15a23.41 23.41 0 0 1-23.38 23.39Zm0-45.08a21.7 21.7 0 1 0 21.7 21.69 21.71 21.71 0 0 0-21.7-21.69Z"/><path fill="#392726" d="M281.91 870.87h234.6c24 0 40-19.44 35.78-43.43L440.07 191c-4.23-24-27.07-43.41-51.07-43.41H154.38c-24 0-40 19.44-35.77 43.43l112.22 636.42c4.23 23.99 27.1 43.43 51.08 43.43Z"/><path fill="#ffe4ae" d="M312.62 870.87h234.6c24 0 40-19.44 35.77-43.43L470.78 191c-4.23-24-27.11-43.43-51.09-43.43h-234.6c-24 0-40 19.44-35.77 43.43l112.22 636.44c4.22 23.99 27.1 43.43 51.08 43.43Z"/><path fill="#fff" d="M545.76 862.59c19.39 0 32.38-15.77 29-35.15L462.5 191c-3.42-19.38-22-35.15-41.35-35.15h-234.6c-19.38 0-32.37 15.77-29 35.15l112.26 636.44c3.42 19.38 22 35.15 41.35 35.15Z"/><path d="M545.76 863.44h-234.6c-19.77 0-38.7-16.08-42.18-35.85L156.76 191.17c-1.72-9.73.51-18.87 6.27-25.73S177 155 186.55 155h234.6c19.77 0 38.7 16.08 42.18 35.85l112.22 636.44c1.72 9.73-.51 18.87-6.27 25.73s-13.99 10.42-23.52 10.42ZM186.55 156.72c-9 0-16.91 3.48-22.22 9.81s-7.53 15.12-5.9 24.34l112.22 636.42c3.35 19 21.52 34.46 40.51 34.46h234.6c9 0 16.91-3.49 22.22-9.82s7.53-15.12 5.9-24.34L461.67 191.17c-3.35-19-21.53-34.45-40.52-34.45Z"/><path fill="#ffefd2" d="M311.16 842.26c-9.46 0-19.63-8.75-21.32-18.35L177.62 187.49c-.61-3.45 0-6.45 1.64-8.43 2-2.36 5.06-2.85 7.29-2.85h234.6c9.46 0 19.63 8.74 21.32 18.34L554.69 831c.61 3.46 0 6.45-1.64 8.43-2 2.36-5 2.86-7.29 2.86Z"/><path fill="#fff7e9" d="m272.24 546.44 129.48 75.19-61.85 59.69L258.32 597l13.92-50.56zM401.72 621.63l63.36-80.28 39.44 41.87-43.15 93.56-59.65-55.15z"/><path fill="#392726" d="M339.87 682.17a.87.87 0 0 1-.61-.26l-81.55-84.32a.85.85 0 1 1 1.22-1.18l81 83.71 61.2-59.12a.85.85 0 0 1 1.17 0l58.78 54.37 42.67-92.5a.85.85 0 0 1 1.54.7l-43.15 93.57a.88.88 0 0 1-.61.48.87.87 0 0 1-.74-.21l-59.06-54.62-61.27 59.14a.84.84 0 0 1-.59.24Z"/><path fill="#fff7e9" d="M454.53 369.29c0 17.16-46.15 31.07-103.08 31.07s-103.07-13.91-103.07-31.07 46.15-31.07 103.07-31.07 103.08 13.91 103.08 31.07Z"/><path fill="#ffe4ae" d="M285.87 187.45h42.91c5.61 0 9.35-8.74 8.36-19.52L336 155.87h-63.2l1.1 12.06c1.02 10.78 6.37 19.52 11.97 19.52Z"/><path d="M306 179.15c-3.58 0-7.07-4-8-9-.53-3 0-5.83 1.48-7.56a4.54 4.54 0 0 1 3.56-1.71c3.57 0 7.07 3.94 7.95 9 .53 3 0 5.83-1.47 7.57a4.54 4.54 0 0 1-3.52 1.7Zm-2.92-16.56a2.89 2.89 0 0 0-2.27 1.11c-1.13 1.35-1.54 3.66-1.1 6.17.72 4.11 3.6 7.58 6.29 7.58a2.88 2.88 0 0 0 2.26-1.1c1.14-1.36 1.55-3.67 1.11-6.18-.74-4.11-3.62-7.58-6.3-7.58Z"/><path fill="#ada0d0" d="M374.48 850.4h103.67a2.49 2.49 0 0 0 2.51-3 3.79 3.79 0 0 0-3.59-3.05H373.4a2.49 2.49 0 0 0-2.51 3.05 3.8 3.8 0 0 0 3.59 3Z"/><path fill="#8fb9d1" d="M150.72 311.15a32.79 32.79 0 1 1-32.79-32.78 32.79 32.79 0 0 1 32.79 32.78Z"/><path d="M134.32 328.39a17.24 17.24 0 1 1 17.24-17.24 17.26 17.26 0 0 1-17.24 17.24Zm0-32.78a15.55 15.55 0 1 0 15.55 15.54 15.56 15.56 0 0 0-15.55-15.54ZM366.16 652.76a1.71 1.71 0 0 1-1.48-.86c-11.16-19.54-41.9-33.22-80.82-50.54-41.8-18.59-93.8-41.73-135.63-80.51C99.27 475.44 73.28 417.61 68.77 344c-.6-9.88 1.92-17.91 7.51-23.87 9.87-10.53 25.63-10.71 26.29-10.71a1.7 1.7 0 0 1 0 3.39c-.15 0-15 .19-23.85 9.66-4.91 5.24-7.13 12.42-6.58 21.32 10 164.11 127.39 216.32 213.07 254.44 39.49 17.57 70.69 31.44 82.4 52a1.7 1.7 0 0 1-.63 2.31 1.64 1.64 0 0 1-.82.22ZM402.83 652.76a1.94 1.94 0 0 1-.66-.13 1.7 1.7 0 0 1-.9-2.22c12.73-30.19 34.05-55.41 56.64-82.13 46-54.41 98.19-116.08 93.36-240.47-.27-7.06-2.29-11.89-6-14.34-5.75-3.8-13.94-.76-14-.73a1.7 1.7 0 0 1-1.21-3.17c.4-.15 9.87-3.69 17.09 1.07 4.67 3.08 7.2 8.81 7.52 17 4.88 125.71-47.74 187.91-94.16 242.79C438.08 597 416.9 622 404.39 651.72a1.69 1.69 0 0 1-1.56 1.04ZM595.27 846c-20 8.21-41.24 9-62.62 2.07C479.38 830.9 433.8 769.93 410.72 685a1.88 1.88 0 1 1 3.62-1c22.75 83.71 67.41 143.71 119.46 160.51 30.1 9.71 59.92 3.57 86.24-17.76 67.12-54.4 58.32-96.46 42.34-172.83C649 590 630.69 502.53 647.07 364.59a1.88 1.88 0 0 1 3.73.44c-16.31 137.34 1.93 224.49 15.25 288.13 16.29 77.81 25.26 120.67-43.64 176.51A108.74 108.74 0 0 1 595.27 846Z"/><path fill="#7d93aa" d="M313.35 376.5a10.69 10.69 0 0 1-10.1-8.58l-15.56-88.3a7 7 0 0 1 7.07-8.58 10.69 10.69 0 0 1 10.1 8.58l15.56 88.3a7 7 0 0 1-7.07 8.58ZM394.78 376.5a10.67 10.67 0 0 1-10.1-8.58l-15.57-88.3a7 7 0 0 1 7.07-8.58 10.69 10.69 0 0 1 10.1 8.58l15.57 88.3a7 7 0 0 1-7.07 8.58Z"/><path d="M313.35 376.5a10.69 10.69 0 0 1-10.1-8.58l-8.49-48.18a7 7 0 0 1 7.07-8.59 10.7 10.7 0 0 1 10.1 8.59l8.49 48.18a7 7 0 0 1-7.07 8.58ZM394.78 376.5a10.67 10.67 0 0 1-10.1-8.58l-8.5-48.18a7 7 0 0 1 7.07-8.59 10.68 10.68 0 0 1 10.1 8.59l8.5 48.18a7 7 0 0 1-7.07 8.58Z"/><path fill="#fff" d="M392.82 367.13a1.68 1.68 0 0 1-1.66-1.4l-14.91-84.56a1.69 1.69 0 0 1 3.33-.59l14.91 84.57a1.68 1.68 0 0 1-1.37 2 1.51 1.51 0 0 1-.3-.02ZM311.4 367.13a1.69 1.69 0 0 1-1.67-1.4l-14.56-82.59a1.7 1.7 0 1 1 3.34-.59l14.56 82.6a1.69 1.69 0 0 1-1.37 2 1.51 1.51 0 0 1-.3-.02ZM296.79 277.11a3.89 3.89 0 0 0-3.67-3.12 2.55 2.55 0 0 0-2.57 3.12 3.88 3.88 0 0 0 3.67 3.12 2.55 2.55 0 0 0 2.57-3.12Z"/><path fill="#fff" d="M377.87 277.11a3.89 3.89 0 0 0-3.67-3.11 2.54 2.54 0 0 0-2.57 3.12 3.87 3.87 0 0 0 3.67 3.12 2.55 2.55 0 0 0 2.57-3.13Z"/><path fill="#7d93aa" d="M302.58 459.23h-14.31l-4.39-24.9h14.31l4.39 24.9zM321.14 484.13h-14.31l-4.39-24.9h14.31l4.39 24.9zM339.87 509.16h-14.31l-4.39-24.9h14.31l4.39 24.9zM360.81 509.16h-14.32l-4.39-24.9h14.32l4.39 24.9zM381.74 509.16h-14.31l-4.39-24.9h14.31l4.39 24.9zM402.67 509.16h-14.31l-4.39-24.9h14.31l4.39 24.9zM423.61 509.16h-14.32l-4.39-24.9h14.32l4.39 24.9zM433.51 484.13h-14.32l-4.39-24.9h14.32l4.39 24.9zM443.43 459.23h-14.31l-4.4-24.9h14.32l4.39 24.9z"/><path d="M551.36 760.78h-88.91l-7.92-44.96h88.9l7.93 44.96z"/><path d="M556.36 755.92h-88.91a.85.85 0 0 1-.83-.7l-7.93-45a.82.82 0 0 1 .18-.69.85.85 0 0 1 .65-.3h88.91a.84.84 0 0 1 .83.7l7.93 44.95a.84.84 0 0 1-.83 1Zm-88.2-1.7h87.19L547.72 711h-87.19Z"/><path fill="#fff" d="M534 724.7h-49.82a.85.85 0 0 1 0-1.7H534a.85.85 0 0 1 0 1.7ZM534 736.47h-46.61a.85.85 0 0 1 0-1.69H534a.85.85 0 1 1 0 1.69Z"/><path d="M510.71 711a.85.85 0 0 1-.78-.51l-6.19-14.09a.85.85 0 0 1 1.56-.68l6.18 14.09a.85.85 0 0 1-.43 1.12.83.83 0 0 1-.34.07Z"/><path fill="#fff7e9" d="M400.08 528.52c0 5.52-8.21 10-18.34 10s-18.34-4.47-18.34-10 8.21-10 18.34-10 18.34 4.48 18.34 10Z"/><path fill="#ffe4ae" d="M431.38 673.19c9.35 23.82-.2 49.86-21.33 58.16s-45.85-4.3-55.2-28.12.2-49.87 21.33-58.16 45.82 4.29 55.2 28.12Z"/><path d="M396.57 734.74c-17.6 0-35-12-42.51-31.2-9.51-24.22.28-50.81 21.81-59.26 10.45-4.1 22.07-3.38 32.71 2.05a50 50 0 0 1 23.59 26.55c9.51 24.22-.28 50.81-21.81 59.26a37.68 37.68 0 0 1-13.79 2.6Zm-6.84-91.39a36 36 0 0 0-13.24 2.51c-20.66 8.11-30 33.71-20.85 57.06s33.43 35.76 54.1 27.64 30-33.71 20.85-57.06a48.29 48.29 0 0 0-22.78-25.66 39.69 39.69 0 0 0-18.08-4.49Z"/><path fill="#f4d090" d="M428.14 674.46c6.45 16.45-.14 34.42-14.73 40.15s-31.65-3-38.1-19.41.13-34.43 14.72-40.15 31.65 2.95 38.11 19.41Z"/><path d="M397.06 712.08a22.13 22.13 0 0 1-10-2.49 26.55 26.55 0 0 1-12.51-14.08c-5-12.86.16-27 11.62-31.48a21 21 0 0 1 17.42 1.08A27.31 27.31 0 0 1 416.48 698a21 21 0 0 1-12 12.65 20.24 20.24 0 0 1-7.42 1.43Zm-3.53-47.76a18.57 18.57 0 0 0-6.77 1.28c-10.59 4.16-15.37 17.3-10.66 29.29a24.79 24.79 0 0 0 11.7 13.19 19 19 0 0 0 27.09-10.63 24.89 24.89 0 0 0-.39-17.63 24.87 24.87 0 0 0-11.71-13.2 20.35 20.35 0 0 0-9.26-2.3Z"/></g></svg>