<svg xmlns="http://www.w3.org/2000/svg" enable-background="new 0 0 4000 6000" viewBox="0 0 4000 6000"><path fill="#ffc48a" d="M3345.864 2050.739a1685.087 1685.087 0 0 0 8.198-166.287c0-830.122-606.235-1503.068-1354.063-1503.068S645.937 1054.33 645.937 1884.451a1685.07 1685.07 0 0 0 8.199 166.287c-165.721 182.125-262.1 399.923-262.1 633.935 0 639.586 719.91 1158.073 1607.964 1158.073s1607.964-518.487 1607.964-1158.073c0-234.011-96.378-451.809-262.1-633.934z"/><path fill="#ffd4a9" d="M3314.559 2052.165a1645.91 1645.91 0 0 0 8.008-162.42c0-810.813-592.134-1468.107-1322.567-1468.107S677.433 1078.933 677.433 1889.745c0 54.896 2.72 109.087 8.008 162.42-161.866 177.889-256.003 390.621-256.003 619.19 0 624.709 703.165 1131.136 1570.563 1131.136s1570.563-506.427 1570.563-1131.136c-.001-228.569-94.138-441.301-256.005-619.19z"/><path fill="#dae2ed" d="M2710.631 5412.187c-47.27-118.226-386.603-209.917-798.203-209.917-443.95 0-803.843 106.669-803.843 238.251 0 83.447 144.751 156.873 363.887 199.428 47.27 118.225 413.961 133.774 825.561 133.774 375.664 0 636.868-98.044 636.868-197.393-.001-83.447-151.51-152.235-224.27-164.143z"/><path fill="#739ff0" d="M1630.043 2308.068s-281.809-44.702-321.287 292.324c-6.967 69.729-24.729 160.918-68.852 253.89-44.123 92.973-27.867 311.458 141.658 425.35 169.525 113.891 420.329 99.946 517.864-127.837 97.535-227.783 87.77-430.6 58.057-576.43-25.58-125.535-143.982-285.891-327.44-267.297z"/><path fill="#7f4141" d="M1772.719 3937.49s.999 123.207 14.283 399.959c13.284 276.752 78.054 733.04 95.483 840.151s54.458 119.132 84.646 119.456c30.188.324 58.752-64.454 81.374-224.597 22.622-160.144 106.392-824.037 89.488-1196.13 2.295-213.825-345.474-268.699-365.274 61.161z"/><path fill="#739ff0" d="M1966.172 3686.855s201.837-46.751 193.359 303.884-96.549 1013.656-96.549 1013.656-169.223 17-219.081 0c0 0-69.057-449.519-79.609-800.087-10.553-350.568-.001-481.326 201.88-517.453z"/><path fill="#5f8ee3" d="M2057.55 4934.268s34.001-8.5 34.001 11.688-5.313 72.252-12.75 76.502-237.762 21.245-247.57 0c-9.348-20.25-20.188-78.627-9.563-81.815 10.625-3.187 165.755 9.563 235.882-6.375z"/><path fill="#7f4141" d="M1955.696 5098s-52.587-2.264-63.516 67.263-23.1 96.574-40.489 135.455c-17.389 38.882-14.871 120.443 63.097 129.774 77.968 9.331 208.613 12.432 283.187 21.727 74.574 9.294 218.097 4.237 223.064-68.946 4.032-59.409-121.449-69.25-182.283-93.684-56.544-22.711-132.906-45.717-163.818-74.801-42.004-39.52-58.134-117.83-119.242-116.788z"/><path fill="#e5e5e5" d="M2425.877 5384.781s1.433 19.125-9.9 35.417c-11.334 16.292-76.502 43.21-155.13 43.21s-219.59-13.459-284.05-14.167c-64.46-.708-123.267-8.5-133.886-12.75 0 0-4.965-16.525 0-37.543l582.966-14.167z"/><path fill="#2b3469" d="M1874.59 5243.753s99.374 58.15 192.877 75.859c0 0 31.401-38.074 87.599-61.893 0 0 64.698 25.282 123.491 39.337 56.012 13.391 131.956 28.587 146.365 77.266 1.531 5.171 1.229 10.72-.948 15.654-7.336 16.626-34.288 52.89-129.834 52.89-123.962 0-257.841-14.167-312.384-20.542-54.543-6.375-118.309-14.876-138.844-23.376 0 0-30.154-68.132 31.678-155.195z"/><path fill="#7f4141" d="M1825.87 2676.022c55.552-2.249 105.771 32.988 122.974 85.905 29.677 91.284 95.076 310.591 141.121 598.164 61.285 382.746 119.538 791.3-85.424 825.142-41.427 7.262-169.352-28.948-264.045-276.846s-181.019-584.822-227.594-770.535c-46.574-185.714 18.829-366.821 152.657-421.81 61.276-25.178 115.997-38.226 160.311-40.02z"/><path fill="#edad9a" d="M1665.287 3264.052c-36.794 26.9-70.233 53.603-98.553 82.912 42.595 160.116 96.901 350.154 155.273 511.621 17.182-125.112 38.906-286.484 49.741-379.757 19.516-168.01-.433-267.92 11.301-298.733 11.734-30.813 50.859-104.36 53.723-189.3-.002 0-77.38 204.457-171.485 273.257z"/><path fill="#739ff0" d="M1701.752 2675.92s216.607-134.412 291.263 189.442c74.956 325.152 152.589 588.174 163.519 893.745 11.033 308.456-4.082 406.665-119.172 450.513-115.09 43.848-225.257-89.252-302.822-261.383-77.565-172.13-168.943-538.704-192.318-633.269-23.376-94.565-82.156-297.411-44.266-418.588 37.891-121.177 203.796-220.46 203.796-220.46z"/><path fill="#5f8ee3" d="M1551.209 3351.097c33.499-28.748 84.438-65.375 114.078-87.045 94.105-68.8 171.483-210.466 171.483-210.466-37.663 102.514-38.432 116.879-50.166 147.692-11.734 30.813 4.659 109.54-14.857 277.55-9.805 84.408-33.925 303.221-51.155 436.775-66.328-162.699-138.979-443.172-169.383-564.506z"/><path fill="#7f4141" d="M1437.295 2733.418s-237.001-33.216-248.612 357.269 37.286 1007.104 120.888 1134.941c83.601 127.837 236.87 125.513 299.571-146.432 62.701-271.945 111.468-655.457 127.724-829.78 16.256-174.324-58.056-527.62-299.571-515.998z"/><path fill="#739ff0" d="M1489.095 2708.795s190.06 34.665 234.288 296.447c0 0 27.095 108.378 22.313 272.539-4.781 164.161-105.191 707.646-105.191 707.646s-43.033 347.448-204.006 336.292c-160.974-11.157-192.852-178.505-212.773-307.603-19.921-129.098-37.453-494.077-50.203-702.865s-15.938-656.645 315.572-602.456z"/><path fill="#8c4949" d="M2063.755 2393.449s81.83 126.131 193.298 228.401c111.468 102.27 280.993 241.729 332.083 225.458 51.09-16.27 6.967-99.946-25.545-167.351-32.511-67.405-143.548-247.345-199.714-313.782-76.635-90.648-131.207-194.07-205.52-180.124-74.312 13.947-129.436 86.534-94.602 207.398z"/><path fill="#8c4949" d="M1976.278 1560.191s71.22 55.786 132.117 220.046c60.898 164.26 180.629 501.044 185.79 569.227 5.161 68.183-86.702 157.028-180.629 91.944-93.927-65.084-162.656-254.362-221.916-366.743-78.445-148.764-116.635-358.479-77.413-438.026 39.223-79.547 142.44-89.878 162.051-76.448z"/><path fill="#723333" d="M2061.935 1921.802c-1.819-140.084-36.385-243.783-36.385-243.783-94.817-4.31-171.25 75.108-211.896 176.518 15.621 74.124 42.735 153.278 77.986 220.128 44.196 83.813 93.661 210.385 154.914 296.324-1.09-92.29 17.046-320.997 15.381-449.187z"/><path fill="#fff" d="M2008.678 1559.662s65.341 35.069 173.72 325.14c19.125 41.439 57.377 152.314 57.377 152.314s-153.005 133.879-326.729 154.598c0 0-169.375-434.416-145.252-542.794 24.123-108.379 151.635-149.828 240.884-89.258z"/><path fill="#d7dbdd" d="M2163.357 2093.068c-61.066 39.342-152.395 86.967-250.311 98.646 0 0-112.873-289.504-141.207-454.801l299.956-59.061s66.341 207.303 91.562 415.216z"/><path fill="#8c4949" d="M1773.302 1464.001s-232.799-46.451-393.569 35.432c-160.769 81.883-123.908 369.692-94.612 537.7s13.451 311.283 11.217 457.922c-2.234 146.64 25.507 290.995 288.69 332.09 263.182 41.095 333.134-121.59 363.034-217.672 29.9-96.083 83.372-393.816 130.93-540.708 47.559-146.892 32.282-424.096-83.07-497.941-138.037-88.37-143.824-88.576-222.62-106.823z"/><path fill="#8c4949" d="M1674.611 1241.442c-14.507 12.757-24.092 30.196-28.006 49.121-6.574 31.79-24.029 103.47-55.099 147.386-40.844 57.731 43.317 159.106 117.588 165.106 80.483 6.501 110.37-18.619 126.191-87.971 15.822-69.351 18.875-83.066 28.38-139.135 15.153-89.379-39.809-139.796-91.15-151.636-45.668-10.532-76.506-1.689-97.904 17.129z"/><path fill="#723333" d="M1772.515 1224.313c-45.668-10.532-45.619 2.035-67.018 20.852-14.507 12.757-10.61 225.957 130.708 265.88 15.016-65.839 18.142-80.143 27.459-135.096 15.154-89.378-39.807-139.796-91.149-151.636z"/><path fill="#e8e8e8" d="m1591.506 1437.949 252.881 239.903s16.236-104.182-1.754-195.087c0 0 8.476.488 21.159 4.373 22.374 6.854 60.921 23.469 107.339 47.736 82.633 43.199 113.543 122.241 134.822 217.161s7.911 375.024-19.184 523.247c-27.095 148.223-55.291 415.786-48.365 487.605 6.926 71.818 10.908 185.912 8.12 204.57-2.788 18.659-705.683 40.897-841.861-64.042 0-33.654 7.06-200.5 14.337-309.032 14.979-223.394-8.261-373.692 0-569.963 5.66-134.473 0-467.357 185.623-544.244 56.315-25.168 110.788-36.44 186.883-42.227z"/><path fill="#d7dbdd" d="M1237.622 2516.055c-4.143-17.625-12.285-160.684-12.285-241.393 4.017-103.995 7.014-206.224 4.402-267.073-3.591-83.657 6.919-232.44 37.072-355.439 51.196-78.972 194.14-173.018 297.251-39.069 0 0 35.472 81.873 44.276 380.49 3.722 126.244-9.85 223.333-9.85 223.333l-43.033 8.542s-15.102 54.101-21.259 104.794l94.687 12.849s.326-277.047 27.718-362.811c0 0 22.899-89.512 140.64-165.242 100.129-64.402 212.017 22.166 246.882-15.089 33.646-35.953-19.203-164.185-30.052-235.682 51.434 45.412 74.775 111.457 91.884 187.771 21.28 94.92 7.911 375.024-19.184 523.247-27.095 148.223-55.291 415.786-48.365 487.605 6.926 71.818 10.908 185.911 8.12 204.57-.979 6.552-91.674 17.356-216.079 15.746-20.586-113.007-5.83-209.139-76.343-373.492-81.245 8.948-271.083 39.381-345.677 22.643-163.376-36.663-155.046-49.252-170.805-116.3z"/><path fill="#212851" d="M2114.102 1130.215s-9.793 4.727-25.709 6.776c-15.916 2.049-26.406 10.333-26.485 27.678-.079 17.345.946 25.303-13.687 28.342-14.633 3.039-21.274 14.295-17.976 21.96 0 0-14.34 5.313-20.396 21.116-6.056 15.803 7.834 42.908-3.5 53.612-11.335 10.704-22.411 14.441-20.655 28.084 0 0-19.991 15.286-29.018 34.938-9.027 19.653 12.607 26.114 10.108 42.615-2.499 16.501-29.344 23.424-16.299 52.948 3.444 8.802 6.922 26.845 32.259 35.141s30.943 24.91 20.745 35.468c-10.198 10.558-19.338 38.315-9.477 52.07 9.86 13.755 37.91 25.168 27.307 41.557-10.603 16.389-36.717 28.995-25.54 52.982 7.587 14.047 17.12 16.287 28.928 18.235 11.808 1.947 4.03 13.349 16.715 22.118 12.686 8.768 16.063-.912 26.035 4.739 9.973 5.651 16.602 30.222 33.801 29.164 17.199-1.058 29.705-2.667 41.399 7.384s49.504 7.496 60.838-3.208c11.335-10.704 39.283-27.014 54.76-32.473 15.477-5.459 57.102-14.284 88.01 1.385 30.909 15.668 128.38 18.724 151.375 8.831 22.996-9.894 22.191-16.147 26.559-27.11 4.367-10.963 7.631-12.539 17.571-16.13 9.939-3.591 4.108-3.996 13.169-14.408 9.061-10.412 28.567-2.521 31.764-22.58 1.947-11.807 18.01-12.719 18.381-27.791.372-15.072-8.869-15.038 6.461-21.634s29.198-24.561 25.427-44.878c-3.771-20.317-8.059-26.699-2.555-37.809s3.895-23.615-3.546-36.526c-7.44-12.911-4.581-8.656 3.748-24.752 8.329-16.096 10.795-41.838.236-52.036-10.558-10.198-31.573-2.87-28.961-27.476s11.819-33.88 2.983-39.677c-8.836-5.797-23.503-11.999-17.998-23.109 5.504-11.109 11.121-30.323-4.536-35.242-15.657-4.919-25.303.946-30.616-13.395-5.313-14.34-8.172-18.595.191-25.45 8.363-6.855 13.136-23.649 5.583-28.455-7.553-4.806-9.793 4.728-22.737 2.927-12.945-1.801-21.6 2.78-31.247 8.644-9.646 5.864-13.237-4.075-6.596-15.331s.225-16.208-4.615-17.897c-4.84-1.688-10.457 17.526-20.981 16.569-10.524-.957-10.592-19.439-5.234-31.686 5.358-12.246 4.592-27.172-1.823-32.124-6.416-4.953-14.307 14.554-26.958 15.026-12.652.473-17.638-2.353-25.664-19.81-8.025-17.458-10.738-20.576-29.513-22.782-18.775-2.206-31.686 5.234-37.438-12.517-5.751-17.75-18.145-24.245-21.555-23.806-3.411.439-3.377 9.68-16.029 10.153-12.652.473-23.255 16.861-32.935 13.485-9.68-3.377-11.109-5.504-23.322-1.621s-15.849 20.531-24.538 15.871c-8.689-4.66-27.059-12.697-38.281-10.097-11.222 2.6-27.025-3.456-39.238.428s-11.74 16.535-19.405 19.833-12.21 3.886-19.29 11.731z"/><path fill="#8c4949" d="M2037.164 4053.896c-74.809 6.145-131.5 70.24-130.15 145.289 2.014 112.002 17.838 294.419 58.762 649.709 56.587 491.279 65.14 520.044 120.891 532.434 46.298 10.289 77.164-141.468 90.025-257.214 12.861-115.747 66.876-465.558 59.159-635.319-7.716-169.761-46.299-424.403-162.045-434.692-13.022-1.158-25.229-1.144-36.642-.207z"/><path fill="#8c4949" d="M2261.156 2831.886s-234.957-52.742-273.539 248.198c-38.582 300.941-138.955 1055.475-56.646 1191.798 20.577 33.438 165.984 65.155 248.293-86.601 82.309-151.757 174.906-401.254 218.632-547.866 43.726-146.612 197.639-777.235-136.74-805.529z"/><path fill="#723333" d="M2044.122 3044.724c47.923-69.179 93.986-121.031 138.02-158.909 37.043-4.853 63.997.534 63.997.534 88.267 7.469 155.733 55.624 206.43 125.156 54.949 205.861-25.084 526.698-54.674 625.911-35.906 120.389-104.763 310.14-173.818 458.193-8.966-74.229-10.141-176.957-13.025-249.07-5.473-136.829-6.542-425.834-35.611-478.008-88.027-157.999-131.319-323.807-131.319-323.807z"/><path fill="#293463" d="M1895.959 3964.109c1.606-74.601 4.829-191.618 11.161-334.709 11.18-252.67 62.609-653.662 128.944-737.886 66.335-84.224 195.279-81.988 274.285-63.354 0 0 204.223 38.012 170.683 401.738-28.077 304.481-139.722 614.181-215.136 795.752-63.269-.235-233.085-6.409-369.937-61.541z"/><path fill="#1e2c56" d="M2211.052 3846.539c-5.473-136.829-6.542-425.834-35.611-478.008-88.028-157.998-131.32-323.807-131.32-323.807 47.923-69.179 93.986-121.031 138.02-158.909 37.043-4.853 63.997.534 63.997.534 102.538 8.677 177.007 72.256 229.723 160.474 9.008 49.293 11.951 109.521 5.169 183.074-28.077 304.481-139.722 614.181-215.136 795.752-12.291-.046-28.618-.318-47.93-1.127-3.686-60.707-4.872-126.997-6.912-177.983z"/><path fill="#ccc" d="m1698.309 5489.223 1.359 36.557a5.938 5.938 0 0 0 1.967 4.218c8.047 7.247 42.522 33.56 114.317 28.539 83.089-5.811 156.571-21.065 216.26-26.55 56.876-5.228 127.211-7.494 160.857-25.193 2.901-1.526 4.618-4.613 4.448-7.887l-3.089-59.522-496.119 49.838z"/><path fill="#fff" d="M1709.43 5475.923s-18.163 9.386-8.012 18.81 48.014 35.648 121.88 30.725c73.866-4.923 99.355-14.991 151.27-24.543 51.915-9.552 127.05-21.691 162.723-27.691 48.834-8.213 58.508-26.268 57.138-33.839-1.371-7.572-22.073-7.892-22.073-7.892l-462.926 44.43z"/><path fill="#8c4949" d="M2146.627 5254.013c-19.564-48.4-87.393-51.749-110.649-5.011a90.03 90.03 0 0 0-6.447 17.195c-13.031 49.437-150.178 84.937-192.824 102.683-42.647 17.746-129.818 38.703-132.755 96.312.393 21.742 70.357 44.312 142.227 36.514 71.87-7.797 160.563-29.011 215.473-35.972 54.91-6.96 104.508-21.649 118.129-38.472 13.62-16.823-17.346-137.873-29.361-164.311-1.315-2.89-2.56-5.889-3.793-8.938z"/><path fill="#ccc" d="M1703.991 5465.925s40.503 35.374 156.155 21.819c112.534-13.189 178.581-29.506 215.393-35.23 36.812-5.724 97.042-24.831 107.472-37.197 0 0 2.344 8.387 2.971 20.55a4.635 4.635 0 0 1-.943 3.069c-3.638 4.695-17.572 19.749-50.251 25.532-38.946 6.893-115.832 18.462-169.882 29.183-53.037 10.52-184.796 47.033-254.414-3.728-2.803-2.044-4.58-5.177-5.157-8.598a63.677 63.677 0 0 1-.443-3.081c-.62-5.206-.901-12.319-.901-12.319z"/><path fill="#fff" d="M1703.991 5465.925s-8.668-37.441 48.468-67.73c57.136-30.29 207.894-83.984 222.35-94.998 14.456-11.014 31.716-25.169 47.868-26.353 16.152-1.183 45.753 12.584 58.144 27.729 12.391 15.145 64.892-12.727 74.845-27.729 0 0 41.42 77.118 27.344 138.473-6.795 8.777-36.104 22.804-65.705 31.065-29.601 8.261-137.678 23.693-181.047 33.531-43.367 9.838-195.375 35.844-232.267-13.988z"/><path fill="#8c4949" d="M2455.091 1761.448c-89.571-16.882-182.357-6.876-266.093 29.128-33.206 14.278-65.03 32.522-83.686 54.732-52.238 62.188-70.894 145.519-111.937 233.825-41.044 88.306-41.044 151.738-32.338 211.438 8.706 59.7 37.312 94.525 47.262 124.375 9.95 29.85 10.776 113.378 15.838 154.581 9.017 73.381 2.661 115.213 11.925 140.869 16.168 44.775 65.828 149.813 233.734 149.813 222.632 0 342.091-124.686 342.413-183.354.745-135.652-14.063-253.203 13.3-343.997 27.363-90.794 85.509-248.75 89.24-319.645 3.731-70.894-12.453-172.838-169.15-227.607-32.072-11.209-62.665-18.911-90.508-24.158z"/><path fill="#8c4949" d="M2097.808 2526.128c-41.713 42.559-66.467 98.883-71.022 158.3-4.544 59.269-13.147 177.001-14.555 236.142-1.929 81.019 26.855 152.267 115.59 295.013 88.734 142.747 165.916 285.505 416.687 231.493 250.771-54.012 270.799-262.946 245.115-368.327-19.953-81.864-67.516-187.114-156.25-297.068-16.204-17.554-21.065-65.355-21.2-105.027-.226-66.341-29.522-129.546-81.333-170.982-43.748-34.988-109.586-63.498-207.988-63.498-111.422.001-181.482 39.508-225.044 83.954z"/><path fill="#8c4949" d="M2002.523 2400.335s11.3 72.375 2.916 164.778c-10.68 117.701-106.013 310.464-8.879 466.525 102.208 164.213 464.347-11.925 517.266-147.577 52.919-135.652-68.177-449.916-195.279-507.576-152.795-69.318-256.397-54.411-316.024 23.85z"/><path fill="#723333" d="M2364.013 2467.415s-64.099-28.323-105.838-45.466c-41.739-17.143-125.962-45.465-191.552-43.229 0 0 23.851-26.832 89.441-21.615 65.59 5.217 178.136 60.372 178.136 60.372l29.813 49.938zM2044.122 3006.014s-84.083-58.6-87.81-225.556c0 0-35.414 76.991 35.957 216.259 0 0 12.209 27.649 51.853 9.297z"/><path fill="#723333" d="M2002.402 2400.484c-7.203-15.475-17.374-32.863-26.115-54.42l641.791 17.001c-5.328 27.103-7.818 56.246-8.747 87.236-130.333 31.332-208.052-1.519-208.177-1.348-.126.171-1.365 29.643 3.853 59.457 5.217 29.813-15.652 41.739-15.652 41.739-20.124-87.205-74.021-129.285-74.021-129.285l-72.065-51.087s-102.493-12.837-173.664-3.727c-39.241 5.022-67.631 34.966-67.203 34.434zM1963.223 2761.185c-.854-4.746-5.594-17.077-11.919-10.334-2.184 2.329-3.32 5.883-3.925 8.956-.644 3.268-.682 6.586-.165 9.874.579 3.679 1.944 7.302 4.018 10.402.877 1.311 1.779 2.717 3.539 2.608 1.78-.11 2.767-2.027 1.442-3.391-.499-.513-1.089-.61-1.611-.455a23.49 23.49 0 0 1-2.214-3.853c-.865-1.903-1.44-3.955-1.777-6.016-.65-3.98-.234-8.133 1.154-11.914.462-1.258 1.591-4.52 3.274-4.613.893-.049 1.599 1.29 2.006 1.932a17.613 17.613 0 0 1 1.592 3.163c1.543 4.076 1.797 8.488 1.82 12.804.004.709.306 6.398-.937 6.059-.338-.092-.798-1.221-.956-1.501a30.476 30.476 0 0 1-.995-1.916 25.32 25.32 0 0 1-.779-1.817c-.123-.322-.247-.645-.351-.973-.258-.818-.025-.382-.965-.781 2.041.865 3.819-2.135 1.759-3.009-1.473-.624-3.06-.351-3.967 1.082-1.013 1.601-.277 3.527.36 5.111 1.048 2.605 2.712 7.62 6.269 7.311 4.07-.354 4.026-5.091 4.045-8.106.023-3.553-.086-7.119-.717-10.623z"/><path fill="#8c4949" d="M2238.379 1676.348s6.564 51.449-3.284 90.994c-9.848 39.544-12.089 83.104 45.234 101.039 57.323 17.935 147.962-15.993 167.84-45.056s28.382-37.171 16.91-74.011c-5.551-17.826-32.091-57.141-22.692-192.891 3.495-42.249-45.742-77.963-97.557-54.733-36.122 16.193-117.564 38.457-106.451 174.658z"/><path fill="#723333" d="M2235.094 1767.342c9.848-39.545 3.284-90.994 3.284-90.994-11.113-136.201 70.33-158.465 106.451-174.659 32.664-14.644 64.297-5.86 82.348 13.215-1.453 10.577-3.42 20.849-5.889 30.694-28.159 112.302-109.303 203.573-190.07 240.555.972-6.293 2.33-12.602 3.876-18.811z"/><path fill="#739ff0" d="M1997.074 2646.098c31.968-94.284 5.449-245.764 5.449-245.764-84.224-88.696-58.882-227.329-46.211-261.614 12.671-34.286 38.758-79.006 90.186-204.968 51.428-125.963 141.614-143.105 141.614-143.105-51.428 48.447 84.161 59.336 252.565 18.413 21.615-5.253 79.34-31.769 79.34-31.769s73.455 18.473 107.356 37.745c256.166 145.623 60.116 396.728 30.303 450.393-29.814 53.664-47.528 165.315-47.528 165.315s8.949 99.546 7.93 198.362c-1.019 98.815 30.494 171.89 30.494 171.89-263.829 217.652-676.844 211.309-676.844 211.309-58.653-169.501-6.621-271.922 25.346-366.207z"/><path fill="#5f8ee3" d="M2484.751 2581.123s15.337 101.685-9.159 160.161c-24.497 58.476-70.488 163.569-298.073 162.977-107.673 7.321-232.047-55.647-232.047-55.647 2.053-167.488 64.942-906.081 124.821-962.056 63.386 64.522 98.829 125.192 145.024 205.409 46.195 80.217 141.412 206.175 141.412 206.175l158.936 35.639s-15.612-169.424-13.805-191.506c11.108-135.742 31.55-191.435 31.55-191.435l179.485 141.775c-16.289 80.298-43.273 151.31-55.219 172.814-29.814 53.664-47.528 165.315-47.528 165.315s8.949 99.546 7.93 198.362c-.278 26.978 1.871 52.03 5.139 74.208-47.814-.513-138.466-122.191-138.466-122.191z"/><path fill="#5f8ee3" d="M2005.214 2399.541c-1.736.507-2.69.794-2.69.794a22.929 22.929 0 0 0 2.69-.794zM2215.318 1851.521c79.208 7.449 242.011-18.427 324.169-70.112-11.713-2.556-19.469-4.119-19.469-4.119s-57.725 26.516-79.34 31.769c-168.404 40.923-303.994 30.034-252.565-18.413 0 0-12.53 2.385-30.908 11.893-1.699 17.684 5.069 43.994 58.113 48.982z"/><path fill="#293463" d="M2636.325 2764.714s-100.833 44.922-194.484 75.155c-90.889 29.342-222.401 129.573-493.202 77.305 0 0 5.687 55.254 30.779 153.221 10.002 39.05 149.813 181.118 186.335 226.583 36.522 45.466 58.882 99.13 159.503 144.596 100.621 45.466 351.145 39.828 450.185-158.012 99.039-197.84-84.384-464.53-139.116-518.848z"/><path fill="#1e2c56" d="M2287.985 3086.098c55.152-58.085 371.928-117.069 468.289 0 23.861 28.988 37.578 67.931 44.719 110.119-3.433 29.962-11.535 59.343-25.552 87.345-58.939 117.736-171.527 167.4-274.244 178.736-77.165-10.455-148.452-23.128-201.885-33.518-44.161-23.789-70.338-49.301-90.638-74.39 19.815-162.079 79.311-268.292 79.311-268.292z"/><path fill="#8c4949" d="M2356.741 4259.874s48.871 288.08 77.164 447.553c28.294 159.473 74.592 583.876 82.309 676.474 7.717 92.597 59.159 72.02 79.737 64.304 20.577-7.717 48.871-38.583 61.731-123.463 12.861-84.881 46.299-275.22 61.731-414.115s14.727-528.374-54.015-684.19c-77.164-174.907-313.801-126.037-308.657 33.437z"/><path fill="#8c4949" d="M2712.68 3081.328c-59.904-114.538-206.694-148.879-312.356-74.429-57.708 40.661-117.13 112.309-128.463 236.977-23.15 254.642-5.144 457.841 25.721 663.613 30.865 205.771 38.582 290.652 69.448 393.538 30.866 102.886 108.03 133.752 162.045 123.463 54.015-10.289 133.751-84.881 156.901-236.637 23.149-151.757 59.159-465.558 69.448-619.887 6.966-104.505 33.985-339.931-42.744-486.638z"/><path fill="#293463" d="M2582.397 2935.489s209.192 37.764 200.745 314.036c0 0-10.683 320.248-38.261 592.297 0 0-8.889 87.267-20.261 190.565-68.714 29.788-202.38 63.136-409.341 13.989-28.828-169.969-57.339-363.733-61.577-486.292-8.943-258.634-49.937-676.024 328.695-624.595z"/><path fill="#ccc" d="m2170.172 5601.283 1.445 38.883a6.318 6.318 0 0 0 2.092 4.487c8.559 7.708 45.229 35.695 121.592 30.354 88.377-6.181 166.535-22.406 230.023-28.24 60.496-5.56 135.307-7.971 171.094-26.796 3.085-1.623 4.912-4.907 4.731-8.389l-3.286-63.31-527.691 53.011z"/><path fill="#fff" d="M2182.001 5587.137s-19.319 9.984-8.522 20.007c10.797 10.023 51.07 37.917 129.636 32.681 78.567-5.237 105.677-15.945 160.896-26.105 55.219-10.16 135.135-23.072 173.078-29.453 51.941-8.736 62.231-27.939 60.774-35.993-1.458-8.054-23.477-8.394-23.477-8.394l-492.385 47.257z"/><path fill="#8c4949" d="M2647.021 5351.105c-20.81-51.48-92.954-55.042-117.691-5.33a95.735 95.735 0 0 0-6.857 18.29c-13.86 52.583-159.735 90.343-205.096 109.218s-138.08 41.167-141.204 102.441c.418 23.125 74.835 47.131 151.278 38.838 76.444-8.294 170.781-30.857 229.185-38.261 58.405-7.403 111.159-23.027 125.647-40.921 14.487-17.894-18.45-146.646-31.23-174.768-1.396-3.074-2.721-6.264-4.032-9.507z"/><path fill="#ccc" d="M2176.216 5576.503s43.081 37.625 166.092 23.208c119.695-14.029 189.946-31.383 229.1-37.472 39.155-6.088 103.218-26.411 114.311-39.564 0 0 2.493 8.921 3.16 21.858a4.93 4.93 0 0 1-1.004 3.265c-3.869 4.994-18.69 21.005-53.449 27.157-41.425 7.331-123.203 19.637-180.693 31.04-56.412 11.189-196.555 50.026-270.604-3.966-2.981-2.173-4.872-5.506-5.485-9.145a68.587 68.587 0 0 1-.471-3.277c-.658-5.539-.957-13.104-.957-13.104z"/><path fill="#fff" d="M2176.216 5576.503s-8.371-24.444 18.333-50.435 157.735-70.816 183.49-83.202c25.755-12.386 92.411-38.476 105.49-49.49 13.08-11.014 14.018-24.13 35.233-20.326 21.215 3.804 48.062 27.209 54.258 32.717 6.196 5.507 75.447-31.93 78.034-45.156 0 0 43.419 82.09 34.666 162.063 0 0-10.818 17.329-114.076 43.488-103.259 26.159-186.554 35.108-234.052 40.615-47.5 5.507-152.718-1.347-161.376-30.274z"/><path fill="#8c4949" d="M2216.137 1153.111s-217.1 19.061-184.789 257.083c32.311 238.022 80.924 352.627 176.286 339.15 95.362-13.477 209.174-119.431 243.635-256.864 34.46-137.433-28.346-357.714-235.132-339.369z"/><path fill="#121d3f" d="M2051.125 1450.47a3.87 3.87 0 0 1-3.249-5.974c15.439-23.908 49.493-12.921 50.934-12.44a3.873 3.873 0 0 1-2.441 7.349c-.417-.137-29.835-9.522-41.989 9.293a3.864 3.864 0 0 1-3.255 1.772zM2145.262 1436.766a3.868 3.868 0 0 1-3.146-6.12c.253-.352 25.723-35.007 69.966-14.171a3.873 3.873 0 0 1-3.301 7.007c-38.294-18.03-59.488 10.457-60.373 11.679a3.876 3.876 0 0 1-3.146 1.605z"/><path fill="#723333" d="M2119.032 1588.166c-3.603 0-7.136-.324-10.133-1.194-3.278-.953-5.631-2.765-6.994-5.385-3.263-6.266-.074-15.624 4.751-29.788a752.324 752.324 0 0 0 3.241-9.666c7.241-22.233 3.422-48.86 3.382-49.126a3.872 3.872 0 0 1 3.261-4.398 3.862 3.862 0 0 1 4.399 3.259c.172 1.159 4.14 28.663-3.679 52.664a727.214 727.214 0 0 1-3.275 9.765c-3.726 10.939-6.944 20.386-5.212 23.715.245.471.728 1.069 2.287 1.523 7.879 2.29 22.67-.41 27.706-1.644a3.869 3.869 0 0 1 4.683 2.839 3.871 3.871 0 0 1-2.836 4.682c-.606.149-11.369 2.754-21.581 2.754z"/><path fill="#fff" d="M2103.49 1631.632c49.773 3.703 115.844-18.551 115.844-18.551s-4.861 43.948-52.077 53.888c-30.464 6.412-63.767-35.337-63.767-35.337z"/><path fill="#874646" d="M2207.328 1527.303s43.909-9.684 49.696 10.39c5.786 20.074-30.193 31.422-58.747 35.052-28.554 3.63-44.64-3.867-46.272-14.756-1.632-10.889 8.696-22.946 55.323-30.686zM2096.758 1560.966c5.346 5.279-1.119 27.857-29.693 35.073-3.434-12.183-6.721-25.078-9.873-38.689 3.631-.177 34.372-1.512 39.566 3.616z"/><ellipse cx="2180.494" cy="1480.398" fill="#212950" rx="15.659" ry="26.098" transform="rotate(-11.11 2180.14 1480.192)"/><path fill="#212950" d="M2069.256 1502.502c2.532 12.896 10.857 22.118 18.594 20.599 7.738-1.519 11.957-13.205 9.425-26.101s-10.857-22.118-18.595-20.599c-7.737 1.519-11.956 13.205-9.424 26.101z"/><path fill="#212851" d="M2093.426 1275.966s1.916 15.92 17.345 24.134c15.429 8.213 20.489 14.73 51.608 7.279 10.129.491 17.356 11.592 8.902 25.815-8.454 14.223-12.803 23.866-2.684 36.899 10.119 13.033 42.439 11.613 26.017 36.2-16.422 24.587-16.688 54.735 11.522 64.166 0 0-21.684-27.031-1.649-46.068s19.325-35.197 12.099-46.297c-7.226-11.101-12.28-23.888-4.312-34.252 0 0 20.259.982 25.548 21.246 5.289 20.264 1.889 47.274 21.663 52.115 19.773 4.84 27.971 8.224 26.743 33.548-1.227 25.324-1.964 40.518 11.053 49.211s19.266 33.783 9.361 53.31c0 0 25.591-28.921 7.291-64.15 0 0 40.496 27.047 44.099 45.14 3.602 18.092 56.68 87.617 86.327 110.555 0 0 40.27-79.334 45.681-203.3s-102.021-285.652-212.959-294.912c-110.938-9.259-253.033 32.828-280.892 176.311-4.12 23.391 5.759 35.218-1.98 59.33-7.739 24.112-8.982 68.248 16.571 83.224 0 0-16.374-31.851-.438-52.579 15.936-20.729 33.078-41.698 28.755-63.408-4.323-21.71-1.174-37.385 14.025-42.92 15.2-5.535 33.052-10.344 40.304-30.597z"/><path fill="#8c4949" d="M2323.792 1505.109s12.579-74.438 57.091-67.644c44.511 6.793 11.211 84.782-1.265 104.867-14.839 23.89-68.909 41.238-55.826-37.223z"/><path fill="#723333" d="M2348.821 1532.179c-1.856.318-3.53-.866-3.832-2.63-.336-1.962-7.87-48.195 23.054-61.368a3.25 3.25 0 0 1 4.252 1.711 3.242 3.242 0 0 1-1.712 4.253c-26.208 11.165-19.277 53.883-19.204 54.312a3.243 3.243 0 0 1-2.558 3.722z"/><path fill="#723333" d="M2349.242 1510.302a3.241 3.241 0 0 1-3.22-5.136c.538-.709 13.378-17.365 30.594-15.515a3.242 3.242 0 1 1-.694 6.446c-13.61-1.466-24.625 12.84-24.734 12.984a3.233 3.233 0 0 1-1.946 1.221z"/><path fill="#e5ba77" d="M1664.609 2305.67c22.59 196.927 160.48 316.215 224.414 372.151 29.821 26.092 291.596 250.577 440.804 158.164 88.566-54.853 123.67-212.814 124.341-224.835.104-1.857.101-3.674.101-3.679-.138-5.099-1.622-12.29-7.946-31.516-2.128-6.548-27.357-41.116-30.721-50.797-20.075-57.684-10.686-68.972-29.036-109.181a697.7 697.7 0 0 0-12.941-26.829c-48.258-96.045-108.14-163.674-211.606-326.761-67.752-106.933-71.082-146.852-122.548-175.832-8.251-4.687-114.871-67.358-201.223-38.487-146.324 48.932-191.567 301.32-173.639 457.602z"/><path fill="#deb16d" d="M1970.384 2521.774c151.819 148.053 277.273 296.264 409.012 230.987 95.13-47.137 64.677-101.775 68.565-164.087-2.128-6.548-27.357-41.116-30.722-50.797-20.075-57.684-10.686-68.972-29.035-109.181a697.7 697.7 0 0 0-12.941-26.829c-137.385 29.221-199.94 6.376-231.104-23.468-11.08-10.602-75.052-35.657-107.154-70.653-2.327-2.542-45.079-7.916-43.271-4.956 44.206 72.393 172.341 216.303 120.623 212.795-66.505-4.727-198.521-235.43-262.02-266.274-8.544-4.17-54.554-29.662-65.723-24.248-27.167 13.141 45.909 117.377 53.599 157.607 13.249 69.299 115.695 124.987 130.171 139.104z"/><path fill="#deb16d" d="M2145.033 2155.107c5.075 1.795 120.958 132.853 80.048 184.336-40.911 51.483-24.479 16.901-23.786-11.486 2.507-102.612-85.189-183.079-56.262-172.85z"/><path fill="#8c4949" d="M1842.932 2175.799c7.254 20.058 52.617 63.441 106.205 100.306 61.308 42.04 133.462 75.63 173.262 56.947 44.355-20.693 50.604-41.781 44.562-64.983-4.041-15.951-14.028-33.031-21.437-51.66-18.22-45.822-116.724-161.087-133.478-167.345-1.948-.695-5.565-1.089-10.293-1.026-35.175.113-135.374 18.761-135.374 18.761s-5.09 8.692-10.954 21.829c-10.127 23.076-22.425 59.883-12.493 87.171z"/><path fill="#723333" d="M1864.364 2080.598c12.552 30.655 64.813 52.825 124.611 42.439 35.645-6.191 47.157-28.12 50.495-49.462-13.682-14.594-22.798-22.783-27.424-24.511-1.948-.695-5.565-1.089-10.293-1.026-35.175.113-135.374 18.761-135.374 18.761s3.849.663-2.015 13.799z"/><path fill="#e5ba77" d="M1991.808 2304.319c21.752 15.056 128.341 57.655 131.808 52.546 43.511-64.12-47.394-366.059-79.004-328.12-25.577 30.698 16.323 87.903-22.506 98.553-38.829 10.65-79.025 11.429-128.17 10.979-31.692-.291-54.427-64.402-54.427-64.402l-25.111 93.494 21.581 59.272 155.829 77.678z"/><path fill="#deb16d" d="M2148.41 2166.758c-25.61-32.708-143.376-5.66-161.827 15.276-12.949 14.693 4.477 17.691 4.477 17.691-17.049 1.398-28.092 11.754-24.903 40.282 1.601 14.318 8.516 14.405 16.255 26.149 3.912 5.936 21.464 8.555 28.614 6.547 56.863-15.968 99.98 96.333 117.062 95.558 193.021-8.753 36.99-180.215 20.322-201.503z"/><path fill="#ede4d5" d="M2067.395 1955.723c-19.876-56.752-144.32-118.644-148.642-102.943-2.823 10.255 88.593 137.209 103.352 181.469 5.015 15.039 16.594 31.67 15.576 64.453-1.018 32.783-95.042 45.191-148.341 17.106-46.522-22.774-71.341-60.279-75.854-117.094-4.513-56.815 118.43-197.544-7.749-114.144-14.13 9.339-75.391 62.283-64.97 130.377 10.421 68.094 38.041 90.523 59.33 109.819 54.321 49.235 106.868 66.728 153.519 74.779 54.566 42.502 124.335 87.893 125.875 88.243 2.959.674-1.195-132.804 6.293-188.876 3.788-28.352 1.487-86.436-18.389-143.189z"/><path fill="#cacaca" d="M1772.915 1975.128c2.82 14.492 6.344 28.61 11.309 42.139 2.437 6.77 5.166 13.4 8.182 19.866 1.573 3.206 3.098 6.419 4.782 9.552.8 1.586 1.684 3.128 2.557 4.673.868 1.547 1.728 3.096 2.653 4.608 14.408 24.386 33.632 45.582 56.529 61.536 1.447.972 2.855 2.004 4.319 2.95l4.405 2.82 4.502 2.66c1.499.891 3.06 1.67 4.579 2.526 6.125 3.338 12.475 6.25 18.95 8.868 12.981 5.173 26.605 8.782 40.564 10.956 13.965 2.169 28.263 2.792 42.636 2.156 14.382-.667 28.808-2.626 43.225-5.776-6.592 3.327-13.484 6.139-20.557 8.442-7.065 2.343-14.315 4.184-21.669 5.633-14.717 2.821-29.903 3.84-45.073 2.841-1.899-.095-3.788-.302-5.684-.477-1.898-.155-3.785-.409-5.676-.651-1.895-.219-3.774-.539-5.654-.867l-2.823-.481-2.807-.57c-7.495-1.497-14.888-3.569-22.13-6.094-7.23-2.561-14.271-5.649-21.122-9.112a173.118 173.118 0 0 1-19.714-11.878c-25.221-17.566-45.443-41.883-58.556-69.2-.412-.853-.842-1.696-1.238-2.556l-1.148-2.599c-.764-1.732-1.534-3.458-2.217-5.222-.689-1.761-1.443-3.491-2.073-5.272a367.947 367.947 0 0 1-1.895-5.331c-2.41-7.145-4.338-14.426-5.857-21.76-1.494-7.341-2.581-14.741-3.103-22.166a164.935 164.935 0 0 1-.196-22.214zM2039.468 1934.277c6.2 8.92 11.39 18.545 15.861 28.524 4.468 9.985 8.027 20.403 10.834 31.043.64 2.673 1.369 5.334 1.936 8.029.552 2.697 1.129 5.395 1.609 8.11.44 2.721.924 5.44 1.313 8.173l.968 8.227c.501 5.501.86 11.02.966 16.549.04 1.382.083 2.765.076 4.147l-.1 4.146-.22 8.294c-.781 11.035-2.068 22.046-4.426 32.849-2.377 10.788-5.439 21.413-9.365 31.694-3.986 10.257-8.698 20.2-14.19 29.656-5.49 9.452-11.722 18.446-18.85 26.643 9.186-19.647 16.833-39.484 22.456-59.787a330.67 330.67 0 0 0 6.744-30.722c.366-2.591.797-5.167 1.2-7.748.398-2.581.605-5.189.919-7.781l.471-3.887c.147-1.296.205-2.602.312-3.902l.583-7.807c.473-10.427.615-20.875.054-31.323-.52-10.449-1.691-20.875-3.321-31.27-3.243-20.821-8.845-41.326-15.83-61.857z"/><path fill="#cacaca" d="M2082.057 2152.252c-40.296 3.327-64.035 7.079-95.473 29.782-15.877 11.466 4.477 17.691 4.477 17.691-9.427.773-17.012 4.294-21.375 12.103 51.27 38.522 108.416 75.645 109.808 75.962 2.217.505.437-74.388 2.563-135.538z"/><path fill="#edce9d" d="m2281.656 2283.283 2.743.299c6.786.74 12.635 7.415 11.557 14.386-1.081 6.994-7.114 12.35-14.386 11.557l-2.742-.299c-6.785-.74-12.635-7.415-11.557-14.386 1.08-6.994 7.113-12.35 14.385-11.557zM1714.922 2130.696l3.351-5.18c3.827-5.916 12.851-6.724 18.256-2.718 5.963 4.42 6.559 12.317 2.719 18.256l-3.351 5.18c-3.827 5.916-12.851 6.724-18.255 2.718-5.964-4.421-6.561-12.317-2.72-18.256zM1705.493 2298.165c16.694 1.82 13.892 27.767-2.829 25.944-16.694-1.82-13.893-27.767 2.829-25.944zM2103.918 2386.024c16.694 1.821 13.892 27.768-2.829 25.944-16.694-1.821-13.892-27.767 2.829-25.944zM2005.71 2412.466c5.513-4.428 13.918-3.51 18.345 2.001l2.444 3.042c4.414 5.494 3.493 13.931-2.001 18.345-5.513 4.428-13.917 3.51-18.345-2.001l-2.444-3.042c-4.412-5.495-3.493-13.932 2.001-18.345zM2274.234 2529.498c16.693 1.82 13.892 27.767-2.829 25.944-16.694-1.821-13.892-27.767 2.829-25.944zM2277.475 2397.271c4.402-5.938 12.339-6.593 18.256-2.719l5.161 3.38c5.894 3.861 6.741 12.829 2.719 18.256-4.401 5.937-12.339 6.593-18.256 2.718l-5.161-3.381c-5.894-3.859-6.742-12.827-2.719-18.254zM2109.436 2051.232c6.994 1.081 12.35 7.115 11.557 14.386l-.299 2.743c-.74 6.785-7.415 12.635-14.386 11.557-6.994-1.081-12.35-7.114-11.557-14.386l.299-2.743c.74-6.785 7.415-12.634 14.386-11.557zM1872.771 2596.739c16.694 1.821 13.892 27.767-2.829 25.944-16.693-1.821-13.892-27.768 2.829-25.944zM1901.618 2218.934c16.694 1.82 13.892 27.767-2.829 25.944-16.694-1.822-13.892-27.768 2.829-25.944zM1724.733 2019.932c16.694 1.821 13.892 27.767-2.829 25.944-16.694-1.82-13.892-27.767 2.829-25.944zM2194.937 2493.095c16.694 1.821 13.892 27.767-2.829 25.944-16.694-1.821-13.892-27.768 2.829-25.944zM2200.525 2596.739c16.694 1.821 13.892 27.767-2.829 25.944-16.693-1.821-13.892-27.768 2.829-25.944zM2380.661 2571.636c16.693 1.821 13.892 27.767-2.829 25.944-16.694-1.821-13.892-27.768 2.829-25.944zM2295.808 2775.891c16.693 1.821 13.892 27.767-2.829 25.944-16.694-1.821-13.893-27.768 2.829-25.944zM2195.174 2160.053c16.694 1.821 13.892 27.767-2.829 25.944-16.693-1.82-13.891-27.767 2.829-25.944zM1985.683 2681.217c16.694 1.821 13.892 27.767-2.829 25.944-16.693-1.82-13.892-27.767 2.829-25.944zM2134.57 2715.249c16.694 1.821 13.892 27.767-2.829 25.944-16.694-1.821-13.892-27.768 2.829-25.944zM1811.273 2427.685c16.694 1.821 13.892 27.767-2.829 25.944-16.694-1.821-13.892-27.768 2.829-25.944zM1989.938 2568.914c16.694 1.82 13.892 27.767-2.829 25.944-16.694-1.821-13.893-27.767 2.829-25.944z"/><path fill="#8c4949" d="M1791.553 1938.362c-3.241 23.28-5.106 34.23 4.255 64.205 12.878 37.614 20.983 47.043 35.269 62.716 27.066 47.939 92.651 58.145 136.363 46.488 104.361-27.83 107.622-133.328 54.648-178.031-18.535-14.683-26.51-36.415-35.33-47.384-68.005-84.585-184.992-21.016-195.205 52.006z"/><path fill="#723333" d="M1969.861 2002.229c-1.789.36-3.79.447-6.001.188a2.008 2.008 0 0 1-1.762-2.228 2.006 2.006 0 0 1 2.228-1.762c7.947.925 11.677-3.445 12.518-7.845.553-2.895-.303-5.6-1.908-6.029-11.927-3.193-17.239-8.351-17.46-8.569a2.009 2.009 0 0 1 2.82-2.861c.075.073 4.91 4.666 15.678 7.55 3.778 1.011 5.803 5.496 4.815 10.664-.947 4.952-4.619 9.623-10.928 10.892z"/><path fill="#212851" d="M1970.959 1960.269a2.506 2.506 0 0 1-3.003-2.58c.018-.363 1.211-7.337 7.516-11.672 4.063-2.79 8.702-4.734 15.183-2.606a2.511 2.511 0 0 1-1.567 4.771c-4.899-1.609-8.051.112-10.75 1.958-4.256 2.905-5.364 7.738-5.367 7.802a2.517 2.517 0 0 1-2.012 2.327zM1906.88 1990.873a2.51 2.51 0 0 1-2.931-3.064c1.932-7.834 7.064-11.31 12.191-13.559 7.298-3.2 13.22-.816 13.535-.643a2.51 2.51 0 0 1-2.41 4.406c-.103-.054-4.149-1.362-9.14.85-3.607 1.598-7.767 3.927-9.302 10.148a2.508 2.508 0 0 1-1.943 1.862zM1949.075 1936.386a3.013 3.013 0 0 1-2.258-5.467c.819-.541 20.265-13.216 39.37-10.217a3.013 3.013 0 1 1-.933 5.952c-16.77-2.628-34.935 9.174-35.117 9.295a3.02 3.02 0 0 1-1.062.437zM1885.259 1983.813a3.013 3.013 0 0 1-3.411-4.016c9.097-24.177 31.842-33.204 32.805-33.577a3.013 3.013 0 0 1 2.176 5.619c-.211.083-21.219 8.491-29.342 30.08a3.008 3.008 0 0 1-2.228 1.894z"/><path fill="#703535" d="M1953.763 2047.96a72.83 72.83 0 0 1-5.128-.182 3.603 3.603 0 0 1-3.338-3.849 3.61 3.61 0 0 1 3.848-3.339c27.91 1.983 51.889-15.114 58.958-32.787a3.602 3.602 0 1 1 6.69 2.676c-7.496 18.739-31.085 37.481-61.03 37.481z"/><path fill="#854242" d="M1903.344 2002.589s20.612-9.388 25.683 1.268-11.442 20.248-25.141 24.867-22.468 1.906-24.474-4.011 1.763-13.573 23.932-22.124zM2007.044 1945.333s11.603-10.687 18.856-1.46-.838 19.369-11.094 26.239c-10.256 6.87-15.027 2.628-18.373-2.642-3.345-5.27-5.685-9.994 10.611-22.137z"/><path fill="#723333" d="M1846.713 2014.3s-15.537-18.421-33.553-3.33c-13.55 11.35 3.169 46.205 37.531 49.861 12.736 1.355-3.978-46.531-3.978-46.531z"/><path fill="#8c4949" d="M1850.958 2018.545s-16.094-20.757-34.5-6.144c-18.406 14.612 26.905 57.397 42.561 45.114 15.655-12.282-8.061-38.97-8.061-38.97z"/><path fill="#723333" d="M1851.288 2047.03a2.016 2.016 0 0 1-2.55-1.297c-6.357-20.031-18.757-19.89-18.883-19.886a2.01 2.01 0 0 1-2.069-1.946 2.006 2.006 0 0 1 1.948-2.069c.633-.019 15.568-.205 22.832 22.686a2.006 2.006 0 0 1-1.278 2.512z"/><path fill="#723333" d="M1847.158 2038.876a2 2 0 0 1-1.387-.042c-6.754-2.721-11.093 1.398-11.276 1.577a2.018 2.018 0 0 1-2.836-.023 2.004 2.004 0 0 1 .004-2.827c.251-.253 6.334-6.189 15.611-2.454a2.009 2.009 0 0 1-.116 3.769z"/><path fill="#212950" d="M1934.965 1892.882c-2.04-3.332-16.907 8.668-21.898-4.705-3.572-9.571 2.146-14.644-1.663-26.212-3.197-9.708-10.524-16.17-21.042-17.05-8.664-.726-18.957 2.868-25.998 7.404-1.748 1.126-2.301 3.941-4.103 6.306-7.406 1.877-16.859 8.718-18.92 12.843-2.776 5.557-4.328 12.309-3.094 18.638 1.499 7.683 8.552 11.416 15.968 12.989 8.836 1.874 12.115-2.751 19.46-.891 10.263 2.599 2.616 14.531 5.238 15.765 2.163 1.019 8.207-8.497 9.942-17.016 3.271 1.582 5.881 4.232 10.966 7.556 10.801 7.059 37.619-11.584 35.144-15.627z"/><path fill="#8c4949" d="M2610.28 2648.268s18.752-9.777 23.791 12.182c5.038 21.959 37.46 94.245 48.956 102.437 11.496 8.192 45.742 28.017 55.915 74.533 10.174 46.516 19.175 86.912 14.212 105.664s-105.549 65.97-169.301 75.887-57.576-15.584-59.247-20.542-32.542-4.106-26.315-28.616c0 0-29.899-7.573-12.191-34.813 0 0-22.465-9.904-15.482-32.385s118.906-71.661 131.656-89.619 15.388-47 10.173-73.918c-5.214-26.918-17.042-91.519-2.167-90.81z"/><path fill="#723333" d="M2623.218 2703.313c9.976.559 19.498 1.945 28.487 3.801-8.36-18.791-15.486-37.302-17.634-46.664-5.039-21.959-23.791-12.182-23.791-12.182-9.912-.472-7.967 28.052-4.023 55.104a615.518 615.518 0 0 1 16.961-.059zM2485.947 2934.644c45.398-21.46 86.145-51.651 132.416-71.227-15.592 16.956-41.688 29.71-63.452 40.739-22.06 10.213-47.464 24.652-68.964 30.488zM2498.176 2969.443c50.921-17.94 98.371-43.484 147.109-66.357-32.87 33.142-102.742 54.872-147.109 66.357zM2524.498 2998.057c46.523-15.23 89.752-38.404 136.395-53.262-16.002 15.059-43.814 24.893-65.861 32.629-22.539 7.223-49.097 17.684-70.534 20.633z"/><path fill="#8c4949" d="M2619.707 1842.382s86.342-.521 115.5 125.483c29.159 126.003 74.805 402.244 87.054 474.347 12.249 72.103 14.203 169.785-35.559 193.681-49.762 23.896-136.824-67.561-181.653-220.745-44.828-153.184-110.922-395.867-97.58-471.116 13.342-75.248 66.538-102.037 112.238-101.65z"/><path fill="#739ff0" d="M2586.874 1832.248s-127.749 13.62-70.047 273.552c18.512 151.834 58.158 266.476 58.158 266.476s161.08 54.006 252.155-27.131c.001 0-.006-521.157-240.266-512.897z"/><path fill="#723333" d="m2698.013 2434.433-75.425 32.293c-6.265-15.963-12.149-33.157-17.539-51.578l-.588-2.01c44.618 7.372 93.552 21.295 93.552 21.295z"/><path fill="#8c4949" d="M2744.882 2657.592c78.527-5.428 104.192-103.459 54.373-164.403-22.201-27.158-59.416-56.036-121.798-76.383-154.01-50.232-364.244-109.098-401.946-123.793s-91.742 42.299-23.18 99.142c68.562 56.844 430.973 258.651 474.011 264.828 5.918.85 12.15 1.051 18.54.609z"/><path fill="#8c4949" d="M2288.919 2297.75s-41.565-21.689-57.385-49.122c-15.82-27.434-48.054-73.824-79.907-81.167-31.853-7.343-92.13-8.935-107.581-7.797-27.722 2.043-39.827 17.009-36.754 25.903 0 0-31.491 9.043-18.911 29.049 0 0-9.172 15.3 25.29 22.569 0 0-15.322 2.612-10.057 15.099 5.264 12.487 26.546 6.467 43.35 2.438 16.803-4.03 23.433 16.042 36.588 34.257 13.156 18.215 57.988 77.928 95.291 89.606s50.712-.485 87.73 24.507c37.017 24.992 68.35-15.272 74.83-29.764 6.477-14.494 4.948-43.166-52.484-75.578z"/><path fill="#723333" d="M2013.56 2236.813c13.205-4.738 35.866-12.844 48.682-17.723 18.867-2.448 35.818 13.766 48.944 25.557 3.308 3.771 8.207 7.629 10.044 12.091-9.102-4.254-17.455-10.695-26.009-16.058-9.764-5.478-19.45-16.563-30.98-16.352-16.1 4.071-36.087 11.421-50.681 12.485z"/><path fill="#723333" d="M1988.28 2214.241c24.153-7.465 48.615-14.614 73.218-20.524 22.238-3.273 43.365 7.469 61.67 18.722 5.396 3.854 12.286 7.507 16.234 12.518-12.509-4.308-24.678-10.707-36.955-15.288-12.747-4.638-26.069-11.62-39.766-10.094-24.252 3.557-52.145 12.275-74.401 14.666zM2007.199 2185.19c23.766-6.522 47.996-12.2 72.916-11.727 20.859 1.972 46.316 6.917 62.871 17.171-21.438-1.439-42.413-6.584-63.387-10.661-23.6-2.907-51.039 3.919-72.4 5.217z"/><path fill="#8c4949" d="M1881.802 2743.388c30.029 19.393 75.139 29.847 90.784 12.605 24.134-26.598 11.035-62.041 5.362-77.786-3.287-9.125-4.629-15.798 12.761-33.729 7.545-7.78-6.307-28.059-19.036-20.461 0 0 4.822-26.979-21.183-22.626 0 0 4.328-25.124-18.412-23.095-8.581.318-22.122 9.001-29.14 16.313-7.018 7.312-25.076 28.219-31.581 39.778-6.505 11.56-16.5 28.444-16.11 13.338.427-16.506 7.587-33.688 15.711-47.34 8.535-14.344 10.499-23.951 11.231-29.785.732-5.834 2.125-27.367-13.839-16.82-15.965 10.547-30.499 35.195-38.871 49.135-8.372 13.94-14.149 34.237-15.552 52.364-1.402 18.126 3.269 21.505 15.065 35.531 11.797 14.025 22.781 33.185 52.81 52.578z"/><path fill="#723333" d="M1949.677 2602.222c-5.898 6.357-11.93 12.565-17.841 18.889l-8.928 9.399c-2.978 3.112-5.966 6.246-8.781 9.393-1.141 1.299-2.134 2.98-3.059 4.767-.922 1.787-1.762 3.677-2.569 5.598-1.628 3.833-3.325 7.696-5.188 11.521-1.869 3.825-3.777 7.669-5.856 11.473-2.049 3.817-4.204 7.616-6.734 11.321a.456.456 0 0 1-.836-.27c.163-4.51.87-8.87 1.796-13.17.904-4.31 2.105-8.536 3.538-12.7 1.448-4.16 3.234-8.216 5.496-12.105a79.931 79.931 0 0 1 3.688-5.756c1.351-1.879 2.779-3.818 4.671-5.611 6.476-5.992 13.073-11.526 19.752-17.083 6.733-5.47 13.402-10.993 20.257-16.313a.44.44 0 0 1 .594.647zM1970.785 2625.688c-4.144 5.979-8.428 11.835-12.586 17.78l-6.299 8.842c-2.102 2.932-4.212 5.864-6.171 8.83a38.127 38.127 0 0 0-1.409 2.232 28.237 28.237 0 0 0-1.234 2.179l-.271.516-.142.372c-.096.277-.203.58-.298.917-.184.679-.402 1.41-.566 2.197l-2.195 9.975c-.792 3.436-1.579 6.929-2.55 10.433-.94 3.509-1.958 7.039-3.35 10.579a.471.471 0 0 1-.895-.04c-1.031-3.693-1.52-7.386-1.809-11.09-.31-3.707-.302-7.415-.054-11.146.283-3.736.805-7.469 2.129-11.297.338-.953.708-1.937 1.203-2.936a21.76 21.76 0 0 1 .836-1.548l.52-.814.478-.617a42.944 42.944 0 0 1 1.876-2.272l1.841-2.119c4.822-5.594 9.759-10.893 14.818-16.137 5.11-5.185 10.173-10.393 15.445-15.418a.45.45 0 0 1 .683.582z"/><path fill="#8c4949" d="M1300.141 1620.229s-47.55 95.314-55.506 401.676c-13.428 517.081-19.136 501.71 94.639 524.194 113.775 22.484 168.514-253.148 200.332-384.433s68.422-449.722 4.166-553.77-181.751-111.493-243.631 12.333z"/><path fill="#e8e8e8" d="M1446.851 1513.968s183.571 25.549 141.304 399.704l-30.862 273.192s-202.272 22.862-338.292-18.968c0 0 12.746-400.346 45.015-504.966s84.785-164.85 182.835-148.962z"/><path fill="#723333" d="M2224.139 2385.932s21.86-17.262 15.802-44.502c-4.252-19.117-6.13-38.75-33.562-41.088-16.931-1.015-35.975 6.087-41.663 10.863-32.504 27.291-40.66 27.053-40.66 27.053 18.754 29.667 100.083 47.674 100.083 47.674z"/><path fill="#8c4949" d="M1309.937 2560.988s80.247 8.812 277.36-2.295 271.754-32.921 366.077-45.735c74.471-10.117 64.163-92.388-36.12-108.951-100.283-16.563-162.531-25.61-304.018-45.764-134.185-19.114-262.502-39.65-315.249-14.692-74.596 35.298-70.841 195.221 11.95 217.437z"/><path fill="#8c4949" d="M1785.875 2450.87s19.101-54.385 110.075-52.655c56.369 1.072 53.77-15.261 89.328-41.51 35.559-26.25 81.795-65.657 98.005-56.82 16.21 8.837.184 20.264-22.361 46.179-22.545 25.915-29.631 27.169-23.166 31.256s44.875.971 67.041-9.586c22.166-10.557 61.967-42.276 84.833-53.512 22.867-11.236 36.176 5.468 25.622 17.048 0 0 21.819 4.585 5.442 27.832 0 0 12.773 9.439 2.185 22.416 0 0 7.231 12.078-11.105 33.92-18.337 21.841-98.813 92.94-122.243 99.27-23.43 6.33-165.149 7.254-195.983 8.487-30.833 1.232-133.832-7.768-107.673-72.325z"/><path fill="#723333" d="M2213.932 2329.836c-40.219 28.694-84.439 59.903-124.606 88.333 23.41-.385 46.273-24.959 65.65-39.067 18.922-16.101 43.139-32.862 58.956-49.266zM2221.608 2357.086c-44.184 31.292-87.307 67.806-133.552 95.641 25.711-1.741 50.572-24.831 70.999-41.51 20.14-17.69 45.569-36.137 62.553-54.131zM2222.465 2381.159c-23.427 19.242-51.949 43.997-75.316 63.539-14.617 12.626-27.735 27.67-46.044 34.833 24.732 1.035 47.391-26.012 65.317-42.699 15.636-16.171 43.534-39.859 56.043-55.673z"/><path fill="#8c4949" d="M1908.903 860.079s210.439 19.367 189.565 192.592c-21.855 181.358-97.211 427.187-212.216 422.737-115.005-4.45-233.833-137.358-243.296-319.826-9.463-182.468 105.432-329.168 265.947-295.503z"/><path fill="#874646" d="M2004.589 1285.141c-3.864 8.37 9.204 24.159 27.725 36.566 5.874-14.446 11.414-29.5 16.613-44.972-23.719-5.206-40.85.851-44.338 8.406z"/><path fill="#723333" d="M1964.629 1307.794c-12.211 0-26.965-4.607-27.663-4.827a3.873 3.873 0 0 1 2.33-7.386c.177.056 17.79 5.557 28.892 4.283 3.04-.349 3.972-1.145 4.407-1.714 2.195-2.865.782-12.263-1.172-25.271-.274-1.817-.561-3.731-.858-5.744-4.02-27.319 5.311-56.258 5.71-57.476a3.873 3.873 0 0 1 7.36 2.409c-.092.281-9.157 28.461-5.407 53.939.295 2.006.581 3.911.853 5.721 2.567 17.082 3.856 25.657-.339 31.132-2.028 2.647-5.193 4.184-9.673 4.698a38.836 38.836 0 0 1-4.44.236z"/><path fill="#212950" d="M1961.454 1156.681a4.642 4.642 0 0 1-3.84-2.025c-.901-1.312-22.544-31.943-60.927-15.074a4.648 4.648 0 0 1-3.739-8.509c45.573-20.026 72.083 17.962 72.344 18.348a4.647 4.647 0 0 1-3.838 7.26zM2066.859 1179.656a4.642 4.642 0 0 1-3.88-2.083c-16.629-25.137-45.814-15.335-46.106-15.234a4.647 4.647 0 0 1-3.056-8.776c.361-.126 36.344-12.21 56.912 18.882a4.647 4.647 0 0 1-3.87 7.211z"/><path fill="#e5e5e5" d="M1975.333 1374.969s-62.017-8.799-103.43-30.177c0 0 7.975 40.461 44.152 52.969 31.124 8.093 59.278-22.792 59.278-22.792z"/><path fill="#874646" d="M1894.226 1234.422s44.063 16.799 37.574 37.726c-6.489 20.927-44.559 10.153-71.677-3.11s-36.899-29.097-32.058-39.581c4.84-10.484 20.835-15.104 66.161 4.965z"/><ellipse cx="1916.097" cy="1197.492" fill="#212950" rx="27.809" ry="16.685" transform="rotate(-79.38 1916.007 1197.461)"/><path fill="#212950" d="M2039.893 1229.338c-3.369 13.692-12.76 23.152-20.974 21.131-8.215-2.021-12.143-14.759-8.775-28.451 3.369-13.692 12.76-23.152 20.975-21.131s12.143 14.759 8.774 28.451z"/><path fill="#121d3f" d="M1844.323 998.705s-49.675 82.632-57.435 121.23c-15.05 74.864-36.611 103.209-43.473 117.83-6.863 14.621-85.403 104.77-108.656 100.829-6.8-4.763 2.686-52.506 0-97.328s-16.847-263.6 65.097-314.633c81.944-51.033 144.467 72.072 144.467 72.072z"/><path fill="#212950" d="M2086.536 1129.875s27.959-81.102 17.714-148.972c-10.244-67.871-83.466-117.232-128.917-134.508-45.451-17.276-211.807-33.318-275.477 53.063-8.139 13.574-13.075 27.148-.015 42.917 9.036 10.909 95.32 55.32 166.382 71.604 71.063 16.285 194.345 9.659 217.043 12.889 0-.001 15.274 46.416 3.27 103.007z"/><path fill="#8c4949" d="M1785.907 1195.12s11.234-59.719-42.312-69.157c-53.545-9.439-58.075 134.668-12.783 142.92s55.095-73.763 55.095-73.763z"/><path fill="#723333" d="M1737.101 1239.409c-2.261-1.351-2.982-4.204-1.668-6.406 24.922-41.747 5.647-62.999 5.448-63.21a4.648 4.648 0 1 1 6.767-6.371c1.004 1.066 24.247 26.637-4.233 74.344a4.649 4.649 0 0 1-6.314 1.643z"/><path fill="#723333" d="M1744.877 1219.743a4.632 4.632 0 0 1-2.055-2.467c-5.654-15.869-19.446-17.059-20.036-17.1-2.535-.191-4.482-2.392-4.312-4.945.173-2.549 2.348-4.484 4.9-4.331.824.045 20.436 1.466 28.206 23.26a4.648 4.648 0 0 1-6.703 5.583z"/><path fill="#8c4949" d="M1456.386 5200.133s-5.542 102.833 46.522 140.022c52.064 37.188 254.862 157.104 269.81 191.18 14.948 34.077-55.179 105.266-167.807 69.14-112.628-36.126-198.693-72.252-253.945-88.19-55.252-15.938-96.691-55.252-95.628-100.941 1.062-45.688 33.263-92.019 30.445-184.67-2.819-92.651 163.395-124.062 170.603-26.541z"/><path fill="#e5e5e5" d="M1787.733 5545.223s11.43 46.192-26.194 76.754c-37.624 30.562-133.252 18.314-191.691 0-58.439-18.314-171.068-58.69-225.257-76.754-54.189-18.063-105.191-26.563-94.565-77.564l537.707 77.564z"/><path fill="#2b3469" d="M1526.337 5356.011s27.573 10.105 54.136 25.813c26.563 15.708 190.193 123.023 201.881 143.211 11.688 20.188 19.422 119.004-147.012 92.44-48.493-7.038-202.83-59.41-262.774-81.815-68.765-25.703-105.542-43.564-122.542-68.002 0 0-4.505-83.238 21.654-129.809 0 0 74.856 77.771 150.386 102.196 0 0 28.885-59.677 104.271-84.034z"/><path fill="#8c4949" d="M1300.282 4011.791s-41.801 83.675-65.023 325.404c-23.223 241.729-9.289 483.458 23.223 685.673 32.512 202.215 23.21 318.486 95.213 334.701 92.89 20.918 103.08-161.396 134.691-376.539 34.834-237.08 132.369-818.159 127.724-945.996-4.645-127.838-243.838-160.378-315.828-23.243z"/><path fill="#739ff0" d="M1497.957 3833.485s154.902 28.134 135.744 193.6c-15.212 131.391-145.668 1111.189-145.668 1111.189s-163.63 31.876-229.507 0c0 0-57.377-330.817-48.876-638.235 8.5-307.418 19.015-455.095 19.015-455.095s36.236-241.21 269.292-211.459z"/><path fill="#5f8ee3" d="M1495.801 5079.878s14.546-7.481 13.483 9.519c-1.063 17-4.653 64.814-13.483 66.939-8.83 2.125-221.865 24.438-248.695 0-6.642-11.688-13.017-63.752-10.892-72.252 2.124-8.5 98.412 16.026 259.587-4.206z"/><path fill="#5f8ee3" d="M1312.861 5097.827a3.874 3.874 0 0 1-3.822-3.279c-40.566-261.93-4.031-862.412 6.536-965.067 9.449-91.807 24.861-540.192-.005-816.691-14.629-162.666-2.179-284.422 10.841-357.919a3.867 3.867 0 0 1 4.489-3.137 3.874 3.874 0 0 1 3.138 4.49c-12.939 73.031-25.308 194.057-10.755 355.874 24.908 276.969 9.464 726.19-.005 818.176-10.549 102.487-47.042 701.877-6.586 963.088a3.874 3.874 0 0 1-3.831 4.465z"/></svg>