<svg xmlns="http://www.w3.org/2000/svg" enable-background="new 0 0 2500 2500" viewBox="234.7 540.823 2030.6 1418.347"><polygon fill="#e5e8e5" fill-rule="evenodd" points="338.5 1331.6 1218.9 811.9 1222.3 810.2 1225.9 808.7 1229.7 807.4 1233.8 806.5 1238 805.7 1242.4 805.3 1246.8 805.1 1251.3 805.1 1255.8 805.4 1260.4 806 1264.8 806.8 1269.3 807.8 1273.6 809.2 1277.7 810.7 1281.7 812.5 1285.5 814.5 2157.1 1329 2163.6 1333.5 2168.4 1338.5 2171.5 1343.8 2173 1349.1 2172.7 1354.4 2170.7 1359.5 2167 1364.1 2161.5 1368.3 1281.1 1887.9 1277.7 1889.7 1274.1 1891.2 1270.3 1892.4 1266.2 1893.4 1262 1894.1 1257.7 1894.5 1253.2 1894.7 1248.7 1894.7 1244.2 1894.4 1239.6 1893.8 1235.2 1893 1230.7 1892 1226.4 1890.7 1222.3 1889.1 1218.3 1887.3 1214.5 1885.3 342.9 1370.9 336.4 1366.3 331.6 1361.3 328.5 1356 327 1350.7 327.3 1345.4 329.3 1340.3 333 1335.7" clip-rule="evenodd"/><polygon fill="#c9e3f6" fill-rule="evenodd" points="2128.5 1329.9 2128.5 1289.2 2126.6 1294 2123 1298.4 2117.8 1302.3 1279.6 1797.1 1276.4 1798.7 1273 1800.2 1269.3 1801.3 1265.4 1802.3 1261.4 1802.9 1257.3 1803.4 1253.1 1803.6 1248.8 1803.5 1244.4 1803.2 1240.1 1802.7 1235.9 1801.9 1231.7 1800.9 1227.6 1799.7 1223.6 1798.2 1219.8 1796.5 1216.2 1794.6 386.4 1304.8 380.2 1300.4 375.6 1295.7 372.6 1290.7 371.3 1285.6 371.3 1326.3 372.6 1331.4 375.6 1336.4 380.2 1341.1 386.4 1345.5 1216.2 1835.3 1219.8 1837.2 1223.6 1838.9 1227.6 1840.4 1231.7 1841.6 1235.9 1842.6 1240.1 1843.4 1244.4 1843.9 1248.8 1844.2 1253.1 1844.3 1257.3 1844.1 1261.4 1843.6 1265.4 1843 1269.3 1842 1273 1840.9 1276.4 1839.4 1279.6 1837.7 2117.8 1343 2123 1339.1 2126.6 1334.7" clip-rule="evenodd"/><polygon fill="#e3f3fc" fill-rule="evenodd" points="382.2 1267.4 1220.4 772.7 1223.6 771 1227 769.6 1230.7 768.4 1234.6 767.5 1238.6 766.8 1242.7 766.3 1246.9 766.1 1251.2 766.2 1255.6 766.5 1259.9 767 1264.1 767.8 1268.3 768.8 1272.4 770 1276.4 771.5 1280.2 773.2 1283.8 775.2 2113.6 1264.9 2119.8 1269.3 2124.4 1274 2127.4 1279 2128.7 1284.1 2128.5 1289.2 2126.6 1294 2123 1298.4 2117.8 1302.3 1279.6 1797.1 1276.4 1798.7 1273 1800.2 1269.3 1801.3 1265.4 1802.3 1261.4 1802.9 1257.3 1803.4 1253.1 1803.6 1248.8 1803.5 1244.4 1803.2 1240.1 1802.7 1235.9 1801.9 1231.7 1800.9 1227.6 1799.7 1223.6 1798.2 1219.8 1796.5 1216.2 1794.6 386.4 1304.8 380.2 1300.4 375.6 1295.7 372.6 1290.7 371.3 1285.6 371.5 1280.6 373.4 1275.8 377 1271.3" clip-rule="evenodd"/><path fill="#fff" fill-rule="evenodd" d="M422.7,1287.9L422.7,1287.9l-0.2-0.1l-0.2-0.2l-0.2-0.1l-0.1-0.1l-0.1-0.1l-0.1-0.2l-0.2-0.2l-0.1-0.2l0,0     l-0.1-0.1l-0.1-0.1l-0.1-0.2l0-0.1l-0.1-0.2l0-0.1l0-0.1l0,0c-0.1-0.2-0.1-0.5-0.1-0.7v-0.3c0-0.2,0-0.5,0.1-0.7l0,0l0-0.1l0-0.1     l0.1-0.2l0-0.1l0.1-0.2l0.1-0.1l0.1-0.1l0,0l0-0.1l0-0.1l0.1-0.1l0.1-0.1l0.1-0.1l0.1-0.1l0,0l0.1-0.1l0.2-0.2l0.1-0.1l0.1-0.1     l0,0l0.1,0l0.2-0.1l3.5-2.1c1.7-1,3.8-0.4,4.8,1.2c0.7,1.1,0.6,2.5,0,3.6l1.3,0.8c1.7,1,2.2,3.1,1.2,4.8c-1,1.7-3.1,2.2-4.8,1.2     L422.7,1287.9L422.7,1287.9z M448,1275.1c-1.7,1-3.8,0.4-4.8-1.2c-1-1.7-0.4-3.8,1.2-4.8l6.1-3.6c1.7-1,3.8-0.4,4.8,1.2     c1,1.7,0.4,3.8-1.2,4.8L448,1275.1L448,1275.1z M472.2,1260.8c-1.7,1-3.8,0.4-4.8-1.2c-1-1.7-0.4-3.8,1.2-4.8l6.1-3.6     c1.7-1,3.8-0.4,4.8,1.2c1,1.7,0.4,3.8-1.2,4.8L472.2,1260.8L472.2,1260.8z M496.4,1246.5c-1.7,1-3.8,0.4-4.8-1.2     c-1-1.7-0.4-3.8,1.2-4.8l6.1-3.6c1.7-1,3.8-0.4,4.8,1.2c1,1.7,0.4,3.8-1.2,4.8L496.4,1246.5L496.4,1246.5z M520.6,1232.2     c-1.7,1-3.8,0.4-4.8-1.2c-1-1.7-0.4-3.8,1.2-4.8l6.1-3.6c1.7-1,3.8-0.4,4.8,1.2c1,1.7,0.4,3.8-1.2,4.8L520.6,1232.2L520.6,1232.2     z M544.8,1217.9c-1.7,1-3.8,0.4-4.8-1.2c-1-1.7-0.4-3.8,1.2-4.8l6.1-3.6c1.7-1,3.8-0.4,4.8,1.2c1,1.7,0.4,3.8-1.2,4.8     L544.8,1217.9L544.8,1217.9z M569,1203.6c-1.7,1-3.8,0.4-4.8-1.2c-1-1.7-0.4-3.8,1.2-4.8l6.1-3.6c1.7-1,3.8-0.4,4.8,1.2     c1,1.7,0.4,3.8-1.2,4.8L569,1203.6L569,1203.6z M593.3,1189.3c-1.7,1-3.8,0.4-4.8-1.2c-1-1.7-0.4-3.8,1.2-4.8l6.1-3.6     c1.7-1,3.8-0.4,4.8,1.2c1,1.7,0.4,3.8-1.2,4.8L593.3,1189.3L593.3,1189.3z M617.5,1175c-1.7,1-3.8,0.4-4.8-1.2     c-1-1.7-0.4-3.8,1.2-4.8l6.1-3.6c1.7-1,3.8-0.4,4.8,1.2c1,1.7,0.4,3.8-1.2,4.8L617.5,1175L617.5,1175z M641.7,1160.7     c-1.7,1-3.8,0.4-4.8-1.2c-1-1.7-0.4-3.8,1.2-4.8l6.1-3.6c1.7-1,3.8-0.4,4.8,1.2c1,1.7,0.4,3.8-1.2,4.8L641.7,1160.7L641.7,1160.7     z M665.9,1146.5c-1.7,1-3.8,0.4-4.8-1.2c-1-1.7-0.4-3.8,1.2-4.8l6.1-3.6c1.7-1,3.8-0.4,4.8,1.2c1,1.7,0.4,3.8-1.2,4.8     L665.9,1146.5L665.9,1146.5z M690.1,1132.2c-1.7,1-3.8,0.4-4.8-1.2c-1-1.7-0.4-3.8,1.2-4.8l6.1-3.6c1.7-1,3.8-0.4,4.8,1.2     c1,1.7,0.4,3.8-1.2,4.8L690.1,1132.2L690.1,1132.2z M714.3,1117.9c-1.7,1-3.8,0.4-4.8-1.2c-1-1.7-0.4-3.8,1.2-4.8l6.1-3.6     c1.7-1,3.8-0.4,4.8,1.2c1,1.7,0.4,3.8-1.2,4.8L714.3,1117.9L714.3,1117.9z M738.5,1103.6c-1.7,1-3.8,0.4-4.8-1.2     c-1-1.7-0.4-3.8,1.2-4.8l6.1-3.6c1.7-1,3.8-0.4,4.8,1.2c1,1.7,0.4,3.8-1.2,4.8L738.5,1103.6L738.5,1103.6z M762.7,1089.3     c-1.7,1-3.8,0.4-4.8-1.2c-1-1.7-0.4-3.8,1.2-4.8l6.1-3.6c1.7-1,3.8-0.4,4.8,1.2c1,1.7,0.4,3.8-1.2,4.8L762.7,1089.3L762.7,1089.3     z M786.9,1075c-1.7,1-3.8,0.4-4.8-1.2c-1-1.7-0.4-3.8,1.2-4.8l6.1-3.6c1.7-1,3.8-0.4,4.8,1.2c1,1.7,0.4,3.8-1.2,4.8L786.9,1075     L786.9,1075z M811.1,1060.7c-1.7,1-3.8,0.4-4.8-1.2c-1-1.7-0.4-3.8,1.2-4.8l6.1-3.6c1.7-1,3.8-0.4,4.8,1.2c1,1.7,0.4,3.8-1.2,4.8     L811.1,1060.7L811.1,1060.7z M835.3,1046.4c-1.7,1-3.8,0.4-4.8-1.2c-1-1.7-0.4-3.8,1.2-4.8l6.1-3.6c1.7-1,3.8-0.4,4.8,1.2     c1,1.7,0.4,3.8-1.2,4.8L835.3,1046.4L835.3,1046.4z M859.5,1032.2c-1.7,1-3.8,0.4-4.8-1.2c-1-1.7-0.4-3.8,1.2-4.8l6.1-3.6     c1.7-1,3.8-0.4,4.8,1.2c1,1.7,0.4,3.8-1.2,4.8L859.5,1032.2L859.5,1032.2z M883.8,1017.9c-1.7,1-3.8,0.4-4.8-1.2     c-1-1.7-0.4-3.8,1.2-4.8l6.1-3.6c1.7-1,3.8-0.4,4.8,1.2c1,1.7,0.4,3.8-1.2,4.8L883.8,1017.9L883.8,1017.9z M908,1003.6     c-1.7,1-3.8,0.4-4.8-1.2c-1-1.7-0.4-3.8,1.2-4.8l6.1-3.6c1.7-1,3.8-0.4,4.8,1.2c1,1.7,0.4,3.8-1.2,4.8L908,1003.6L908,1003.6z      M932.2,989.3c-1.7,1-3.8,0.4-4.8-1.2c-1-1.7-0.4-3.8,1.2-4.8l6.1-3.6c1.7-1,3.8-0.4,4.8,1.2c1,1.7,0.4,3.8-1.2,4.8L932.2,989.3     L932.2,989.3z M956.4,975c-1.7,1-3.8,0.4-4.8-1.2c-1-1.7-0.4-3.8,1.2-4.8l6.1-3.6c1.7-1,3.8-0.4,4.8,1.2c1,1.7,0.4,3.8-1.2,4.8     L956.4,975L956.4,975z M980.6,960.7c-1.7,1-3.8,0.4-4.8-1.2c-1-1.7-0.4-3.8,1.2-4.8l6.1-3.6c1.7-1,3.8-0.4,4.8,1.2     c1,1.7,0.4,3.8-1.2,4.8L980.6,960.7L980.6,960.7z M1004.8,946.4c-1.7,1-3.8,0.4-4.8-1.2c-1-1.7-0.4-3.8,1.2-4.8l6.1-3.6     c1.7-1,3.8-0.4,4.8,1.2c1,1.7,0.4,3.8-1.2,4.8L1004.8,946.4L1004.8,946.4z M1029,932.1c-1.7,1-3.8,0.4-4.8-1.2     c-1-1.7-0.4-3.8,1.2-4.8l6.1-3.6c1.7-1,3.8-0.4,4.8,1.2c1,1.7,0.4,3.8-1.2,4.8L1029,932.1L1029,932.1z M1053.2,917.9     c-1.7,1-3.8,0.4-4.8-1.2c-1-1.7-0.4-3.8,1.2-4.8l6.1-3.6c1.7-1,3.8-0.4,4.8,1.2c1,1.7,0.4,3.8-1.2,4.8L1053.2,917.9L1053.2,917.9     z M1077.4,903.6c-1.7,1-3.8,0.4-4.8-1.2c-1-1.7-0.4-3.8,1.2-4.8l6.1-3.6c1.7-1,3.8-0.4,4.8,1.2c1,1.7,0.4,3.8-1.2,4.8     L1077.4,903.6L1077.4,903.6z M1101.6,889.3c-1.7,1-3.8,0.4-4.8-1.2c-1-1.7-0.4-3.8,1.2-4.8l6.1-3.6c1.7-1,3.8-0.4,4.8,1.2     c1,1.7,0.4,3.8-1.2,4.8L1101.6,889.3L1101.6,889.3z M1125.8,875c-1.7,1-3.8,0.4-4.8-1.2c-1-1.7-0.4-3.8,1.2-4.8l6.1-3.6     c1.7-1,3.8-0.4,4.8,1.2c1,1.7,0.4,3.8-1.2,4.8L1125.8,875L1125.8,875z M1150,860.7c-1.7,1-3.8,0.4-4.8-1.2     c-1-1.7-0.4-3.8,1.2-4.8l6.1-3.6c1.7-1,3.8-0.4,4.8,1.2c1,1.7,0.4,3.8-1.2,4.8L1150,860.7L1150,860.7z M1174.2,846.4     c-1.7,1-3.8,0.4-4.8-1.2c-1-1.7-0.4-3.8,1.2-4.8l6.1-3.6c1.7-1,3.8-0.4,4.8,1.2c1,1.7,0.4,3.8-1.2,4.8L1174.2,846.4L1174.2,846.4     z M1198.4,832.1c-1.7,1-3.8,0.4-4.8-1.2c-1-1.7-0.4-3.8,1.2-4.8l6.1-3.6c1.7-1,3.8-0.4,4.8,1.2c1,1.7,0.4,3.8-1.2,4.8     L1198.4,832.1L1198.4,832.1z M1222.7,817.9c-1.7,1-3.8,0.4-4.8-1.2c-1-1.7-0.4-3.8,1.2-4.8l6.1-3.6c1.7-1,3.8-0.4,4.8,1.2     c1,1.7,0.4,3.8-1.2,4.8L1222.7,817.9L1222.7,817.9z M1246.1,806.3c-1.9,0.1-3.6-1.4-3.7-3.3c-0.1-1.9,1.4-3.6,3.3-3.7l1.6-0.1     l0.1,0h0l0.2,0l2.2,0l0.2,0l2.3,0.2l0.2,0l0.8,0.1c1.9,0.2,3.3,2,3.1,3.9c-0.2,1.9-2,3.3-3.9,3.1l-0.7-0.1l-2.1-0.1l-2,0     L1246.1,806.3L1246.1,806.3z M1252.3,799.4l-0.5,7L1252.3,799.4L1252.3,799.4L1252.3,799.4z M1270.5,813.8     c-1.7-1-2.2-3.1-1.2-4.8c1-1.7,3.1-2.2,4.8-1.2l6.1,3.6c1.7,1,2.2,3.1,1.2,4.8c-1,1.7-3.1,2.2-4.8,1.2L1270.5,813.8L1270.5,813.8     z M1294.7,828.1c-1.7-1-2.2-3.1-1.2-4.8c1-1.7,3.1-2.2,4.8-1.2l6.1,3.6c1.7,1,2.2,3.1,1.2,4.8c-1,1.7-3.1,2.2-4.8,1.2     L1294.7,828.1L1294.7,828.1z M1318.9,842.4c-1.7-1-2.2-3.1-1.2-4.8c1-1.7,3.1-2.2,4.8-1.2l6.1,3.6c1.7,1,2.2,3.1,1.2,4.8     c-1,1.7-3.1,2.2-4.8,1.2L1318.9,842.4L1318.9,842.4z M1343.1,856.7c-1.7-1-2.2-3.1-1.2-4.8c1-1.7,3.1-2.2,4.8-1.2l6.1,3.6     c1.7,1,2.2,3.1,1.2,4.8c-1,1.7-3.1,2.2-4.8,1.2L1343.1,856.7L1343.1,856.7z M1367.3,871c-1.7-1-2.2-3.1-1.2-4.8s3.1-2.2,4.8-1.2     l6.1,3.6c1.7,1,2.2,3.1,1.2,4.8c-1,1.7-3.1,2.2-4.8,1.2L1367.3,871L1367.3,871z M1391.6,885.3c-1.7-1-2.2-3.1-1.2-4.8     c1-1.7,3.1-2.2,4.8-1.2l6.1,3.6c1.7,1,2.2,3.1,1.2,4.8c-1,1.7-3.1,2.2-4.8,1.2L1391.6,885.3L1391.6,885.3z M1415.8,899.6     c-1.7-1-2.2-3.1-1.2-4.8c1-1.7,3.1-2.2,4.8-1.2l6.1,3.6c1.7,1,2.2,3.1,1.2,4.8c-1,1.7-3.1,2.2-4.8,1.2L1415.8,899.6L1415.8,899.6     z M1440,913.9c-1.7-1-2.2-3.1-1.2-4.8c1-1.7,3.1-2.2,4.8-1.2l6.1,3.6c1.7,1,2.2,3.1,1.2,4.8c-1,1.7-3.1,2.2-4.8,1.2L1440,913.9     L1440,913.9z M1464.2,928.2c-1.7-1-2.2-3.1-1.2-4.8c1-1.7,3.1-2.2,4.8-1.2l6.1,3.6c1.7,1,2.2,3.1,1.2,4.8c-1,1.7-3.1,2.2-4.8,1.2     L1464.2,928.2L1464.2,928.2z M1488.4,942.5c-1.7-1-2.2-3.1-1.2-4.8c1-1.7,3.1-2.2,4.8-1.2l6.1,3.6c1.7,1,2.2,3.1,1.2,4.8     c-1,1.7-3.1,2.2-4.8,1.2L1488.4,942.5L1488.4,942.5z M1512.6,956.8c-1.7-1-2.2-3.1-1.2-4.8c1-1.7,3.1-2.2,4.8-1.2l6.1,3.6     c1.7,1,2.2,3.1,1.2,4.8c-1,1.7-3.1,2.2-4.8,1.2L1512.6,956.8L1512.6,956.8z M1536.8,971c-1.7-1-2.2-3.1-1.2-4.8     c1-1.7,3.1-2.2,4.8-1.2l6.1,3.6c1.7,1,2.2,3.1,1.2,4.8c-1,1.7-3.1,2.2-4.8,1.2L1536.8,971L1536.8,971z M1561,985.3     c-1.7-1-2.2-3.1-1.2-4.8c1-1.7,3.1-2.2,4.8-1.2l6.1,3.6c1.7,1,2.2,3.1,1.2,4.8c-1,1.7-3.1,2.2-4.8,1.2L1561,985.3L1561,985.3z      M1585.2,999.6c-1.7-1-2.2-3.1-1.2-4.8c1-1.7,3.1-2.2,4.8-1.2l6.1,3.6c1.7,1,2.2,3.1,1.2,4.8c-1,1.7-3.1,2.2-4.8,1.2     L1585.2,999.6L1585.2,999.6z M1609.4,1013.9c-1.7-1-2.2-3.1-1.2-4.8c1-1.7,3.1-2.2,4.8-1.2l6.1,3.6c1.7,1,2.2,3.1,1.2,4.8     c-1,1.7-3.1,2.2-4.8,1.2L1609.4,1013.9L1609.4,1013.9z M1633.6,1028.2c-1.7-1-2.2-3.1-1.2-4.8c1-1.7,3.1-2.2,4.8-1.2l6.1,3.6     c1.7,1,2.2,3.1,1.2,4.8c-1,1.7-3.1,2.2-4.8,1.2L1633.6,1028.2L1633.6,1028.2z M1657.8,1042.5c-1.7-1-2.2-3.1-1.2-4.8     c1-1.7,3.1-2.2,4.8-1.2l6.1,3.6c1.7,1,2.2,3.1,1.2,4.8c-1,1.7-3.1,2.2-4.8,1.2L1657.8,1042.5L1657.8,1042.5z M1682.1,1056.8     c-1.7-1-2.2-3.1-1.2-4.8c1-1.7,3.1-2.2,4.8-1.2l6.1,3.6c1.7,1,2.2,3.1,1.2,4.8c-1,1.7-3.1,2.2-4.8,1.2L1682.1,1056.8     L1682.1,1056.8z M1706.3,1071.1c-1.7-1-2.2-3.1-1.2-4.8c1-1.7,3.1-2.2,4.8-1.2l6.1,3.6c1.7,1,2.2,3.1,1.2,4.8     c-1,1.7-3.1,2.2-4.8,1.2L1706.3,1071.1L1706.3,1071.1z M1730.5,1085.3c-1.7-1-2.2-3.1-1.2-4.8c1-1.7,3.1-2.2,4.8-1.2l6.1,3.6     c1.7,1,2.2,3.1,1.2,4.8c-1,1.7-3.1,2.2-4.8,1.2L1730.5,1085.3L1730.5,1085.3z M1754.7,1099.6c-1.7-1-2.2-3.1-1.2-4.8     c1-1.7,3.1-2.2,4.8-1.2l6.1,3.6c1.7,1,2.2,3.1,1.2,4.8c-1,1.7-3.1,2.2-4.8,1.2L1754.7,1099.6L1754.7,1099.6z M1778.9,1113.9     c-1.7-1-2.2-3.1-1.2-4.8c1-1.7,3.1-2.2,4.8-1.2l6.1,3.6c1.7,1,2.2,3.1,1.2,4.8c-1,1.7-3.1,2.2-4.8,1.2L1778.9,1113.9     L1778.9,1113.9z M1803.1,1128.2c-1.7-1-2.2-3.1-1.2-4.8c1-1.7,3.1-2.2,4.8-1.2l6.1,3.6c1.7,1,2.2,3.1,1.2,4.8     c-1,1.7-3.1,2.2-4.8,1.2L1803.1,1128.2L1803.1,1128.2z M1827.3,1142.5c-1.7-1-2.2-3.1-1.2-4.8c1-1.7,3.1-2.2,4.8-1.2l6.1,3.6     c1.7,1,2.2,3.1,1.2,4.8c-1,1.7-3.1,2.2-4.8,1.2L1827.3,1142.5L1827.3,1142.5z M1851.5,1156.8c-1.7-1-2.2-3.1-1.2-4.8     c1-1.7,3.1-2.2,4.8-1.2l6.1,3.6c1.7,1,2.2,3.1,1.2,4.8c-1,1.7-3.1,2.2-4.8,1.2L1851.5,1156.8L1851.5,1156.8z M1875.7,1171.1     c-1.7-1-2.2-3.1-1.2-4.8c1-1.7,3.1-2.2,4.8-1.2l6.1,3.6c1.7,1,2.2,3.1,1.2,4.8c-1,1.7-3.1,2.2-4.8,1.2L1875.7,1171.1     L1875.7,1171.1z M1899.9,1185.4c-1.7-1-2.2-3.1-1.2-4.8c1-1.7,3.1-2.2,4.8-1.2l6.1,3.6c1.7,1,2.2,3.1,1.2,4.8     c-1,1.7-3.1,2.2-4.8,1.2L1899.9,1185.4L1899.9,1185.4z M1924.1,1199.6c-1.7-1-2.2-3.1-1.2-4.8c1-1.7,3.1-2.2,4.8-1.2l6.1,3.6     c1.7,1,2.2,3.1,1.2,4.8c-1,1.7-3.1,2.2-4.8,1.2L1924.1,1199.6L1924.1,1199.6z M1948.3,1213.9c-1.7-1-2.2-3.1-1.2-4.8     c1-1.7,3.1-2.2,4.8-1.2l6.1,3.6c1.7,1,2.2,3.1,1.2,4.8c-1,1.7-3.1,2.2-4.8,1.2L1948.3,1213.9L1948.3,1213.9z M1972.5,1228.2     c-1.7-1-2.2-3.1-1.2-4.8c1-1.7,3.1-2.2,4.8-1.2l6.1,3.6c1.7,1,2.2,3.1,1.2,4.8c-1,1.7-3.1,2.2-4.8,1.2L1972.5,1228.2     L1972.5,1228.2z M1996.7,1242.5c-1.7-1-2.2-3.1-1.2-4.8c1-1.7,3.1-2.2,4.8-1.2l6.1,3.6c1.7,1,2.2,3.1,1.2,4.8     c-1,1.7-3.1,2.2-4.8,1.2L1996.7,1242.5L1996.7,1242.5z M2021,1256.8c-1.7-1-2.2-3.1-1.2-4.8c1-1.7,3.1-2.2,4.8-1.2l6.1,3.6     c1.7,1,2.2,3.1,1.2,4.8c-1,1.7-3.1,2.2-4.8,1.2L2021,1256.8L2021,1256.8z M2045.2,1271.1c-1.7-1-2.2-3.1-1.2-4.8     c1-1.7,3.1-2.2,4.8-1.2l6.1,3.6c1.7,1,2.2,3.1,1.2,4.8c-1,1.7-3.1,2.2-4.8,1.2L2045.2,1271.1L2045.2,1271.1z M2069.4,1285.3     c-1.7-1-2.2-3.1-1.2-4.8c1-1.7,3.1-2.2,4.8-1.2l4.3,2.5c0.5,0.3,0.9,0.7,1.2,1.2c1,1.7,0.4,3.8-1.2,4.8l-1.7,1     c-1.7,1-3.8,0.4-4.8-1.2c-0.3-0.6-0.5-1.2-0.5-1.8L2069.4,1285.3L2069.4,1285.3z M2053.8,1293.6c1.7-1,3.8-0.4,4.8,1.2     c1,1.7,0.4,3.8-1.2,4.8l-6.1,3.6c-1.7,1-3.8,0.4-4.8-1.2c-1-1.7-0.4-3.8,1.2-4.8L2053.8,1293.6L2053.8,1293.6z M2029.5,1307.9     c1.7-1,3.8-0.4,4.8,1.2c1,1.7,0.4,3.8-1.2,4.8l-6.1,3.6c-1.7,1-3.8,0.4-4.8-1.2c-1-1.7-0.4-3.8,1.2-4.8L2029.5,1307.9     L2029.5,1307.9z M2005.3,1322.2c1.7-1,3.8-0.4,4.8,1.2c1,1.7,0.4,3.8-1.2,4.8l-6.1,3.6c-1.7,1-3.8,0.4-4.8-1.2     c-1-1.7-0.4-3.8,1.2-4.8L2005.3,1322.2L2005.3,1322.2z M1981.1,1336.5c1.7-1,3.8-0.4,4.8,1.2c1,1.7,0.4,3.8-1.2,4.8l-6.1,3.6     c-1.7,1-3.8,0.4-4.8-1.2c-1-1.7-0.4-3.8,1.2-4.8L1981.1,1336.5L1981.1,1336.5z M1956.9,1350.8c1.7-1,3.8-0.4,4.8,1.2     c1,1.7,0.4,3.8-1.2,4.8l-6.1,3.6c-1.7,1-3.8,0.4-4.8-1.2c-1-1.7-0.4-3.8,1.2-4.8L1956.9,1350.8L1956.9,1350.8z M1932.7,1365.1     c1.7-1,3.8-0.4,4.8,1.2c1,1.7,0.4,3.8-1.2,4.8l-6.1,3.6c-1.7,1-3.8,0.4-4.8-1.2c-1-1.7-0.4-3.8,1.2-4.8L1932.7,1365.1     L1932.7,1365.1z M1908.5,1379.4c1.7-1,3.8-0.4,4.8,1.2c1,1.7,0.4,3.8-1.2,4.8l-6.1,3.6c-1.7,1-3.8,0.4-4.8-1.2     c-1-1.7-0.4-3.8,1.2-4.8L1908.5,1379.4L1908.5,1379.4z M1884.3,1393.7c1.7-1,3.8-0.4,4.8,1.2c1,1.7,0.4,3.8-1.2,4.8l-6.1,3.6     c-1.7,1-3.8,0.4-4.8-1.2c-1-1.7-0.4-3.8,1.2-4.8L1884.3,1393.7L1884.3,1393.7z M1860.1,1407.9c1.7-1,3.8-0.4,4.8,1.2     c1,1.7,0.4,3.8-1.2,4.8l-6.1,3.6c-1.7,1-3.8,0.4-4.8-1.2c-1-1.7-0.4-3.8,1.2-4.8L1860.1,1407.9L1860.1,1407.9z M1835.9,1422.2     c1.7-1,3.8-0.4,4.8,1.2c1,1.7,0.4,3.8-1.2,4.8l-6.1,3.6c-1.7,1-3.8,0.4-4.8-1.2c-1-1.7-0.4-3.8,1.2-4.8L1835.9,1422.2     L1835.9,1422.2z M1811.7,1436.5c1.7-1,3.8-0.4,4.8,1.2c1,1.7,0.4,3.8-1.2,4.8l-6.1,3.6c-1.7,1-3.8,0.4-4.8-1.2s-0.4-3.8,1.2-4.8     L1811.7,1436.5L1811.7,1436.5z M1787.4,1450.8c1.7-1,3.8-0.4,4.8,1.2c1,1.7,0.4,3.8-1.2,4.8l-6.1,3.6c-1.7,1-3.8,0.4-4.8-1.2     c-1-1.7-0.4-3.8,1.2-4.8L1787.4,1450.8L1787.4,1450.8z M1763.2,1465.1c1.7-1,3.8-0.4,4.8,1.2c1,1.7,0.4,3.8-1.2,4.8l-6.1,3.6     c-1.7,1-3.8,0.4-4.8-1.2c-1-1.7-0.4-3.8,1.2-4.8L1763.2,1465.1L1763.2,1465.1z M1739,1479.4c1.7-1,3.8-0.4,4.8,1.2     c1,1.7,0.4,3.8-1.2,4.8l-6.1,3.6c-1.7,1-3.8,0.4-4.8-1.2c-1-1.7-0.4-3.8,1.2-4.8L1739,1479.4L1739,1479.4z M1714.8,1493.7     c1.7-1,3.8-0.4,4.8,1.2c1,1.7,0.4,3.8-1.2,4.8l-6.1,3.6c-1.7,1-3.8,0.4-4.8-1.2c-1-1.7-0.4-3.8,1.2-4.8L1714.8,1493.7     L1714.8,1493.7z M1690.6,1508c1.7-1,3.8-0.4,4.8,1.2c1,1.7,0.4,3.8-1.2,4.8l-6.1,3.6c-1.7,1-3.8,0.4-4.8-1.2     c-1-1.7-0.4-3.8,1.2-4.8L1690.6,1508L1690.6,1508z M1666.4,1522.2c1.7-1,3.8-0.4,4.8,1.2c1,1.7,0.4,3.8-1.2,4.8l-6.1,3.6     c-1.7,1-3.8,0.4-4.8-1.2c-1-1.7-0.4-3.8,1.2-4.8L1666.4,1522.2L1666.4,1522.2z M1642.2,1536.5c1.7-1,3.8-0.4,4.8,1.2     c1,1.7,0.4,3.8-1.2,4.8l-6.1,3.6c-1.7,1-3.8,0.4-4.8-1.2c-1-1.7-0.4-3.8,1.2-4.8L1642.2,1536.5L1642.2,1536.5z M1618,1550.8     c1.7-1,3.8-0.4,4.8,1.2c1,1.7,0.4,3.8-1.2,4.8l-6.1,3.6c-1.7,1-3.8,0.4-4.8-1.2c-1-1.7-0.4-3.8,1.2-4.8L1618,1550.8L1618,1550.8z      M1593.8,1565.1c1.7-1,3.8-0.4,4.8,1.2c1,1.7,0.4,3.8-1.2,4.8l-6.1,3.6c-1.7,1-3.8,0.4-4.8-1.2c-1-1.7-0.4-3.8,1.2-4.8     L1593.8,1565.1L1593.8,1565.1z M1569.6,1579.4c1.7-1,3.8-0.4,4.8,1.2c1,1.7,0.4,3.8-1.2,4.8l-6.1,3.6c-1.7,1-3.8,0.4-4.8-1.2     c-1-1.7-0.4-3.8,1.2-4.8L1569.6,1579.4L1569.6,1579.4z M1545.4,1593.7c1.7-1,3.8-0.4,4.8,1.2c1,1.7,0.4,3.8-1.2,4.8l-6.1,3.6     c-1.7,1-3.8,0.4-4.8-1.2c-1-1.7-0.4-3.8,1.2-4.8L1545.4,1593.7L1545.4,1593.7z M1521.2,1608c1.7-1,3.8-0.4,4.8,1.2     c1,1.7,0.4,3.8-1.2,4.8l-6.1,3.6c-1.7,1-3.8,0.4-4.8-1.2c-1-1.7-0.4-3.8,1.2-4.8L1521.2,1608L1521.2,1608z M1497,1622.3     c1.7-1,3.8-0.4,4.8,1.2c1,1.7,0.4,3.8-1.2,4.8l-6.1,3.6c-1.7,1-3.8,0.4-4.8-1.2c-1-1.7-0.4-3.8,1.2-4.8L1497,1622.3L1497,1622.3z      M1472.7,1636.5c1.7-1,3.8-0.4,4.8,1.2c1,1.7,0.4,3.8-1.2,4.8l-6.1,3.6c-1.7,1-3.8,0.4-4.8-1.2c-1-1.7-0.4-3.8,1.2-4.8     L1472.7,1636.5L1472.7,1636.5z M1448.5,1650.8c1.7-1,3.8-0.4,4.8,1.2c1,1.7,0.4,3.8-1.2,4.8l-6.1,3.6c-1.7,1-3.8,0.4-4.8-1.2     c-1-1.7-0.4-3.8,1.2-4.8L1448.5,1650.8L1448.5,1650.8z M1424.3,1665.1c1.7-1,3.8-0.4,4.8,1.2c1,1.7,0.4,3.8-1.2,4.8l-6.1,3.6     c-1.7,1-3.8,0.4-4.8-1.2c-1-1.7-0.4-3.8,1.2-4.8L1424.3,1665.1L1424.3,1665.1z M1400.1,1679.4c1.7-1,3.8-0.4,4.8,1.2     c1,1.7,0.4,3.8-1.2,4.8l-6.1,3.6c-1.7,1-3.8,0.4-4.8-1.2c-1-1.7-0.4-3.8,1.2-4.8L1400.1,1679.4L1400.1,1679.4z M1375.9,1693.7     c1.7-1,3.8-0.4,4.8,1.2c1,1.7,0.4,3.8-1.2,4.8l-6.1,3.6c-1.7,1-3.8,0.4-4.8-1.2c-1-1.7-0.4-3.8,1.2-4.8L1375.9,1693.7     L1375.9,1693.7z M1351.7,1708c1.7-1,3.8-0.4,4.8,1.2c1,1.7,0.4,3.8-1.2,4.8l-6.1,3.6c-1.7,1-3.8,0.4-4.8-1.2     c-1-1.7-0.4-3.8,1.2-4.8L1351.7,1708L1351.7,1708z M1327.5,1722.3c1.7-1,3.8-0.4,4.8,1.2s0.4,3.8-1.2,4.8l-6.1,3.6     c-1.7,1-3.8,0.4-4.8-1.2c-1-1.7-0.4-3.8,1.2-4.8L1327.5,1722.3L1327.5,1722.3z M1303.3,1736.5c1.7-1,3.8-0.4,4.8,1.2     c1,1.7,0.4,3.8-1.2,4.8l-6.1,3.6c-1.7,1-3.8,0.4-4.8-1.2c-1-1.7-0.4-3.8,1.2-4.8L1303.3,1736.5L1303.3,1736.5z M1279.1,1750.8     c1.7-1,3.8-0.4,4.8,1.2c1,1.7,0.4,3.8-1.2,4.8l-6.1,3.6c-1.7,1-3.8,0.4-4.8-1.2c-1-1.7-0.4-3.8,1.2-4.8L1279.1,1750.8     L1279.1,1750.8z M1255.7,1763.3c1.9-0.2,3.7,1.2,3.9,3.1c0.2,1.9-1.2,3.7-3.1,3.9l-1.6,0.2l-0.1,0l-0.1,0l-2,0.1l-0.1,0h0l-0.2,0     l-2.2,0l-0.2,0l-1.1-0.1c-1.9-0.1-3.4-1.8-3.3-3.7s1.8-3.4,3.7-3.3l1,0.1l2,0l1.9-0.1L1255.7,1763.3L1255.7,1763.3z      M1231.3,1756.9c1.7,1,2.2,3.1,1.2,4.8c-1,1.7-3.1,2.2-4.8,1.2l-6.1-3.6c-1.7-1-2.2-3.1-1.2-4.8c1-1.7,3.1-2.2,4.8-1.2     L1231.3,1756.9L1231.3,1756.9z M1207,1742.6c1.7,1,2.2,3.1,1.2,4.8c-1,1.7-3.1,2.2-4.8,1.2l-6.1-3.6c-1.7-1-2.2-3.1-1.2-4.8     c1-1.7,3.1-2.2,4.8-1.2L1207,1742.6L1207,1742.6z M1182.8,1728.4c1.7,1,2.2,3.1,1.2,4.8c-1,1.7-3.1,2.2-4.8,1.2l-6.1-3.6     c-1.7-1-2.2-3.1-1.2-4.8c1-1.7,3.1-2.2,4.8-1.2L1182.8,1728.4L1182.8,1728.4z M1158.6,1714.1c1.7,1,2.2,3.1,1.2,4.8     c-1,1.7-3.1,2.2-4.8,1.2l-6.1-3.6c-1.7-1-2.2-3.1-1.2-4.8c1-1.7,3.1-2.2,4.8-1.2L1158.6,1714.1L1158.6,1714.1z M1134.4,1699.8     c1.7,1,2.2,3.1,1.2,4.8c-1,1.7-3.1,2.2-4.8,1.2l-6.1-3.6c-1.7-1-2.2-3.1-1.2-4.8c1-1.7,3.1-2.2,4.8-1.2L1134.4,1699.8     L1134.4,1699.8z M1110.2,1685.5c1.7,1,2.2,3.1,1.2,4.8c-1,1.7-3.1,2.2-4.8,1.2l-6.1-3.6c-1.7-1-2.2-3.1-1.2-4.8     c1-1.7,3.1-2.2,4.8-1.2L1110.2,1685.5L1110.2,1685.5z M1086,1671.2c1.7,1,2.2,3.1,1.2,4.8c-1,1.7-3.1,2.2-4.8,1.2l-6.1-3.6     c-1.7-1-2.2-3.1-1.2-4.8c1-1.7,3.1-2.2,4.8-1.2L1086,1671.2L1086,1671.2z M1061.8,1656.9c1.7,1,2.2,3.1,1.2,4.8     c-1,1.7-3.1,2.2-4.8,1.2l-6.1-3.6c-1.7-1-2.2-3.1-1.2-4.8c1-1.7,3.1-2.2,4.8-1.2L1061.8,1656.9L1061.8,1656.9z M1037.6,1642.6     c1.7,1,2.2,3.1,1.2,4.8c-1,1.7-3.1,2.2-4.8,1.2l-6.1-3.6c-1.7-1-2.2-3.1-1.2-4.8c1-1.7,3.1-2.2,4.8-1.2L1037.6,1642.6     L1037.6,1642.6z M1013.3,1628.3c1.7,1,2.2,3.1,1.2,4.8c-1,1.7-3.1,2.2-4.8,1.2l-6.1-3.6c-1.7-1-2.2-3.1-1.2-4.8     c1-1.7,3.1-2.2,4.8-1.2L1013.3,1628.3L1013.3,1628.3z M989.1,1614c1.7,1,2.2,3.1,1.2,4.8c-1,1.7-3.1,2.2-4.8,1.2l-6.1-3.6     c-1.7-1-2.2-3.1-1.2-4.8c1-1.7,3.1-2.2,4.8-1.2L989.1,1614L989.1,1614z M964.9,1599.7c1.7,1,2.2,3.1,1.2,4.8     c-1,1.7-3.1,2.2-4.8,1.2l-6.1-3.6c-1.7-1-2.2-3.1-1.2-4.8c1-1.7,3.1-2.2,4.8-1.2L964.9,1599.7L964.9,1599.7z M940.7,1585.4     c1.7,1,2.2,3.1,1.2,4.8c-1,1.7-3.1,2.2-4.8,1.2l-6.1-3.6c-1.7-1-2.2-3.1-1.2-4.8c1-1.7,3.1-2.2,4.8-1.2L940.7,1585.4     L940.7,1585.4z M916.5,1571.1c1.7,1,2.2,3.1,1.2,4.8c-1,1.7-3.1,2.2-4.8,1.2l-6.1-3.6c-1.7-1-2.2-3.1-1.2-4.8     c1-1.7,3.1-2.2,4.8-1.2L916.5,1571.1L916.5,1571.1z M892.3,1556.8c1.7,1,2.2,3.1,1.2,4.8c-1,1.7-3.1,2.2-4.8,1.2l-6.1-3.6     c-1.7-1-2.2-3.1-1.2-4.8c1-1.7,3.1-2.2,4.8-1.2L892.3,1556.8L892.3,1556.8z M868.1,1542.6c1.7,1,2.2,3.1,1.2,4.8     c-1,1.7-3.1,2.2-4.8,1.2l-6.1-3.6c-1.7-1-2.2-3.1-1.2-4.8c1-1.7,3.1-2.2,4.8-1.2L868.1,1542.6L868.1,1542.6z M843.9,1528.3     c1.7,1,2.2,3.1,1.2,4.8c-1,1.7-3.1,2.2-4.8,1.2l-6.1-3.6c-1.7-1-2.2-3.1-1.2-4.8c1-1.7,3.1-2.2,4.8-1.2L843.9,1528.3     L843.9,1528.3z M819.7,1514c1.7,1,2.2,3.1,1.2,4.8c-1,1.7-3.1,2.2-4.8,1.2l-6.1-3.6c-1.7-1-2.2-3.1-1.2-4.8     c1-1.7,3.1-2.2,4.8-1.2L819.7,1514L819.7,1514z M795.5,1499.7c1.7,1,2.2,3.1,1.2,4.8c-1,1.7-3.1,2.2-4.8,1.2l-6.1-3.6     c-1.7-1-2.2-3.1-1.2-4.8c1-1.7,3.1-2.2,4.8-1.2L795.5,1499.7L795.5,1499.7z M771.3,1485.4c1.7,1,2.2,3.1,1.2,4.8     c-1,1.7-3.1,2.2-4.8,1.2l-6.1-3.6c-1.7-1-2.2-3.1-1.2-4.8c1-1.7,3.1-2.2,4.8-1.2L771.3,1485.4L771.3,1485.4z M747.1,1471.1     c1.7,1,2.2,3.1,1.2,4.8c-1,1.7-3.1,2.2-4.8,1.2l-6.1-3.6c-1.7-1-2.2-3.1-1.2-4.8c1-1.7,3.1-2.2,4.8-1.2L747.1,1471.1     L747.1,1471.1z M722.9,1456.8c1.7,1,2.2,3.1,1.2,4.8c-1,1.7-3.1,2.2-4.8,1.2l-6.1-3.6c-1.7-1-2.2-3.1-1.2-4.8     c1-1.7,3.1-2.2,4.8-1.2L722.9,1456.8L722.9,1456.8z M698.6,1442.6c1.7,1,2.2,3.1,1.2,4.8c-1,1.7-3.1,2.2-4.8,1.2l-6.1-3.6     c-1.7-1-2.2-3.1-1.2-4.8c1-1.7,3.1-2.2,4.8-1.2L698.6,1442.6L698.6,1442.6z M674.4,1428.3c1.7,1,2.2,3.1,1.2,4.8     c-1,1.7-3.1,2.2-4.8,1.2l-6.1-3.6c-1.7-1-2.2-3.1-1.2-4.8c1-1.7,3.1-2.2,4.8-1.2L674.4,1428.3L674.4,1428.3z M650.2,1414     c1.7,1,2.2,3.1,1.2,4.8c-1,1.7-3.1,2.2-4.8,1.2l-6.1-3.6c-1.7-1-2.2-3.1-1.2-4.8c1-1.7,3.1-2.2,4.8-1.2L650.2,1414L650.2,1414z      M626,1399.7c1.7,1,2.2,3.1,1.2,4.8c-1,1.7-3.1,2.2-4.8,1.2l-6.1-3.6c-1.7-1-2.2-3.1-1.2-4.8c1-1.7,3.1-2.2,4.8-1.2L626,1399.7     L626,1399.7z M601.8,1385.4c1.7,1,2.2,3.1,1.2,4.8c-1,1.7-3.1,2.2-4.8,1.2l-6.1-3.6c-1.7-1-2.2-3.1-1.2-4.8     c1-1.7,3.1-2.2,4.8-1.2L601.8,1385.4L601.8,1385.4z M577.6,1371.1c1.7,1,2.2,3.1,1.2,4.8c-1,1.7-3.1,2.2-4.8,1.2l-6.1-3.6     c-1.7-1-2.2-3.1-1.2-4.8c1-1.7,3.1-2.2,4.8-1.2L577.6,1371.1L577.6,1371.1z M553.4,1356.8c1.7,1,2.2,3.1,1.2,4.8     c-1,1.7-3.1,2.2-4.8,1.2l-6.1-3.6c-1.7-1-2.2-3.1-1.2-4.8c1-1.7,3.1-2.2,4.8-1.2L553.4,1356.8L553.4,1356.8z M529.2,1342.5     c1.7,1,2.2,3.1,1.2,4.8c-1,1.7-3.1,2.2-4.8,1.2l-6.1-3.6c-1.7-1-2.2-3.1-1.2-4.8c1-1.7,3.1-2.2,4.8-1.2L529.2,1342.5     L529.2,1342.5z M505,1328.3c1.7,1,2.2,3.1,1.2,4.8c-1,1.7-3.1,2.2-4.8,1.2l-6.1-3.6c-1.7-1-2.2-3.1-1.2-4.8     c1-1.7,3.1-2.2,4.8-1.2L505,1328.3L505,1328.3z M480.8,1314c1.7,1,2.2,3.1,1.2,4.8c-1,1.7-3.1,2.2-4.8,1.2l-6.1-3.6     c-1.7-1-2.2-3.1-1.2-4.8c1-1.7,3.1-2.2,4.8-1.2L480.8,1314L480.8,1314z M456.6,1299.7c1.7,1,2.2,3.1,1.2,4.8     c-1,1.7-3.1,2.2-4.8,1.2l-6.1-3.6c-1.7-1-2.2-3.1-1.2-4.8c1-1.7,3.1-2.2,4.8-1.2L456.6,1299.7z" clip-rule="evenodd"/><polygon fill="#b7d9f2" fill-rule="evenodd" points="2117.8 1302.3 1279.6 1797.1 1276.4 1798.7 1273 1800.2 1269.3 1801.3 1265.4 1802.3 1261.4 1802.9 1257.3 1803.4 1253.1 1803.6 1250 1803.5 1250 1844.2 1253.1 1844.3 1257.3 1844.1 1261.4 1843.6 1265.4 1843 1269.3 1842 1273 1840.9 1276.4 1839.4 1279.6 1837.7 2117.8 1343 2123 1339.1 2126.6 1334.7 2128.5 1329.9 2128.5 1289.2 2126.6 1294 2123 1298.4" clip-rule="evenodd"/><path fill="#c9e3f6" fill-rule="evenodd" d="M919.9,1495.8c11.1,0,21.1-1.4,29.5-4.3c38.6-13.4,27.1-54.4-25.7-91.6c-41.4-29.1-95.8-47.2-136-47.2   c-11.1,0-21.2,1.4-29.5,4.3c-38.6,13.4-27.1,54.4,25.7,91.5C825.2,1477.7,879.7,1495.8,919.9,1495.8z" clip-rule="evenodd"/><path fill="#c9e3f6" fill-rule="evenodd" d="M1186,1275.6c-17.9,0-35.8-4-49.5-11.8c-27.3-15.8-27.3-41.4,0-57.2c13.7-7.9,31.6-11.8,49.5-11.8   c17.9,0,35.8,3.9,49.5,11.8c27.3,15.8,27.4,41.4,0,57.2C1221.8,1271.6,1203.9,1275.6,1186,1275.6z" clip-rule="evenodd"/><path fill="#c9e3f6" fill-rule="evenodd" d="M1596.9,1519.7c-17.9,0-35.8-3.9-49.5-11.8c-27.3-15.8-27.3-41.4,0-57.2c13.7-7.9,31.6-11.8,49.5-11.8   c17.9,0,35.8,3.9,49.5,11.8c27.3,15.8,27.4,41.4,0,57.2C1632.7,1515.7,1614.8,1519.7,1596.9,1519.7z" clip-rule="evenodd"/><polygon fill="#fff" fill-rule="evenodd" points="1271.2 870.5 1300.7 851.8 1302.3 854.4 1272.7 873.1" clip-rule="evenodd"/><polygon fill="#a0c6e9" fill-rule="evenodd" points="1306.1 887.9 1335.6 869.3 1319.3 882.5 1289.8 901.2" clip-rule="evenodd"/><polygon fill="#c9e3f6" fill-rule="evenodd" points="1307.6 886.7 1306.1 887.9 1289.8 901.2 1272.7 873.1 1271.2 870.5" clip-rule="evenodd"/><polygon fill="#fff" fill-rule="evenodd" points="1271.2 870.5 1300.7 851.8 1337.1 868 1307.6 886.7" clip-rule="evenodd"/><polygon fill="#fff" fill-rule="evenodd" points="1307.6 886.7 1337.1 868 1335.6 869.3 1306.1 887.9" clip-rule="evenodd"/><polygon fill="#fff" fill-rule="evenodd" points="1244.8 780 1274.3 761.3 1298.6 815.7 1269.1 834.4" clip-rule="evenodd"/><polygon fill="#fff" fill-rule="evenodd" points="1319.6 756.4 1349.1 737.7 1299.2 791.9 1269.7 810.6" clip-rule="evenodd"/><polygon fill="#f6ae00" fill-rule="evenodd" points="1255.1 777.7 1284.6 759 1299.2 791.9 1269.7 810.6" clip-rule="evenodd"/><polygon fill="#f6ae00" fill-rule="evenodd" points="1244.8 780 1274.3 761.3 1284.6 759 1255.1 777.7" clip-rule="evenodd"/><polygon fill="#f6ae00" fill-rule="evenodd" points="1319.6 756.4 1349.1 737.7 1359 750.1 1329.4 768.7" clip-rule="evenodd"/><polygon fill="#f6ae00" fill-rule="evenodd" points="1329.4 768.7 1359 750.1 1298.6 815.7 1269.1 834.4" clip-rule="evenodd"/><path fill="#c9e3f6" fill-rule="evenodd" d="M1269.1,834.4l60.4-65.7l-9.8-12.4l-49.9,54.3l-14.7-32.9l-10.2,2.2L1269.1,834.4L1269.1,834.4z     M1285.8,701.1c44.8,20,82,76.7,83,126.8c0.9,43.7-26.1,67.9-62.7,60.1l1.5-1.2l-36.4-16.2l1.6,2.6c-37-25-65.4-73.8-66.3-117.5    C1205.5,705.5,1241,681.1,1285.8,701.1z" clip-rule="evenodd"/><polygon fill="#fff" fill-rule="evenodd" points="1319.6 756.4 1329.4 768.7 1269.1 834.4 1244.8 780 1255.1 777.7 1269.7 810.6" clip-rule="evenodd"/><path fill="#a0c6e9" fill-rule="evenodd" d="M1398.3,809.2c0.5,25.8-8.7,44.8-23.9,54.5l-29.5,18.7c15.2-9.6,24.4-28.6,23.9-54.4    c-1-50.1-38.1-106.9-83-126.8c-21.7-9.6-41.3-8.9-55.5,0.1l29.6-18.7c14.3-9,33.8-9.8,55.5-0.1    C1360.2,702.3,1397.3,759.1,1398.3,809.2z" clip-rule="evenodd"/><g><path fill="#789fd3" fill-rule="evenodd" d="M1976.8,1212.2c11.9-6.9,23.6,0,23.6,0v89.7c0,3-1.6,5.5-5.2,7.3l-262.6,152.4l-10.1,0v-106.4L1976.8,1212.2z    " clip-rule="evenodd"/><path fill="#8eb6e1" fill-rule="evenodd" d="M1722.4,1461.6l-10.4,0.1l-390.3-225.1c-2.5-1.2-3.7-2.9-3.7-5.2v-91.1c0,0,11.1-6.4,22.5,0.7l381.9,214.3    V1461.6z" clip-rule="evenodd"/><polygon fill="#b7d9f2" fill-rule="evenodd" points="1460.6 1302.2 1343.2 1234.4 1343.2 1174 1460.6 1241.7" clip-rule="evenodd"/><polygon fill="#8eb6e1" fill-rule="evenodd" points="1460.6 1274 1343.2 1206.2 1343.2 1202.2 1460.6 1269.8" clip-rule="evenodd"/><path fill="#b7d9f2" fill-rule="evenodd" d="M1489.4,1270.6c0,7-5,9.7-10.8,6.1c-6-3.4-10.8-11.8-10.8-18.7c0-6.8,4.8-9.6,10.8-6.1    C1484.4,1255.4,1489.4,1263.7,1489.4,1270.6z" clip-rule="evenodd"/><path fill="#b7d9f2" fill-rule="evenodd" d="M1485.4,1300.5c0,4.3-3.1,6.1-6.9,3.9c-3.8-2.2-6.9-7.4-6.9-11.8c0-4.3,3.1-6.2,6.9-4    C1482.3,1290.8,1485.4,1296.2,1485.4,1300.5z" clip-rule="evenodd"/><polygon fill="#789fd3" fill-rule="evenodd" points="1695.3 1443.7 1513.6 1338.9 1513.6 1267.1 1695.3 1371.9" clip-rule="evenodd"/><polygon fill="#fff" fill-rule="evenodd" points="1612.3 1369.1 1596.5 1360 1596.5 1341.7 1612.3 1350.8" clip-rule="evenodd"/><path fill="#8eb6e1" fill-rule="evenodd" d="M1732.6,1362.1h-20.5v99.6c5,2.9,14.4,3.4,20.5-0.1L1732.6,1362.1z" clip-rule="evenodd"/><path fill="#a0c6e9" fill-rule="evenodd" d="M1321.7,1146.3l390.3,225.1c5.6,3.1,15.5,2.8,22.3-1.1l260.8-151.5c6.4-3.5,7.1-9.1,1.4-12.5l-390.4-225.1    c-5.8-3-15.5-2.7-21.9,1.2l-261,151C1316.9,1136.9,1316.2,1142.9,1321.7,1146.3z" clip-rule="evenodd"/><path fill="#6e96ce" fill-rule="evenodd" d="M1738.1,1268.3c-2.8,0-5.4-0.6-7.4-1.8l-225-129.7c-2.6-1.6-4.1-4.1-4.1-6.8c0-3,1.9-5.7,5-7.5l76.3-43.9    c2.5-1.5,5.9-2.3,9.2-2.3c2.6,0,5.2,0.5,7.2,1.5l225.2,129.8c2.8,1.7,4.3,4.1,4.2,6.8c0,2.9-1.9,5.5-5.1,7.2l-76,44.2    C1744.8,1267.5,1741.5,1268.3,1738.1,1268.3z" clip-rule="evenodd"/><path fill="#789fd3" fill-rule="evenodd" d="M1505.6,1114.5c0,0,6.4-3.7,13,0.4l66.3-38.6c3.7-2,9.3-2.2,12.6-0.3l213.6,123c6.9-4,13.6,0,13.6,0v15.1    c0,1.8-0.9,3.2-3.1,4.2l-76.1,44.2c-4,2.2-9.6,2.5-12.9,0.6l-224.9-129.7c-1.5-0.7-2.1-1.7-2.2-3V1114.5z" clip-rule="evenodd"/><path fill="#8eb6e1" fill-rule="evenodd" d="M1507.8,1118l224.9,129.6c3.2,1.9,8.9,1.7,12.9-0.5l76.1-44.3c3.7-2,4.2-5.2,0.9-7.2l-225-129.7    c-3.3-1.7-8.9-1.6-12.6,0.7l-76.3,43.9C1505,1112.6,1504.6,1116,1507.8,1118z" clip-rule="evenodd"/><polygon fill="#789fd3" fill-rule="evenodd" points="1763.2 1064.4 1763.1 1203 1786.8 1189.7 1786.8 1018.7 1777.9 1023.1" clip-rule="evenodd"/><polygon fill="#789fd3" fill-rule="evenodd" points="1588.7 963.8 1588.7 1102.3 1763.1 1203 1763.2 1064.4" clip-rule="evenodd"/><polygon fill="#323032" fill-rule="evenodd" points="1603.5 922.5 1588.8 963.6 1763.2 1064.4 1777.9 1023.1" clip-rule="evenodd"/><polygon fill="#565459" fill-rule="evenodd" points="1612.3 918.2 1603.6 922.4 1777.9 1023.1 1786.8 1018.7" clip-rule="evenodd"/><path fill="#789fd3" fill-rule="evenodd" d="M1932.9,888.3l-488.1-281.9c-2.5-1.4-4.9-1.4-6.5-0.4v-0.2l-14,8.4l9.9,14.1l2.7-2.5v332    c0,5.3,3.9,12.2,8.9,15.1l476.4,275.3l3.3,15.6l13.7-8.3c1.6-0.9,2.7-3,2.7-5.7l0-346.3C1942,897.8,1937.8,890.9,1932.9,888.3z" clip-rule="evenodd"/><path fill="#8eb6e1" fill-rule="evenodd" d="M1919.1,1263.3l-488-281.8c-5-3-8.9-9.9-8.9-15.5V619.7c0-5.7,3.9-8,8.9-5.2l488,281.9    c4.7,2.9,8.8,9.5,8.8,15.3l0,346.4C1927.9,1263.8,1923.8,1265.9,1919.1,1263.3z" clip-rule="evenodd"/><polygon fill="#789fd3" fill-rule="evenodd" points="1916.4 1225.3 1916.4 1229.3 1432.5 949.9 1432.5 630 1436.2 632.1 1436.2 947.9" clip-rule="evenodd"/><polygon fill="#fff" fill-rule="evenodd" points="1916.4 909.5 1916.4 1225.3 1436.2 947.9 1436.2 632.1" clip-rule="evenodd"/><path fill="#c9e3f6" fill-rule="evenodd" d="M1693.9,826l132.7,76.6c1.8,1,3.2,0.2,3.2-1.8c0-2-1.4-4.5-3.2-5.5l-132.7-76.6c-1.8-1-3.2-0.2-3.1,1.8    C1690.7,822.5,1692.1,825,1693.9,826z" clip-rule="evenodd"/><path fill="#c9e3f6" fill-rule="evenodd" d="M1882,959.2l-188.1-108.6c-1.8-1-3.2-0.2-3.2,1.8c0,2,1.4,4.5,3.2,5.5l188,108.6c1.8,1,3.2,0.2,3.2-1.8    C1885.1,962.7,1883.7,960.2,1882,959.2z" clip-rule="evenodd"/><path fill="#c9e3f6" fill-rule="evenodd" d="M1854.3,961.7l-160.4-92.6c-1.8-1-3.2-0.2-3.2,1.8c0,2,1.4,4.5,3.2,5.5l160.4,92.6c1.7,1,3.2,0.2,3.2-1.8    C1857.4,965.2,1856,962.7,1854.3,961.7z" clip-rule="evenodd"/><polygon fill="#fff" fill-rule="evenodd" points="1663.9 1048 1453.6 926.5 1453.6 715 1663.9 836.4" clip-rule="evenodd"/><polygon fill="#b7d9f2" fill-rule="evenodd" points="1453.6 926.5 1470.1 936.1 1470.1 891.9 1453.6 882.3" clip-rule="evenodd"/><polygon fill="#b7d9f2" fill-rule="evenodd" points="1481.2 942.5 1497.8 952.1 1497.8 888.4 1481.2 878.8" clip-rule="evenodd"/><polygon fill="#b7d9f2" fill-rule="evenodd" points="1508.9 958.5 1525.5 968.1 1525.5 873.7 1508.9 864.1" clip-rule="evenodd"/><polygon fill="#b7d9f2" fill-rule="evenodd" points="1536.6 974.4 1553.2 984 1553.2 907.9 1536.6 898.3" clip-rule="evenodd"/><polygon fill="#b7d9f2" fill-rule="evenodd" points="1564.2 990.4 1580.9 1000 1580.9 942.2 1564.2 932.6" clip-rule="evenodd"/><polygon fill="#b7d9f2" fill-rule="evenodd" points="1591.9 1006.4 1608.6 1016 1608.6 903.4 1591.9 893.9" clip-rule="evenodd"/><polygon fill="#b7d9f2" fill-rule="evenodd" points="1619.6 1022.4 1636.2 1032 1636.2 883 1619.6 873.4" clip-rule="evenodd"/><polygon fill="#b7d9f2" fill-rule="evenodd" points="1647.3 848.2 1647.3 1038.4 1663.9 1048 1663.9 857.8" clip-rule="evenodd"/><path fill="#b7d9f2" fill-rule="evenodd" d="M1496.4,753.5l-25.7-14.8c-2.8-1.6-5-0.3-5,2.9c0,3.2,2.2,7.1,5,8.6l25.7,14.9c2.8,1.6,5,0.3,5-2.9    C1501.4,758.9,1499.1,755.1,1496.4,753.5z" clip-rule="evenodd"/><path fill="#b7d9f2" fill-rule="evenodd" d="M1496.4,773l-25.7-14.8c-2.8-1.6-5-0.3-5,2.9c0,3.2,2.2,7,5,8.6l25.7,14.8c2.8,1.6,5,0.3,5-2.9    C1501.4,778.5,1499.1,774.6,1496.4,773z" clip-rule="evenodd"/><path fill="#b7d9f2" fill-rule="evenodd" d="M1496.4,791.6l-25.7-14.9c-2.8-1.6-5-0.3-5,2.9c0,3.2,2.2,7.1,5,8.6l25.7,14.8c2.8,1.6,5,0.3,5-2.9    C1501.4,797.1,1499.1,793.2,1496.4,791.6z" clip-rule="evenodd"/><path fill="#b7d9f2" fill-rule="evenodd" d="M1855.8,1062.9c-6.5-3.8-11.7-12.9-11.7-20.3c0-7.5,5.2-10.5,11.7-6.7c6.5,3.7,11.7,12.8,11.7,20.3    C1867.6,1063.6,1862.3,1066.6,1855.8,1062.9L1855.8,1062.9z M1855.8,1017.1c-15.4-8.9-27.9-1.7-27.9,16.1    c0,17.8,12.5,39.5,27.9,48.4c15.4,8.9,27.9,1.7,27.9-16.1L1855.8,1017.1z" clip-rule="evenodd"/><path fill="#daedf9" fill-rule="evenodd" d="M1867.6,1056.1L1867.6,1056.1l16.2,9.4c0-17.8-12.5-39.5-27.9-48.4v18.7    C1862.3,1039.5,1867.6,1048.6,1867.6,1056.1z" clip-rule="evenodd"/><path fill="#daedf9" fill-rule="evenodd" d="M1718.4,983.5c-6.5-3.7-11.7-12.8-11.7-20.3c0-7.5,5.3-10.5,11.7-6.7c6.5,3.7,11.7,12.8,11.7,20.3    C1730.1,984.2,1724.8,987.2,1718.4,983.5L1718.4,983.5z M1718.4,937.7c-15.4-8.9-27.9-1.7-27.9,16.1l27.9,48.4    c15.4,8.9,27.9,1.7,27.9-16.1C1746.3,968.3,1733.8,946.6,1718.4,937.7z" clip-rule="evenodd"/><path fill="#b7d9f2" fill-rule="evenodd" d="M1718.4,983.5c-6.5-3.7-11.7-12.8-11.7-20.3l-16.2-9.3c0,17.8,12.5,39.4,27.9,48.4V983.5z" clip-rule="evenodd"/><path fill="#a0c6e9" fill-rule="evenodd" d="M1787.1,1023.2c-6.5-3.8-11.7-12.9-11.7-20.3c0-7.5,5.2-10.5,11.7-6.8c6.5,3.7,11.7,12.8,11.7,20.3    C1798.8,1023.8,1793.6,1026.9,1787.1,1023.2L1787.1,1023.2z M1806.8,998.2c-10.9-18.9-28.6-29.1-39.5-22.8    c-10.9,6.3-10.9,26.7,0,45.6l39.5,22.8C1817.8,1037.5,1817.8,1017.1,1806.8,998.2z" clip-rule="evenodd"/><path fill="#c9e3f6" fill-rule="evenodd" d="M1795.4,1024c-2.1,1.2-5.1,1.1-8.3-0.8c-3.2-1.9-6.2-5.1-8.3-8.8l-11.5,6.6c10.9,18.9,28.6,29.1,39.5,22.8    L1795.4,1024z" clip-rule="evenodd"/><polygon fill="#8eb6e1" fill-rule="evenodd" points="1726.5 1083.3 1690 1062.2 1690 1033.5 1726.5 1054.5" clip-rule="evenodd"/><polygon fill="#a0c6e9" fill-rule="evenodd" points="1785.7 1117.5 1726.5 1083.3 1726.5 1054.5 1785.7 1088.7" clip-rule="evenodd"/><polygon fill="#b7d9f2" fill-rule="evenodd" points="1796.1 1123.6 1785.7 1117.5 1785.7 1088.7 1796.1 1094.8" clip-rule="evenodd"/><polygon fill="#c9e3f6" fill-rule="evenodd" points="1840.2 1149 1796.1 1123.6 1796.1 1094.8 1840.2 1120.2" clip-rule="evenodd"/><polygon fill="#daedf9" fill-rule="evenodd" points="1884.2 1174.4 1840.2 1149 1840.2 1120.2 1884.2 1145.6" clip-rule="evenodd"/></g><g><path fill="#2e64a8" fill-rule="evenodd" d="M679.5,866.7l-6.8-3.9c-0.9-0.5-1.6-1.9-1.6-3.1l0-7.3c0-1.2,0.7-1.8,1.6-1.2l6.8,3.9    c0.9,0.5,1.6,1.9,1.6,3.1v7.3C681.2,866.7,680.4,867.2,679.5,866.7z" clip-rule="evenodd"/><path fill="#053677" fill-rule="evenodd" d="M701.8,991.1l-74-42.4c-4.2-2.4-7.5-8.9-7.5-14.4l0-26.5c0-5.6,3.4-8.1,7.5-5.7l74,42.4    c4.2,2.4,7.5,8.9,7.5,14.4v26.5C709.3,990.9,706,993.5,701.8,991.1z" clip-rule="evenodd"/><path fill="#fff" fill-rule="evenodd" d="M624.1,901.3c-1.2,1.1-1.9,3-1.9,5.5v26.5c0,5.5,3.4,12,7.5,14.4l74,42.4c1.3,0.8,2.6,1,3.7,0.8    c-1.4,1.3-3.4,1.5-5.7,0.2l-74-42.4c-4.2-2.4-7.5-8.9-7.5-14.4l0-26.5C620.2,904.1,621.8,901.7,624.1,901.3z" clip-rule="evenodd"/><path fill="#2e64a8" fill-rule="evenodd" d="M679.5,962.3l-6.8-3.9c-0.9-0.5-1.6-1.9-1.6-3.1l0-7.3c0-1.2,0.7-1.8,1.6-1.2l6.8,3.9    c0.9,0.5,1.6,1.9,1.6,3.1v7.3C681.2,962.3,680.4,962.9,679.5,962.3z" clip-rule="evenodd"/><path fill="#fff" fill-rule="evenodd" d="M656.8,949.2l-6.8-3.9c-0.9-0.5-1.6-1.9-1.6-3.1v-7.2c0-1.2,0.7-1.8,1.6-1.2l6.8,3.9c0.9,0.5,1.6,1.9,1.6,3.1    v7.3C658.5,949.2,657.7,949.7,656.8,949.2z" clip-rule="evenodd"/><path fill="#deeefa" fill-rule="evenodd" d="M536.2,898.5c0,2.5,1.8,3.5,3.9,2.3c2.2-1.3,3.9-4.3,3.9-6.8c0-2.5-1.8-3.5-3.9-2.3    C537.9,893,536.2,896,536.2,898.5z" clip-rule="evenodd"/><path fill="#deeefa" fill-rule="evenodd" d="M584.4,932.6l24-13.9c1.9-1.1,3.4-4,3.4-6.5c0-2.5-1.5-3.7-3.4-2.6l-24,13.9c-1.9,1.1-3.4,4-3.4,6.5    C581,932.6,582.5,933.7,584.4,932.6z" clip-rule="evenodd"/><path fill="#deeefa" fill-rule="evenodd" d="M584.4,990.1l24-13.9c1.9-1.1,3.4-4,3.4-6.5c0-2.5-1.5-3.7-3.4-2.6l-24,13.9c-1.9,1.1-3.4,4-3.4,6.5    C581,990,582.5,991.1,584.4,990.1z" clip-rule="evenodd"/><path fill="#deeefa" fill-rule="evenodd" d="M584.4,1047.5l24-13.9c1.9-1.1,3.4-4,3.4-6.5c0-2.5-1.5-3.7-3.4-2.6l-24,13.9c-1.9,1.1-3.4,4-3.4,6.5    C581,1047.4,582.5,1048.6,584.4,1047.5z" clip-rule="evenodd"/><path fill="#deeefa" fill-rule="evenodd" d="M584.4,1104.9l24-13.9c1.9-1.1,3.4-4,3.4-6.5c0-2.5-1.5-3.7-3.4-2.6l-24,13.9c-1.9,1.1-3.4,4-3.4,6.5    S582.5,1106,584.4,1104.9z" clip-rule="evenodd"/><path fill="#a0c6e9" fill-rule="evenodd" d="M533.7,1291.1V865.6l169.2-44.3l31.2-18c7.2-4.1,19.6-3.6,27.9,1.2l29.1,16.8l90.2-0.1L854.5,1232    c0.2,2.8-1.4,5.5-4.8,7.5l-168.8,127.4c-7.1,4.1-19.6,3.6-27.9-1.2l-112.5-65C535.7,1298,533.4,1294.4,533.7,1291.1z" clip-rule="evenodd"/><path fill="#b7d9f2" fill-rule="evenodd" d="M747,800.5c5.2,0.1,10.7,1.4,15,3.9l29.1,16.8l90.2-0.1v426.7c0.2,2.8-1.3,5.5-4.8,7.5l-195.5,111.5    c-3.4,2-8.1,2.9-12.9,2.8l-2-429.3L747,800.5z" clip-rule="evenodd"/><path fill="#8eb6e1" fill-rule="evenodd" d="M679.1,1367.7c-6.2,2.6-15.1,2.5-22.3-0.2V935.2h22.3V1367.7z" clip-rule="evenodd"/><path fill="#c9e3f6" fill-rule="evenodd" d="M680.9,940.3l195.5-111.5c7.1-4.1,6.3-11.3-2-16.1l-112.5-65c-8.3-4.8-20.7-5.3-27.9-1.2L538.5,858.1    c-7.1,4.1-6.3,11.3,2,16.1l112.5,65C661.3,943.9,673.7,944.4,680.9,940.3z" clip-rule="evenodd"/><path fill="#fdffff" fill-rule="evenodd" d="M540.5,866.3l112.5,65c8.3,4.8,20.7,5.3,27.9,1.2l195.5-111.5c1.6-0.9,2.8-2,3.6-3.2c2.5,4,1.3,8.2-3.6,11.1    L680.9,940.3c-7.1,4.1-19.6,3.6-27.9-1.1l-112.5-65c-6.4-3.7-8.4-8.9-5.6-12.9C536,863.1,537.9,864.8,540.5,866.3z" clip-rule="evenodd"/><path fill="#80a8d8" fill-rule="evenodd" d="M675.4,895.1l130.2-75.5c3.3-1.9,2.9-5.3-0.9-7.5L752,781.7c-3.9-2.2-9.7-2.5-13.1-0.5l-130.2,75.5    c-3.3,1.9-2.9,5.3,0.9,7.5l52.6,30.4C666.2,896.8,672,897.1,675.4,895.1z" clip-rule="evenodd"/><path fill="#fff" fill-rule="evenodd" d="M745.6,823.1l7.5-4.4c0.5-0.3,0.4-0.7-0.1-1l-7.3-4.2c-0.5-0.3-1.3-0.3-1.8-0.1l-7.5,4.4    c-0.5,0.3-0.4,0.7,0.1,1l7.3,4.2C744.4,823.3,745.2,823.3,745.6,823.1L745.6,823.1z M670,866.5l7.5-4.4c0.5-0.3,0.4-0.7-0.1-1    l-7.3-4.2c-0.5-0.3-1.3-0.3-1.8-0.1l-7.5,4.3c-0.5,0.3-0.4,0.7,0.1,1l7.3,4.2C668.8,866.8,669.6,866.8,670,866.5L670,866.5z     M695.2,852l7.5-4.4c0.5-0.3,0.4-0.7-0.1-1l-7.3-4.2c-0.5-0.3-1.3-0.3-1.8-0.1l-7.5,4.4c-0.5,0.3-0.4,0.7,0.1,1l7.3,4.2    C694,852.3,694.8,852.3,695.2,852L695.2,852z M720.4,837.5l7.5-4.4c0.5-0.3,0.4-0.7-0.1-1l-7.3-4.2c-0.5-0.3-1.3-0.3-1.8-0.1    l-7.5,4.4c-0.5,0.3-0.4,0.7,0.1,1l7.3,4.2C719.2,837.8,720,837.8,720.4,837.5z" clip-rule="evenodd"/><path fill="#6e96ce" fill-rule="evenodd" d="M805.5,819.7l-0.2,0.1l-0.8-0.5L752,788.8c-3.9-2.2-9.7-2.5-13.1-0.5l-130,75.4c-3.1-2.2-3.2-5.2-0.2-7    l130.2-75.5c3.3-1.9,9.2-1.7,13.1,0.5l52.6,30.4C808.5,814.4,808.9,817.7,805.5,819.7z" clip-rule="evenodd"/><path fill="#6e96ce" fill-rule="evenodd" d="M631,1024.6l-74-42.4c-4.2-2.4-7.5-8.9-7.5-14.4v-26.5c0-5.6,3.4-8.1,7.5-5.7l74,42.4    c4.2,2.4,7.5,8.9,7.5,14.4v26.5C638.6,1024.5,635.2,1027,631,1024.6z" clip-rule="evenodd"/><path fill="#fff" fill-rule="evenodd" d="M553.3,934.9c-1.2,1.1-1.9,3-1.9,5.5v26.5c0,5.6,3.4,12,7.5,14.4l74,42.4c1.3,0.8,2.6,1,3.7,0.8    c-1.4,1.3-3.4,1.5-5.6,0.2l-74-42.4c-4.2-2.4-7.5-8.9-7.5-14.4v-26.5C549.5,937.6,551,935.3,553.3,934.9z" clip-rule="evenodd"/><path fill="#6e96ce" fill-rule="evenodd" d="M631,1215.9l-74-42.4c-4.2-2.4-7.5-8.9-7.5-14.4v-26.5c0-5.6,3.4-8.1,7.5-5.7l74,42.4    c4.2,2.4,7.5,8.9,7.5,14.4v26.5C638.6,1215.8,635.2,1218.3,631,1215.9z" clip-rule="evenodd"/><path fill="#fff" fill-rule="evenodd" d="M553.3,1126.1c-1.2,1.1-1.9,3-1.9,5.5v26.5c0,5.6,3.4,12,7.5,14.4l74,42.4c1.3,0.8,2.6,1,3.7,0.8    c-1.4,1.3-3.4,1.5-5.6,0.2l-74-42.4c-4.2-2.4-7.5-8.9-7.5-14.4v-26.5C549.5,1128.9,551,1126.5,553.3,1126.1z" clip-rule="evenodd"/><path fill="#fff" fill-rule="evenodd" d="M586.1,1174l-6.8-3.9c-0.9-0.5-1.6-1.9-1.6-3.1v-7.2c0-1.2,0.7-1.8,1.6-1.2l6.8,3.9c0.9,0.5,1.6,1.9,1.6,3.1    v7.2C587.7,1174,587,1174.6,586.1,1174L586.1,1174z M608.8,1187.1l-6.8-3.9c-0.9-0.5-1.6-1.9-1.6-3.1v-7.2c0-1.2,0.7-1.8,1.6-1.2    l6.8,3.9c0.9,0.5,1.6,1.9,1.6,3.1l0,7.3C610.4,1187.1,609.7,1187.7,608.8,1187.1z" clip-rule="evenodd"/><path fill="#6e96ce" fill-rule="evenodd" d="M631,1311.5l-74-42.4c-4.2-2.4-7.5-8.9-7.5-14.4v-26.5c0-5.5,3.4-8.1,7.5-5.7l74,42.4    c4.2,2.4,7.5,8.9,7.5,14.4v26.5C638.6,1311.4,635.2,1313.9,631,1311.5z" clip-rule="evenodd"/><path fill="#fff" fill-rule="evenodd" d="M553.3,1221.8c-1.2,1.1-1.9,3-1.9,5.5v26.5c0,5.6,3.4,12,7.5,14.4l74,42.4c1.3,0.8,2.6,1,3.7,0.8    c-1.4,1.3-3.4,1.5-5.6,0.2l-74-42.4c-4.2-2.4-7.5-8.9-7.5-14.4v-26.5C549.5,1224.5,551,1222.2,553.3,1221.8z" clip-rule="evenodd"/><path fill="#fff" fill-rule="evenodd" d="M608.8,1282.8l-6.8-3.9c-0.9-0.5-1.6-1.9-1.6-3.1v-7.3c0-1.2,0.7-1.8,1.6-1.2l6.8,3.9    c0.9,0.5,1.6,1.9,1.6,3.1l0,7.3C610.4,1282.8,609.7,1283.3,608.8,1282.8L608.8,1282.8z M586.1,1269.7l-6.8-3.9    c-0.9-0.5-1.6-1.9-1.6-3.1v-7.2c0-1.2,0.7-1.8,1.6-1.2l6.8,3.9c0.9,0.5,1.6,1.9,1.6,3.1v7.2C587.7,1269.6,587,1270.2,586.1,1269.7    z" clip-rule="evenodd"/><path fill="#6e96ce" fill-rule="evenodd" d="M631,1120.3l-74-42.4c-4.2-2.4-7.5-8.9-7.5-14.4V1037c0-5.5,3.4-8.1,7.5-5.7l74,42.4    c4.2,2.4,7.5,8.9,7.5,14.4v26.5C638.6,1120.1,635.2,1122.7,631,1120.3z" clip-rule="evenodd"/><path fill="#fff" fill-rule="evenodd" d="M553.3,1030.5c-1.2,1.1-1.9,3-1.9,5.5v26.5c0,5.5,3.4,12,7.5,14.4l74,42.4c1.3,0.8,2.6,1,3.7,0.8    c-1.4,1.3-3.4,1.5-5.6,0.2l-74-42.4c-4.2-2.4-7.5-8.9-7.5-14.4V1037C549.5,1033.2,551,1030.9,553.3,1030.5z" clip-rule="evenodd"/><path fill="#fff" fill-rule="evenodd" d="M586.1,1078.4l-6.8-3.9c-0.9-0.5-1.6-1.9-1.6-3.1v-7.2c0-1.2,0.7-1.8,1.6-1.2l6.8,3.9    c0.9,0.5,1.6,1.9,1.6,3.1v7.3C587.7,1078.4,587,1078.9,586.1,1078.4L586.1,1078.4z M608.8,995.9L602,992c-0.9-0.5-1.6-1.9-1.6-3.1    v-7.2c0-1.2,0.7-1.8,1.6-1.2l6.8,3.9c0.9,0.5,1.6,1.9,1.6,3.1l0,7.3C610.4,995.8,609.7,996.4,608.8,995.9L608.8,995.9z     M586.1,982.8l-6.8-3.9c-0.9-0.5-1.6-1.9-1.6-3.1v-7.3c0-1.2,0.7-1.8,1.6-1.2l6.8,3.9c0.9,0.5,1.6,1.9,1.6,3.1v7.3    C587.7,982.7,587,983.3,586.1,982.8L586.1,982.8z M608.8,1091.5l-6.8-3.9c-0.9-0.5-1.6-1.9-1.6-3.1v-7.3c0-1.2,0.7-1.8,1.6-1.2    l6.8,3.9c0.9,0.5,1.6,1.9,1.6,3.1l0,7.3C610.4,1091.5,609.7,1092,608.8,1091.5z" clip-rule="evenodd"/><path fill="#6e96ce" fill-rule="evenodd" d="M695.1,1169.8l170.8-98.6c3.8-2.2,6.9-8.1,6.9-13.2v-32.6c0-5.1-3.1-7.4-6.9-5.2l-170.8,98.6    c-3.8,2.2-6.9,8.1-6.9,13.2v32.6C688.2,1169.7,691.3,1172,695.1,1169.8z" clip-rule="evenodd"/><path fill="#6e96ce" fill-rule="evenodd" d="M695.1,997.5l170.8-98.6c3.8-2.2,6.9-8.1,6.9-13.2v-32.6c0-5.1-3.1-7.4-6.9-5.2l-170.8,98.6    c-3.8,2.2-6.9,8.1-6.9,13.2v32.6C688.2,997.4,691.3,999.7,695.1,997.5z" clip-rule="evenodd"/><path fill="#a0c6e9" fill-rule="evenodd" d="M698.6,1158.8c-1.3,0-2.1-1.1-2.1-3.1v-24.5c0-2.6,1.6-5.6,3.5-6.7l161-92.9c0.5-0.3,1-0.4,1.4-0.4    c1.2,0,2.1,1.2,2.1,3.1v24.5c0,2.6-1.6,5.6-3.5,6.7l-161,92.9C699.5,1158.7,699.1,1158.8,698.6,1158.8z" clip-rule="evenodd"/><path fill="#a0c6e9" fill-rule="evenodd" d="M698.6,986.5c-1.3,0-2.1-1.2-2.1-3.1V959c0-2.6,1.6-5.6,3.5-6.7l161-92.9c0.5-0.3,1-0.4,1.4-0.4    c1.2,0,2.1,1.2,2.1,3.1v24.5c0,2.6-1.6,5.6-3.5,6.7l-161,92.9C699.5,986.4,699.1,986.5,698.6,986.5z" clip-rule="evenodd"/><path fill="#fff" fill-rule="evenodd" d="M827.5,1072.4l24-13.9c1.9-1.1,3.4-4,3.4-6.5c0-2.5-1.5-3.7-3.4-2.6l-24,13.9c-1.9,1.1-3.4,4-3.4,6.5    C824,1072.4,825.6,1073.5,827.5,1072.4z" clip-rule="evenodd"/><path fill="#fff" fill-rule="evenodd" d="M827.5,900.2l24-13.9c1.9-1.1,3.4-4,3.4-6.5c0-2.5-1.5-3.7-3.4-2.6l-24,13.9c-1.9,1.1-3.4,4-3.4,6.5    C824,900.1,825.6,901.3,827.5,900.2z" clip-rule="evenodd"/><path fill="#fff" fill-rule="evenodd" d="M807,1079.7c0,2.5,1.8,3.5,3.9,2.3c2.2-1.3,3.9-4.3,3.9-6.8c0-2.5-1.8-3.5-3.9-2.3    C808.7,1074.1,807,1077.2,807,1079.7z" clip-rule="evenodd"/><path fill="#fff" fill-rule="evenodd" d="M807,907.4c0,2.5,1.8,3.5,3.9,2.3c2.2-1.3,3.9-4.3,3.9-6.8c0-2.5-1.8-3.5-3.9-2.3    C808.7,901.9,807,904.9,807,907.4z" clip-rule="evenodd"/><path fill="#fff" fill-rule="evenodd" d="M793.1,1087.7c0,2.5,1.8,3.5,3.9,2.3c2.2-1.3,3.9-4.3,3.9-6.8c0-2.5-1.8-3.5-3.9-2.3    C794.9,1082.2,793.1,1085.2,793.1,1087.7z" clip-rule="evenodd"/><path fill="#fff" fill-rule="evenodd" d="M793.1,915.5c0,2.5,1.8,3.5,3.9,2.3c2.2-1.3,3.9-4.3,3.9-6.8c0-2.5-1.8-3.5-3.9-2.3    C794.9,909.9,793.1,913,793.1,915.5z" clip-rule="evenodd"/><path fill="#fff" fill-rule="evenodd" d="M779.2,1095.7c0,2.5,1.8,3.5,3.9,2.3c2.2-1.3,3.9-4.3,3.9-6.8c0-2.5-1.8-3.5-3.9-2.3    C781,1090.2,779.2,1093.2,779.2,1095.7z" clip-rule="evenodd"/><path fill="#fff" fill-rule="evenodd" d="M779.2,923.5c0,2.5,1.8,3.5,3.9,2.3c2.2-1.3,3.9-4.3,3.9-6.8c0-2.5-1.8-3.5-3.9-2.3    C781,917.9,779.2,921,779.2,923.5z" clip-rule="evenodd"/><path fill="#fff" fill-rule="evenodd" d="M765.3,1103.8c0,2.5,1.8,3.5,3.9,2.3c2.2-1.3,3.9-4.3,3.9-6.8c0-2.5-1.8-3.5-3.9-2.3    C767.1,1098.2,765.3,1101.3,765.3,1103.8z" clip-rule="evenodd"/><path fill="#fff" fill-rule="evenodd" d="M765.3,931.5c0,2.5,1.8,3.5,3.9,2.3c2.2-1.3,3.9-4.3,3.9-6.8c0-2.5-1.8-3.5-3.9-2.3    C767.1,925.9,765.3,929,765.3,931.5z" clip-rule="evenodd"/><path fill="#fff" fill-rule="evenodd" d="M706.8,1144.7l8.1-4.7c1.2-0.7,2.2-2.6,2.2-4.2v-8.6c0-1.6-1-2.4-2.2-1.7l-8.1,4.7c-1.2,0.7-2.2,2.6-2.2,4.2    v8.6C704.6,1144.7,705.6,1145.4,706.8,1144.7z" clip-rule="evenodd"/><path fill="#fff" fill-rule="evenodd" d="M706.8,972.5l8.1-4.7c1.2-0.7,2.2-2.6,2.2-4.2v-8.6c0-1.6-1-2.4-2.2-1.7l-8.1,4.7c-1.2,0.7-2.2,2.6-2.2,4.2    v8.6C704.6,972.4,705.6,973.2,706.8,972.5z" clip-rule="evenodd"/><path fill="#6e96ce" fill-rule="evenodd" d="M695.1,1227.2l170.8-98.6c3.8-2.2,6.9-8.1,6.9-13.2v-32.6c0-5.1-3.1-7.4-6.9-5.2l-170.8,98.6    c-3.8,2.2-6.9,8.1-6.9,13.2v32.6C688.2,1227.1,691.3,1229.4,695.1,1227.2z" clip-rule="evenodd"/><path fill="#6e96ce" fill-rule="evenodd" d="M695.1,1055l170.8-98.6c3.8-2.2,6.9-8.1,6.9-13.2v-32.6c0-5.1-3.1-7.4-6.9-5.2l-170.8,98.6    c-3.8,2.2-6.9,8.1-6.9,13.2v32.6C688.2,1054.8,691.3,1057.2,695.1,1055z" clip-rule="evenodd"/><path fill="#a0c6e9" fill-rule="evenodd" d="M698.6,1216.2c-1.3,0-2.1-1.1-2.1-3.1v-24.5c0-2.6,1.6-5.6,3.5-6.7l161-92.9c0.5-0.3,1-0.4,1.4-0.4    c1.2,0,2.1,1.2,2.1,3.1v24.5c0,2.6-1.6,5.6-3.5,6.7l-161,92.9C699.5,1216.1,699.1,1216.2,698.6,1216.2z" clip-rule="evenodd"/><path fill="#a0c6e9" fill-rule="evenodd" d="M698.6,1044c-1.3,0-2.1-1.2-2.1-3.1v-24.5c0-2.6,1.6-5.6,3.5-6.7l161-92.9c0.5-0.3,1-0.4,1.4-0.4    c1.2,0,2.1,1.2,2.1,3.1v24.5c0,2.6-1.6,5.6-3.5,6.7l-161,92.9C699.5,1043.8,699.1,1044,698.6,1044z" clip-rule="evenodd"/><path fill="#fff" fill-rule="evenodd" d="M827.5,1129.9l24-13.9c1.9-1.1,3.4-4,3.4-6.5c0-2.5-1.5-3.7-3.4-2.6l-24,13.9c-1.9,1.1-3.4,4-3.4,6.5    C824,1129.8,825.6,1130.9,827.5,1129.9z" clip-rule="evenodd"/><path fill="#fff" fill-rule="evenodd" d="M827.5,957.6l24-13.9c1.9-1.1,3.4-4,3.4-6.5c0-2.5-1.5-3.7-3.4-2.6l-24,13.9c-1.9,1.1-3.4,4-3.4,6.5    C824,957.5,825.6,958.7,827.5,957.6z" clip-rule="evenodd"/><path fill="#fff" fill-rule="evenodd" d="M807,1137.1c0,2.5,1.8,3.5,3.9,2.3c2.2-1.3,3.9-4.3,3.9-6.8c0-2.5-1.8-3.5-3.9-2.3    C808.7,1131.6,807,1134.6,807,1137.1z" clip-rule="evenodd"/><path fill="#fff" fill-rule="evenodd" d="M807,964.9c0,2.5,1.8,3.5,3.9,2.3c2.2-1.3,3.9-4.3,3.9-6.8c0-2.5-1.8-3.5-3.9-2.3    C808.7,959.3,807,962.4,807,964.9z" clip-rule="evenodd"/><path fill="#fff" fill-rule="evenodd" d="M793.1,1145.2c0,2.5,1.8,3.5,3.9,2.3c2.2-1.3,3.9-4.3,3.9-6.8c0-2.5-1.8-3.5-3.9-2.3    C794.9,1139.6,793.1,1142.6,793.1,1145.2z" clip-rule="evenodd"/><path fill="#fff" fill-rule="evenodd" d="M793.1,972.9c0,2.5,1.8,3.5,3.9,2.3c2.2-1.3,3.9-4.3,3.9-6.8c0-2.5-1.8-3.5-3.9-2.3    C794.9,967.3,793.1,970.4,793.1,972.9z" clip-rule="evenodd"/><path fill="#fff" fill-rule="evenodd" d="M779.2,1153.2c0,2.5,1.8,3.5,3.9,2.3c2.2-1.3,3.9-4.3,3.9-6.8c0-2.5-1.8-3.5-3.9-2.3    C781,1147.6,779.2,1150.7,779.2,1153.2z" clip-rule="evenodd"/><path fill="#fff" fill-rule="evenodd" d="M779.2,980.9c0,2.5,1.8,3.5,3.9,2.3c2.2-1.3,3.9-4.3,3.9-6.8c0-2.5-1.8-3.5-3.9-2.3    C781,975.3,779.2,978.4,779.2,980.9z" clip-rule="evenodd"/><path fill="#fff" fill-rule="evenodd" d="M765.3,1161.2c0,2.5,1.8,3.5,3.9,2.3c2.2-1.3,3.9-4.3,3.9-6.8c0-2.5-1.8-3.5-3.9-2.3    C767.1,1155.6,765.3,1158.7,765.3,1161.2z" clip-rule="evenodd"/><path fill="#fff" fill-rule="evenodd" d="M765.3,988.9c0,2.5,1.8,3.5,3.9,2.3c2.2-1.3,3.9-4.3,3.9-6.8c0-2.5-1.8-3.5-3.9-2.3    C767.1,983.4,765.3,986.4,765.3,988.9z" clip-rule="evenodd"/><path fill="#fff" fill-rule="evenodd" d="M706.8,1202.2l8.1-4.7c1.2-0.7,2.2-2.6,2.2-4.2v-8.6c0-1.6-1-2.4-2.2-1.7l-8.1,4.7c-1.2,0.7-2.2,2.6-2.2,4.2    v8.6C704.6,1202.1,705.6,1202.9,706.8,1202.2z" clip-rule="evenodd"/><path fill="#fff" fill-rule="evenodd" d="M706.8,1029.9l8.1-4.7c1.2-0.7,2.2-2.6,2.2-4.2v-8.6c0-1.6-1-2.4-2.2-1.7l-8.1,4.7c-1.2,0.7-2.2,2.6-2.2,4.2    v8.6C704.6,1029.9,705.6,1030.6,706.8,1029.9z" clip-rule="evenodd"/><path fill="#6e96ce" fill-rule="evenodd" d="M695.1,1284.6l170.8-98.6c3.8-2.2,6.9-8.1,6.9-13.2v-32.6c0-5.1-3.1-7.4-6.9-5.2l-170.8,98.6    c-3.8,2.2-6.9,8.1-6.9,13.2v32.6C688.2,1284.5,691.3,1286.8,695.1,1284.6z" clip-rule="evenodd"/><path fill="#6e96ce" fill-rule="evenodd" d="M695.1,1112.4l170.8-98.6c3.8-2.2,6.9-8.1,6.9-13.2V968c0-5.1-3.1-7.4-6.9-5.2l-170.8,98.6    c-3.8,2.2-6.9,8.1-6.9,13.2v32.6C688.2,1112.2,691.3,1114.6,695.1,1112.4z" clip-rule="evenodd"/><path fill="#a0c6e9" fill-rule="evenodd" d="M698.6,1273.6c-1.3,0-2.1-1.1-2.1-3.1v-24.5c0-2.6,1.6-5.6,3.5-6.7l161-92.9c0.5-0.3,1-0.4,1.4-0.4    c1.2,0,2.1,1.1,2.1,3.1v24.5c0,2.6-1.6,5.6-3.5,6.7l-161,92.9C699.5,1273.5,699.1,1273.6,698.6,1273.6z" clip-rule="evenodd"/><path fill="#a0c6e9" fill-rule="evenodd" d="M698.6,1101.4c-1.3,0-2.1-1.2-2.1-3.1v-24.5c0-2.6,1.6-5.6,3.5-6.7l161-92.9c0.5-0.3,1-0.4,1.4-0.4    c1.2,0,2.1,1.1,2.1,3.1v24.5c0,2.6-1.6,5.6-3.5,6.7L700,1101C699.5,1101.2,699.1,1101.4,698.6,1101.4z" clip-rule="evenodd"/><path fill="#fff" fill-rule="evenodd" d="M827.5,1187.3l24-13.9c1.9-1.1,3.4-4,3.4-6.5c0-2.5-1.5-3.7-3.4-2.6l-24,13.9c-1.9,1.1-3.4,4-3.4,6.5    C824,1187.2,825.6,1188.4,827.5,1187.3z" clip-rule="evenodd"/><path fill="#fff" fill-rule="evenodd" d="M827.5,1015l24-13.9c1.9-1.1,3.4-4,3.4-6.5c0-2.5-1.5-3.7-3.4-2.6l-24,13.9c-1.9,1.1-3.4,4-3.4,6.5    C824,1014.9,825.6,1016.1,827.5,1015z" clip-rule="evenodd"/><path fill="#fff" fill-rule="evenodd" d="M807,1194.6c0,2.5,1.8,3.5,3.9,2.3c2.2-1.3,3.9-4.3,3.9-6.8c0-2.5-1.8-3.5-3.9-2.3    C808.7,1189,807,1192,807,1194.6z" clip-rule="evenodd"/><path fill="#fff" fill-rule="evenodd" d="M807,1022.3c0,2.5,1.8,3.5,3.9,2.3c2.2-1.3,3.9-4.3,3.9-6.8c0-2.5-1.8-3.5-3.9-2.3    C808.7,1016.7,807,1019.8,807,1022.3z" clip-rule="evenodd"/><path fill="#fff" fill-rule="evenodd" d="M793.1,1202.6c0,2.5,1.8,3.5,3.9,2.3c2.2-1.3,3.9-4.3,3.9-6.8c0-2.5-1.8-3.5-3.9-2.3    C794.9,1197,793.1,1200.1,793.1,1202.6z" clip-rule="evenodd"/><path fill="#fff" fill-rule="evenodd" d="M793.1,1030.3c0,2.5,1.8,3.5,3.9,2.3c2.2-1.3,3.9-4.3,3.9-6.8c0-2.5-1.8-3.5-3.9-2.3    C794.9,1024.7,793.1,1027.8,793.1,1030.3z" clip-rule="evenodd"/><path fill="#fff" fill-rule="evenodd" d="M779.2,1210.6c0,2.5,1.8,3.5,3.9,2.3c2.2-1.3,3.9-4.3,3.9-6.8c0-2.5-1.8-3.5-3.9-2.3    C781,1205,779.2,1208.1,779.2,1210.6z" clip-rule="evenodd"/><path fill="#fff" fill-rule="evenodd" d="M779.2,1038.3c0,2.5,1.8,3.5,3.9,2.3c2.2-1.3,3.9-4.3,3.9-6.8c0-2.5-1.8-3.5-3.9-2.3    C781,1032.8,779.2,1035.8,779.2,1038.3z" clip-rule="evenodd"/><path fill="#fff" fill-rule="evenodd" d="M765.3,1218.6c0,2.5,1.8,3.5,3.9,2.3c2.2-1.3,3.9-4.3,3.9-6.8c0-2.5-1.8-3.5-3.9-2.3    C767.1,1213,765.3,1216.1,765.3,1218.6z" clip-rule="evenodd"/><path fill="#fff" fill-rule="evenodd" d="M765.3,1046.3c0,2.5,1.8,3.5,3.9,2.3c2.2-1.3,3.9-4.3,3.9-6.8c0-2.5-1.8-3.5-3.9-2.3    C767.1,1040.8,765.3,1043.8,765.3,1046.3z" clip-rule="evenodd"/><path fill="#fff" fill-rule="evenodd" d="M706.8,1259.6l8.1-4.7c1.2-0.7,2.2-2.6,2.2-4.2v-8.6c0-1.6-1-2.3-2.2-1.7l-8.1,4.7c-1.2,0.7-2.2,2.6-2.2,4.2    v8.6C704.6,1259.5,705.6,1260.3,706.8,1259.6z" clip-rule="evenodd"/><path fill="#fff" fill-rule="evenodd" d="M706.8,1087.3l8.1-4.7c1.2-0.7,2.2-2.6,2.2-4.2v-8.6c0-1.6-1-2.4-2.2-1.7l-8.1,4.7c-1.2,0.7-2.2,2.6-2.2,4.2    v8.6C704.6,1087.3,705.6,1088,706.8,1087.3z" clip-rule="evenodd"/><path fill="#6e96ce" fill-rule="evenodd" d="M695.1,1342.1l170.8-98.6c3.8-2.2,6.9-8.1,6.9-13.2v-32.6c0-5.1-3.1-7.4-6.9-5.2L695.1,1291    c-3.8,2.2-6.9,8.1-6.9,13.2v32.6C688.2,1341.9,691.3,1344.3,695.1,1342.1z" clip-rule="evenodd"/><path fill="#a0c6e9" fill-rule="evenodd" d="M698.6,1331.1c-1.3,0-2.1-1.1-2.1-3.1v-24.5c0-2.6,1.6-5.6,3.5-6.7l161-92.9c0.5-0.3,1-0.4,1.4-0.4    c1.2,0,2.1,1.2,2.1,3.1v24.5c0,2.6-1.6,5.6-3.5,6.7l-161,92.9C699.5,1330.9,699.1,1331.1,698.6,1331.1z" clip-rule="evenodd"/><path fill="#fff" fill-rule="evenodd" d="M827.5,1244.7l24-13.9c1.9-1.1,3.4-4,3.4-6.5c0-2.5-1.5-3.7-3.4-2.6l-24,13.9c-1.9,1.1-3.4,4-3.4,6.5    C824,1244.6,825.6,1245.8,827.5,1244.7z" clip-rule="evenodd"/><path fill="#fff" fill-rule="evenodd" d="M802.6,1255.1c0,4.7,3.3,6.7,7.4,4.3c4.1-2.4,7.4-8.1,7.4-12.9c0-4.7-3.3-6.7-7.4-4.3    C805.9,1244.6,802.6,1250.3,802.6,1255.1z" clip-rule="evenodd"/><path fill="#fff" fill-rule="evenodd" d="M773.8,1271.9c0,2.5,1.8,3.5,3.9,2.3c2.2-1.3,3.9-4.3,3.9-6.8c0-2.5-1.8-3.5-3.9-2.3    C775.6,1266.3,773.8,1269.4,773.8,1271.9z" clip-rule="evenodd"/><path fill="#fff" fill-rule="evenodd" d="M759.9,1279.9c0,2.5,1.8,3.5,3.9,2.3c2.2-1.3,3.9-4.3,3.9-6.8c0-2.5-1.8-3.5-3.9-2.3    C761.7,1274.4,759.9,1277.4,759.9,1279.9z" clip-rule="evenodd"/><path fill="#fff" fill-rule="evenodd" d="M746,1287.9c0,2.5,1.8,3.5,3.9,2.3c2.2-1.3,3.9-4.3,3.9-6.8c0-2.5-1.8-3.5-3.9-2.3    C747.8,1282.4,746,1285.4,746,1287.9z" clip-rule="evenodd"/><path fill="#fff" fill-rule="evenodd" d="M706.8,1317l8.1-4.7c1.2-0.7,2.2-2.6,2.2-4.2v-8.6c0-1.6-1-2.3-2.2-1.6l-8.1,4.7c-1.2,0.7-2.2,2.6-2.2,4.2    v8.6C704.6,1317,705.6,1317.7,706.8,1317z" clip-rule="evenodd"/></g><g><path fill="#80a8d8" fill-rule="evenodd" d="M1119.9,1484.4c-53,30.6-65.8,75.6-38.4,113.1c8.7,12,21.5,23.2,38.4,32.9c44.2,25.5,105.7,34.8,162.6,28.1    l25.9-197.8C1244.9,1447.1,1170.9,1455,1119.9,1484.4z" clip-rule="evenodd"/><path fill="#8eb6e1" fill-rule="evenodd" d="M1372.7,1484.4c-18.8-10.9-40.9-18.8-64.3-23.8l-25.9,197.8c7.5-0.9,14.9-2,22.2-3.5    c24.9-4.9,48.2-13.1,68.1-24.6C1442.6,1590.1,1442.6,1524.7,1372.7,1484.4z" clip-rule="evenodd"/><polygon fill="#a0c6e9" fill-rule="evenodd" points="1247.2 1446.8 1366 1369.5 1366 1484.6 1247.2 1561.9" clip-rule="evenodd"/><rect width="179.7" height="115.1" x="1067.5" y="1446.8" fill="#80a8d8" fill-rule="evenodd" clip-rule="evenodd"/><polygon fill="#8eb6e1" fill-rule="evenodd" points="1303.5 1561.9 1247.2 1465.7 1247.2 1580.8 1304.7 1583.7" clip-rule="evenodd"/><polygon fill="#8eb6e1" fill-rule="evenodd" points="1425.1 1464.1 1367.7 1439.5 1367.7 1554.5 1425.1 1557.4" clip-rule="evenodd"/><path fill="#c9e3f6" fill-rule="evenodd" d="M1372.7,1537.1c-20.1,11.7-43.9,19.9-69.3,24.8l-56.3-96.5l118.8-77.4l0.5-0.3c2.1,1.1,4.2,2.2,6.2,3.4    C1442.6,1431.5,1442.6,1496.8,1372.7,1537.1z" clip-rule="evenodd"/><path fill="#b7d9f2" fill-rule="evenodd" d="M1366,1369.5l-118.8,77.4l-164.3,41.3c-29.2-37.9-16.9-83.9,36.9-114.9    C1187.5,1334.1,1295.9,1332.9,1366,1369.5z" clip-rule="evenodd"/><path fill="#a0c6e9" fill-rule="evenodd" d="M1304.7,1583.7v71.3c-62.6,12.5-134.8,4.3-184.7-24.6c-16.9-9.7-29.7-20.9-38.4-32.9l0-71.4L1304.7,1583.7z" clip-rule="evenodd"/><path fill="#b7d9f2" fill-rule="evenodd" d="M1304.7,1583.7c-62.6,12.4-134.8,4.2-184.7-24.6c-16.9-9.7-29.7-20.9-38.4-32.9l165.7-41l56.3,96.5    L1304.7,1583.7z" clip-rule="evenodd"/></g><g><polygon fill="#8eb6e1" fill-rule="evenodd" points="1006.8 1176.3 999.9 1180.3 971.5 976.7 978.4 972.7" clip-rule="evenodd"/><polygon fill="#a0c6e9" fill-rule="evenodd" points="999.9 1180.3 992.6 1175.8 964.7 976.9 971.5 976.7" clip-rule="evenodd"/><polygon fill="#8eb6e1" fill-rule="evenodd" points="1134 1102.5 1127.1 1106.5 1098.7 903 1105.6 899" clip-rule="evenodd"/><polygon fill="#a0c6e9" fill-rule="evenodd" points="1127.1 1106.5 1119.8 1102.1 1091.9 903.1 1098.7 903" clip-rule="evenodd"/><path fill="#a0c6e9" fill-rule="evenodd" d="M931.6,968.3l-22.3,159.7l6.9,4L938.7,971C936.2,970.4,933.8,969.5,931.6,968.3z" clip-rule="evenodd"/><path fill="#8eb6e1" fill-rule="evenodd" d="M941.4,971.7c-0.9-0.2-1.8-0.4-2.7-0.7l-22.5,160.9l7.3-4.5l21.9-156C944.1,971.8,942.8,971.9,941.4,971.7z" clip-rule="evenodd"/><polygon fill="#8eb6e1" fill-rule="evenodd" points="1037.7 1054 1044.6 1057.9 1073 854.4 1066.1 850.4" clip-rule="evenodd"/><polygon fill="#a0c6e9" fill-rule="evenodd" points="1044.6 1057.9 1051.8 1053.5 1079.8 854.5 1073 854.4" clip-rule="evenodd"/><polygon fill="#a0c6e9" fill-rule="evenodd" points="1091.4 665.1 1091.4 894.6 944.7 980.2 944.7 749.9" clip-rule="evenodd"/><polygon fill="#fff" fill-rule="evenodd" points="1078.7 686.6 1078.7 876.5 957.3 947.3 957.3 756.7" clip-rule="evenodd"/><polygon fill="#8eb6e1" fill-rule="evenodd" points="944.7 749.9 937.4 745.8 937.4 976 944.7 980.2" clip-rule="evenodd"/><polygon fill="#b7d9f2" fill-rule="evenodd" points="1091.4 665.1 1084.1 661.1 937.4 745.8 944.7 749.9" clip-rule="evenodd"/><polygon fill="#b7d9f2" fill-rule="evenodd" points="923.4 954.2 937.4 945.2 937.4 966.7 954.5 976.4 954.5 988.4 930.5 970.5 930.8 958.6" clip-rule="evenodd"/><polygon fill="#a0c6e9" fill-rule="evenodd" points="954.5 985 1115.4 892 1115.4 901 954.5 994.3" clip-rule="evenodd"/><polygon fill="#8eb6e1" fill-rule="evenodd" points="923.4 954.2 930.8 958.6 930.5 970.5 954.5 985 954.5 994.3 923.4 975.8" clip-rule="evenodd"/><polygon fill="#b7d9f2" fill-rule="evenodd" points="954.5 985 938.2 974.6 1091.4 886 1091.4 878.4 1115.4 892" clip-rule="evenodd"/><polygon fill="#a0c6e9" fill-rule="evenodd" points="930.5 970.5 937.4 966.7 937.4 954.9 930.8 958.6" clip-rule="evenodd"/><path fill="#b7d9f2" fill-rule="evenodd" d="M1068.3,759.5c0,15.6-9.5,33.8-21.2,40.5v-56.6C1058.8,736.7,1068.3,743.9,1068.3,759.5z" clip-rule="evenodd"/><path fill="#8eb6e1" fill-rule="evenodd" d="M1025.8,784c0-15.6,9.5-33.8,21.2-40.5v56.6C1035.3,806.8,1025.8,799.7,1025.8,784z" clip-rule="evenodd"/><path fill="#b7d9f2" fill-rule="evenodd" d="M994.7,907c-11.7,6.8-21.2-0.4-21.2-16l42.4-24.5C1016,882.1,1006.5,900.2,994.7,907z" clip-rule="evenodd"/><path fill="#b7d9f2" fill-rule="evenodd" d="M1047,820.2v28.3l0.1-0.1l15.7,9.7c-3.9,8.1-9.5,15.1-15.9,18.7c-11.7,6.8-21.2-0.4-21.2-16    C1025.8,845.2,1035.3,827,1047,820.2z" clip-rule="evenodd"/><path fill="#a0c6e9" fill-rule="evenodd" d="M1068.3,836.3c0,7.2-2,14.9-5.4,21.8l-15.7-9.7C1047.2,848.5,1062.9,839.4,1068.3,836.3z" clip-rule="evenodd"/><path fill="#8eb6e1" fill-rule="evenodd" d="M1047,820.2c4.8-2.8,9.2-3.2,12.8-1.6c0.8,0.3,1.5,0.7,2.2,1.2c3.8,2.9,6.2,8.6,6.2,16.4l-21.1,12.2l-0.1-0.1    l-15.7-9.7C1035.2,830.7,1040.8,823.9,1047,820.2z" clip-rule="evenodd"/><path fill="#a0c6e9" fill-rule="evenodd" d="M1047,848.5l-21.2,12.3c0-7.3,2.1-15.1,5.5-22.1l15.7,9.7V848.5z" clip-rule="evenodd"/><polygon fill="#1773b6" fill-rule="evenodd" points="1047.2 848.5 1047 848.5 1047 848.4" clip-rule="evenodd"/><path fill="#a0c6e9" fill-rule="evenodd" d="M994.7,773.7c11.7-6.8,21.2,0.4,21.2,16L994.7,802V773.7z" clip-rule="evenodd"/><path fill="#8eb6e1" fill-rule="evenodd" d="M973.5,814.2c0-15.6,9.5-33.8,21.2-40.5V802L973.5,814.2z" clip-rule="evenodd"/><path fill="#a0c6e9" fill-rule="evenodd" d="M994.7,830.3V802l21.2-12.2C1016,805.3,1006.5,823.5,994.7,830.3z" clip-rule="evenodd"/><path fill="#b7d9f2" fill-rule="evenodd" d="M994.7,830.3c-11.7,6.8-21.2-0.4-21.2-16l21.2-12.3V830.3z" clip-rule="evenodd"/><path fill="#a0c6e9" fill-rule="evenodd" d="M1016,866.5l-20.8,12v-28.3C1006.7,843.8,1016,851,1016,866.5z" clip-rule="evenodd"/><path fill="#b7d9f2" fill-rule="evenodd" d="M994.7,850.4c0.1-0.1,0.2-0.1,0.4-0.2v28.3L973.5,891C973.5,875.3,983,857.2,994.7,850.4z" clip-rule="evenodd"/><polygon fill="#b7d9f2" fill-rule="evenodd" points="975 765 1061 715.4 1061 707.6 975 757.2" clip-rule="evenodd"/></g><g><path fill="#f4ae92" fill-rule="evenodd" d="M1296.5,1019.1c-0.3-0.9-1-1.6-1.7-2.2c-1.4-1.4-8.6-6.9-10.6-8.5c-2-1.6-5-4.4-4.8-7    c0.1-1.6,2.2-2.2,3.2-2.8c3.7-2.3,4.5-3.7,3.4-4.6c-0.9-0.8-3.7,0.2-4.9,0.4c-3.2,0.6-8.9,2.4-12.7-1.1    c-4.6-5.9-25.1-33.8-25.1-33.8c-2.3-6.8-5.5-18-7.8-28.5c-8.1,0-14.4-1.8-22.4-0.9c4.1,14.4,9,28.8,12.8,37.3    c1.6,3.4,32.8,35.7,32.8,35.7s1,8,6.8,13.2c3.7,3.3,4.6,8.7,7.6,11.5c1.6,1.4,3.5,0.7,2.9-1.4c-0.8-2.9-3.6-6.3-3.5-6.9    c0.5-0.2,4.1,4.2,4.5,4.6c1.1,1.2,2.3,2.5,3.5,3.6c1.5,1.4,3.4,3.3,4.9,1.8c0.6-0.6,0.3-1.1-0.1-1.8c-0.6-1-8.4-10.1-8-10.9    c1.1-0.5,10.4,9.3,13.1,11.4c1.7,1.3,4.2-0.8,2.6-2.8c-0.8-0.9-11.7-11.1-11.9-12.1l0.4-0.9c0.6-0.2,11.3,8.1,11.8,8.4    c0.7,0.5,1.6,1.1,2.4,0.8C1296.4,1021.1,1296.7,1020,1296.5,1019.1z" clip-rule="evenodd"/><path fill="#4385c6" fill-rule="evenodd" d="M1192.8,1213.7c0.2,3-0.7,6.6-1.7,7.4c-3.4,2.7-22.5,14.4-30.9,15.6c-9.6,1.3-15.8-3.5-16.1-6.8    c-0.2-1.7-0.2-3.5,0.5-5.5c0.9-2.6,10.4-7.7,21.5-13.4c8.4-4.3,12.6-7.8,18.5-6.4C1189.8,1205.8,1192.5,1208.5,1192.8,1213.7z" clip-rule="evenodd"/><path fill="#101e3b" fill-rule="evenodd" d="M1159.6,1233.1c8.4-1.2,27.6-12.8,31-15.5c0.8-0.7,1.7-2,2.2-3.2c0.2,3.1-0.7,6.1-1.7,6.9    c-3.4,2.7-22.5,14.4-30.9,15.6c-9.6,1.3-15.9-3.5-16.2-6.8c-0.1-0.9-0.1-1.3-0.1-2.3C1145.6,1230.8,1151.4,1234.3,1159.6,1233.1z" clip-rule="evenodd"/><path fill="#f09172" fill-rule="evenodd" d="M1187.9,1178.6c1.5-16.5,10.6-31.5,6.6-47.5c-0.8-3.1-2-6.2-2.2-9.5c-0.2-3.4,0.8-6.7,1.1-10.1    c0.3-3.4-0.1-7.1-2.5-9.5l-35.9-2.4c0.8,7,1.6,14.2,4.7,20.5c0.8,1.6,1.7,3.2,2.4,4.8c1,2.6,1.2,5.5,1.4,8.3    c1.6,20,5.8,39.6,9.3,59.4c0.9,5,2.3,11-0.2,15.3c0,0-1.2,1.1-3.6,3.5c-1.8,1.8,1.1,4.4,3.5,5.2c4,1.3,15.7-5,16.3-7.5    c0.5-1.8-0.7-2.8-0.9-4.1C1186.2,1197,1187.1,1186.9,1187.9,1178.6z" clip-rule="evenodd"/><path fill="#101e3b" fill-rule="evenodd" d="M1196.2,1241.5c0.1,4.9,0.1,9.7,0.3,13.2c0.6,8,22.6,6.1,22.2-0.8c-0.1-2.4-0.4-6.3-0.8-10.6L1196.2,1241.5z    " clip-rule="evenodd"/><path fill="#4385c6" fill-rule="evenodd" d="M1212.9,1215.2c-2.8-3.3-8.8-2.7-13-1.6c-4.3,0.7-4.1,11.8-3.9,22.4c0.1,5.1,0.1,10.2,0.3,13.9    c0.6,8,22.6,6.1,22.2-0.8C1218.2,1241.6,1216.6,1219.7,1212.9,1215.2z" clip-rule="evenodd"/><path fill="#f4ae92" fill-rule="evenodd" d="M1186.6,1148.3c0.1,8.1,3.5,17.6,5.8,25.3c3.5,11.9,5.2,24.1,6,36.5c0.2,3.8,0.4,8.9,1,13    c0.4,3.2,3.2,5.5,6.4,5.5c3.4,0,6.3-2.7,6.4-6.1c0-0.9,0.1-1.7,0-2.1c-0.1-1.9-0.7-3.8-1.1-5.7c-2.6-12.5,5-45.3,6.3-57    c0.8-7,1.3-14.3-1.1-21c-1.9-5.4-3-10.1-4-15.7c-1.3-7.5,2.4-15,2.2-22.6c-5-60-17.8-25.9-30.8,10.9c3.9,6.6,5.6,14.5,5,22.1    C1188.2,1137.2,1186.5,1142.7,1186.6,1148.3z" clip-rule="evenodd"/><path fill="#103e7d" fill-rule="evenodd" d="M1212.6,1002.5l-62.6-3.3c-10.2,10.2-19.4,45.4,4.9,112.9c4.4,6.7,31.1,8.9,46.7,6.1l2.9-32.7l3.1,31.7    c4-1.1,5.6-2.3,6-4.3C1231.7,1034.8,1218,1012,1212.6,1002.5z" clip-rule="evenodd"/><path fill="#f4ae92" fill-rule="evenodd" d="M1141.1,907.3c-6.1,16.8-15,48.3-15,48.3c-10.5,4-34.3,11.3-34.3,11.3c-2.5-0.9-8-2-10.5-2    c-1.6,0-8.2,0.9-9.4,1.9c-1.1,0.9-5.2,4.1-5.2,4.1c-0.9,0.6-8.9,4.6-12.8,6.4c-1.4,0.7-5.8,2.5-3.2,5.2c1.7,1.8,15-4.8,15-4.8    c1.1,2.6,5.6,8.9,7.3,10.1c5.2,3.6,14.1-1.4,15.2-2.1c1.8-1.2,4.1-3.5,9.2-5.8c8.4-2.2,26.9-7.1,41.9-10.6c2.3-0.5,4.2-1.5,5-3.7    c8.9-23.4,14.9-45.8,14.9-45.8S1141.4,906.6,1141.1,907.3z" clip-rule="evenodd"/><path fill="#2f73b7" fill-rule="evenodd" d="M1131.5,926.7c-1.1-1.1-1.8-2.2-1.9-3.2c-0.1-0.4,0.7-2.6,1.9-5.6l0.1-0.4l0.1-0.4l0.1-0.4l0.1-0.4l0.1-0.4    l0.1-0.4l0.1-0.4l0.1-0.4l0.1-0.4l0.1-0.4l0.1-0.4l0.1-0.4l0.1-0.4l0.1-0.4l0.1-0.4l0.1-0.4l0.1-0.4l0.1-0.4l0.1-0.4l0.1-0.4    l0.1-0.4l0.1-0.4l0.1-0.4l0.1-0.4l0.1-0.4l0.1-0.4l0.1-0.4l0.1-0.4l0.1-0.3l0.1-0.4l0.1-0.4l0.1-0.4l0.1-0.4l0.1-0.3l0.1-0.4    l0.1-0.4l0.1-0.4l0.1-0.3l0.1-0.4l0.1-0.4l0.1-0.3l0.1-0.4l0.1-0.4l0.1-0.4l0.1-0.3l0.1-0.4l0.1-0.3l0.1-0.3l0.1-0.4l0.1-0.3    l0.1-0.3l0.1-0.4l0.1-0.3l0.1-0.3l0.1-0.3l0.1-0.4l0.1-0.3l0.1-0.3l0.1-0.3l0.1-0.3l0.1-0.3l0.1-0.3l0.1-0.3l0.1-0.3l0.1-0.3    l0.1-0.3l0.1-0.3l0.1-0.3l0.1-0.3l0.1-0.3l0.1-0.3l0.1-0.3l0-0.1l0.1-0.3l0.1-0.3l0.1-0.3l0.1-0.2l0.1-0.2l0.1-0.2l0.1-0.2    l0.1-0.2l0.1-0.2l0.1-0.2l0.1-0.2l0.1-0.2l0.1-0.2l0.1-0.2l0.1-0.2l0.1-0.1l0.1-0.1l0.1-0.1l0.1-0.1l0.1-0.1l0.1-0.1l0.1-0.1    l0.1-0.1l0.1-0.1l0.1-0.1l0.1-0.1l0.1-0.1l0.1-0.1l0.1-0.1l0.1-0.1l0.1-0.1l0.1-0.1l0.1-0.1l0.1-0.1l0.1-0.1l0.1-0.1l0.1-0.1    l0.1-0.1l0.1-0.1l0.1-0.1l0.1-0.1l0.1-0.1l0.1-0.1l0.1-0.1l0.1-0.1l0.1-0.1l0.1-0.1l0.1-0.1l0.1-0.1l0.1-0.1l0.1-0.1l0.1-0.1    l0.1-0.1l0.1-0.1l0.1-0.1l0.1-0.1l0.1-0.1l0.1-0.1l0.1-0.1l0.1-0.1l0.1-0.1l0.1-0.1l0.1-0.1l0.1-0.1l0.1-0.1l0.1-0.1l0.1-0.1    l0.1-0.1l0.1,0l0.1-0.1l0.1,0l0.1,0l0.1,0l0.1,0l0.1,0l0.1,0l0.1,0l0.1,0l0.1,0l0.1,0l0.1,0l0.1,0l0.1,0l0.1,0l0.1,0l0.1,0l0.1,0    l0.1,0l0.1,0l0.1,0l0.1,0l0.1,0l0.1,0l0.1,0l0.1,0l0.1,0l0.1,0l0.1,0l0.1,0l0.1,0l0.1,0l0.1,0l0.1,0l0.1,0l0.1,0l0.1,0l0.1,0    l0.1,0h0.1l0.1,0l0.1,0l0.1,0l0.1,0l0.1,0l0.1,0l0.1,0l0.1,0l0.1,0l0.1,0l0.1,0l0.1,0l0.1,0l0.1,0l0.1,0l0.1,0l0.1,0l0.1,0l0.1,0    l0.1,0l0.1,0l0.1,0l0.1,0.1l0.1,0.1l0.1,0.1l0.1,0.1l0.1,0.1l0.1,0.1l0.1,0.1l0.1,0.1l0.1,0.1l0.1,0.1l0.1,0.1l0.1,0.1l0.1,0.1    l0.1,0.1l0.1,0.1l0.1,0.1l0.1,0.1l0.1,0.1l0.1,0.1l0.1,0.1l0.1,0.1l0.1,0.1l0.1,0.1l0.1,0.1l0.1,0.1l0.1,0.1l0.1,0.1l0.1,0.1    l0.1,0.1l0.1,0.2l0.1,0.2l0.1,0.2l0.1,0.2v14.1l-0.1,0.2l-0.1,0.2l-0.1,0.2l-0.1,0.1l-0.1,0.1l-0.1,0.2l-0.1,0.2l-0.1,0.2    l-0.1,0.2l-0.1,0.2l-0.1,0.2l-0.1,0.2l-0.1,0.2l-0.1,0.2l-0.1,0.2l-0.1,0.2l-0.1,0.2l-0.1,0.2l-0.1,0.2l-0.1,0.3l-0.1,0.3    l-0.1,0.3l-0.1,0.3l-0.1,0.3l-0.1,0.3l-0.1,0.3l-0.1,0.3l-0.1,0.3l-0.1,0.3l-0.1,0.3l-0.1,0.3l-0.1,0.3l-0.1,0.4l-0.1,0.4    l-0.1,0.4l-0.1,0.4l-0.1,0.4l-0.1,0.4l-0.1,0.4l-0.1,0.4l-0.1,0.4l-0.1,0.4l-0.1,0.5l-0.1,0.5l-0.1,0.5l-0.1,0.5l-0.1,0.5    l-0.1,0.5l-0.1,0.5l-0.1,0.5l-0.1,0.6l-0.1,0.6l-0.1,0.6l-0.1,0.6l-0.1,0.6l-0.1,0.6l-0.1,0.6l-0.1,0.6l-0.1,0.7l-0.1,0.7    l-0.1,0.7l-0.1,0.7l-0.1,0.7l-0.1,0.7l-0.1,0.7l-0.1,0.7l-0.1,0.7l-0.1,0.7l-0.1,0.6l-0.1,0.6l-0.1,0.6l-0.1,0.6l-0.1,0.5    l-0.1,0.5l-0.1,0.5l-0.1,0.4l-0.1,0.4l-0.1,0.3l-0.1,0.2l0,0.1c0,0.1-0.1,0.1-0.1,0.2c0,0.1-0.1,0.1-0.1,0.2l-0.1,0.1l-0.1,0.1    l-0.1,0.1l-0.1,0.1l-0.1,0.1l-0.1,0.1l-0.1,0l-0.1,0.1l-0.1,0l-0.1,0l-0.1,0l-0.1,0l-0.1,0l-0.1,0l-0.1,0l-0.1,0l-0.1,0l-0.1,0    l-0.1,0l-0.1,0h-0.1h-0.1l-0.1,0l-0.1,0l-0.1,0l-0.1,0l-0.1,0l-0.1,0l-0.1,0l-0.1,0l-0.1,0l-0.1,0l-0.1,0l-0.1,0l-0.1,0l-0.1,0    l-0.1,0l-0.1,0l-0.1,0l-0.1,0l-0.1,0l-0.1,0l-0.1,0l-0.1,0l-0.1,0l-0.1,0l-0.1,0l-0.1,0l-0.1,0l-0.1,0l-0.1,0l-0.1,0l-0.1,0    l-0.1,0l-0.1,0l-0.1,0l-0.1,0l-0.1,0l-0.1,0l-0.1,0l-0.1,0l-0.1,0l-0.1,0l-0.1,0l-0.1,0l-0.1,0l-0.1,0l-0.1,0l-0.1,0l-0.1-0.1    l-0.1-0.1l-0.1,0l-0.1,0l-0.1-0.1l-0.1-0.1l-0.1-0.1l-0.1-0.1l-0.1-0.1l-0.1-0.1l-0.1-0.1l-0.1-0.1l-0.1-0.1l-0.1-0.1l-0.1-0.1    l-0.1-0.1l-0.1-0.1l-0.1-0.1l-0.1-0.1l-0.1-0.1l-0.1-0.1l-0.1-0.1l-0.1-0.1l-0.1-0.1l-0.1-0.1l-0.1-0.1l-0.1-0.1l-0.1-0.1    l-0.1-0.1l-0.1-0.1l-0.1-0.1l-0.1-0.1l-0.1-0.1l-0.1-0.1l-0.1-0.1l-0.1-0.1l-0.1-0.1l-0.1-0.1l-0.1-0.1l-0.1-0.1l-0.1-0.1    l-0.1-0.1l-0.1-0.1l-0.1-0.1l-0.1-0.1l-0.1-0.1l-0.1-0.1l-0.1-0.1l-0.1-0.1l-0.1-0.1l-0.1-0.1l-0.1-0.1l-0.1-0.1l-0.1-0.1    l-0.1-0.1l-0.1-0.1l-0.1-0.1l-0.1-0.1l-0.1-0.1l-0.1-0.1l-0.1-0.1l-0.1-0.1l-0.1-0.1l-0.1-0.1l-0.1-0.1l-0.1-0.1l-0.1-0.1    l-0.1-0.1l-0.1-0.1l-0.1-0.1l-0.1-0.1l-0.1-0.1l-0.1-0.1l-0.1-0.1l-0.1-0.1l-0.1-0.1l-0.1-0.1l-0.1-0.1l-0.1-0.1l-0.1-0.1    l-0.1-0.1l-0.1-0.1l-0.1-0.1l-0.1-0.1l-0.1-0.1L1131.5,926.7z" clip-rule="evenodd"/><polygon fill="#f3d067" fill-rule="evenodd" points="1165.6 887.5 1165.6 901.3 1165.4 901.5 1165.4 887.3" clip-rule="evenodd"/><polygon fill="#f3d067" fill-rule="evenodd" points="1165.7 887.7 1165.7 901.1 1165.6 901.3 1165.6 887.5" clip-rule="evenodd"/><polygon fill="#f3d067" fill-rule="evenodd" points="1165.9 887.9 1165.9 900.8 1165.7 901.1 1165.7 887.7" clip-rule="evenodd"/><polygon fill="#f3d067" fill-rule="evenodd" points="1166 888.1 1166 900.6 1165.9 900.8 1165.9 887.9" clip-rule="evenodd"/><polygon fill="#f3d067" fill-rule="evenodd" points="1166.2 888.4 1166.2 900.4 1166 900.6 1166 888.1" clip-rule="evenodd"/><polygon fill="#f3d067" fill-rule="evenodd" points="1166.3 888.6 1166.3 900.1 1166.2 900.4 1166.2 888.4" clip-rule="evenodd"/><polygon fill="#f3d067" fill-rule="evenodd" points="1166.4 888.9 1166.4 899.9 1166.3 900.1 1166.3 888.6" clip-rule="evenodd"/><polygon fill="#f4d064" fill-rule="evenodd" points="1166.6 889.1 1166.6 899.6 1166.4 899.9 1166.4 888.9" clip-rule="evenodd"/><polygon fill="#f4d064" fill-rule="evenodd" points="1166.7 889.4 1166.7 899.3 1166.6 899.6 1166.6 889.1" clip-rule="evenodd"/><polygon fill="#f4d064" fill-rule="evenodd" points="1166.9 889.7 1166.9 898.9 1166.7 899.3 1166.7 889.4" clip-rule="evenodd"/><polygon fill="#f4d064" fill-rule="evenodd" points="1167 890.1 1167 898.6 1166.9 898.9 1166.9 889.7" clip-rule="evenodd"/><polygon fill="#f4d064" fill-rule="evenodd" points="1167.2 890.5 1167.2 898.2 1167 898.6 1167 890.1" clip-rule="evenodd"/><polygon fill="#f3ce64" fill-rule="evenodd" points="1167.3 890.9 1167.3 897.7 1167.2 898.2 1167.2 890.5" clip-rule="evenodd"/><path fill="#f3ce64" fill-rule="evenodd" d="M1167.5,891.4v5.8c0,0.2-0.1,0.3-0.1,0.5v-6.9C1167.4,891.1,1167.4,891.2,1167.5,891.4z" clip-rule="evenodd"/><path fill="#f3ce64" fill-rule="evenodd" d="M1167.6,892v4.6c0,0.2-0.1,0.4-0.1,0.6v-5.8C1167.5,891.6,1167.6,891.8,1167.6,892z" clip-rule="evenodd"/><path fill="#f3ce64" fill-rule="evenodd" d="M1167.7,892.9v2.8c0,0.3-0.1,0.6-0.1,0.9V892C1167.7,892.3,1167.7,892.6,1167.7,892.9z" clip-rule="evenodd"/><path fill="#f3ce64" fill-rule="evenodd" d="M1167.7,895.7v-2.8C1167.8,893.8,1167.8,894.8,1167.7,895.7z" clip-rule="evenodd"/><path fill="#4385c6" fill-rule="evenodd" d="M1148.7,933.4c-1.9,6.2-5.2,13.1-2.4,19c2.9,6.2,10.7,6.3,7.7,26.5c-1,7-2.8,15.6-6.1,21.8    c-6.3,16.3,67.4,19.7,65.7,4.2c-0.1-4.7-3.2-8.7-5-13c-5-12.1,1.2-26,3.8-38.2c0.7-3.2,2.7-8.7,2.7-20.3    c0-13.1,10.5-27.3,8.1-34.3c-1.2-3.3-55.1-17-67.7-15.4c-9.1,1.2-9,13.8-6.3,21C1152.7,913.8,1151.8,923.2,1148.7,933.4z" clip-rule="evenodd"/><path fill="#2f73b7" fill-rule="evenodd" d="M1228.3,903c-1.7-2.7-1.6-4.3-18.8-8.7l1.8,33.4c2.2,7.6,4.5,15.1,6.7,22.7c0.5,1.6,1,2.2,3,2.3    c8.2,0.2,21.6-3.9,19.8-9.7C1238.8,934.8,1233.4,910.9,1228.3,903z" clip-rule="evenodd"/><path fill="#f4ae92" fill-rule="evenodd" d="M1161.8,894.4c-0.1,3.5,1.7,6.8,3.4,9.9c4.6,8.8,8.1,18.1,10.4,27.7c4.6-10,12.7-18.4,22.5-23.3    c2.4-1.2,5.1-2.3,6.8-4.4c1.8-2.1,2.4-5.5,0.5-7.4c-1-1.1-2.6-1.5-4-1.8c-8.4-2.1-16.8-4.1-25.2-6    C1170.6,887.7,1162,885.3,1161.8,894.4z" clip-rule="evenodd"/><path fill="#f09172" fill-rule="evenodd" d="M1197.1,901.5c-1.2,2.9-3.6,5.3-6.7,6c-9.1,2-22.3-6-19.4-16.9c0.2-0.8,0.6-1.7,1.2-2.2    c2.9-2.7,5-8.2,7.4-17.7c0.8-3.3,4.8-4.5,7.5-2.3c8.5,6.9,13.3,16.4,13.1,22.1C1200,893.9,1198.4,898.5,1197.1,901.5z" clip-rule="evenodd"/><path fill="#101e3b" fill-rule="evenodd" d="M1187.9,828.8c3.7,10.5-1.8,22-12.3,25.8c-10.5,3.7-22-1.8-25.8-12.3c-3.7-10.5,1.8-22,12.3-25.8    C1172.6,812.8,1184.1,818.3,1187.9,828.8z" clip-rule="evenodd"/><path fill="#4385c6" fill-rule="evenodd" d="M1196.5,837.6c3.4,9.6-1.6,20.1-11.2,23.5c-9.6,3.4-20.1-1.6-23.5-11.2c-3.4-9.6,1.6-20.1,11.2-23.5    C1182.6,823,1193.1,828,1196.5,837.6z" clip-rule="evenodd"/><path fill="#f4ae92" fill-rule="evenodd" d="M1196.8,897.5c2.1,0.9,4.6,1.6,6.7,0.6c1.8-0.9,2.7-2.8,3.5-4.6c4.2-10.1,6.6-20.9,6.9-31.9    c0.1-3.7-0.1-7.5-1.9-10.7c-2.9-5.1-9.4-7.2-15.2-7.1c-7.8,0-16.2,3.7-19.6,10.7c-2.4,5-10.6,11.3-10.4,16.7    c0.1,3.3,4.7,8.2,9.8,11.5C1179.5,890.7,1189.4,894.5,1196.8,897.5z" clip-rule="evenodd"/><path fill="#101e3b" fill-rule="evenodd" d="M1181.5,873.3c-2.5,1.6-3.8-0.8-5-2.7c-5.5-9.1-10.5-1.5-7.5,4.3c1.1,2.2,3,3.8,5,5.2    c3.1,2.1,3.4,4.2,3.4,4.2l-4.2,3.1c-14.1-12.8-15.6-26-15.3-33.4c0.2-4.9,1.9-9.8,4.7-13.8c8.4-11.8,26-17.7,38.3-8.2    c11,8.6,12.6,16.3,11.9,20.7c-1.8-1.8-11.3,1-18.4,6.1C1187,864.3,1183.4,872,1181.5,873.3z" clip-rule="evenodd"/></g><g><path fill="#ba2e76" fill-rule="evenodd" d="M1644,1306.2c0-2.7,0-5.5,0-8.2C1644,1300.7,1644,1303.4,1644,1306.2z" clip-rule="evenodd"/><path fill="#101e3b" fill-rule="evenodd" d="M1624.7,1454.7c-0.3-7.9-1.1-16.1-2-24.5l24.1-0.7c-1.4,5.3-2.9,10.4-4.1,15.3c-0.9,12.3,8.3,15.6,2.4,28.4    c-1.1,2.5-4.6,4.6-5.7,5.1c-5.3,1.9-7,5.5-8.7,8.9c-1.1,2.3-2.1,4.5-4.1,6.3c-7.1,6.4-23.6,5.8-27.1,0.3    c-5.1-7.8,17.8-24,24.7-38.1L1624.7,1454.7z" clip-rule="evenodd"/><path fill="#101e3b" fill-rule="evenodd" d="M1559.2,1400c-1.6-0.9-1.6-2.6-3.9-4.5c-1.5,2.9-6.2,5.9-7.7,8.8l-1,0.6c-14.1,8.8-43.7,10.9-43.4,20.7    c0.2,6.9,14.7,16.6,24.7,14.8c2.7-0.5,4.9-1.9,7.1-3.4c3.4-2.2,6.9-4.5,12.8-3.3c1.3,0.2,5.7,0.2,8-1.4c12.1-8.1,6.2-16,13.1-26.3    C1565.5,1403.8,1562.3,1401.7,1559.2,1400z" clip-rule="evenodd"/><path fill="#005098" fill-rule="evenodd" d="M1622.6,1359.9c0,0-3.3-22.2,8.5-44.6c9.3-17.7,48.2-33.8,48.6-33.8c0.4,0,33.7,15.1,31.1,20.7    c-1.4,3.2-52.2,53.7-53.2,56.1c-1.8,4.1-2.2,6.5-1.2,11.1c3.7,18-0.4,70.9-7.2,86.3c-5,11.3-23.4,9.2-26.8,3    C1621.9,1457.6,1622.2,1372.1,1622.6,1359.9c0,0,0,1.3-0.1,2.7C1622.5,1365.3,1622.4,1368,1622.6,1359.9z" clip-rule="evenodd"/><path fill="#103e7d" fill-rule="evenodd" d="M1640.9,1462c2.8-0.3,5.5-1.2,8.3-6.3l0,0c2.1-7.3,5.7-24.2,7.6-43c0.7-9.5,1.1-19,1-27.1l0,0    c-0.1-3.2-0.2-6.2-0.4-8.9c-0.2-2.5-0.6-4.9-1-7.2v0c-1-4.6-0.5-7,1.2-11.1c0.3-0.7,5.3-6,12.1-13c-18.5-2.2-31.7-4.5-32-4.6    c-2.8,9.5-8.4,18.7-15.2,27.2c0,0.5,0,1-0.1,1.5c0,3.7-0.1,8.3-0.1,13.3c10.3-8.4,12.1-31.2,23.1-31.2c1.9,0,4,0.7,6.6,2.2    c3.1,1,0.9,64.9-4.6,89.8C1646.4,1448.1,1643.2,1457.8,1640.9,1462L1640.9,1462z M1641.3,1303.9c12.8-1.7,30-3,44.8-4.3    c-0.3-0.5-0.7-1.1-0.9-1.6c8.8-0.3,16.7-0.6,22.4-1c-7.4-6.1-24.4-14-27.4-15.3C1672.4,1284.9,1653.7,1293.6,1641.3,1303.9z" clip-rule="evenodd"/><path fill="#005098" fill-rule="evenodd" d="M1700,1348.2c-33.1-2.5-62.3-7.6-62.3-7.6c-11.1,37.4-64.6,70.3-71,75.1c-3.8-0.5-13.6-10.7-16.6-15.3    c10.2-16.7,57.6-82.1,73-92.5c9.7-6.5,93.6-8.7,93.7-12.8c0-1.7,20.1-3.9,21.5-3.9c8.1,0,13.1,14.3,9.5,28.6    C1744,1335.1,1730.3,1350.4,1700,1348.2z" clip-rule="evenodd"/><path fill="#c55097" fill-rule="evenodd" d="M1622.5,1367.9C1622.5,1367.8,1622.5,1367.8,1622.5,1367.9C1622.5,1367.8,1622.5,1367.8,1622.5,1367.9    C1622.5,1367.8,1622.5,1367.8,1622.5,1367.9C1622.5,1367.9,1622.5,1367.9,1622.5,1367.9z" clip-rule="evenodd"/><path fill="#973588" fill-rule="evenodd" d="M1622.5,1367.8c6.8-8.5,12.4-17.7,15.2-27.2c0,0,0,0,0,0C1634.9,1350.1,1629.3,1359.3,1622.5,1367.8    C1622.5,1367.8,1622.5,1367.8,1622.5,1367.8z" clip-rule="evenodd"/><path fill="#171313" fill-rule="evenodd" d="M1565.2,1415.3C1565.2,1415.2,1565.2,1415.2,1565.2,1415.3c-1-0.5-2.1-1.4-3.4-2.3c-0.1,0.1-0.3,0.2-0.4,0.3    C1562.8,1414.1,1564.1,1414.8,1565.2,1415.3z" clip-rule="evenodd"/><path fill="#103e7d" fill-rule="evenodd" d="M1686,1299.6c8.6-0.7,16.4-1.5,22-2.2c-0.2-0.2-0.3-0.3-0.5-0.4c-5.7,0.4-13.7,0.7-22.4,1    C1685.4,1298.5,1685.7,1299,1686,1299.6z" clip-rule="evenodd"/><path fill="#103e7d" fill-rule="evenodd" d="M1566.7,1415.7c0.6-0.5,1.6-1.2,3-2.1c6.4-4.4,20.2-13.7,33.9-26c6.6-6,13.2-12.6,18.9-19.8c0,0,0,0,0-0.1    c6.8-8.5,12.4-17.7,15.2-27.2c0,0,0,0,0,0c0,0,0,0,0,0c0,0,28.7,5.1,61.5,7.5c0.3,0,0.5,0,0.8,0.1c0.2,0,0.4,0,0.6,0    c1.8,0.1,3.5,0.2,5.1,0.2c26.3,0,38.5-14.3,42.1-28.6c0.5-2,0.8-3.9,1-5.8c1.2-12.1-3.5-22.8-10.4-22.8c0,0,0,0,0,0    c-1.4,0-21.5,2.3-21.5,3.9c0,0,0,0.1,0,0.1c-0.3,0.7-3.4,1.4-8.2,2.1c-0.2,0-0.4,0-0.6,0.1c-5.6,0.7-13.4,1.5-22,2.2    c0.7,1.2,1.6,2.3,2.6,3.4c11.7,13,39.9,1.3,49.7,15.7c6.3,9.3-6.5,17-12.6,19.2c-11.8,3.7-25.3,5.9-38.7,5.9    c-19.2,0-38.1-4.5-51.2-15.7c-9.7,37.6-42.1,63.6-74,84.7c1.2,1,2.4,1.8,3.4,2.3c0.5,0.3,1,0.4,1.4,0.5c0,0,0,0,0,0v0    C1566.6,1415.7,1566.7,1415.7,1566.7,1415.7L1566.7,1415.7z" clip-rule="evenodd"/><polygon fill="#a0c6e9" fill-rule="evenodd" points="1685.2 1308.5 1685.5 1311.1 1647.7 1338 1647.5 1335.4" clip-rule="evenodd"/><polygon fill="#838684" fill-rule="evenodd" points="1647.5 1335.4 1647.7 1338 1577.2 1305.6 1577 1303" clip-rule="evenodd"/><polygon fill="#b7d9f2" fill-rule="evenodd" points="1685.2 1308.5 1647.5 1335.4 1577 1303 1614.7 1276.1" clip-rule="evenodd"/><polygon fill="#a0c6e9" fill-rule="evenodd" points="1636.2 1290.7 1639 1288.1 1650.7 1335.3 1647.9 1337.9" clip-rule="evenodd"/><polygon fill="#fff" fill-rule="evenodd" points="1562.5 1256.8 1565.3 1254.2 1639 1288.1 1636.2 1290.7" clip-rule="evenodd"/><polygon fill="#c9e3f6" fill-rule="evenodd" points="1636.2 1290.7 1647.9 1337.9 1574.2 1304 1562.5 1256.8" clip-rule="evenodd"/><polygon fill="#c9e3f6" fill-rule="evenodd" points="1636.2 1290.7 1636.2 1290.7 1574.2 1304 1562.5 1256.8" clip-rule="evenodd"/><path fill="#f4ae92" fill-rule="evenodd" d="M1621.3,1244.4c0,0-11.6-4.1-17.5-0.7c-5.9,3.4-10.2,4-13.3,8.1c-3.1,4.1-0.8,6.9,3.2,7.4    c4,0.5,10.9-0.5,17.6-3.1c6.7-2.6,7.5-1.6,9.5-1.6C1622.9,1254.5,1626.4,1249.2,1621.3,1244.4z" clip-rule="evenodd"/><path fill="#2f73b7" fill-rule="evenodd" d="M1690,1161.4c-5.7-1.7-15.6-0.1-18.1,15.5c-2.4,15.5-8.7,59.1-8.7,59.1s-42.2,4.8-47,6.1c0,0,7.6,5.1,4,13.1    c0,0,46.2,9.2,56.5-0.5C1687.1,1245.1,1713.4,1168.3,1690,1161.4z" clip-rule="evenodd"/><path fill="#4385c6" fill-rule="evenodd" d="M1751.7,1191.5c0,0-14.8-24-71-30.3c0,0-9.1-3.5-7.4,25.5c0.2,4.2-3.9,11.5-6.7,15.3    c-2.8,3.9-10.2,18.6,7.4,35.5c0,0,7.4,25.7,0,42.6c-6.6,15.1,30.7,28.6,61.9,24.7c3.9-0.5,12.4-3.3,8.6-16.6    c-3.7-13.4-12.4-36.7-6.9-61.7C1743.2,1201.4,1756.3,1203.9,1751.7,1191.5z" clip-rule="evenodd"/><path fill="#4385c6" fill-rule="evenodd" d="M1751.7,1191.5c4.6,12.5-8.5,9.9-14.1,34.9c-5.6,25,3.1,48.3,6.9,61.7c3.8,13.3-4.7,16.1-8.6,16.6    c-5.2,0.7-10.5,0.8-15.7,0.6c10.3-24.4-5.1-67.7-6.5-91.8c-1.5-25.5,21.4-36.2,21.4-36.2    C1747.5,1184.6,1751.7,1191.5,1751.7,1191.5z" clip-rule="evenodd"/><path fill="#101e3b" fill-rule="evenodd" d="M1689.4,1115.9c0,0,4.5,28.9,7,56.4c0.4,4-3.7,11.1-11.1,9.4c0,0-21.9-32.1-6.1-65.1c5-10.4,23.7-25.5,46-11    L1689.4,1115.9z" clip-rule="evenodd"/><path fill="#f4ae92" fill-rule="evenodd" d="M1684.6,1154c0,0,10.4,11.4,6.1,24.2c-1.1,3.5-3.9,17.8,17.5,11.3c0,0,22-12,15.1-18.6    c-4.6-4.4-9.2-10.7-3.4-34.1L1684.6,1154z" clip-rule="evenodd"/><path fill="#f09172" fill-rule="evenodd" d="M1723.2,1170.9c0.7,0.7,1.1,1.4,1.2,2.2c-20.4,4.8-35.1-9.2-35.1-9.2l25.9-24.5c0,0,1.4,0.9,3.5,2.3    C1714.7,1161.1,1718.9,1166.8,1723.2,1170.9z" clip-rule="evenodd"/><path fill="#f4ae92" fill-rule="evenodd" d="M1686.8,1112.9c0,0-5.7,2.2-5.4,19.4c0.1,1.9-2.9,4.5-3.6,9.3c-0.6,4.8-1.1,24,10.1,25.6    c8.1,1.2,27.8-4.5,33.8-24C1727.7,1123.6,1710.5,1099.3,1686.8,1112.9z" clip-rule="evenodd"/><path fill="#101e3b" fill-rule="evenodd" d="M1688.1,1119.7c0,0,49.8,16.5,14.8,81.1c0,0,25.8,1.7,36.6-20.8c5.2-10.8,2.3-32.2,0.1-52.6    c0,0-6.7-31.3-32.9-25.8C1706.6,1101.7,1689.4,1108.9,1688.1,1119.7z" clip-rule="evenodd"/><path fill="#101e3b" fill-rule="evenodd" d="M1688.1,1119.7c0,0-8.7-1.4-12.4,14.6c0,0,0-44.9,42.9-32.6C1718.6,1101.8,1693.3,1103.8,1688.1,1119.7z" clip-rule="evenodd"/><path fill="#f4ae92" fill-rule="evenodd" d="M1712,1146.7c0,0,2.7-9.6,8.3-6.9c1.7,0.9,3.7,2.8,1.2,7.8c-2.5,5-7.8,9.6-12.1,9.2L1712,1146.7z" clip-rule="evenodd"/><path fill="#f4ae92" fill-rule="evenodd" d="M1680.2,1273.8c0,0-12.3,0.8-16.5,6.2c-4.2,5.4-9.8,11.1-11.1,16c-1.2,4.9-0.2,6.6,3.7,5.5    c3.9-1.1,14-8,19.2-13.1c5.2-5,6.3-4.4,8.2-5.2C1685.6,1282.4,1686.8,1276.2,1680.2,1273.8z" clip-rule="evenodd"/><path fill="#f4ae92" fill-rule="evenodd" d="M1683.7,1283.2c-1.9,0.8-3,0.1-8.2,5.2c-5.1,5-15.3,12-19.2,13.1l-1.5,0.3c3-3.3,8.1-9,12.6-13.8    c5.7-6.1,14.6-8.5,17.5-9.2C1685.5,1280.8,1684.7,1282.8,1683.7,1283.2z" clip-rule="evenodd"/><path fill="#2f73b7" fill-rule="evenodd" d="M1745.2,1186.3c-5.8-1.2-15.6,1.2-16.7,16.9c-1.1,15.7-3.7,59.6-3.7,59.6c0,0-41.6,8.3-46.3,9.9    c0,0,7.9,2.9,5,11.2c0,0,46.8,6.9,56.3-3.6C1749.2,1270,1769.1,1191.3,1745.2,1186.3z" clip-rule="evenodd"/></g><g><path fill="#103e7d" fill-rule="evenodd" d="M758.5,1126.9l2.4,22.7c1.1,6.3,4.5,10.3,9,12.8c7.7,4.2,18.5,4.1,26.3,4.3c2.3,0,4.3,0.2,5.9,0.3l2.4-25.8    l-24.7-52.1C765.2,1093,758.7,1106.4,758.5,1126.9z" clip-rule="evenodd"/><path fill="#072b5d" fill-rule="evenodd" d="M778.7,1165.4c-3-13.5-6.9-27.2-8.3-37.2l-0.5,34.2C772.6,1163.8,775.6,1164.8,778.7,1165.4z" clip-rule="evenodd"/><path fill="#f4ae92" fill-rule="evenodd" d="M913.8,1165.8c0.2-0.4,7.3-9.7,7.3-9.7l9.3-24.8V1116l-16.6,2.3l-4.4,14.9l-0.7,8.5l-0.8,4.8l-8.7,11.1    L913.8,1165.8z" clip-rule="evenodd"/><path fill="#5479bb" fill-rule="evenodd" d="M862.2,1109.9l51.2,30.2c1.4,0.8,3.2,0.3,4-1.1l18.6-32.9c0.8-1.4,0.3-3.1-1-3.9l-51.2-30.2    c-1.4-0.8-3.2-0.3-4,1.1l-18.6,32.9C860.4,1107.4,860.9,1109.1,862.2,1109.9z" clip-rule="evenodd"/><path fill="#6e96ce" fill-rule="evenodd" d="M861.8,1108.7l51.2,30.2c1.4,0.8,3.2,0.3,3.9-1.1l18.6-32.9c0.8-1.4,0.3-3.1-1-3.9l-51.2-30.2    c-1.4-0.8-3.2-0.3-4,1.1l-18.6,32.9C860,1106.1,860.5,1107.9,861.8,1108.7z" clip-rule="evenodd"/><polygon fill="#fff" fill-rule="evenodd" points="931.8 1103.9 882.2 1074.6 864.6 1105.8 914.1 1135" clip-rule="evenodd"/><polygon fill="#6e96ce" fill-rule="evenodd" points="916.5 1102.5 915.2 1104.9 890.5 1090.4 891.9 1088" clip-rule="evenodd"/><polygon fill="#5479bb" fill-rule="evenodd" points="889.7 1086.8 891.9 1088 890.5 1090.4 888.3 1089.1" clip-rule="evenodd"/><polygon fill="#b7d9f2" fill-rule="evenodd" points="878.1 1107.1 888.3 1089.1 915.2 1104.9 905.2 1123" clip-rule="evenodd"/><polygon fill="#6e96ce" fill-rule="evenodd" points="904.3 1119.9 904.7 1119.7 904.7 1119.2 882.1 1105.9 881.5 1106.1 881.5 1106.6 904.1 1119.8" clip-rule="evenodd"/><polygon fill="#6e96ce" fill-rule="evenodd" points="905.8 1117.2 906.2 1117 906.2 1116.5 883.6 1103.2 883 1103.4 883 1103.9 905.6 1117.1" clip-rule="evenodd"/><polygon fill="#6e96ce" fill-rule="evenodd" points="907.3 1114.4 907.8 1114.2 907.7 1113.7 885.2 1100.5 884.5 1100.6 884.6 1101.1 907.1 1114.4" clip-rule="evenodd"/><polygon fill="#6e96ce" fill-rule="evenodd" points="908.9 1111.7 909.3 1111.5 909.3 1111 886.7 1097.8 886.1 1097.9 886.1 1098.4 908.7 1111.7" clip-rule="evenodd"/><polygon fill="#6e96ce" fill-rule="evenodd" points="910.4 1109 910.8 1108.8 910.8 1108.3 888.2 1095.1 887.6 1095.2 887.6 1095.7 910.2 1108.9" clip-rule="evenodd"/><polygon fill="#6e96ce" fill-rule="evenodd" points="911.9 1106.3 912.3 1106.1 912.3 1105.6 889.7 1092.3 889.1 1092.5 889.1 1093 911.7 1106.2" clip-rule="evenodd"/><path fill="#f4ae92" fill-rule="evenodd" d="M922.5,1133.6c-0.3-0.2-2.4-7.7-2.4-7.7l1.6-9.9c0.1-3.1-2.9-3.6-4.2-0.7l-6.6,12.8l-1.9,9.9l1.2,5.6l9.1,4    L922.5,1133.6z" clip-rule="evenodd"/><path fill="#f4ae92" fill-rule="evenodd" d="M826.1,1112.5l12.6-2.3l15.2-12.3l11.9-4.6l7.7-0.9c0.6-0.1,1.1,0,1.7,0.2l1.6,0.7h2c1.3,0,2.5,0.8,3,2    l2.2,1.1c1,0.8,0.6,2.7-0.7,2.9h-2.7l-4.7,1.4l-7.4,4.1l-4,7.8c0,0,0.9,1.7,1.3,1.8c3,0.8,8.2,0.4,8.2,0.4l2.7-0.5    c2.4,0.6,3.8,2.5,1.5,3.6l-3.6,1.5l-14.2,3.9h-14.6l-14.9,4L826.1,1112.5z" clip-rule="evenodd"/><path fill="#101e3b" fill-rule="evenodd" d="M811.9,1377.3c13,2.7,15.1,12.9,10.2,21.7l-14.7,20.8c-5.5,9.6-12.9,14.1-22.6,12.5    c-8.7-3.6-9.9-9.3-7.5-16.1l3.6-11.1l5.7-30.1L811.9,1377.3z" clip-rule="evenodd"/><path fill="#103e7d" fill-rule="evenodd" d="M778.5,1403.8c4.1,13.8,30.8,13.3,32.6-5.2l7.3-52.9l1.5-11.2l14.8-61.3l3.2-13.3l-9.8-5.7l-39-22.5    c-2.1,9.8-3.4,23.3-4.2,39.7c-0.6,13.6-0.7,29.1-0.6,46.1C776.6,1341.8,776.7,1372.1,778.5,1403.8z" clip-rule="evenodd"/><path fill="#101e3b" fill-rule="evenodd" d="M864.9,1438c-4.7,9.2-1.4,23.9,2.1,30.4c9.4,2.9,17.1,3.1,22.3-0.9c17.3-2.1,27.2-0.4,36-3.5    c9.3-3.3,15.7-6.5,19.9-16.3c1.6-4.4-1.4-12.2-9.3-12.9c-14.5,0.3-27.5-0.1-34.8-3.2l-13.7-21.8l-21.3,19L864.9,1438z" clip-rule="evenodd"/><path fill="#103e7d" fill-rule="evenodd" d="M819.8,1231.8c2.8,7.6,5.5,15.1,8.1,22.5c2.3,6.4,4.5,12.8,6.6,19c4.5,13.1,8.5,25.7,11.8,37.1    c3.2,11.2,5.6,21.4,7,30.2c-1.9,36.5,2.2,71.1,10.1,104.5c12.3,12.9,40.6,1.4,40.1-12.5l-5.1-64.8l-2.1-26.5    c-2.6-34.2-7.2-65.7-14.9-92.9L819.8,1231.8z" clip-rule="evenodd"/><path fill="#072b5d" fill-rule="evenodd" d="M818.3,1345.7l1.5-11.1l14-58.3c-19-3.2-37.4-10.9-47.4-20.9l-1.7,16.1l29.6,21.2    C814.4,1292.7,818.4,1343.5,818.3,1345.7z" clip-rule="evenodd"/><path fill="#072b5d" fill-rule="evenodd" d="M898.6,1367.8l-2.1-26.5c-2-25.9-5.1-50.3-9.8-72.4c-0.2,0.1-0.4,0.2-0.6,0.4c-6.8,4.6-15.7,7.2-25.3,8.2    l0,0c-2.8,0.2-5.6,0.4-8.4,0.4c-1.7,0-3.5,0-5.2-0.1c-3.8-0.2-7.6-0.6-11.4-1.1c4,11.9,7.7,23.3,10.7,33.8v0l31.3,12.2    L898.6,1367.8z" clip-rule="evenodd"/><path fill="#103e7d" fill-rule="evenodd" d="M782.6,1192.2c0.3,21.3-3.8,49.4-3.8,49.4c2.5,18.9,36.9,34.5,68.3,36.1c4.7,0.2,9.2,0.2,13.6-0.2    c9.7-0.9,18.5-3.5,25.3-8.2c0.4-0.3,0.8-0.5,1.2-0.8c5.5-4.1,7.9-11.2,5.9-17.8c-4.3-14-12.4-42.9-13-62.1c-0.1-1.8-0.1-3.6,0-5.2    c1.2-22.6,1.9-38-3.1-50c-1.8-4.3-4.3-8.2-7.9-11.9c0,0-24.1-19.4-35.8-30c-23.3-8.6-37.2-6-53.6-2.3c0,0-11.2,4-9.8,34.7    C770.8,1139.9,782.4,1171,782.6,1192.2z" clip-rule="evenodd"/><path fill="#f4ae92" fill-rule="evenodd" d="M853.5,1030.8c14,1.3,17.5,6.9,16.4,19.4c3.3,6.9-5.6,22.5-10,32c-1.3,2.8-3.5,6.8-9.5,6.2    c-2.1,0.4-2.9,2.3-3.6,4.3c-1.3,3.8-0.9,8.2-0.9,8.2c-16.5-1.3-30.2-5-35.3-16.7l7.5-6.2l12.2-47.3H853.5z" clip-rule="evenodd"/><path fill="#101e3b" fill-rule="evenodd" d="M870.6,1055.3c-2.3,0.1-5.4-1.4-9.2,5.9c-1.5,2.8-2.9,6.1-2.9,6.1l-7.9,1.4l-4.5,10.1    c-1.4,3.2-6.5,8.5-10,8.5c-5.9,0.1-15.3-4.1-18.4-8.2c0,0-2.9-20.7,0-30.4c2.9-9.7,5-17.3,14.2-21.6c9.1-4.3,24.8-1.2,32,3.7    C878.9,1041.7,874.9,1052.6,870.6,1055.3z" clip-rule="evenodd"/><path fill="#f4ae92" fill-rule="evenodd" d="M855.7,1070.2c0.6-1.4,0.9-2.8,1-4.3c0.1-1.3-0.1-2.7-1.1-3.5c-1-0.7-2.4-0.6-3.4,0c-1,0.6-1.7,1.7-2.2,2.8    c-1.5,2.9-2.1,6.4-1.4,9.6c0.2,0.9,0.7,2,1.7,2.1c0.9,0.1,1.7-0.7,2.3-1.5c1.5-2.1,2.9-4.2,4-6.5L855.7,1070.2z" clip-rule="evenodd"/><path fill="#fff" fill-rule="evenodd" d="M854.7,1108.9l-7.9-10.9c-16.7-1.1-33.3-8.7-36.6-15.2l-8.8,4.1l18.5,16.1L854.7,1108.9z" clip-rule="evenodd"/><path fill="#103e7d" fill-rule="evenodd" d="M864.1,1117.5c0,0-32.3-0.9-55.4-14.1c-11.7-6.7-12.5-13.8-12.5-13.8c-0.7-3.2,5.1-6.1,10.4-5.2    c3.5,12.8,32.2,18.1,44.6,19.8L864.1,1117.5z" clip-rule="evenodd"/><path fill="#072b5d" fill-rule="evenodd" d="M860.7,1277.5L860.7,1277.5c9.7-0.9,18.5-3.5,25.3-8.2c0.4-0.3,0.8-0.5,1.2-0.8c4.2-3.1,6.6-8,6.6-13.1    c0-1.6-0.2-3.2-0.7-4.8c-4.3-14-12.4-42.9-13-62.1l-35-32.5l10,79.7L860.7,1277.5z" clip-rule="evenodd"/><path fill="#103e7d" fill-rule="evenodd" d="M887.9,1160l11.5-11.4c11.4-8.2,25.8,3.4,22.6,18.9l-26.4,33.2c-3.4,5-9.5,8-14.7,8.7    c-17.2-1.1-26.3-26.9-35.8-51.5c-4.9-26,15.2-42.8,29.8-28.7L887.9,1160z" clip-rule="evenodd"/></g></svg>