<svg xmlns="http://www.w3.org/2000/svg" enable-background="new 0 0 3000 2000" viewBox="0 0 3000 2000"><ellipse cx="1540.027" cy="1867.443" fill="#EDE8FF" rx="905.725" ry="87.512"/><path fill="#E1D9FF" d="M1878.889,1490.528c-3.098-12.711-7.491-25.022-13.084-36.782c-9.355,6.533-25.619,5.615-36.211-9.078
		c-4.772-6.621-11.204-20.568-14.002-28.162c-8.031-21.797-27.925-39.031-52.015-45.063c16.971,1.556,34.07,3.135,50.215,7.719
		c16.146,4.586,38.201,9.593,48.451,21.807c9.898,11.798,20.583,32.528,8.037,48.468c4.269,8.697,7.892,17.697,10.818,26.95
		c3.834-22.89,8.758-45.67,14.784-68.26c-0.196-0.258-0.361-0.557-0.445-0.944c-3.123-14.13-7.855-27.788-14.054-40.77
		c-9.347,6.568-25.647,5.673-36.258-9.045c-4.773-6.62-11.203-20.567-14.003-28.162c-8.032-21.797-27.925-39.031-52.015-45.063
		c16.971,1.557,34.07,3.135,50.217,7.719c16.145,4.585,38.201,9.593,48.449,21.806c9.899,11.798,20.584,32.529,8.037,48.47
		c5.483,11.181,9.891,22.867,13.137,34.945c6.082-21.469,13.12-42.754,21.163-63.776c-3.123-14.115-7.852-27.758-14.043-40.727
		c-9.347,6.568-25.647,5.673-36.257-9.044c-4.773-6.62-11.203-20.568-14.002-28.162c-8.031-21.798-27.925-39.032-52.016-45.063
		c16.972,1.556,34.07,3.135,50.217,7.719c16.146,4.585,38.201,9.594,48.449,21.807c9.901,11.801,20.587,32.534,8.034,48.476
		c5.581,11.384,10.051,23.291,13.313,35.602c3.981-10.009,8.131-19.974,12.554-29.852c3.703-8.262,7.73-16.405,11.731-24.558
		c0.663-13.255-0.028-26.43-2.027-39.354c-10.743,4.132-25.947-0.709-31.862-17.667c-2.664-7.642-4.835-22.861-5.345-30.98
		c-1.47-23.297-15.509-44.998-36.711-56.743c15.698,5.636,31.511,11.325,45.567,19.729c14.055,8.403,33.611,18.654,39.9,33.1
		c6.073,13.954,10.368,36.845-6.068,49.42c1.655,9.874,2.566,19.896,2.685,30.004c12.737-24.833,26.95-49.051,42.361-72.649
		c2.892-13.769,4.264-27.642,4.182-41.418c-11.178,2.785-25.434-3.963-28.749-21.653c-1.492-7.964-1.379-23.429-0.685-31.596
		c1.994-23.439-8.608-46.874-27.72-61.277c14.603,7.609,33.394,12.471,45.974,22.635c12.58,10.163,26.209,25.681,30.261,40.896
		c3.911,14.689,4.755,38.066-13.236,48.548c0.173,10.581-0.482,21.223-2.005,31.838c14.059-20.722,29.119-40.868,45.127-60.396
		c-0.004-0.248-0.034-0.486,0.042-0.767c3.911-14.255,6.179-28.71,6.858-43.135c-11.289,2.297-25.151-5.11-27.51-22.993
		c-1.061-8.044-0.122-23.527,1.007-31.675c3.238-23.382-6.069-47.337-24.337-62.635c14.138,8.289,32.67,14.398,44.656,25.153
		c11.987,10.754,24.662,26.538,27.884,41.96c3.111,14.89,2.702,38.341-15.779,48.014c-0.446,11.983-1.969,23.995-4.577,35.904
		c17.043-20.145,35.076-39.595,54.086-58.212c0.552-0.541,8.211-8.621,18.454-22.486c-9.044-4.83-14.16-17.502-6.103-32.883
		c3.928-7.502,13.894-20.426,19.649-26.904c16.514-18.589,23.265-44.063,17.652-66.609c6.458,14.376,12.953,28.865,16.21,44.279
		c3.258,15.414,8.874,35.766,2.297,50.756c-6.348,14.468-20.617,34.548-41.242,33.523c-6.398,8.679-13.433,16.981-21.084,24.807
		c-0.076,0.086-0.094,0.176-0.18,0.26c-0.385,0.377-0.754,0.765-1.138,1.142c-0.183,0.186-0.369,0.372-0.554,0.558
		c-11.315,11.143-22.264,22.59-32.881,34.288c10.801-4.404,21.878-8.057,33.13-10.96c0.022-0.125,0.024-0.253,0.049-0.378
		c4.199-20.803,29.792-26.997,46.731-27.621c16.938-0.624,36.644,7.302,50.916,15.766c14.274,8.464,25.343,23.979,37.582,34.979
		c-20.611-13.149-48.009-16.111-71.638-7.742c-8.233,2.916-24.184,7.356-32.863,8.248c-18.037,1.853-29.032-7.598-30.764-17.697
		c-14.321,3.764-28.338,8.786-41.833,15.07c-17.104,19.436-33.193,39.605-48.284,60.381c13.13-5.884,26.706-10.652,40.552-14.276
		c5.785-18.755,30.651-24.792,47.249-25.634c17.171-0.87,37.011,6.544,51.339,14.565c14.327,8.021,25.297,22.961,37.524,33.483
		c-20.675-12.487-48.388-14.946-72.461-6.429c-8.388,2.967-24.619,7.54-33.426,8.542c-19.586,2.232-30.809-8.266-31.088-18.822
		c-15.079,4.048-29.81,9.497-43.931,16.358c-0.574,0.278-1.121,0.333-1.646,0.307c-4.12,5.821-8.159,11.691-12.115,17.606
		c-10.601,15.854-20.39,32.112-29.77,48.551c12.281-5.332,24.935-9.707,37.829-13.077c5.806-18.727,30.651-24.757,47.237-25.598
		c17.173-0.871,37.012,6.544,51.34,14.565c14.328,8.021,25.298,22.959,37.525,33.483c-20.675-12.486-48.388-14.946-72.461-6.43
		c-8.388,2.968-24.621,7.54-33.428,8.543c-19.56,2.228-30.78-8.24-31.087-18.783c-14.199,3.826-28.091,8.893-41.46,15.205
		c-12.105,21.789-23.103,44.031-32.991,66.656c13.426-6.083,27.327-10.995,41.513-14.707c5.783-18.757,30.652-24.795,47.25-25.636
		c17.172-0.871,37.01,6.544,51.338,14.565c14.329,8.021,25.298,22.961,37.524,33.483c-20.674-12.486-48.387-14.946-72.46-6.428
		c-8.388,2.967-24.62,7.539-33.427,8.542c-19.585,2.23-30.808-8.266-31.087-18.823c-15.078,4.048-29.81,9.497-43.932,16.357
		c-0.005,0.002-0.01,0.001-0.013,0.004c-8.764,20.635-16.47,41.592-23.32,62.757c13.592-6.234,27.685-11.247,42.073-15.01
		c5.73-18.468,30.236-24.417,46.597-25.248c16.941-0.859,36.511,6.457,50.646,14.369c14.136,7.912,24.956,22.65,37.018,33.031
		c-20.396-12.319-47.734-14.744-71.484-6.342c-8.274,2.927-24.286,7.437-32.975,8.427c-19.297,2.198-30.367-8.129-30.668-18.531
		c-14.868,3.992-29.393,9.365-43.318,16.13c-0.062,0.031-0.12,0.025-0.181,0.051c-6.531,20.871-11.992,41.97-16.595,63.209
		c13.201-5.931,26.855-10.733,40.783-14.379c5.785-18.756,30.652-24.793,47.249-25.635c17.173-0.87,37.012,6.544,51.34,14.565
		c14.328,8.021,25.297,22.96,37.524,33.483c-20.675-12.485-48.387-14.945-72.461-6.428c-8.388,2.967-24.62,7.539-33.428,8.542
		c-19.56,2.228-30.78-8.239-31.087-18.781c-14.169,3.818-28.035,8.873-41.378,15.167c-0.502,2.432-1.147,4.841-1.624,7.276
		c-20.399,104.113-17.383,210.85,8.816,311.474c1.166,4.475-6.381,6.837-7.55,2.354c-14.796-56.83-22.357-115.586-22.461-174.761
		C1871.063,1560.978,1873.711,1525.647,1878.889,1490.528z"/><path fill="#E1D9FF" d="M1051.436,1612.773c-9.266-8.31-7.575-24.272,0.797-33.45c8.37-9.178,21.259-12.825,33.64-14.268
		c20.027-2.334,38.745-0.19,58.203,2.912c-15.609-10.299-30.841-21.163-45.679-32.467c-9.813-7.475-19.469-15.176-28.961-23.083
		c-18.829,20.716-43.957,35.661-71.178,42.228c-10.317,2.488-22.445,3.373-30.328-3.733c-9.21-8.301-7.517-24.265,0.814-33.448
		c8.332-9.183,21.151-12.839,33.465-14.29c20.675-2.438,39.946-0.047,60.093,3.229c-28.967-24.698-56.215-51.448-80.932-80.362
		c-21.711,17.017-48.49,27.522-75.998,29.657c-10.581,0.822-22.697-0.228-29.354-8.494c-7.776-9.657-3.572-25.151,6.11-32.894
		c9.682-7.746,22.918-9.325,35.307-8.804c20.074,0.841,38.143,5.913,56.793,12.046c-25.576-30.889-49.274-65.27-61.744-103.509
		c-0.26-0.795-0.483-1.603-0.737-2.401c-24.089,14.06-52.42,20.79-80.259,18.957c-10.591-0.697-22.433-3.467-27.841-12.597
		c-6.318-10.668,0.054-25.403,10.743-31.686c10.689-6.285,24.013-5.956,36.2-3.674c21.474,4.022,39.888,12.657,59.112,22.343
		c-13.201-44.563-18.24-91.751-32.952-135.79c-24.353,14.556-53.171,21.562-81.488,19.697c-10.59-0.697-22.433-3.466-27.841-12.598
		c-6.318-10.667,0.055-25.401,10.743-31.686c10.688-6.284,24.013-5.955,36.2-3.672c22.052,4.129,40.875,13.123,60.664,23.126
		c-3.871-10.94-8.383-21.67-13.84-32.094c-11.05-21.106-26.514-39.642-44.743-55.285c-19.94,21.097-46.534,35.827-75.019,41.446
		c-10.412,2.052-22.568,2.427-30.146-5.004c-8.852-8.68-6.489-24.56,2.219-33.384c8.709-8.825,21.672-11.94,34.033-12.874
		c22.673-1.712,43.427,2.257,65.452,6.906c-29.94-24.631-66.822-41.65-103.875-49.558c-20.289,16.794-45.342,27.815-71.462,31.259
		c-10.523,1.387-22.678,0.987-29.767-6.91c-8.284-9.227-4.914-24.923,4.338-33.176c9.255-8.252,22.387-10.536,34.785-10.681
		c19.778-0.231,37.834,3.737,56.472,8.749c0.69-0.197,1.463-0.254,2.327-0.09c31.685,6.025,61.992,18.558,89.198,35.811
		c5.999,3.805,11.888,7.848,17.625,12.109c-13.275-21.915-20.519-47.478-20.512-73.11c0.003-10.613,1.993-22.612,10.75-28.605
		c10.233-7.003,25.351-1.607,32.32,8.647c6.971,10.255,7.514,23.573,6.034,35.884c-2.763,22.962-10.904,42.839-19.916,63.941
		c11.633,9.465,22.375,20.002,31.455,31.913c13.752,18.038,23.466,37.962,30.927,58.845c-2.324-26.326,2.858-53.303,14.933-76.821
		c4.846-9.442,12.092-19.21,22.62-20.546c12.299-1.56,23.289,10.141,24.811,22.446c1.522,12.305-4.074,24.403-11.009,34.681
		c-13.292,19.694-30.152,33.902-48.357,49.008c11.306,34.797,17.148,71.861,25.399,107.107c2.598,11.095,5.488,22.032,8.953,32.76
		c-3.965-28.424,0.972-58.038,14.049-83.59c4.835-9.448,12.068-19.226,22.594-20.576c12.299-1.577,23.304,10.111,24.84,22.414
		c1.538,12.302-4.041,24.409-10.964,34.695c-13.567,20.161-30.875,34.587-49.536,50.106c3.82,11.394,8.355,22.529,14.024,33.316
		c10.37,19.728,22.97,38.252,36.601,55.856c3.625,4.682,7.339,9.296,11.112,13.862c-6.034-25.317-4.964-52.319,3.217-77.034
		c3.334-10.076,8.99-20.842,19.186-23.783c11.914-3.437,24.575,6.433,27.973,18.356c3.398,11.925-0.266,24.741-5.538,35.964
		c-9.738,20.737-23.538,36.943-38.552,53.97c24.153,28.245,51.013,54.266,79.331,78.331c-12.595-24.066-18.111-51.81-15.506-78.853
		c1.018-10.564,4.144-22.317,13.435-27.447c10.854-5.991,25.388,0.824,31.346,11.698c5.958,10.873,5.227,24.182,2.577,36.296
		c-5.031,22.985-15.3,42.263-26.513,62.8c3.78,3.159,7.576,6.297,11.401,9.391c20.993,16.975,42.834,33.063,65.496,47.885
		c-11.907-23.625-17.068-50.635-14.53-76.979c1.018-10.565,4.144-22.317,13.434-27.448c10.855-5.992,25.39,0.824,31.347,11.698
		c5.958,10.873,5.226,24.183,2.575,36.296c-4.892,22.355-14.738,41.199-25.586,61.106c26.036,16.586,53.137,31.47,81.285,44.045
		c5.864,2.62,1.396,11.533-4.455,8.919c-28.424-12.699-55.763-27.787-82.037-44.552c-18.939,20.792-44.256,35.787-71.7,42.352
		C1071.567,1619.01,1059.37,1619.885,1051.436,1612.773z"/><path fill="#D4D5FF" d="M1827.417,1267.772c-14.549,11.178-34.322,17.063-34.322,17.063s-46.988,21.017-92.886,26.808
			c-16.245,1.93-41.082,5.12-70.875-2.388c-3.107-0.9-6.213-1.801-9.322-2.704c-3.065-0.959-6.047-2.041-8.921-3.403
			c-2.217-0.909-4.431-1.815-6.561-2.841c-1.191-0.467-2.276-0.948-3.38-1.533c-36.469-17.264-58.125-44.544-66.081-55.271
			c-7.432-10.455-33.148-48.705-33.162-101.176c0.032-32.468,9.48-76.903,29.828-79.639c3.939-0.301,7.752,0.732,12.169-1.813
			c8.953-4.74,9.003-16.779,10.598-32.722c2.883-29.524,4.11-44.301,11.568-51.76c3.34-3.553,13.507-8.256,33.581-17.662
			c13.928-6.547,14.957-6.369,16.921-8.831c9.361-12.538-9.384-29.111-8.319-55.096c0.967-19.926,13.307-41.416,31.723-48.682
			c10.909-4.101,15.47-0.157,36.875-5.449c15.117-3.772,22.873-5.878,28.952-10.826c23.615-19.302-3.344-63.469,17.534-77.646
			c10.327-6.989,27.846-3.689,44.596-0.565c17.071,3.434,20.709,7.809,27.753,8.408c40.27,3.908,62.997-128.477,81.545-125
			c14.102,2.719,35.113,88.053,26.143,145.955c-1.562,8.954-5.042,26.347,4.988,42.943c11.405,19.232,29.219,18.121,34.096,32.405
			c2.278,7.252-0.464,12.639-28.491,60.588c-9.02,15.259-15.327,25.819-10.457,32.908c4.694,6.968,16.617,5.253,23.082,15.307
			c1.172,1.518,3.1,5.157,3.194,11.968c0.777,22.551-18.582,48.163-28.345,60.511c-19.409,24.78-31.378,35.694-27.44,41.696
			c4.162,5.801,18.109-0.642,27.937,8.27c6.808,6.472,7.448,17.123,6.388,23.936c-1.594,9.642-8.452,15.207-30.389,29.631
			c-22.489,14.841-26.467,16.358-38.071,24.683c-20.227,14.006-38.569,26.827-35.119,36.487c3.125,8.725,20.334,6.041,30.948,20.377
			c0.477,0.597,8.387,11.647,6.387,23.937C1840.797,1254.813,1834.742,1262.175,1827.417,1267.772z"/><path fill="#FFF" d="M1770.727,1236.01c-9.455,13.163-28.197,9.595-42.175,9.721c-13.291,0.12-26.573,1.342-39.662,3.653
			c-24.955,4.407-49.052,12.92-71.419,24.801c0.041-0.096,0.087-0.183,0.128-0.28c12.263-26.78,22.316-54.729,32.702-82.006
			c10.707-28.119,21.998-56.191,36.643-82.569c12.251-21.995,27.419-41.533,43.41-60.593c0.007-0.012,0.018-0.021,0.026-0.032
			c27.3-6.121,55.123-1.108,82.579-4.818c24.055-3.25,49.552-17.037,53.598-43.171c0.36-2.324-3.285-2.59-3.643-0.274
			c-4.277,27.633-33.678,38.846-58.212,40.632c-23.586,1.719-47.224-1.068-70.586,3.222c0.027-0.033,0.054-0.065,0.08-0.099
			c1.901-2.239,3.801-4.478,5.702-6.717c15.613-18.256,30.989-36.939,41.45-58.659c7.333-15,13.295-30.589,18.714-46.287
			c25.216-7.215,49.18-22.04,65.435-42.796c1.451-1.852-1.561-3.92-3.007-2.075c-15.15,19.342-37.468,33.408-60.913,40.57
			c0.303-0.816,0.519-1.619,0.824-2.439c12.824-37.757,23.718-76.309,32.505-115.164c0.746-3.392,1.529-6.846,2.213-10.28
			c0.481-2.242-2.945-3.453-3.426-1.211c-7.682,36.864-17.852,73.344-29.351,109.174c-6.12,19.034-12.685,37.939-20.538,56.4
			c-1.853,4.226-3.721,8.351-5.832,12.309c-0.003,0.005-0.004,0.012-0.008,0.017c-10.679-8.708-11.423-23.221-12.901-35.91
			c-1.302-11.179-4.117-22.069-8.579-32.411c-8.815-20.437-23.578-38.057-42.139-50.326c-1.958-1.294-4.039,1.709-2.075,3.008
			c19.703,13.022,34.834,32.139,43.077,54.277c4.247,11.404,5.6,22.961,7.11,34.937c1.414,11.206,4.498,22.429,13.721,29.711
			c0.036,0.029,0.072,0.003,0.11,0.028c-0.005,0.008-0.008,0.018-0.013,0.026c-6.606,12.664-14.373,24.436-23.411,35.865
			c-18.431,23.235-39.28,44.445-55.749,69.211c-16.009,24.106-28.347,50.48-39.254,77.218c-0.947,2.277-1.834,4.593-2.725,6.907
			c-0.004,0.007-0.006,0.016-0.008,0.024c-17.404-25.954-35.473-53.426-38.307-85.387c-0.654-7.394-0.356-14.837,0.927-22.15
			c1.243-7.078,3.324-14.081,3.314-21.323c-0.019-13.529-8.146-24.489-16.163-34.656c-1.459-1.85-4.254,0.504-2.8,2.348
			c4.584,5.814,9.235,11.731,12.271,18.538c3.112,6.985,3.518,14.1,2.323,21.596c-1.169,7.362-3.155,14.505-3.663,21.968
			c-0.458,6.72-0.099,13.5,0.89,20.158c4.531,30.52,21.957,56.732,38.787,81.824c0.284,0.424,0.649,0.567,1.016,0.632
			c-0.005,0.02-0.013,0.038-0.021,0.055c-13.667,34.6-25.685,70.159-41.523,103.792c-0.047,0.099-0.099,0.207-0.149,0.311
			c-0.203,0.275-0.378,0.523-0.404,0.843c-0.02,0.034-0.039,0.076-0.055,0.112c-3.292,6.962-6.705,13.839-10.418,20.508
			c1.104,0.585,2.189,1.066,3.38,1.533c3.735-6.832,7.19-13.769,10.525-20.789c0.008-0.017,0.016-0.034,0.023-0.051
			c24.923-13.827,52.146-23.191,80.34-27.453c14.373-2.173,28.83-2.887,43.353-2.507c12.672,0.33,26.843-0.118,34.964-11.423
			C1775.106,1236.173,1772.099,1234.098,1770.727,1236.01z"/><path fill="#FCD4E6" d="M950.817,1152.512c8.831,1.781,20.464-1.331,43.728-7.509c39.442-10.494,79.339-27.224,110.807-22.576
			c3.577,0.531,8.525,1.55,9.635,4.707c2.342,6.722-13.291,21.968-30.787,28.565c-32.393,12.134-56.747-10.916-92.069,4.321
			c-7.076,3.025-8.248,4.865-8.692,6.281c-5.706,17.641,64.404,78.041,124.45,70.507c49.804-6.213,50.676-53.973,131.254-118.169
			c0.413-0.344,0.824-0.689,1.28-0.988c0.39-0.368,0.802-0.668,1.235-0.99c0.273-0.215,0.572-0.451,0.845-0.667
			c0.825-0.69,1.715-1.355,2.584-2.043c66.553-51.198,92.076-41.128,115.031-80.217c41.983-71.531-1.06-177.191-11.64-176.461
			c-4.272,0.297-1.265,17.664-13.882,52.955c-2.387,6.67-43.581,101.819-71.715,89.437c-4.318-1.915-5.202-9.665-4.949-14.366
			c3.501-66.278,85.564-75.652,74.996-158.108c-7.949-61.822-88.738-100.287-93.326-95.403c-1.774,1.844,8.511,8.714,15.213,26.414
			c8.774,23.074,1.951,47.446-12.048,95.306c-9.375,32.062-16.657,47.938-31.875,58.241c-3.006,2.009-12.802,8.636-18.059,5.264
			c-6.68-4.285-2.194-22.118,2.149-38.997c14.111-54.599,18.699-67.675,22.336-83.28c7.858-33.627,17.125-73.259-2.946-97.741
			c-7.237-8.833-22.245-13.724-51.939-23.206c-35.199-11.232-66.748-17.622-90.62-21.706
			c-34.821-5.952-125.757-29.051-126.914-35.157c-2.17,2.39,2.216,7.275,3.261,16.347c1.837,15.434-7.693,28.095-13.452,36.294
			c0,0-28.698,40.814-44.064,88.879c-6.503,20.385-9.776,30.577-7.485,41.293c8.423,39.268,66.342,60.264,75.793,63.671
			c28.883,10.462,47.759,8.505,65.244,27.621c4.172,4.522,13.177,14.635,11.588,26.707c-1.817,13.718-16.207,21.725-20.112,23.929
			c-31.464,17.586-75.236-1-106.654-14.753c-52.04-22.807-64.818-42.585-75.24-35.978c-16.404,10.424-7.255,73.888,31.585,108.174
			c13.939,12.269,27.956,17.533,36.943,20.815c34.423,12.525,66.898,8.854,113.051,3.091c23.367-2.894,56.254-8.384,78.015,4.321
			c2.917,1.716,10.022,5.992,10.264,12.048c0.079,1.833-0.244,8.899-18.738,18.256c-24.094,12.247-57.393,17.345-113.438,13.57
			c-33.926-2.287-51.23-3.586-67.635-12.581c-24.09-13.243-35.365-32.531-39.574-29.866c-4.872,3.157,7.048,31.504,19.483,53.773
			C900.494,1112.614,919.266,1146.167,950.817,1152.512z"/><path fill="#FFF" d="M1046.434,1189.234c13.256,4.593,27.503,5.822,41.361,3.738c13.452-2.008,25.933-7.349,37.206-14.847
			c12.345-8.246,23.141-18.458,34.173-28.329c11.97-10.668,24.504-20.739,37.658-29.92c5.95-4.13,11.926-8.416,18.301-11.864
			c5.309-2.877,11.47-5.08,17.428-2.85c0.067,0.025,0.112-0.018,0.179,0.006c0.619,0.934,1.284,1.824,1.882,2.78
			c2.026,3.163,3.982,6.391,5.802,9.704c0.39-0.368,0.802-0.668,1.235-0.99c-3.349-5.948-7.037-11.751-11.045-17.294
			c0.001-0.045,0.003-0.089-0.019-0.113c-1.033-2.754-1.5-5.78-1.68-8.733c-0.185-2.772-0.224-5.944,1.079-8.472
			c1.964-3.759,5.381-6.804,8.522-9.589c3.164-2.761,6.416-5.477,9.708-8.101c23.164-18.482,48.937-33.915,69.665-55.304
			c17.022-17.592,30.846-39.455,33.24-64.294c0.097-1-1.486-1.07-1.584-0.025c-1.414,14.467-6.847,28.165-14.602,40.41
			c-15.181,23.965-37.996,41.251-60.632,57.761c-12.549,9.134-25.208,18.151-36.876,28.405c-4.286,3.779-9.308,8.204-10,14.187
			c-0.412,3.337-0.164,6.959,0.583,10.375c-11.663-15.282-25.639-28.6-39.483-41.871c-0.629-0.622-1.303-1.245-1.931-1.866
			c0,0,0,0,0.001-0.045c-4.017-13.468-3.52-27.805-0.19-41.388c6.766-27.699,24.947-49.721,43.516-70.549
			c5.081-5.696,10.206-11.391,15.201-17.179c4.693-5.417,9.411-10.945,13.32-17.013c6.605-10.337,10.784-23.203,6.682-35.29
			c-0.328-0.946-1.879-0.613-1.529,0.356c5.171,15.2-2.958,30.268-12.194,42c-18.374,23.29-41.227,43.298-55.652,69.583
			c-11.073,20.182-17.185,44.754-11.326,67.45c-12.953-12.463-25.784-25.212-36.351-39.836
			c-5.765-8.008-10.622-16.523-14.866-25.355c-0.021-0.068,0.004-0.133-0.038-0.225c-0.065-0.069-0.107-0.16-0.193-0.252
			c-3.822-8.015-7.169-16.262-10.223-24.613c-5.076-13.902-9.496-28.028-14.412-41.992c0.732-15.559,5.404-30.709,10.949-45.163
			c9.927-25.952,24.639-50.644,28.532-78.541c3.444-24.83-4.005-54.137-27.417-66.935c-0.899-0.496-1.721,0.842-0.821,1.338
			c13.023,7.108,21.317,20.146,25.09,34.276c7.286,27.338-3.226,54.88-14.192,79.684c-10.101,22.824-21.368,46.481-23.46,71.686
			c-0.64-1.783-1.255-3.588-1.915-5.392c-6.678-17.766-15.079-34.647-25.451-50.537c-21.259-32.555-48.682-60.428-75.894-87.939
			c-0.692-0.734-1.841,0.347-1.149,1.082c3.337,3.359,6.674,6.718,9.988,10.097c26.101,26.607,51.926,54.209,71.166,86.324
			c-7.961-6.243-18.42-8.787-28.034-11.218c-12.052-3.038-25.926-7.093-32.019-19.038c-0.464-0.907-1.848-0.167-1.384,0.74
			c5.691,11.197,18.271,15.993,29.721,18.991c11.915,3.124,25.459,5.539,34.217,14.93c0.043,0.046,0.089,0.002,0.133,0.048
			c0,0,0,0,0.022,0.023c9.31,16.328,16.225,33.654,22.324,51.403c5.829,17.004,11.096,34.193,18.033,50.807
			c0.666,1.581,1.378,3.166,2.068,4.727c-9.908-10.52-24.942-15.344-39.197-16.352c-16.483-1.163-32.773,3.126-48.606,7.161
			c-15.723,4.016-31.442,7.161-47.647,7.994c-31.207,1.566-62.668-4.04-91.384-16.35c-0.925-0.429-1.373,1.119-0.448,1.505
			c15.648,6.718,32.113,11.451,48.93,14.12c15.084,2.393,30.419,3.121,45.671,2.148c15.745-1.046,30.974-4.252,46.224-8.126
			c15.902-4.055,32.255-8.23,48.817-6.753c15.293,1.372,31.63,7.396,40.452,20.675c6.265,12.909,13.849,25.011,23.069,36.134
			c12.692,15.223,27.403,28.589,41.612,42.338c1.214,1.198,2.408,2.372,3.6,3.545c-10.37-3.323-21.679-3.55-32.399-1.861
			c-11.527,1.798-22.505,6.112-33.302,10.386c-11.182,4.464-22.382,8.772-33.976,12.064c-22.489,6.403-45.76,9.814-69.118,10.141
			c-1.027,0.014-1.077,1.619-0.071,1.582c12.819-0.196,25.64-1.263,38.267-3.274c11.349-1.803,22.585-4.325,33.575-7.566
			c11.282-3.346,22.169-7.618,33.079-11.958c10.933-4.314,22.087-8.579,33.807-10.125c10.868-1.439,22.28-0.873,32.584,3.117
			c0.046,0.002,0.046-0.044,0.069-0.02c10.49,10.448,20.475,21.371,28.929,33.476c-5.45-1.368-11.059,0.361-15.979,2.915
			c-7.231,3.69-13.941,8.622-20.575,13.267c-12.815,9.037-25.05,18.825-36.746,29.28c-11.261,10.086-22.291,20.605-35.014,28.863
			c-11.564,7.51-24.328,12.597-38.015,14.263c-12.837,1.557-25.965,0.183-38.181-4.044
			C1045.93,1187.409,1045.483,1188.914,1046.434,1189.234z"/><path fill="#FCD4E6" d="M1811.236,1715.832c5.66,7.009,16.601,12.04,38.452,22.135c37.058,17.102,78.448,29.694,99.703,53.359
			c2.415,2.692,5.573,6.635,4.411,9.774c-2.488,6.67-24.254,8.425-41.933,2.333c-32.679-11.339-36.711-44.629-73.625-55.449
			c-7.378-2.189-9.454-1.52-10.7-0.714c-15.654,9.936-0.246,101.184,50.781,133.717c42.301,27.012,73.462-9.193,176.466-7.167
			c0.537-0.001,1.074-0.004,1.615,0.057c0.535-0.034,1.043-0.002,1.583,0.026c0.348,0.009,0.729,0.018,1.076,0.027
			c1.075-0.004,2.186,0.052,3.294,0.076c83.911,3.078,97.128,27.123,139.75,11.689c77.979-28.259,112.299-137.065,103.689-143.257
			c-3.479-2.499-12.25,12.789-44.491,31.898c-6.095,3.61-98.544,50.551-112.295,23.06c-2.101-4.23,2.166-10.76,5.362-14.217
			c45.005-48.781,114.156-3.609,158.659-73.823c33.347-52.66-4.282-133.842-10.932-133.011c-2.543,0.287,0.988,12.141-5.153,30.044
			c-7.977,23.362-28.787,37.765-70.115,65.668c-27.684,18.695-43.424,26.265-61.715,24.481c-3.597-0.373-15.367-1.526-17.261-7.477
			c-2.406-7.563,12.431-18.425,26.549-28.645c45.717-33.017,57.595-40.154,70.356-49.844c27.515-20.867,59.948-45.457,60.129-77.114
			c0.068-11.419-8.362-24.764-25.164-51.019c-19.923-31.116-40.128-56.175-55.895-74.558
			c-23.003-26.811-78.252-102.642-75.245-108.081c-3.196,0.455-2.939,7.015-7.926,14.664c-8.439,13.053-23.857,16.714-33.523,19.349
			c0,0-48.145,13.095-90.656,40.282c-18.018,11.539-27.045,17.295-32.122,27.006c-18.585,35.603,12.593,88.738,17.693,97.394
			c15.553,26.491,31.331,37.035,32.587,62.911c0.324,6.144,0.8,19.677-8.129,27.955c-10.156,9.399-26.344,6.376-30.757,5.58
			c-35.444-6.55-57.272-48.799-72.676-79.442c-25.497-50.777-22.706-74.158-34.946-75.725
			c-19.281-2.448-52.753,52.242-44.745,103.427c2.897,18.343,10.327,31.342,15.148,39.606c18.5,31.616,45.841,49.521,85.045,74.549
			c19.833,12.689,48.652,29.458,57.292,53.129c1.149,3.183,3.889,11.01,0.21,15.826c-1.11,1.461-5.869,6.695-26.077,2.09
			c-26.364-5.954-55.249-23.288-95.978-61.972c-24.654-23.418-37.144-35.465-44.029-52.861
			c-10.088-25.572-6.454-47.616-11.395-48.252c-5.765-0.68-14.686,28.749-19.331,53.828
			C1797.972,1652.996,1791.002,1690.806,1811.236,1715.832z"/><path fill="#FFF" d="M1861.392,1805.136c7.272,11.997,17.453,22.039,29.451,29.281c11.636,7.042,24.653,10.898,38.117,12.323
			c14.766,1.534,29.595,0.565,44.388,0.01c16.024-0.57,32.1-0.321,48.086,1.01c7.217,0.619,14.553,1.135,21.66,2.551
			c5.923,1.175,12.071,3.411,15.234,8.932c0.036,0.062,0.098,0.057,0.134,0.119c-0.12,1.114-0.176,2.224-0.326,3.341
			c-0.46,3.728-1.015,7.461-1.729,11.174c0.535-0.034,1.043-0.002,1.583,0.026c1.22-6.716,2.085-13.537,2.538-20.362
			c0.03-0.034,0.06-0.067,0.058-0.099c0.963-2.779,2.535-5.407,4.282-7.794c1.628-2.252,3.622-4.718,6.239-5.832
			c3.911-1.639,8.485-1.802,12.681-1.94c4.198-0.106,8.434-0.12,12.644-0.039c29.628,0.562,59.318,5.136,88.928,1.905
			c24.333-2.675,48.93-10.678,66.63-28.269c0.713-0.708-0.46-1.772-1.204-1.03c-10.323,10.233-23.25,17.308-37.036,21.783
			c-26.984,8.755-55.58,7.496-83.543,5.753c-15.49-0.981-30.991-2.121-46.518-1.677c-5.712,0.172-12.401,0.372-16.754,4.536
			c-2.447,2.305-4.569,5.252-6.174,8.357c0.779-19.207-1.477-38.382-3.661-57.434c-0.087-0.88-0.207-1.79-0.295-2.669
			c0,0,0,0,0.03-0.034c5.505-12.931,15.04-23.649,26.274-31.979c22.891-17.001,50.943-22.345,78.532-26.523
			c7.547-1.14,15.127-2.252,22.667-3.518c7.07-1.174,14.231-2.417,21.113-4.592c11.682-3.74,23.113-10.976,27.671-22.898
			c0.352-0.938-1.055-1.672-1.405-0.703c-5.723,15.001-21.6,21.41-36.197,24.544c-29.011,6.197-59.374,7.009-87.257,18.032
			c-21.407,8.466-41.798,23.477-51.776,44.688c-2.014-17.862-3.752-35.867-2.55-53.869c0.675-9.844,2.372-19.499,4.744-29.007
			c0.027-0.065,0.088-0.1,0.114-0.197c-0.006-0.094,0.02-0.192,0.011-0.317c2.175-8.609,4.864-17.094,7.844-25.471
			c4.968-13.941,10.583-27.636,15.713-41.522c10.496-11.508,23.763-20.188,37.259-27.773c24.208-13.638,51.296-23.253,72.1-42.24
			c18.502-16.914,31.477-44.227,21.627-69.024c-0.376-0.955-1.862-0.45-1.486,0.506c5.487,13.785,3.547,29.115-2.569,42.4
			c-11.844,25.694-37.517,40.183-61.793,52.275c-22.345,11.12-46.12,22.136-63.82,40.202c0.645-1.781,1.324-3.563,1.968-5.373
			c6.201-17.938,10.511-36.295,12.671-55.147c4.419-38.63,1.105-77.591-2.279-116.139c-0.063-1.007-1.638-0.907-1.575,0.1
			c0.425,4.715,0.849,9.431,1.242,14.148c3.105,37.142,5.363,74.874-0.33,111.876c-2.142-9.888-8.568-18.523-14.417-26.531
			c-7.336-10.032-15.427-22.01-12.492-35.094c0.221-0.994-1.315-1.308-1.537-0.314c-2.767,12.252,3.854,23.974,10.753,33.591
			c7.177,10.011,16.061,20.516,16.807,33.336c0.004,0.063,0.067,0.058,0.071,0.122c0,0,0,0,0.002,0.032
			c-3.257,18.511-8.996,36.262-15.632,53.817c-6.368,16.809-13.287,33.402-18.554,50.619c-0.497,1.642-0.96,3.317-1.426,4.959
			c-0.911-14.422-9.403-27.733-19.732-37.609c-11.944-11.418-27.221-18.515-41.985-25.517c-14.666-6.946-28.773-14.56-41.778-24.265
			c-25.021-18.717-45.658-43.116-59.903-70.923c-0.438-0.921-1.771-0.016-1.305,0.873c7.756,15.16,17.407,29.314,28.649,42.104
			c10.083,11.471,21.422,21.821,33.783,30.808c12.787,9.246,26.556,16.501,40.767,23.253c14.828,7.031,30.081,14.256,41.886,25.966
			c10.895,10.819,19.625,25.885,17.939,41.738c-3.419,13.936-5.307,28.092-5.31,42.54c0.051,19.82,2.843,39.499,5.002,59.152
			c0.17,1.697,0.339,3.363,0.508,5.027c-5.861-9.178-14.421-16.572-23.75-22.116c-10.021-5.975-21.224-9.662-32.263-13.265
			c-11.457-3.702-22.828-7.536-33.854-12.404c-21.398-9.428-41.487-21.659-59.675-36.318c-0.8-0.645-1.862,0.56-1.064,1.173
			c9.992,8.033,20.542,15.396,31.545,21.909c9.887,5.857,20.145,11.089,30.673,15.61c10.82,4.627,21.927,8.288,33.096,11.913
			c11.169,3.659,22.478,7.497,32.485,13.788c9.284,5.83,17.707,13.551,23.091,23.2c0.034,0.031,0.063-0.004,0.065,0.029
			c1.405,14.738,2.118,29.52,0.897,44.235c-3.321-4.533-8.743-6.782-14.161-7.957c-7.921-1.776-16.234-2.263-24.306-2.922
			c-15.633-1.225-31.299-1.501-46.975-0.921c-15.107,0.574-30.312,1.63-45.376-0.136c-13.695-1.602-26.767-5.834-38.367-13.29
			c-10.875-6.995-20.102-16.435-26.807-27.487C1862.169,1803.411,1860.865,1804.284,1861.392,1805.136z"/><path fill="#472D88" d="M1705.714,606.975c4.243,42.943-1.27,90.608-29.137,125.213c-22.206,23.845-53.521,37.907-74.281,63.186
			c-16.643,16.844-13.078,37.835-1.026,55.934c16.083,28.55,29.455,61.961,21.77,95.251
			c-11.903,41.579-34.776,82.263-67.465,110.952c30.283-30.272,51.211-70.835,62.129-112.006
			c6.57-32.233-6.724-63.394-22.317-91.064c-13.797-19.648-16.187-45.363,1.896-63.238c21.175-25.546,52.588-39.021,75.621-62.126
			C1700.949,695.681,1707.575,649.354,1705.714,606.975z"/><polygon fill="#F5BFBF" points="1776.57 1689.807 1789.84 1781.694 1912.34 1756.577 1889.917 1678.567"/><path fill="#7B83E0" d="M2133.664,1880.156c-5.359,8.79-14.693,14.835-25.788,15.733c-10.654,0.866-36.403,0.775-69.251-0.146
				c-2.132-0.052-4.304-0.104-6.494-0.177c-96.227-2.845-246.093-12.197-264.717-24.911c-6.64-4.532-7.157-16.712-4.258-32.252
				l0.003-0.053c8.263-44.29,21.04-100.655,21.04-100.655c30.687-3.801,35.737,8.514,68.666,15.088
				c11.892,2.367,21.687-0.501,29.356-5.131c12.83-7.763,19.859-22.023,32.074-13.242c4.489,3.233,19.814,22.068,25.574,25.416
				c2.578,1.517,5.276,3.022,8.115,4.516c5.112,2.729,10.644,5.443,16.539,8.067c2.732,1.221,5.546,2.429,8.441,3.587
				c6.825,2.795,14.074,5.451,21.752,7.913c3.26,1.034,6.602,2.054,10.026,3.006c8.616,2.455,17.706,4.614,27.231,6.419
				c2.234,0.431,4.507,0.845,6.802,1.226c3.759,0.63,7.395,1.309,10.911,2.034c7.741,1.592,14.893,3.407,21.477,5.405l0.021,0.001
				c2.063,0.619,4.087,1.253,6.049,1.92c0,0,0,0-0.001,0.018C2136.885,1824.017,2146.145,1859.616,2133.664,1880.156z"/><path fill="#5B65C2" d="M2133.664,1880.156c-5.359,8.79-14.693,14.835-25.788,15.733c-41.735,3.347-314.87-7.774-340.462-25.234
				c-6.64-4.532-7.157-16.712-4.258-32.252c-0.307,6.65,4.232,21.843,48.448,29.704
				C1868.298,1878.185,2056.253,1893.421,2133.664,1880.156z"/><path fill="#5B65C2" d="M2133.664,1880.156c-5.359,8.79-14.693,14.835-25.788,15.733c-10.654,0.866-36.403,0.775-69.251-0.146
				c-1.056-3.26-2.182-6.737-3.394-10.485c-18.074-55.512,35.932-83.258,35.932-83.258l0.021,0.001
				c2.063,0.619,4.087,1.253,6.049,1.92c0,0,0,0-0.001,0.018C2136.885,1824.017,2146.145,1859.616,2133.664,1880.156z"/><path fill="#4085B9" d="M1907.628,1765.694c-0.071-3.372,2.93-6.169,6.705-6.248c3.774-0.079,6.89,2.59,6.961,5.961
				c0.071,3.371-2.931,6.169-6.704,6.248C1910.814,1771.734,1907.698,1769.065,1907.628,1765.694z"/><path fill="#4085B9" d="M1940.904,1774.147c-0.071-3.371,2.931-6.169,6.704-6.248c3.774-0.079,6.89,2.59,6.961,5.961
				c0.07,3.372-2.931,6.169-6.705,6.248C1944.091,1780.187,1940.974,1777.518,1940.904,1774.147z"/><path fill="#4085B9" d="M1974.97,1793.031c0.166-3.368,3.356-5.948,7.126-5.762c3.77,0.185,6.692,3.066,6.526,6.434
				c-0.166,3.368-3.356,5.948-7.126,5.763C1977.727,1799.28,1974.805,1796.399,1974.97,1793.031z"/><path fill="#4085B9" d="M2007.572,1803.796c0.166-3.368,3.356-5.948,7.126-5.762c3.77,0.186,6.692,3.066,6.526,6.434
				c-0.166,3.368-3.356,5.948-7.126,5.763C2010.328,1810.045,2007.407,1807.164,2007.572,1803.796z"/><path fill="#FFF" d="M1945.249,1755.872c-14.094,1.667-25.976,9.02-26.153,9.131c-0.492,0.313-1.066,0.468-1.644,0.48
					c-0.956,0.02-1.921-0.369-2.515-1.122c-0.942-1.208-0.618-2.871,0.739-3.718c0.59-0.386,9.362-5.841,21.16-8.705
					C1939.515,1753.268,1942.313,1754.581,1945.249,1755.872z"/><path fill="#FFF" d="M1972.964,1775.997c-10.729,1.967-18.961,6.302-19.105,6.384c-0.513,0.278-1.097,0.392-1.673,0.363
					c-0.955-0.047-1.891-0.502-2.429-1.295c-0.855-1.272-0.416-2.908,0.998-3.658c0.471-0.262,5.899-3.132,13.77-5.382
					C1967.255,1773.631,1970.069,1774.838,1972.964,1775.997z"/><path fill="#FFF" d="M2004.742,1786.916c-10.314,2.041-18.157,6.164-18.279,6.229c-0.512,0.278-1.097,0.391-1.674,0.363
					c-0.955-0.047-1.89-0.502-2.43-1.295c-0.855-1.272-0.416-2.907,0.998-3.658c0.409-0.23,4.813-2.561,11.359-4.645
					C1997.977,1784.944,2001.318,1785.964,2004.742,1786.916z"/><path fill="#FFF" d="M2049.687,1796.595c-15.734-0.507-30.436,7.217-30.62,7.315c-0.512,0.278-1.097,0.392-1.673,0.364
					c-0.975-0.048-1.891-0.504-2.43-1.296c-0.854-1.272-0.415-2.907,0.998-3.658c0.513-0.278,6.944-3.686,16.013-5.984
					c2.234,0.431,4.507,0.845,6.802,1.226C2042.534,1795.191,2046.171,1795.869,2049.687,1796.595z"/><path fill="#291269" d="M1102.084,1697.852c0,0,407.738-556.034,596.899-499.763c170.155,50.616,213.75,487.507,213.75,487.507
			l-141.196,23.146l-108.075-263.431c0,0-142.092,437.174-345.628,437.174C1175.68,1882.484,1102.084,1697.852,1102.084,1697.852z"/><polygon fill="#FFD6D6" points="1832.922 1711.461 1846.192 1803.348 1968.692 1778.23 1946.268 1700.22"/><path fill="#472D88" d="M1710.719,631.939c-3.632,43.262-32.53,85.205-73.977,97.92l-51.025,106.011
			c34.677,54.162,29.888,130.454-11.229,179.827c-9.742,11.889-21.467,22.29-29.392,35.501c-16.018,26.752-14.366,60.107-24.44,89.5
			c-4.292,12.55-10.898,23.945-19.32,34.015c-28.732,34.844-77.94,53.008-121.865,40.951c-11.229-2.971-21.797-7.761-32.365-12.713
			c-18-36.66-111.132-21.796-122.69-64.401c-12.385-45.741-33.356-88.839-7.431-152.413c25.76-63.576,53.171-77.444,33.355-112.454
			c-15.191-26.586,21.632-143.826,25.265-152.578c3.303-8.091,4.459-16.843,4.954-25.596c0.33-3.798,0.66-7.43,0.825-11.228
			c2.477-39.794,10.734-80.087,31.044-114.598c20.312-34.348,53.832-62.254,93.298-69.025c26.916-4.624,54.823,0.659,81.903-4.129
			c32.2-5.448,61.759-25.1,94.619-25.265c32.2-0.329,61.758,18.66,83.555,42.274
			C1695.363,545.575,1714.188,588.674,1710.719,631.939z"/><path fill="#ED7BAF" d="M1357.157,981.699c-12.722,128.944,3.878,391.094,106.028,504.277
			c57.662,63.891,305.66-101.9,305.66-101.9l-35-85.615l-141.21,59.18c0,0-0.769-366.385-81.621-470.039
			C1456.959,818.304,1366.338,888.656,1357.157,981.699z"/><path fill="#FCA1CA" d="M1417.817,862.159c-116.895,7.686-271.231,83.942-323.665,401.841
			c-43.897,266.141-10.889,447.794,15.226,476.332c62.384,77.724,288.071-270.355,446.196-442.141
			c-41.615-121.962,50.028-270.164-44.561-410.589L1417.817,862.159z"/><path fill="#ED89B6" d="M1540.027,1495.949c-0.461-4.695-145.121-150.165-219.229-224.41l52.891-8.445
			c0,0,64.349-101.37,65.23-115.914c0.881-14.545-229.186-143.241-229.186-143.241s-32.392,82.418-9.403,123.848
			c18.968,34.182,45.483,77.298,56.684,107.394c25.588,68.756,36.551,156.062,40.248,180.858
			c10.897,73.082-160.349,247.334-165.369,315.607c-5.02,68.273,261.188,48.286,261.188,48.286s141.038-145.733,141.038-151.021
			C1534.119,1623.621,1540.646,1502.264,1540.027,1495.949z"/><path fill="#43268C" d="M1956.219,1720.069c-22.504,10.002-53.051,15.904-88.26,17.841c-14.372,0.812-29.533,0.946-45.212,0.451
			l-90.896-201.007l-24.622-54.425l-2.456-5.428c0,0-89.476,334.906-308.437,395.729c-21.874,6.127-45.053,9.46-69.563,9.46
			c-96.978,0-158.611-62.377-188.009-102.046c-13.313-17.954-13.516-42.305-0.766-60.687
			c36.088-51.97,118.108-166.722,213.126-277.711c0-0.022,0.023-0.022,0.023-0.022c128.583-150.232,280.977-293.638,375.702-265.456
			C1896.996,1227.385,1956.219,1720.069,1956.219,1720.069z"/><path fill="#331978" d="M1867.959,1737.91c-14.372,0.812-29.533,0.946-45.212,0.451l-90.896-201.007l-24.622-54.425
			c-1.689-20.702-4.393-52.059-0.338-52.059c5.902,0,183.639-9.912,183.639-9.912s-93.969,73.607-118.411,84.781
			C1747.723,1516.867,1819.999,1685.501,1867.959,1737.91z"/><path fill="#331978" d="M1704.774,1477.501c0,0-89.476,334.906-308.437,395.729c98.037-39.85,200.241-196.705,201.255-228.445
			c1.172-36.449-68.151,3.602-107.051,8.991c-55.97,7.754-142.415-142.103-139.415-211.53c0-0.022,0-0.022,0-0.022l6.035-7.901
			l345.023,27.589L1704.774,1477.501z"/><path fill="#FFD6D6" d="M1528.276,817.036c0,0-5.587,22.527-10.88,44.198c-2.365,9.664-4.663,19.148-6.375,26.379
			c-13.043,25.973-36.373,17.893-51.535,11.722c-18.16-7.391-32.806-18.119-41.659-37.177c0,0,13.561-19.756,27.1-42.485
			c8.245-13.81,16.467-28.745,21.671-40.976L1528.276,817.036z"/><path fill="#F0B1B1" d="M1517.396,861.234c0,0-24.419,2.545-36.155-3.919c-10.137-5.565-23.106,20.439-21.754,42.02
			c-19.373-3.018-32.806-18.119-41.659-37.177c0,0,17.249-56.156,30.787-78.885C1472.065,796.563,1517.396,861.234,1517.396,861.234
			z"/><path fill="#FFD6D6" d="M1778.537,1376.268c0-1.077,68.52-62.327,94.635-35.404c26.115,26.923,38.366,63.436,17.365,80.096
			c-21,16.66-90.192,26.654-90.192,26.654L1778.537,1376.268z"/><path fill="#F5BFBF" d="M1895.355,1372.931c5.256,16.191,3.742,31.268-7.756,40.39c-19.918,15.802-83.15,25.6-89.615,26.568
			l2.361,7.725c0,0,69.192-9.993,90.192-26.653C1903.829,1410.415,1903.789,1391.916,1895.355,1372.931z"/><path fill="#FF84BC" d="M1261.255,1144.607c18.336,128.267,96.858,378.93,223.012,464.546
			c71.213,48.329,335.731-162.616,335.731-162.616c-18.31-19.031-29.145-46.196-34.762-79.036l-202.7,63.421
			c0,0-40.418-377.68-143.619-459.11C1369.923,917.373,1248.025,1052.052,1261.255,1144.607z"/><path fill="#EB6AA5" d="M1496.521,1560.983c-126.155-85.615-216.93-316.006-235.266-444.272c-0.12-0.837-0.21-1.665-0.312-2.497
			c-1.23,9.591-1.209,19.755,0.312,30.394c18.336,128.267,96.858,378.929,223.012,464.546
			c71.213,48.329,335.731-162.616,335.731-162.616c-5.022-5.22-9.464-11.073-13.408-17.467
			C1751.974,1470.965,1558.107,1602.779,1496.521,1560.983z"/><path fill="#A6AEFF" d="M2197.361,1880.039c-4.73,9.144-13.617,15.828-24.622,17.501c-10.568,1.611-36.259,3.325-69.091,4.709
				c-2.13,0.098-4.3,0.197-6.49,0.278c-96.19,3.907-246.342,5.084-265.812-6.294c-6.941-4.055-8.311-16.169-6.508-31.874
				l-0.001-0.053c5.138-44.76,13.933-101.882,13.933-101.882c30.345-5.943,36.246,5.987,69.554,10.238
				c12.029,1.528,21.599-2.02,28.924-7.177c12.254-8.643,18.266-23.361,31.067-15.458c4.704,2.91,21.312,20.625,27.293,23.561
				c2.678,1.332,5.476,2.645,8.412,3.936c5.291,2.363,10.999,4.683,17.064,6.888c2.811,1.027,5.703,2.034,8.672,2.987
				c7.004,2.31,14.422,4.45,22.254,6.369c3.325,0.803,6.729,1.586,10.212,2.296c8.767,1.845,17.985,3.362,27.614,4.494
				c2.258,0.273,4.555,0.527,6.871,0.746c3.794,0.365,7.469,0.787,11.027,1.264c7.834,1.046,15.095,2.354,21.803,3.886l0.02-0.001
				c2.102,0.472,4.166,0.963,6.169,1.491c0,0,0,0,0,0.018C2196.638,1823.812,2208.371,1858.675,2197.361,1880.039z"/><path fill="#8B93EB" d="M1919.524,1772.663c12.029,1.528,21.599-2.021,28.924-7.177c7.551-5.326,12.734-12.953,18.594-16.177
					c-11.94-6.193-17.954,7.826-29.795,16.177c-4.951,3.484-10.954,6.19-18.022,7.135
					C1919.327,1772.634,1919.422,1772.65,1919.524,1772.663z"/><path fill="#8B93EB" d="M1842.546,1896.234c-6.941-4.055-8.311-16.169-6.508-31.874l-0.001-0.054
					c5.138-44.76,13.933-101.882,13.933-101.882c3.459-0.677,6.588-1.112,9.489-1.363c-5.757-0.554-12.284-0.283-20.69,1.363
					c0,0-8.795,57.122-13.933,101.882l0.001,0.054c-1.802,15.705-0.433,27.819,6.508,31.874
					c11.802,6.896,71.627,9.179,138.341,9.038C1907.587,1905.142,1853.683,1902.743,1842.546,1896.234z"/><path fill="#5B65C2" d="M2197.361,1880.039c-4.73,9.144-13.617,15.828-24.622,17.501c-41.398,6.264-314.64,14.316-341.393-1.306
				c-6.941-4.055-8.311-16.169-6.508-31.874c0.159,6.655,5.76,21.422,50.41,26.235
				C1949.32,1898.579,2121.07,1898.697,2197.361,1880.039z"/><path fill="#5B65C2" d="M2197.361,1880.039c-4.73,9.144-13.617,15.828-24.622,17.501c-10.568,1.611-36.259,3.325-69.091,4.709
				c-1.282-3.178-2.649-6.568-4.121-10.222c-21.921-54.108,30.008-85.572,30.008-85.572l0.02-0.001
				c2.102,0.472,4.166,0.963,6.169,1.491c0,0,0,0,0,0.018C2196.638,1823.812,2208.371,1858.675,2197.361,1880.039z"/><path fill="#5B65C2" d="M1966.398,1787.347c-0.071-3.371,2.931-6.169,6.705-6.248c3.774-0.079,6.89,2.59,6.961,5.961
				c0.07,3.371-2.931,6.169-6.705,6.248C1969.585,1793.387,1966.469,1790.718,1966.398,1787.347z"/><path fill="#5B65C2" d="M1999.674,1795.8c-0.07-3.371,2.931-6.169,6.705-6.248c3.774-0.079,6.891,2.59,6.961,5.962
				c0.071,3.371-2.931,6.169-6.704,6.248C2002.862,1801.84,1999.745,1799.171,1999.674,1795.8z"/><path fill="#5B65C2" d="M2032.95,1804.252c-0.071-3.371,2.931-6.169,6.704-6.248c3.774-0.079,6.89,2.59,6.961,5.961
				c0.071,3.371-2.931,6.169-6.705,6.248C2036.138,1810.292,2033.021,1807.624,2032.95,1804.252z"/><path fill="#5B65C2" d="M2066.226,1812.705c-0.071-3.372,2.931-6.169,6.705-6.248c3.774-0.079,6.89,2.59,6.961,5.961
				c0.071,3.371-2.931,6.169-6.705,6.248C2069.414,1818.745,2066.297,1816.077,2066.226,1812.705z"/><path fill="#FFF" d="M2004.02,1777.525c-14.094,1.667-25.976,9.02-26.153,9.13c-0.491,0.313-1.066,0.468-1.644,0.48
					c-0.956,0.02-1.921-0.369-2.515-1.122c-0.942-1.209-0.618-2.871,0.739-3.719c0.59-0.386,9.362-5.841,21.16-8.705
					C1998.285,1774.921,2001.083,1776.234,2004.02,1777.525z"/><path fill="#FFF" d="M2029.755,1787.4c-10.565,2.714-18.473,7.616-18.611,7.708c-0.491,0.313-1.066,0.468-1.644,0.479
					c-0.956,0.02-1.921-0.369-2.514-1.122c-0.943-1.209-0.619-2.872,0.739-3.719c0.452-0.295,5.665-3.538,13.359-6.334
					C2023.894,1785.44,2026.786,1786.448,2029.755,1787.4z"/><path fill="#FFF" d="M2062.22,1796.065c-10.146,2.759-17.68,7.422-17.798,7.495c-0.492,0.313-1.067,0.468-1.645,0.479
					c-0.956,0.02-1.921-0.369-2.514-1.122c-0.942-1.209-0.619-2.871,0.739-3.719c0.392-0.258,4.622-2.892,11.005-5.43
					C2055.333,1794.572,2058.738,1795.355,2062.22,1796.065z"/><g><path fill="#FFF" d="M2107.732,1802.569c-15.73,0.597-29.855,9.333-30.032,9.443c-0.491,0.313-1.066,0.468-1.644,0.48
					c-0.976,0.021-1.921-0.37-2.515-1.122c-0.942-1.209-0.618-2.871,0.739-3.719c0.492-0.313,6.669-4.164,15.554-7.092
					c2.258,0.273,4.555,0.527,6.871,0.746C2100.5,1801.671,2104.175,1802.092,2107.732,1802.569z"/></g><path fill="#472D88" d="M1345.381,1201.067c-30.486-35.406-87.052-29.752-122.69-64.4c-33.976-33.033-33.356-88.839-7.431-152.413
			c25.76-63.576,53.171-77.444,33.355-112.453c-15.192-26.586-28.538-73.064,1.714-117.581c5.762-8.478,25.151-30.211,30.434-61.045
			l176.898,20.722c0,0,15.742,66.807,13.712,99.12c-4.179,66.521-45.102,63.56-19.321,128.138
			c16.793,42.063,59.281,99.077,34.512,140.524c-16.348,27.249,16.437,61.829,13.045,91.151
			C1493.58,1224.96,1407.193,1272.855,1345.381,1201.067z"/><path fill="#FFD6D6" d="M1665.037,668.652c0,0-28.721,187.265-118.04,196.884c-4.956,0.54-9.686,0.473-14.214-0.09
			c-64.517-8.11-84.138-122.096-73.438-149.578c0.022-0.068,0.045-0.09,0.045-0.09s-31.515-44.559,2.568-65.283
			c6.262-3.807,11.601-4.798,16.129-3.875c0.023,0,0.023,0,0.023,0c19.599,3.965,24.307,43.184,24.307,43.184
			c80.917,14.53,126.353,0.135,147.573-10.97c0.068-0.023,0.113-0.068,0.158-0.09c9.597-5.023,14.17-9.394,14.823-10.025
			c0.022-0.022,0.045-0.045,0.045-0.045C1665.037,668.652,1665.037,668.652,1665.037,668.652z"/><path fill="#F5BFBF" d="M1664.969,668.72c-17.506,25.596-70.554,39.963-107.047,36.404c-54.064-5.294-55.506-15.319-55.506-15.319
			C1583.332,704.334,1629.172,691.451,1664.969,668.72z"/><path fill="#472D88" d="M1294.937,608.789c15.627,71.436-52.566,102.879-54.328,159.836c0.327,28.973,15.075,55.253,23.45,82.583
			c10.695,28.861,3.634,62.721-20.101,82.893c-67.498,49.276-79.815,106.678-39.338,180.113
			c-45.06-72.192-32.608-134.156,35.011-184.469c28.076-24.007,26.528-61.541,12.353-92.865
			C1192.938,714.687,1304.536,712.67,1294.937,608.789z"/><path fill="#583D9C" d="M1669.867,598.16c-17.651,57.056-87.412,78.068-141.591,72.87
			C1580.297,659.626,1638.692,645.386,1669.867,598.16z"/><path fill="#583D9C" d="M1533.991,494.018c-12.971,66.23-98.615,33.071-142.881,53.958
			c-105.037,45.985-15.641,145.907-119.801,227.823c20.222-23.646,39.928-50.392,45.987-81.432
			c4.422-60.086,0.51-132.907,69.581-156.346C1432.218,515.641,1513.482,556.75,1533.991,494.018z"/><path fill="#583D9C" d="M1402.659,743.184c54.369,63.578,5.005,114.477,5.485,183.126c-2.667,65.898,65.604,129.7,38.135,194.149
			c17.171-66.891-49.142-121.325-49.079-187.659C1392.666,860.266,1449.42,814.009,1402.659,743.184z"/><path fill="#583D9C" d="M1288.645,905.083c-35.161,66.613-74.344,148.328-40.568,222.703
			C1198.102,1059.227,1239.274,962.572,1288.645,905.083z"/><path fill="#F5BFBF" d="M1532.782,865.446c-64.517-8.11-84.138-122.096-73.438-149.578c0.022-0.068,0.045-0.09,0.045-0.09
			s10.43,137.999,72.987,149.6L1532.782,865.446z"/><path fill="#472D88" d="M1450.819,716.574c5.446,29.47,16.551,56.666,30.116,83.065c19.151,46.639-22.515,84.335-41.853,122.337
			c-6.973,13.484-0.64,26.867,7.473,38.054c26.386,39.509,75.767,76.589,60.599,129.885c-2.137,18.913-7.271,40.323,4.046,57.265
			c-15.119-20.721-7.262-48.748-5.759-72.406c2.17-51.518-51.364-81.326-72.195-124.066c-5.618-9.494-4.712-21.688-0.304-31.298
			c14.242-30.916,43.702-54.883,47.256-90.167c2.859-19.863-7.706-37.535-15.231-55.091
			C1458.035,755.55,1453.542,736.178,1450.819,716.574z"/><path fill="#F0B1B1" d="M1455.222,669.846c-6.524,19.046,4.167,45.933,4.167,45.933s-31.515-44.559,2.568-65.283
			c6.262-3.807,11.601-4.798,16.129-3.875C1477.118,646.756,1460.956,653.107,1455.222,669.846z"/><g><path fill="#CAC1E3" d="M1571.376,276.76c109.563,27.06,45.267-62.963-21.052-26.841c-51.91,37.987,26.69,71.669,61.904,53.989
			c18.935-6.306,38.599-20.377,44.225-40.486c8.65-51.951-70.683-62.631-108.219-65.583c-41.728-1.626-129.766,21.454-106.683,77.74
			c49.021,59.069,137.238,67.944,209.058,77.385c89.682,6.074,227.016-1.851,251.893-108.025
			c-4.159-45.74-79.647-56.861-113.784-75.974c-81.828-33.284-166.894-61.095-255.107-70.354
			c-218.702-29.684-467.994,124.545-118.689,214.015c81.074,23.421,166.087,17.184,247.179-2.749
			c60.753-15.32,125.923-30.323,175.665-70.409c52.775-43.054-10.226-91.167-53.528-106.029
			c-109.003-38.807-218.521-92.406-336.931-88.157c-125.054,2.725-201.294,83.058-107.359,191.955
			c84.118,82.541,282.378,98.819,395.798,86.49c71.76-4.291,118.654-71.14,42.787-115.331
			c-61.241-37.157-133.288-52.297-202.866-65.664c-116.311-22.578-236.907-0.097-350.86,26.301
			c-184.286,49.617,15.736,130.012,94.655,153.758c109.224,33.146,221.901,52.331,335.718,59.775
			c85.424,5.373,188.148,5.005,250.657-62.433c76.411-84.695-30.141-171.837-112.978-189.268
			C1611.373,72.706,1397,94.051,1246.262,216.466c-38.719,28.611-76.179,74.467-14.897,103.661
			c75.509,40.925,160.658,60.749,244.115,78.474c99.278,15.236,237.957,46.286,328.63-6.358
			c37.24-26.967,18.663-77.668-5.096-107.32c-51.208-70.185-132.917-108.399-213.697-133.986
			c-26.813-8.33-53.825-16.389-81.084-23.025c-70.086-4.152-304.705-119.232-323.707-14.948
			c-0.984,59.645,60.572,97.492,99.646,134.391c92.933,73.982,206.699,117.412,322.457,140.178
			c77.904,10.928,322.373,59.478,359.148-25.769c20.948-143.182-538.064-243.313-615.002-154.503
			c-5.774,3.62-12.884,41.842-1.289,27.856c-1.633-22.132,16.094-38.296,36.319-43.238
			c158.116-32.888,390.348,11.432,528.054,95.417c98.348,68.972,24.1,118.757-64.582,116.028
			c-143.324-0.143-289.19-19.518-421.326-77.34c-58.964-22.088-316.959-178.173-212.377-245.652
			c64.437-15.15,131.128,14.549,193.604,28.918c88.752,25.79,181.401,40.378,265.054,81.509
			c57.698,25.408,201.703,131.646,128.213,197.84c-105.874,56.561-299.902,9.217-413.503-17.552
			c-38.118-12.537-184.087-47.33-179.934-93.764c15.279-46.251,66.663-70.749,104.531-97.028
			c91.981-54.105,200.186-77.247,306.356-73.647c96.062,7.277,204.811,19.92,279.562,86.072
			c78.868,78.626-13.285,165.434-98.058,177.465c-165.424,25.392-387.383-18.525-543.451-77.657
			c-191.881-80.298-63.782-115.239,61.506-136.306c54.383-8.535,109.228-14.737,164.217-17.526
			c60.653,1.301,120.839,13.935,179.465,28.924c52.698,17.206,121.175,30.385,150.258,82.36
			c12.702,57.914-64.11,68.658-105.908,70.836c-109.751,3.053-322.784-11.173-380.852-117.622
			c-49.058-83.785,8.52-138.352,92.873-148.357c114.141-16.564,224.021,31.553,328.756,70.483
			c268.557,91.178-38.192,178.007-156.164,191.886c-80.407,13.263-162.378-3.545-238.09-31.061
			c-239.964-89.864-2.703-193.256,131.478-184.2c114.902,1.464,225.643,39.243,330.461,83.561
			c30.026,16.312,100.05,28.124,79.898,75.295c-8.96,22.279-25.69,40.094-45.816,52.824
			c-48.745,29.808-108.121,35.467-164.123,34.687c-56.617-1.298-239.225-23.181-238.246-96.76
			c36.762-64.482,150.897-58.505,201.677-14.139c29.132,54.256-77.772,88.756-104.683,44.244c-6.5-29.03,35.28-37.126,56.369-31.914
			c10.393,1.537,35.31,11.026,23.56,24.127C1614.127,283.351,1557.17,261.989,1571.376,276.76z"/></g><g><path fill="#D4D5FF" d="M1266.901,1604.227c7.952,16.534,9.65,37.094,9.65,37.094s10.918,50.303,7.16,96.411
			c-1.448,16.296-3.427,41.258-16.894,68.874c-1.519,2.855-3.038,5.71-4.562,8.568c-1.568,2.803-3.239,5.499-5.162,8.032
			c-1.345,1.983-2.686,3.964-4.128,5.838c-0.702,1.07-1.396,2.032-2.195,2.993c-24.386,32.146-55.533,47.738-67.664,53.32
			c-11.758,5.127-54.474,22.438-105.83,11.675c-31.769-6.7-73.316-25.073-71.814-45.549c0.514-3.917,2.309-7.436,0.725-12.282
			c-2.801-9.736-14.573-12.257-29.848-17.093c-28.303-8.885-42.512-13.121-48.281-21.951c-2.792-3.999-5.306-14.915-10.389-36.493
			c-3.546-14.975-3.161-15.946-5.167-18.374c-10.348-11.736-30.417,3.205-55.63-3.174c-19.302-5.039-37.8-21.53-41.129-41.045
			c-1.773-11.519,3.023-15.172,2.24-37.208c-0.587-15.569-1.055-23.592-4.649-30.558c-14.04-27.076-62.803-9.763-72.39-33.108
			c-4.719-11.542,2.109-28.01,8.607-43.762c6.867-16.001,11.896-18.664,13.928-25.434c12.095-38.609-112.799-88.041-105.587-105.48
			c5.557-13.243,93.388-16.28,148.213,4.391c8.442,3.367,24.75,10.346,43.052,3.938c21.164-7.212,23.736-24.875,38.717-26.714
			c7.565-0.74,12.274,3.05,53.445,40.327c13.081,11.961,22.12,20.303,30.058,16.993c7.783-3.163,8.554-15.185,19.721-19.447
			c1.726-0.835,5.683-1.975,12.368-0.667c22.23,3.871,43.32,28.077,53.4,40.169c20.265,24.084,28.488,38.04,35.172,35.418
			c6.532-2.882,3.091-17.855,13.831-25.643c7.732-5.333,18.288-3.773,24.738-1.335c9.109,3.541,13.147,11.394,22.758,35.826
			c9.906,25.058,10.573,29.262,16.338,42.329c9.553,22.673,18.333,43.257,28.497,41.864c9.181-1.267,10.089-18.66,26.298-26.103
			c0.682-0.344,13.122-5.816,24.738-1.334C1256.966,1588.471,1262.928,1595.908,1266.901,1604.227z"/><path fill="#FFF" d="M1224.173,1653.185c10.941,11.957,3.599,29.566,0.851,43.272c-2.612,13.032-4.144,26.282-4.571,39.567
			c-0.813,25.328,2.57,50.659,9.604,74.99c-0.086-0.06-0.161-0.123-0.248-0.182c-23.69-17.501-48.979-33.081-73.541-48.847
			c-25.321-16.254-50.475-33.069-73.283-52.82c-19.01-16.507-35.016-35.364-50.385-54.928c-0.01-0.01-0.017-0.022-0.026-0.033
			c-0.384-27.975,10.237-54.175,12.245-81.809c1.759-24.209-6.497-51.995-31.242-61.321c-2.201-0.829-3.21,2.683-1.016,3.509
			c26.165,9.861,31.101,40.938,27.81,65.316c-3.162,23.436-10.744,45.998-11.344,69.743c-0.026-0.034-0.053-0.066-0.08-0.099
			c-1.801-2.32-3.602-4.64-5.403-6.96c-14.66-19.03-29.787-37.915-48.895-52.614c-13.174-10.257-27.206-19.294-41.456-27.821
			c-1.883-26.16-11.469-52.658-28.444-72.83c-1.514-1.801-4.157,0.722-2.648,2.516c15.819,18.799,25.001,43.531,27.195,67.947
			c-0.737-0.464-1.478-0.84-2.218-1.307c-34.318-20.304-69.811-38.885-106.033-55.464c-3.167-1.427-6.386-2.902-9.607-4.277
			c-2.096-0.931-3.984,2.173-1.889,3.104c34.501,15.09,68.115,32.535,100.819,51.148c17.371,9.898,34.525,20.207,50.98,31.683
			c3.755,2.681,7.409,5.357,10.849,8.236c0.004,0.004,0.011,0.007,0.015,0.011c-10.716,8.663-25.072,6.411-37.794,5.251
			c-11.208-1.021-22.444-0.503-33.482,1.74c-21.812,4.43-42.088,15.258-57.907,30.904c-1.669,1.651,0.843,4.304,2.517,2.648
			c16.792-16.609,38.609-27.491,61.968-31.011c12.033-1.814,23.621-0.765,35.652,0.217c11.258,0.918,22.874,0.205,31.896-7.326
			c0.036-0.029,0.017-0.069,0.051-0.101c0.006,0.007,0.015,0.011,0.022,0.018c11.037,9.066,20.963,19.085,30.292,30.278
			c18.955,22.81,35.429,47.571,56.285,68.775c20.305,20.619,43.582,38.11,67.51,54.277c2.034,1.394,4.118,2.738,6.201,4.086
			c0.006,0.006,0.015,0.009,0.022,0.013c-28.976,11.702-59.573,23.744-91.435,19.954c-7.371-0.878-14.594-2.699-21.487-5.456
			c-6.672-2.67-13.098-6.145-20.188-7.623c-13.245-2.76-25.64,2.943-37.237,8.701c-2.11,1.048-0.38,4.267,1.723,3.222
			c6.632-3.292,13.378-6.629,20.663-8.202c7.476-1.611,14.522-0.547,21.613,2.161c6.965,2.657,13.548,6.067,20.748,8.097
			c6.482,1.829,13.192,2.87,19.91,3.269c30.8,1.834,60.033-9.837,88.046-21.154c0.473-0.191,0.688-0.519,0.827-0.865
			c0.018,0.009,0.034,0.021,0.05,0.032c31.055,20.481,63.388,39.546,93.051,61.955c0.087,0.066,0.182,0.14,0.274,0.21
			c0.227,0.255,0.433,0.477,0.742,0.569c0.029,0.026,0.066,0.054,0.098,0.077c6.138,4.651,12.166,9.405,17.931,14.408
			c0.799-0.961,1.493-1.923,2.195-2.993c-5.92-5.059-11.999-9.864-18.184-14.57c-0.014-0.011-0.03-0.023-0.045-0.033
			c-8.413-27.232-11.986-55.797-10.367-84.266c0.825-14.512,3.096-28.808,6.451-42.943c2.925-12.334,5.397-26.295-3.998-36.565
			C1225.232,1648.933,1222.584,1651.45,1224.173,1653.185z"/></g><circle cx="2282.04" cy="1287.803" r="30.485" fill="#FCD4E6" transform="rotate(-80.781 2282.065 1287.767)"/><path fill="#FCD4E6" d="M699.368,1267.94c0-16.837,13.649-30.486,30.485-30.486c16.837,0,30.485,13.649,30.485,30.486
		c0,16.836-13.649,30.485-30.485,30.485C713.017,1298.425,699.368,1284.777,699.368,1267.94z"/><path fill="#E1D9FF" d="M2288.767,1127.786c0-12.26,9.939-22.199,22.2-22.199c12.26,0,22.199,9.939,22.199,22.199
		s-9.939,22.2-22.199,22.2C2298.706,1149.986,2288.767,1140.046,2288.767,1127.786z"/><path fill="#E1D9FF" d="M554.248,1320.625c0-12.261,9.939-22.199,22.199-22.199c12.261,0,22.2,9.939,22.2,22.199
		c0,12.26-9.939,22.2-22.2,22.2C564.186,1342.824,554.248,1332.885,554.248,1320.625z"/><circle cx="2029.755" cy="845.326" r="22.199" fill="#E1D9FF"/><path fill="#E1D9FF" d="M738.139,859.669c0-12.261,9.939-22.199,22.2-22.199c12.261,0,22.2,9.939,22.2,22.199
		c0,12.26-9.939,22.2-22.2,22.2C748.078,881.869,738.139,871.93,738.139,859.669z"/></svg>