<svg xmlns="http://www.w3.org/2000/svg" enable-background="new 0 0 1364 960" viewBox="0 0 1364 960"><path fill="#ff9cc2" d="M320.21,528.3c-9.18-4.73-19-9.11-25.57-17.08c-2.41-2.92-4.36-6.93-2.82-10.38c1.25-2.82,4.56-4.3,7.65-4.23
			c3.09,0.06,6,1.38,8.74,2.81c18.2,9.58,32.64,26.09,39.71,45.4l-4.87,3.54C338.78,538.94,329.39,533.03,320.21,528.3z"/><path fill="#ff7daf" d="M333.86,523.58c-5.13-8.97-10.99-17.98-12.16-28.24c-0.43-3.76,0.11-8.18,3.28-10.25
			c2.59-1.68,6.16-1.12,8.72,0.61s4.29,4.42,5.8,7.11c10.05,17.94,13.18,39.65,8.61,59.7l-6.01,0.31
			C343.65,542.61,338.99,532.54,333.86,523.58z"/><path fill="#ff9cc2" d="M281.83,562.36c-1.25-2.62-0.29-5.91,1.62-8.11c1.92-2.2,4.62-3.53,7.3-4.64c17.85-7.42,38.36-7.92,56.4-1.38
			l-0.44,5.68c-9.28-2.6-19.18,0.64-28.12,4.44c-8.94,3.8-18,8.29-27.66,8.24C287.4,566.57,283.36,565.57,281.83,562.36z"/><path fill="#ff7daf" d="M282.17,540.83c-3.52-1.38-7.17-3.94-7.51-7.71c-0.27-3.08,1.9-5.97,4.63-7.41c2.73-1.44,5.92-1.71,9-1.78
			c20.56-0.45,41.2,6.97,56.75,20.43l-2.55,5.46c-8.28-6.17-19.36-6.78-29.69-6.46C302.49,543.67,291.78,544.61,282.17,540.83z"/><path fill="#ff7daf" d="M302.75,587.86c-21.95-7.89,25.72-40.29,41.73-39.14l2.68,3.38C335.91,562.69,317.77,593.25,302.75,587.86z"/><path fill="#ff9cc2" d="M347.27,542.51c-0.45-3.44-0.76-6.88-1.39-10.31c-0.61-3.33-1.37-6.64-2.28-9.9
			c-1.84-6.61-4.29-13.05-7.25-19.24c-1.67-3.49-3.41-6.97-5.45-10.26c-0.36-0.58,0.54-1.12,0.91-0.55c1.89,2.94,3.78,5.88,5.4,8.97
			c1.6,3.07,3.04,6.21,4.34,9.42c2.61,6.48,4.59,13.22,5.92,20.08c0.75,3.84,1.46,7.82,1.62,11.73
			C349.14,543.67,347.42,543.65,347.27,542.51z"/><path fill="#ff9cc2" d="M286.22,532.95c-0.48,0.02-0.5-0.72-0.02-0.75c8.41-0.48,16.77-0.23,25.11,1.05
			c8.36,1.28,16.56,3.45,24.47,6.47c4.42,1.69,8.86,3.54,13,5.85c1,0.56,0.15,2.03-0.87,1.54c-3.74-1.82-7.45-3.66-11.32-5.21
			c-3.86-1.54-7.8-2.88-11.8-4.02c-8.01-2.28-16.23-3.81-24.54-4.49C295.59,533,290.9,532.79,286.22,532.95z"/><path fill="#ff9cc2" d="M308.08,580.49c3.81-5.19,8.02-9.92,12.97-14.04c4.91-4.08,10.26-7.58,15.98-10.42
			c3.26-1.62,6.63-3.03,10.08-4.2c1.13-0.38,1.64,1.39,0.52,1.78c-11.96,4.16-22.62,10.95-31.78,19.65
			c-2.54,2.41-4.99,4.94-7.2,7.66C308.39,581.22,307.84,580.81,308.08,580.49z"/><path fill="#ff7daf" d="M284.34,560.92c14.91-7.32,30.82-13.82,47.67-14.17c4.67-0.1,9.34,0.32,13.9,1.31
			c1.13,0.25,0.69,1.99-0.44,1.75c-16.31-3.5-32.72,0.82-47.95,6.62c-4.32,1.65-8.61,3.41-12.9,5.15
			C284.25,561.73,283.97,561.1,284.34,560.92z"/><path fill="#ff7daf" d="M341.75,541.17c-2.27-3.05-4.45-6.13-6.95-9.01c-2.43-2.8-5.02-5.46-7.75-7.98
			c-5.52-5.09-11.63-9.55-18.13-13.3c-3.61-2.09-7.35-4.03-11.12-5.81c-0.26-0.12-0.09-0.56,0.19-0.47
			c14.35,4.84,27.24,14.2,37.3,25.44c2.85,3.19,5.71,6.57,7.97,10.21C343.88,541.25,342.42,542.07,341.75,541.17z"/><path fill="#eb5b92" d="M338.7,552.55c-28.24,3.42-20.52-14.36,2.53-10.06c-27.34-5.22-19-27.89,3.15-9.62
			c-18.18-18.01,3.86-28.9,6.69-0.68c-1.44,9.77-2.32,20.4-9.3,28.05C326.43,568.24,322.44,555.84,338.7,552.55z"/><path fill="#4b328f" d="M465.8,621.42c-5.23-7.5-11.03-14.6-17.32-21.23c-6.22-6.55-12.93-12.66-20.02-18.26
			c-7.14-5.64-14.68-10.77-22.56-15.31c-7.89-4.55-16.12-8.53-24.57-11.92c-8.06-3.23-16.38-5.91-24.81-8
			c-2.06,6.92-7.6,12.35-14.76,13.54c5.18-11.02,7.4-22.77,8.07-34.92c5.78,4.47,8.59,12.64,7.09,19.8c3.01,0.58,6,1.38,8.94,2.17
			c4.47,1.2,8.88,2.62,13.23,4.18c8.64,3.09,17.04,6.85,25.12,11.2c8.12,4.38,15.94,9.34,23.35,14.83
			c7.4,5.49,14.41,11.5,20.89,18.05c6.54,6.59,12.6,13.65,18.07,21.15c0.66,0.9,1.31,1.81,1.95,2.73
			C469.72,621.18,467.04,623.19,465.8,621.42z"/><path fill="#ff9cc2" d="M1035.45,535.46c8.92-5.2,18.51-10.07,24.66-18.37c2.25-3.04,4-7.14,2.28-10.52
			c-1.4-2.75-4.77-4.06-7.85-3.83c-3.08,0.22-5.92,1.68-8.58,3.26c-17.68,10.51-31.25,27.74-37.32,47.39l5.05,3.28
			C1017.45,547.04,1026.53,540.66,1035.45,535.46z"/><path fill="#ff7daf" d="M1021.57,531.45c4.66-9.22,10.04-18.52,10.69-28.83c0.24-3.78-0.54-8.17-3.81-10.06
			c-2.67-1.55-6.21-0.8-8.68,1.06c-2.46,1.86-4.05,4.64-5.42,7.4c-9.12,18.43-11.12,40.28-5.52,60.06l6.02,0
			C1012.78,550.96,1016.91,540.67,1021.57,531.45z"/><path fill="#ff9cc2" d="M1075.53,567.5c1.11-2.68-0.01-5.91-2.04-8.02c-2.03-2.1-4.8-3.28-7.53-4.26
			c-18.21-6.49-38.72-5.93-56.39,1.53l0.73,5.65c9.13-3.08,19.19-0.35,28.31,2.99c9.12,3.34,18.41,7.35,28.05,6.8
			C1070.19,571.99,1074.17,570.78,1075.53,567.5z"/><path fill="#ff7daf" d="M1074.09,546.02c3.44-1.56,6.96-4.31,7.1-8.09c0.11-3.09-2.21-5.86-5.01-7.16c-2.8-1.3-6-1.4-9.08-1.31
			c-20.56,0.61-40.78,9.09-55.62,23.33l2.82,5.32c7.96-6.59,18.99-7.77,29.32-7.98C1053.94,549.9,1064.68,550.29,1074.09,546.02z"/><path fill="#ff7daf" d="M1055.96,594.04c21.52-9.01-27.76-38.91-43.69-36.94l-2.51,3.51
			C1021.54,570.62,1041.24,600.21,1055.96,594.04z"/><path fill="#ff9cc2" d="M1009.16,551.05c0.28-3.46,0.41-6.91,0.85-10.37c0.43-3.36,1.02-6.7,1.76-10c1.5-6.7,3.61-13.25,6.25-19.58
			c1.49-3.57,3.05-7.13,4.92-10.52c0.33-0.6-0.6-1.09-0.94-0.5c-1.74,3.03-3.48,6.06-4.93,9.24c-1.44,3.14-2.72,6.36-3.84,9.63
			c-2.28,6.61-3.9,13.44-4.88,20.36c-0.55,3.88-1.06,7.88-1.01,11.8C1007.35,552.3,1009.07,552.19,1009.16,551.05z"/><path fill="#ff9cc2" d="M1069.63,538.36c0.48-0.01,0.46-0.75-0.02-0.75c-8.43-0.05-16.76,0.64-25.02,2.34
			c-8.29,1.71-16.36,4.3-24.1,7.72c-4.33,1.91-8.67,3.99-12.68,6.51c-0.97,0.61-0.04,2.04,0.95,1.49c3.64-2.01,7.25-4.04,11.04-5.79
			c3.78-1.74,7.64-3.28,11.58-4.62c7.89-2.69,16.01-4.64,24.27-5.75C1060.28,538.89,1064.96,538.44,1069.63,538.36z"/><path fill="#ff9cc2" d="M1050.25,586.95c-4.07-4.99-8.52-9.49-13.68-13.35c-5.11-3.83-10.64-7.04-16.49-9.59
			c-3.34-1.45-6.77-2.69-10.28-3.68c-1.15-0.32-1.56,1.47-0.43,1.8c12.15,3.54,23.15,9.77,32.75,17.98
			c2.66,2.28,5.24,4.68,7.58,7.28C1049.98,587.7,1050.51,587.27,1050.25,586.95z"/><path fill="#ff7daf" d="M1072.95,566.19c-15.26-6.55-31.49-12.21-48.34-11.7c-4.67,0.14-9.31,0.8-13.81,2.03
			c-1.12,0.31-0.59,2.02,0.53,1.72c16.1-4.34,32.72-0.87,48.22,4.14c4.4,1.42,8.78,2.96,13.15,4.48
			C1073.09,566.99,1073.33,566.35,1072.95,566.19z"/><path fill="#ff7daf" d="M1014.6,549.43c2.11-3.17,4.13-6.35,6.48-9.35c2.28-2.92,4.73-5.72,7.33-8.37
			c5.25-5.37,11.12-10.13,17.42-14.22c3.5-2.27,7.13-4.41,10.81-6.37c0.25-0.13,0.06-0.56-0.21-0.46
			c-14.09,5.58-26.47,15.59-35.94,27.33c-2.69,3.33-5.36,6.86-7.44,10.61C1012.48,549.62,1013.98,550.36,1014.6,549.43z"/><path fill="#eb5b92" d="M1018.24,560.64c28.38,1.96,19.75-15.4-3.04-9.92c27.03-6.62,17.54-28.83-3.64-9.44
			c17.23-18.92-5.35-28.67-6.72-0.34c1.94,9.69,3.37,20.25,10.74,27.53C1031.29,575.67,1034.64,563.08,1018.24,560.64z"/><path fill="#4b328f" d="M894.85,635.97c4.84-7.76,10.26-15.15,16.21-22.09c5.88-6.86,12.26-13.31,19.06-19.27
			c6.84-6,14.1-11.51,21.74-16.46c7.65-4.95,15.65-9.35,23.92-13.17c7.89-3.64,16.05-6.75,24.37-9.27
			c2.42,6.8,8.23,11.94,15.44,12.76c-5.74-10.74-8.57-22.36-9.86-34.46c-5.54,4.76-7.92,13.06-6.06,20.14
			c-2.98,0.73-5.92,1.69-8.82,2.63c-4.4,1.43-8.73,3.08-13,4.86c-8.47,3.53-16.66,7.72-24.51,12.48
			c-7.89,4.79-15.44,10.15-22.56,16.02c-7.1,5.86-13.8,12.23-19.94,19.1c-6.19,6.92-11.88,14.28-16.96,22.05
			c-0.61,0.94-1.21,1.88-1.81,2.82C890.93,635.93,893.71,637.8,894.85,635.97z"/><path fill="#4b328f" d="M431.45,741.08c-3.91-2.37-5.93-7.05-5.54-11.31c0.39-4.26,2.89-8.06,6.2-10.82
		c3.31-2.77,7.39-4.61,11.54-6.13c6.87-2.52,14.35-4.25,21.8-3.64c-7.69-7.85-15.99-15.18-24.82-21.89
		c-0.8-0.61-1.62-1.21-2.43-1.81c-4.27,6.03-8.54,12.07-12.81,18.1c-2.85,4.03-5.8,8.15-10.09,10.8c-4.29,2.65-10.29,3.5-14.82,0.75
		c-3.91-2.37-5.93-7.05-5.54-11.31c0.39-4.26,2.89-8.06,6.2-10.82s7.39-4.61,11.54-6.13c7.09-2.6,14.83-4.36,22.5-3.58
		c-10.01-7.18-20.61-13.59-31.66-19.15c-4.58,5.94-9.16,11.89-13.75,17.83c-3.02,3.91-6.14,7.92-10.54,10.4
		c-4.4,2.48-10.44,3.11-14.87,0.21c-3.82-2.51-5.65-7.25-5.09-11.48c0.56-4.23,3.22-7.93,6.65-10.57c3.43-2.64,7.58-4.33,11.81-5.69
		c6.76-2.19,14.05-3.62,21.25-2.92c-8.08-3.85-16.37-7.25-24.84-10.15c-2.51-0.86-5.03-1.66-7.56-2.43
		c-4.93,5.95-9.87,11.91-14.8,17.86c-3.15,3.81-6.42,7.71-10.92,10.05c-4.49,2.34-10.56,2.78-14.89-0.25
		c-3.74-2.62-5.4-7.41-4.69-11.61c0.71-4.2,3.5-7.81,7.02-10.34c3.52-2.53,7.74-4.08,12.02-5.31c6.11-1.76,12.62-2.9,19.05-2.48
		c-8.67-2.32-17.46-4.13-26.32-5.39c-7.27,2.79-14.54,5.57-21.82,8.36c-4.77,1.83-9.69,3.68-14.94,3.66
		c-5.25-0.03-10.96-2.39-13.35-6.93c-2.06-3.93-1.16-8.76,1.59-12.03c2.76-3.27,7.1-5.09,11.56-5.66c4.46-0.57,9.06,0.01,13.55,0.89
		c8.27,1.62,16.65,4.41,23.13,9.66c0.03,0,0.06,0,0.09,0c9.43,1.33,18.79,3.27,28.01,5.79c-5.65-3.78-10.29-9.02-14.17-14.51
		c-2.58-3.66-4.93-7.54-6.13-11.74c-1.2-4.2-1.17-8.78,0.87-12.52c2.03-3.73,6.28-6.42,10.81-6.12c5.25,0.36,9.73,4.53,11.8,9.2
		s2.23,9.78,2.35,14.75c0.19,7.57,0.38,15.14,0.57,22.7c11.19,3.4,22.14,7.64,32.72,12.67c-4.96-5.07-8.36-11.49-10.85-17.97
		c-1.58-4.1-2.86-8.36-2.94-12.66c-0.08-4.29,1.16-8.67,4.14-11.75c2.98-3.09,7.85-4.66,12.23-3.3c5.06,1.58,8.36,6.62,9.17,11.57
		c0.81,4.95-0.38,9.87-1.56,14.64c-1.8,7.27-3.6,14.54-5.4,21.81c0.33,0.17,0.66,0.32,0.99,0.49c10.76,5.48,21.09,11.78,30.86,18.78
		c-4.78-6.26-7.13-13.97-8.33-21.53c-0.68-4.28-1.04-8.65-0.2-12.82c0.84-4.17,3.01-8.17,6.61-10.59c3.61-2.42,8.77-3.01,12.81-0.85
		c4.67,2.5,6.86,8.02,6.61,12.96c-0.26,4.95-2.49,9.48-4.68,13.88c-3.45,6.91-6.9,13.82-10.34,20.73c0.14,0.1,0.27,0.2,0.4,0.3
		l0.22-0.07c-0.04,0.05-0.07,0.1-0.11,0.15c9.4,6.96,18.26,14.59,26.45,22.82c-1.7-6.66-1.32-13.71-0.1-20.38
		c0.78-4.27,1.91-8.53,4.16-12.24c2.25-3.71,5.73-6.85,10.1-8.05c4.37-1.2,9.65-0.19,12.89,3.09c3.75,3.8,4.02,9.7,2.09,14.32
		c-1.93,4.62-5.67,8.25-9.32,11.76c-5.19,4.99-10.37,9.97-15.56,14.96c-0.12,0.18-0.25,0.35-0.38,0.53
		c8.78,9.28,16.71,19.26,23.62,29.83c0.73,1.12-0.91,2.32-1.65,1.19c-6.8-10.39-14.57-20.2-23.17-29.33
		c-4.05,5.72-8.1,11.45-12.15,17.17c-2.85,4.03-5.8,8.15-10.09,10.8C441.98,742.98,435.98,743.83,431.45,741.08z"/><path fill="#a5b023" d="M587.53,583.84c1.38,7.07-0.01,15.05-0.01,15.05s-0.84,20.2-6.84,37.34c-2.17,6.05-5.4,15.34-13.25,24.49
			c-0.86,0.93-1.72,1.87-2.58,2.8c-0.87,0.91-1.78,1.77-2.76,2.54c-0.71,0.62-1.41,1.24-2.15,1.81c-0.37,0.34-0.73,0.63-1.13,0.92
			c-12.46,9.8-25.84,12.63-31,13.55c-4.98,0.78-22.92,3.12-41.37-6.06c-11.41-5.7-25.37-16.8-22.77-24.43
			c0.58-1.44,1.62-2.6,1.49-4.6c-0.1-3.98-4.32-6.1-9.65-9.46c-9.87-6.18-14.85-9.2-16.17-13.13c-0.66-1.8-0.54-6.19-0.33-14.9
			c0.14-6.04,0.38-6.37-0.14-7.49c-2.77-5.49-11.88-1.8-20.82-6.72c-6.83-3.83-12.23-11.93-11.56-19.68
			c0.47-4.55,2.65-5.46,4.54-13.92c1.32-5.97,1.94-9.07,1.27-12.07c-2.65-11.68-22.9-9.94-24.22-19.76
			c-0.65-4.85,3.58-10.43,7.61-15.77c4.2-5.4,6.37-5.91,7.82-8.28c8.43-13.47-34.13-44.64-29.66-50.55
			c3.42-4.48,37.1,3.08,55.88,16.37c2.87,2.12,8.38,6.39,15.97,5.77c8.76-0.64,11.49-7.1,17.36-6.31
			c2.95,0.47,4.36,2.38,16.31,20.63c3.78,5.84,6.39,9.91,9.74,9.44c3.27-0.43,4.76-4.92,9.42-5.43c0.74-0.15,2.36-0.19,4.77,0.97
			c8.06,3.68,13.68,14.97,16.31,20.56c5.31,11.16,7.05,17.28,9.85,16.95c2.77-0.45,2.95-6.48,7.8-8.37
			c3.47-1.26,7.32,0.38,9.53,1.95c3.11,2.25,3.87,5.63,5.09,15.87c1.28,10.5,1.11,12.17,2.01,17.7c1.38,9.56,2.68,18.26,6.68,18.73
			c3.61,0.43,5.68-6.09,12.58-7.31c0.29-0.06,5.56-0.91,9.53,1.95C585.32,576.87,586.85,580.29,587.53,583.84z"/><path fill="#c5cf5f" d="M574.64,591.03c-0.77,8.61-3.63,17.19-6.96,25.13c-3.3,7.87-7.81,15.33-12.94,22.14
			c-1.46,1.94-3,3.83-4.6,5.66c-1.24,1.41-2.64,2.75-3.82,4.23c-4.68-9.28-9.58-18.45-14.61-27.53c-3.16-5.71-6.4-11.37-9.72-16.99
			c1.22-0.96,2.24-2.33,3.21-3.45c1.36-1.59,2.64-3.25,3.83-4.97c2.35-3.39,4.36-7.02,6.02-10.79c3.31-7.53,5.21-15.56,5.42-23.79
			c0.12-4.7-0.64-9.23-1.51-13.83c-0.14-0.73-1.27-0.66-1.17,0.1c1.06,7.62-0.01,15.77-1.74,23.23c-1.76,7.61-4.95,14.93-9.37,21.36
			c-1.23,1.79-2.53,3.52-3.94,5.18c-0.7,0.83-1.42,1.64-2.17,2.43c-0.27,0.28-0.54,0.55-0.82,0.83c-4.86-8.1-9.9-16.09-15.16-23.93
			c-3.66-5.47-7.45-10.87-11.33-16.2c0.25-0.27,0.48-0.57,0.67-0.93c0.04-0.07,0.05-0.13,0.07-0.2c2-1.18,3.07-3.27,4.24-5.27
			c1.1-1.88,2.08-3.81,2.91-5.82c1.7-4.1,2.87-8.4,3.54-12.79c0.66-4.32,0.65-8.73,0.39-13.08c-0.13-2.17-0.32-4.33-0.66-6.48
			c-0.35-2.17-1.05-4.34-1.64-6.45c-0.13-0.48-0.83-0.21-0.72,0.26c2,8.38,1.45,17.14-0.67,25.42c-1.04,4.04-2.55,8-4.38,11.75
			c-0.89,1.81-1.83,3.6-2.87,5.32c-0.54,0.89-1.13,1.76-1.72,2.62c-0.55,0.81-0.83,1.5-1.05,2.34c-0.15,0.03-0.28,0.09-0.42,0.14
			c-8.16-11.03-16.8-21.73-25.98-31.93c0.47-0.29,0.86-0.76,1.07-1.48c1.02-3.58,1.73-7.28,1.94-11c0.21-3.7-0.2-7.45-0.58-11.13
			c-0.75-7.35-2.93-14.34-6.77-20.67c-0.36-0.59-1.37-0.07-1.08,0.56c2.88,6.38,4.82,13.33,5.38,20.31
			c0.28,3.49-0.19,6.83-0.72,10.27c-0.51,3.31-1.25,6.56-2.34,9.72c-7.13-7.74-14.58-15.18-22.37-22.25
			c-6.95-6.31-14.14-12.33-21.66-17.95c-7.54-5.64-15.41-10.78-23.31-15.88c-0.59-0.38-1.31,0.45-0.71,0.86
			c13.58,9.32,26.1,20.34,38.13,31.55c8.59,8.01,16.8,16.43,24.69,25.15c-8.93,2.32-18.04,3.79-27.29,3.63
			c-9.94-0.18-20.16-1.59-29.69-4.47c-0.91-0.28-1.41,1.3-0.5,1.61c9.84,3.32,19.78,5.34,30.17,5.66
			c10.22,0.31,20.51-0.4,30.43-2.94c2.14,2.41,4.26,4.83,6.35,7.28c7.05,8.26,13.77,16.78,20.22,25.52c-0.2,0.1-0.4,0.22-0.61,0.32
			c-2.08,1.03-4.21,1.97-6.37,2.81c-4.39,1.71-8.93,3.07-13.55,3.98c-9.18,1.81-18.75,2.21-28.03,0.97
			c-5.37-0.72-10.82-1.69-15.94-3.5c-0.77-0.27-1.32,0.85-0.54,1.17c4.53,1.85,9.09,3.57,13.88,4.6c4.82,1.04,9.75,1.58,14.68,1.74
			c9.9,0.33,19.92-1.34,29.28-4.58c2.57-0.89,5.09-1.91,7.55-3.06c0.71-0.33,1.41-0.7,2.12-1.06c9.75,13.47,18.84,27.42,27.38,41.69
			c-1.59,0.33-3.2,1.72-4.56,2.41c-2.08,1.05-4.24,1.96-6.44,2.73c-4.45,1.55-9.06,2.46-13.76,2.77c-9.3,0.62-19.23-0.96-27.6-5.16
			c-0.63-0.32-1.06,0.66-0.45,0.99c4.29,2.33,8.83,4.32,13.6,5.43c4.72,1.1,9.6,1.57,14.44,1.42c4.86-0.15,9.73-0.94,14.41-2.29
			c2.39-0.69,4.73-1.54,6.99-2.56c1.37-0.61,3.91-1.44,5.1-2.81c1.99,3.37,3.97,6.75,5.9,10.16c6.02,10.6,11.67,21.39,17.19,32.25
			c-0.9,0.37-1.78,0.77-2.6,1.04c-1.95,0.66-3.93,1.26-5.92,1.78c-4.12,1.07-8.38,1.81-12.6,2.31c-8.41,1-16.94,0.32-25.23-1.3
			c-4.77-0.93-9.66-2.62-14.07-4.63c-0.4-0.18-0.67,0.42-0.28,0.61c15.76,7.84,34.06,11.03,51.43,7.34c2.5-0.53,4.99-1.15,7.42-1.94
			c1.19-0.38,2.57-0.75,3.86-1.27c2.61,5.17,5.2,10.35,7.79,15.53c0.6,1.21,1.83,2.01,3.21,1.51c1.19-0.43,2.08-1.97,1.51-3.21
			c-2.34-5.1-4.77-10.15-7.26-15.18c1.76-1.17,3.19-3.02,4.55-4.62c1.46-1.73,2.86-3.51,4.2-5.34c2.63-3.59,5-7.36,7.12-11.27
			c4.18-7.7,7.28-16.2,9.26-24.73c1.13-4.89,1.68-9.93,2.34-14.91C575.83,590.51,574.7,590.32,574.64,591.03z"/><path fill="#4b328f" d="M935.32,741.08c3.91-2.37,5.93-7.05,5.54-11.31c-0.39-4.26-2.89-8.06-6.2-10.82
		c-3.31-2.77-7.39-4.61-11.54-6.13c-6.87-2.52-14.35-4.25-21.8-3.64c7.69-7.85,15.99-15.18,24.82-21.89
		c0.8-0.61,1.62-1.21,2.43-1.81c4.27,6.03,8.54,12.07,12.81,18.1c2.85,4.03,5.8,8.15,10.09,10.8c4.29,2.65,10.29,3.5,14.82,0.75
		c3.91-2.37,5.93-7.05,5.54-11.31c-0.39-4.26-2.89-8.06-6.2-10.82c-3.31-2.77-7.39-4.61-11.54-6.13c-7.09-2.6-14.83-4.36-22.5-3.58
		c10.01-7.18,20.61-13.59,31.66-19.15c4.58,5.94,9.16,11.89,13.75,17.83c3.02,3.91,6.14,7.92,10.54,10.4
		c4.4,2.48,10.44,3.11,14.87,0.21c3.82-2.51,5.65-7.25,5.09-11.48s-3.22-7.93-6.65-10.57c-3.43-2.64-7.58-4.33-11.81-5.69
		c-6.76-2.19-14.05-3.62-21.25-2.92c8.08-3.85,16.37-7.25,24.84-10.15c2.51-0.86,5.03-1.66,7.56-2.43
		c4.93,5.95,9.87,11.91,14.8,17.86c3.15,3.81,6.42,7.71,10.92,10.05c4.49,2.34,10.56,2.78,14.89-0.25c3.74-2.62,5.4-7.41,4.69-11.61
		c-0.71-4.2-3.5-7.81-7.02-10.34c-3.52-2.53-7.74-4.08-12.02-5.31c-6.11-1.76-12.62-2.9-19.05-2.48c8.67-2.32,17.46-4.13,26.32-5.39
		c7.27,2.79,14.54,5.57,21.82,8.36c4.77,1.83,9.69,3.68,14.94,3.66c5.25-0.03,10.96-2.39,13.35-6.93c2.06-3.93,1.16-8.76-1.59-12.03
		c-2.76-3.27-7.1-5.09-11.56-5.66c-4.46-0.57-9.06,0.01-13.55,0.89c-8.27,1.62-16.65,4.41-23.13,9.66c-0.03,0-0.06,0-0.09,0
		c-9.43,1.33-18.79,3.27-28.01,5.79c5.65-3.78,10.29-9.02,14.17-14.51c2.58-3.66,4.93-7.54,6.13-11.74c1.2-4.2,1.17-8.78-0.87-12.52
		c-2.03-3.73-6.28-6.42-10.81-6.12c-5.25,0.36-9.73,4.53-11.8,9.2c-2.07,4.67-2.23,9.78-2.35,14.75c-0.19,7.57-0.38,15.14-0.57,22.7
		c-11.19,3.4-22.14,7.64-32.72,12.67c4.96-5.07,8.36-11.49,10.85-17.97c1.58-4.1,2.86-8.36,2.94-12.66
		c0.08-4.29-1.16-8.67-4.14-11.75c-2.98-3.09-7.85-4.66-12.23-3.3c-5.06,1.58-8.36,6.62-9.17,11.57c-0.81,4.95,0.38,9.87,1.56,14.64
		c1.8,7.27,3.6,14.54,5.4,21.81c-0.33,0.17-0.66,0.32-0.99,0.49c-10.76,5.48-21.09,11.78-30.86,18.78
		c4.78-6.26,7.13-13.97,8.33-21.53c0.68-4.28,1.04-8.65,0.2-12.82c-0.84-4.17-3.01-8.17-6.61-10.59c-3.61-2.42-8.77-3.01-12.81-0.85
		c-4.67,2.5-6.86,8.02-6.61,12.96c0.26,4.95,2.49,9.48,4.68,13.88c3.45,6.91,6.9,13.82,10.34,20.73c-0.14,0.1-0.27,0.2-0.4,0.3
		l-0.22-0.07c0.04,0.05,0.07,0.1,0.11,0.15c-9.4,6.96-18.26,14.59-26.45,22.82c1.7-6.66,1.32-13.71,0.1-20.38
		c-0.78-4.27-1.91-8.53-4.16-12.24c-2.25-3.71-5.73-6.85-10.1-8.05c-4.37-1.2-9.65-0.19-12.89,3.09c-3.75,3.8-4.02,9.7-2.09,14.32
		c1.93,4.62,5.67,8.25,9.32,11.76c5.19,4.99,10.37,9.97,15.56,14.96c0.12,0.18,0.25,0.35,0.38,0.53
		c-8.78,9.28-16.71,19.26-23.62,29.83c-0.73,1.12,0.91,2.32,1.65,1.19c6.8-10.39,14.57-20.2,23.17-29.33
		c4.05,5.72,8.1,11.45,12.15,17.17c2.85,4.03,5.8,8.15,10.09,10.8C924.8,742.98,930.8,743.83,935.32,741.08z"/><path fill="#a5b023" d="M775.46,584.79c-1.38,7.07,0.01,15.05,0.01,15.05s0.84,20.2,6.84,37.34c2.17,6.05,5.4,15.34,13.25,24.49
			c0.86,0.93,1.72,1.87,2.58,2.8c0.87,0.91,1.78,1.77,2.76,2.54c0.71,0.62,1.41,1.24,2.15,1.81c0.37,0.34,0.73,0.63,1.13,0.92
			c12.46,9.8,25.84,12.63,31,13.55c4.98,0.78,22.92,3.12,41.37-6.06c11.41-5.7,25.37-16.8,22.77-24.43c-0.58-1.44-1.62-2.6-1.49-4.6
			c0.1-3.98,4.32-6.1,9.65-9.46c9.87-6.18,14.85-9.2,16.17-13.13c0.66-1.8,0.54-6.19,0.33-14.9c-0.14-6.04-0.38-6.37,0.14-7.49
			c2.77-5.49,11.88-1.8,20.82-6.72c6.83-3.83,12.23-11.93,11.56-19.68c-0.47-4.55-2.65-5.46-4.54-13.92
			c-1.32-5.97-1.94-9.07-1.27-12.07c2.65-11.68,22.9-9.94,24.22-19.76c0.65-4.85-3.58-10.43-7.61-15.77
			c-4.2-5.4-6.37-5.91-7.82-8.28c-8.43-13.47,34.13-44.64,29.66-50.55c-3.42-4.48-37.1,3.08-55.88,16.37
			c-2.87,2.12-8.38,6.39-15.97,5.77c-8.76-0.64-11.49-7.1-17.36-6.31c-2.95,0.47-4.36,2.38-16.31,20.63
			c-3.78,5.84-6.39,9.91-9.74,9.44c-3.27-0.43-4.76-4.92-9.42-5.43c-0.74-0.15-2.36-0.19-4.77,0.97
			c-8.06,3.68-13.68,14.97-16.31,20.56c-5.31,11.16-7.05,17.28-9.85,16.95c-2.77-0.45-2.95-6.48-7.8-8.37
			c-3.47-1.26-7.32,0.38-9.53,1.95c-3.11,2.25-3.87,5.63-5.09,15.87c-1.28,10.5-1.11,12.17-2.01,17.7
			c-1.38,9.56-2.68,18.26-6.68,18.73c-3.61,0.43-5.68-6.09-12.58-7.31c-0.29-0.06-5.56-0.91-9.53,1.95
			C777.67,577.82,776.14,581.23,775.46,584.79z"/><path fill="#c5cf5f" d="M788.35,591.98c0.77,8.61,3.63,17.19,6.96,25.13c3.3,7.87,7.81,15.33,12.94,22.14c1.46,1.94,3,3.83,4.6,5.66
			c1.24,1.41,2.64,2.75,3.82,4.23c4.68-9.28,9.58-18.45,14.61-27.53c3.16-5.71,6.4-11.37,9.72-16.99c-1.22-0.96-2.24-2.33-3.21-3.45
			c-1.36-1.59-2.64-3.25-3.83-4.97c-2.35-3.39-4.36-7.02-6.02-10.79c-3.31-7.53-5.21-15.56-5.42-23.79
			c-0.12-4.7,0.64-9.23,1.51-13.83c0.14-0.73,1.27-0.66,1.17,0.1c-1.06,7.62,0.01,15.77,1.74,23.23c1.76,7.61,4.95,14.93,9.37,21.36
			c1.23,1.79,2.53,3.52,3.94,5.18c0.7,0.83,1.42,1.64,2.17,2.43c0.27,0.28,0.54,0.55,0.82,0.83c4.86-8.1,9.9-16.09,15.16-23.93
			c3.66-5.47,7.45-10.87,11.33-16.2c-0.25-0.27-0.48-0.57-0.67-0.93c-0.04-0.07-0.05-0.13-0.07-0.2c-2-1.18-3.07-3.27-4.24-5.27
			c-1.1-1.88-2.08-3.81-2.91-5.82c-1.7-4.1-2.87-8.4-3.54-12.79c-0.66-4.32-0.65-8.73-0.39-13.08c0.13-2.17,0.32-4.33,0.66-6.48
			c0.35-2.17,1.05-4.34,1.64-6.45c0.13-0.48,0.83-0.21,0.72,0.26c-2,8.38-1.45,17.14,0.67,25.42c1.04,4.04,2.55,8,4.38,11.75
			c0.89,1.81,1.83,3.6,2.87,5.32c0.54,0.89,1.13,1.76,1.72,2.62c0.55,0.81,0.83,1.5,1.05,2.34c0.15,0.03,0.28,0.09,0.42,0.14
			c8.16-11.03,16.8-21.73,25.98-31.93c-0.47-0.29-0.86-0.76-1.07-1.48c-1.02-3.58-1.73-7.28-1.94-11c-0.21-3.7,0.2-7.45,0.58-11.13
			c0.75-7.35,2.93-14.34,6.77-20.67c0.36-0.59,1.37-0.07,1.08,0.56c-2.88,6.38-4.82,13.33-5.38,20.31
			c-0.28,3.49,0.19,6.83,0.72,10.27c0.51,3.31,1.25,6.56,2.34,9.72c7.13-7.74,14.58-15.18,22.37-22.25
			c6.95-6.31,14.14-12.33,21.66-17.95c7.54-5.64,15.41-10.78,23.31-15.88c0.59-0.38,1.31,0.45,0.71,0.86
			c-13.58,9.32-26.1,20.34-38.13,31.55c-8.59,8.01-16.8,16.43-24.69,25.15c8.93,2.32,18.04,3.79,27.29,3.63
			c9.94-0.18,20.16-1.59,29.69-4.47c0.91-0.28,1.41,1.3,0.5,1.61c-9.84,3.32-19.78,5.34-30.17,5.66
			c-10.22,0.31-20.51-0.4-30.43-2.94c-2.14,2.41-4.26,4.83-6.35,7.28c-7.05,8.26-13.77,16.78-20.22,25.52
			c0.2,0.1,0.4,0.22,0.61,0.32c2.08,1.03,4.21,1.97,6.37,2.81c4.39,1.71,8.93,3.07,13.55,3.98c9.18,1.81,18.75,2.21,28.03,0.97
			c5.37-0.72,10.82-1.69,15.94-3.5c0.77-0.27,1.32,0.85,0.54,1.17c-4.53,1.85-9.09,3.57-13.89,4.6c-4.82,1.04-9.75,1.58-14.68,1.74
			c-9.9,0.33-19.92-1.34-29.28-4.58c-2.57-0.89-5.09-1.91-7.55-3.06c-0.71-0.33-1.41-0.7-2.12-1.06
			c-9.75,13.47-18.84,27.42-27.38,41.69c1.59,0.33,3.2,1.72,4.56,2.41c2.08,1.05,4.24,1.96,6.44,2.73
			c4.45,1.55,9.06,2.46,13.76,2.77c9.3,0.62,19.23-0.96,27.6-5.16c0.63-0.32,1.06,0.66,0.45,0.99c-4.29,2.33-8.83,4.32-13.6,5.43
			c-4.72,1.1-9.6,1.57-14.44,1.42c-4.86-0.15-9.73-0.94-14.41-2.29c-2.39-0.69-4.73-1.54-6.99-2.56c-1.37-0.61-3.91-1.44-5.1-2.81
			c-1.99,3.37-3.97,6.75-5.9,10.16c-6.02,10.6-11.67,21.39-17.19,32.25c0.9,0.37,1.78,0.77,2.6,1.04c1.95,0.66,3.93,1.26,5.92,1.78
			c4.12,1.07,8.38,1.81,12.6,2.31c8.41,1,16.94,0.32,25.23-1.3c4.77-0.93,9.66-2.62,14.07-4.63c0.4-0.18,0.67,0.42,0.28,0.61
			c-15.76,7.84-34.06,11.03-51.43,7.34c-2.5-0.53-4.99-1.15-7.42-1.94c-1.19-0.38-2.57-0.75-3.86-1.27
			c-2.61,5.17-5.2,10.35-7.79,15.53c-0.6,1.21-1.83,2.01-3.21,1.51c-1.19-0.43-2.08-1.97-1.51-3.21c2.34-5.1,4.77-10.15,7.26-15.18
			c-1.76-1.17-3.19-3.02-4.55-4.62c-1.46-1.73-2.86-3.51-4.2-5.34c-2.63-3.59-5-7.36-7.12-11.27c-4.18-7.7-7.28-16.2-9.26-24.73
			c-1.13-4.89-1.68-9.93-2.34-14.91C787.16,591.45,788.29,591.27,788.35,591.98z"/><path fill="#ffc3bf" d="M817.67,567.81c30.56,43.65,52.3,118.11,56.81,148.93c4.88,33.33-14.43,29.88-29.16,7.31
			c-23.87-36.58-47.89-78.43-65.29-117.28C768.51,581.05,796.8,538,817.67,567.81z"/><path fill="#ffc3bf" d="M549.11,567.81c-30.56,43.65-52.3,118.11-56.81,148.93c-4.88,33.33,14.43,29.88,29.16,7.31
			c23.87-36.58,47.89-78.43,65.29-117.28C598.27,581.05,569.98,538,549.11,567.81z"/><path fill="#6936ba" d="M792.58,518.68c29.46,19.31,75.52,125.95,70.13,143.63c-5.4,17.68-33.35,31.6-51.5,28.55
			c-18.15-3.05-44.53-103.92-44.53-103.92L792.58,518.68z"/><path fill="#6936ba" d="M573.09,519.87c-29.46,19.31-76.74,124.76-71.35,142.44c5.4,17.68,33.35,31.6,51.5,28.55
			c18.15-3.05,42.28-97.67,42.28-97.67L573.09,519.87z"/><path fill="#6936ba" d="M794.22,519.87c-18.48-18.48-79.78-26.35-79.78-26.35h-29.3h0h-29.3c0,0-76.78,11.52-89.52,34.34
			c-8.44,15.1,27.46,133.05,33.11,219.84l167.13-0.49C769.01,653.83,806.71,532.36,794.22,519.87z"/><path fill="#351373" d="M840.62,199.94c-23.64-103.72-107.44-124.15-155.77-95.2c-48.33-28.95-132.13-8.53-155.77,95.2
					c-19.61,86.04,34.03,229.3,155.76,229.31v0c0,0,0.01,0,0.01,0c0,0,0.01,0,0.01,0v0C806.59,429.24,860.22,285.98,840.62,199.94z"/><path fill="#ebc2b0" d="M661.07,427.14c2.83,11.11,12.41,19.42,22.44,19.46c10.02,0.04,19.66-8.18,22.56-19.27L661.07,427.14z"/><path fill="#ffcac2" d="M571.9,287.26c0,0-26.47-44.52-57.15-17.65c-30.85,27.02,6.58,121.4,49.01,73.92L571.9,287.26z"/><path fill="#e89892" d="M568.62,307.09c-5.46-17.92-26.14-32.93-38.59-30.95c-9.46,1.5-20.22,16.47-11.25,41.19
						c-1.26-12.87,3.4-27.03,12.15-30.52c7.98-3.18,25.54,13.9,33.1,26.62L568.62,307.09z"/><path fill="#ffcac2" d="M794.03,287.26c0,0,26.47-44.52,57.15-17.65c30.85,27.02-6.58,121.4-49.01,73.92L794.03,287.26z"/><path fill="#e89892" d="M797.31,307.09c5.46-17.92,26.14-32.93,38.59-30.95c9.46,1.5,20.22,16.47,11.25,41.19
						c1.26-12.87-3.4-27.03-12.15-30.52c-7.98-3.18-25.54,13.9-33.1,26.62L797.31,307.09z"/><path fill="#ffcac2" d="M791.79,215.23c-13.03-33.97-60.02-81.55-106.94-82.47c-47.39-0.93-94.71,45.15-106.92,82.47
					c-12.46,38.11-47.21,121.48-2.14,168.41c10.86,11.31,26.37,24.24,47.93,33.43c23.14,9.87,35.98,35.2,30.65,59.79
					c-1.7,7.84-3.96,12.22-6.87,18.07c24.9,25.39,49.81,25.38,74.72,0c-2.6-5.24-4.86-8.5-6.74-14.94
					c-7.48-25.62,6.2-52.64,30.7-63.23c20.48-8.85,35.59-20.99,46.47-31.53C840.99,338.43,806.33,253.14,791.79,215.23z"/><path fill="#351373" d="M648.45,241.16c-13.13-5.69-46.52-2.2-52.64,20.95c8.61-7.29,28.06-14.44,46.1-6.98
					C649.57,258.29,651.34,242.42,648.45,241.16z"/><path fill="#351373" d="M719.88,240.12c13.13-5.69,46.52-2.2,52.64,20.95c-8.61-7.29-28.06-14.44-46.1-6.98
					C718.76,257.25,716.99,241.38,719.88,240.12z"/><ellipse cx="770.34" cy="325.33" fill="#ffa1af" rx="33.95" ry="18.2"/><ellipse cx="593.62" cy="325.33" fill="#ffa1af" rx="33.95" ry="18.2"/><path fill="#e89892" d="M703.9,317.18c-4.65-13.4-19.3-22.63-17.8-38.14c0.38-3.89-5.7-3.86-6.07,0
					c-1.29,13.29,8.01,23.33,14.79,33.64c2.83,4.3,6.27,10.77,2.15,15.38c-4.02,4.5-10.97,4.1-16.44,3.94
					c-3.91-0.12-3.9,5.95,0,6.07c6.63,0.2,13.66,0.07,19.11-4.25C704.78,329.74,706,323.23,703.9,317.18z"/><path fill="#e89892" d="M715.49,358.3c-4.51,10.55-14.83,18.4-26.45,18.97c-11.87,0.58-23.2-6.27-28.62-16.76
					c-1.8-3.47-7.04-0.4-5.24,3.06c6.34,12.26,19.99,20.44,33.86,19.76c13.59-0.67,26.34-9.45,31.69-21.98
					C722.25,357.81,717.03,354.72,715.49,358.3z"/><path fill="#e89892" d="M639.23,424.45c17.77,18.36,35.64,21.83,46.42,21.77c12.46-0.07,27.23-2.74,44.81-21.77
				c-9.06,5.65-26,8.79-44.32,8.82C668.18,433.3,648.83,430.33,639.23,424.45z"/><path fill="#ff7daf" d="M683.39,553.61c-48.36-62.77-123.24-11.12-96.81,54.54c11.13,27.65,40.22,57.78,96.81,82.9
				c56.6-25.12,85.69-55.25,96.81-82.9C806.63,542.49,731.75,490.85,683.39,553.61z"/><path fill="#fff" d="M718.78,600.53h-25.89c-1.9,0-3.43-1.54-3.43-3.43v-25.89c0-1.9-1.54-3.43-3.43-3.43h-11.27
				c-1.9,0-3.43,1.54-3.43,3.43v25.89c0,1.9-1.54,3.43-3.43,3.43H642c-1.9,0-3.43,1.54-3.43,3.43v11.27c0,1.9,1.54,3.43,3.43,3.43
				h25.89c1.9,0,3.43,1.54,3.43,3.43v25.89c0,1.9,1.54,3.43,3.43,3.43h11.27c1.9,0,3.43-1.54,3.43-3.43V622.1
				c0-1.9,1.54-3.43,3.43-3.43h25.89c1.9,0,3.43-1.54,3.43-3.43v-11.27C722.21,602.07,720.68,600.53,718.78,600.53z"/><path fill="#351373" d="M557.89,265.61c8.36-23.55,19.6-45.59,48.63-58.23c-2.49,6.3-5.2,14.81-14.49,22.06
			c19.42-2.03,45.17-13.2,59.99-25.79c-1.44,6.17-2.87,12.34-4.31,18.51c15.45-1.05,30.44-7.74,41.47-18.52
			c5.07,7.69,12.57,13.78,21.18,17.17c-0.79-6.39-1.59-12.79-2.38-19.18c15.57,15.59,43.23,25.69,65.26,27.82
			c-1.25-3.68-7.35-14.62-8.6-18.3c18.58,4.24,31.84,28.46,42.4,45.89C821.16,116.85,691.9,76.29,586.89,142.84
			C554.72,170.9,560.35,225.97,557.89,265.61z"/><path fill="#ff7daf" d="M824.19,154.12c-20.46,24.31-255.91,22.45-278.66-0.49c-11.72-24.22,10.73-53.34,35.76-48.01
				c1.06,0.23,2.13,0.52,3.2,0.87c0.04-0.41,0.08-0.83,0.15-1.24c0.11-0.87,0.24-1.72,0.39-2.56c0.16-0.79,0.32-1.56,0.52-2.32
				c7.12-27.41,43.58-38.72,59.47-25.36c1.28,1.04,2.44,2.29,3.42,3.69c-0.79-1.12-0.83-2.65-0.19-4.31
				c2.08-5.23,11.06-11.88,26.14-12.08c9.11-0.12,20.7,5.58,25.79,11.49c0.85,0.97,1.5,1.94,1.96,2.9c1.28-0.79,2.56-1.53,3.86-2.21
				c26.79-14.14,60.47-6.58,64.8,26.97c0.08,0.48,0.12,0.97,0.17,1.45c3.73-2.02,7.56-2.94,11.37-2.94c0,0,0,0,0.01,0
				C806.97,99.8,835.21,132.14,824.19,154.12z"/><path fill="#debac8" d="M649.63,90.46c-0.61,3.24-1.84,6.35-3.54,9.18c-1.48,2.48-3.92,6.68-7.08,6.87
				c-1.12,0.06-2.44-1.12-2.3-2.3c0.23-1.82,1.27-2.65,2.44-3.96c0.92-1.01,1.72-2.09,2.45-3.24c1.49-2.35,2.63-4.9,3.38-7.57
				c0.83-2.94,1.1-5.98,0.87-9.03c-0.1-1.53-0.48-2.97-0.73-4.47c-0.05-0.31-0.09-0.62-0.13-0.95c1.28,1.05,2.44,2.3,3.42,3.7
				c-0.79-1.12-0.83-2.65-0.18-4.32c0.16,0.29,0.29,0.58,0.4,0.89c0.62,1.65,0.96,3.42,1.21,5.16
				C650.32,83.79,650.26,87.13,649.63,90.46z"/><path fill="#debac8" d="M782.32,99.98c-0.31,0.09-0.62,0.18-0.93,0.29c-4.32,1.4-8.3,3.88-11.65,6.92
				c-7.33,6.67-11.97,15.79-17.14,24.09c-0.34,0.54-1.32,0.19-1.08-0.45c3.73-9.97,8.47-19.92,16.55-27.15
				c0.87-0.78,1.78-1.52,2.71-2.2c0.08,0.48,0.13,0.96,0.18,1.44C774.68,100.89,778.52,99.98,782.32,99.98z"/><path fill="#debac8" d="M806.9,144.44c-0.91-3.41-1.96-6.96-4.1-9.83c-2.34-3.14-5.57-5.17-9.49-5.62
				c-7.89-0.89-14.39,5.44-19.07,10.95c-0.7,0.83,0.46,2.03,1.2,1.2c4.35-4.83,9.93-9.19,16.84-7.98c6.32,1.11,8.19,7.19,9.53,12.67
				C802.62,149.13,807.78,147.73,806.9,144.44z"/><ellipse cx="664.26" cy="120.35" fill="#ab8292" rx="4.38" ry="8.01"/><ellipse cx="704.82" cy="120.35" fill="#ab8292" rx="4.38" ry="8.01"/><path fill="#ab8292" d="M698.46,139.47c-2.33,5.45-7.67,9.51-13.67,9.81c-6.14,0.3-11.99-3.24-14.79-8.66
				c-0.93-1.79-3.64-0.21-2.71,1.58c3.28,6.34,10.33,10.57,17.5,10.21c7.03-0.34,13.61-4.88,16.38-11.36
				C701.95,139.22,699.25,137.62,698.46,139.47z"/><g><path fill="#351373" d="M590.92,281.22c1.7,5.66,5.57,10.44,10.32,13.67c4.76,3.23,10.44,4.93,16.1,4.87
				c5.65-0.03,11.33-1.84,16.02-5.28c4.66-3.42,8.34-8.58,9.39-14.45c-4.5,3.21-8.64,5.32-12.87,6.69c-4.21,1.37-8.43,2-12.68,2.05
				c-4.25,0.04-8.51-0.52-12.82-1.75C600.04,285.8,595.74,283.87,590.92,281.22z"/></g><g><path fill="#351373" d="M724.59,279.58c1.37,5.75,4.96,10.73,9.51,14.22c4.57,3.5,10.14,5.51,15.79,5.77
				c5.65,0.28,11.42-1.2,16.3-4.38c4.85-3.16,8.82-8.1,10.21-13.9c-4.67,2.95-8.93,4.83-13.24,5.95c-4.28,1.13-8.53,1.52-12.77,1.34
				c-4.24-0.2-8.47-0.99-12.7-2.46C733.43,284.66,729.24,282.5,724.59,279.58z"/></g><path fill="#debac8" d="M614.41,149.03c-2.45-1.36-5.01-2.46-7.39-3.98c-2.26-1.44-4.49-2.98-6.58-4.69
			c-3.05-2.49-5.82-5.53-7.92-8.89c-1.62,2.6-3.16,5.27-4.15,8.19c-0.56,1.66-1.09,3.38-1.52,5.09c-0.48,1.86-0.6,3.66-0.52,5.58
			c0.03,0.92-1.33,0.89-1.41,0c-0.32-3.82-0.55-7.78,0.29-11.54c0.84-3.78,2.21-7.56,4.54-10.7c0.19-0.25,0.41-0.48,0.68-0.65
			c-1.8-4.21-2.68-8.73-4.15-13.06c-1.12-3.26-2.77-6.19-4.99-8.73c1.06,0.23,2.13,0.52,3.2,0.87c0.04-0.41,0.08-0.83,0.15-1.24
			c0.11-0.87,0.24-1.72,0.39-2.56c2.05,2.45,3.67,5.25,4.85,8.24c2.02,5.14,2.6,10.77,4.93,15.79c2.09,4.5,5.4,8.04,9.07,11.33
			c3.62,3.25,7.66,6.35,11.65,9.12C616.63,147.95,615.65,149.7,614.41,149.03z"/><path fill="#ffd2cf" d="M519.21,741.95c46.94-25.23,72.27-40.04,100.77-58.52c18.51-12,6.57-24.23-10.26-18.34
			c-25.11,8.79-68.63,27.66-106.13,47.81C478.78,726.25,493.31,755.87,519.21,741.95z"/><path fill="#ffd2cf" d="M601.56,670.14l4.01,16.04c17.73,8.54,27.39,1.92,39.95,0.53c10.64-1.18,36.14-4.46,35.65-8.97
			c-0.43-3.93-29.26,1.68-32.12-0.63c0,0,39.17-13.03,36.27-18.69c-2.7-5.27-38.83,11.09-39.72,9.11
			c-1.14-1.02,41.34-20.22,37.89-25.34c-3.63-5.39-43.88,17.47-43.66,15.73c-0.66-1.28,34.81-22.92,31.82-26.93
			c-4.67-6.26-41.62,21.54-43.36,20.47c-4.16-2.56,7.6-18.58,1.41-25.26c-2.87-3.1-5.38,6.81-11.62,19.68
			C617.03,648.09,608.62,658.9,601.56,670.14z"/><path fill="#ffd2cf" d="M847.57,741.95c-46.94-25.23-72.27-40.04-100.77-58.52c-18.51-12-6.57-24.23,10.26-18.34
			c25.11,8.79,68.63,27.66,106.13,47.81C888,726.25,873.47,755.87,847.57,741.95z"/><path fill="#ffd2cf" d="M765.21,670.14l-4.01,16.04c-17.73,8.54-27.39,1.92-39.95,0.53c-10.64-1.18-36.14-4.46-35.65-8.97
			c0.43-3.93,29.26,1.68,32.12-0.63c0,0-39.17-13.03-36.27-18.69c2.7-5.27,38.83,11.09,39.72,9.11
			c1.14-1.02-41.34-20.22-37.89-25.34c3.63-5.39,43.88,17.47,43.66,15.73c0.66-1.28-34.81-22.92-31.82-26.93
			c4.67-6.26,41.62,21.54,43.36,20.47c4.16-2.56-7.6-18.58-1.41-25.26c2.87-3.1,5.38,6.81,11.62,19.68
			C749.75,648.09,758.16,658.9,765.21,670.14z"/><g><path fill="#f05893" d="M442.15,875.89c-48.93-5.02-98.88-0.95-151.23,21.8c12.72-45.73,30.67-72.38,51.9-86.62
				c-19.41-10.68-36.45-42.08-51.9-88.49c51.56,22.99,101.94,27.23,151.23,15.22C442.15,783.83,442.15,829.86,442.15,875.89z"/><path fill="#cc336e" d="M370.28,851.71c24.32,4.82,60.5,11.11,71.86,24.18c0,0,0-37.81,0-44.76
				C428.98,832.24,370.28,851.71,370.28,851.71z"/><path fill="#f05893" d="M938.13,875.89c48.93-5.02,98.88-0.95,151.23,21.8c-12.72-45.73-30.67-72.38-51.9-86.62
				c19.41-10.68,36.45-42.08,51.9-88.49c-51.56,22.99-101.94,27.23-151.23,15.22C938.13,783.83,938.13,829.86,938.13,875.89z"/><path fill="#cc336e" d="M1010,851.71c-24.32,4.82-60.5,11.11-71.86,24.18c0,0,0-37.81,0-44.76
				C951.3,832.24,1010,851.71,1010,851.71z"/><path fill="#ff73a9" d="M371.11,697.24c0,51.48,0,102.97,0,154.45c157.88-25.02,480.34-25.07,638.26-0.46c0-51.12,0-102.23,0-153.35
			C851.44,732.72,528.99,732.63,371.11,697.24z"/></g><g><circle cx="451.52" cy="380.93" r="42.38" fill="#ffc72b"/><path fill="#2d1e57" d="M474.5,391.71c-0.54,2.02-1.41,3.96-2.57,5.74c-3.05,4.75-8.08,8.44-14.28,9.88
						c-6.66,1.55-13.24,0.18-18.2-3.23c-1.69-1.16-3.22-2.55-4.49-4.15c-1.7-2.13-2.95-4.63-3.54-7.42
						c-0.84-3.97,0.26-5.99,2.41-6.97c4.47-2.03,13.47,0.42,18.93-0.85c4.82-1.12,12.66-7.39,17.66-6.86
						c1.99,0.21,3.54,1.5,4.26,4.62C475.4,385.61,475.3,388.76,474.5,391.71z"/><path fill="#e64747" d="M471.93,397.46c-3.05,4.75-8.08,8.44-14.28,9.88c-6.66,1.55-13.24,0.18-18.2-3.23
						c1.18-4.43,8.36-9.76,15.31-8.05C459.93,391.53,469.14,393.38,471.93,397.46z"/><path fill="#fff" d="M470.42,377.87l0.37,1.87c0.39,1.94-0.7,3.87-2.56,4.54c-9.63,3.44-19.64,5.44-29.98,6
					c-1.98,0.11-3.73-1.26-4.12-3.2l-0.3-1.49c4.47-2.04,13.47,0.42,18.93-0.85C457.58,383.61,465.41,377.34,470.42,377.87z"/><ellipse cx="431.78" cy="369.65" fill="#2d1e57" rx="5.84" ry="8.88" transform="rotate(-11.333 431.619 369.62)"/><ellipse cx="432.26" cy="365.29" fill="#fff" rx="1.75" ry="2.38" transform="rotate(-22.18 432.292 365.317)"/><ellipse cx="465.4" cy="362.92" fill="#2d1e57" rx="5.84" ry="8.88" transform="rotate(-11.333 465.234 362.893)"/><ellipse cx="463.27" cy="359.08" fill="#fff" rx="1.75" ry="2.38" transform="matrix(1 -.00815 .00815 1 -2.912 3.788)"/></g><g><circle cx="930.47" cy="382.85" r="43.55" fill="#ffc72b"/><ellipse cx="916.29" cy="368.63" fill="#2d1e57" rx="9.13" ry="6" transform="rotate(-73.62 916.303 368.638)"/><ellipse cx="918.82" cy="364.89" fill="#fff" rx="2.44" ry="1.8" transform="rotate(-84.48 918.756 364.89)"/><ellipse cx="950.1" cy="378.56" fill="#2d1e57" rx="9.13" ry="6" transform="rotate(-73.62 950.105 378.574)"/><ellipse cx="949.99" cy="374.06" fill="#fff" rx="2.44" ry="1.8" transform="rotate(-62.761 950.04 374.053)"/><path fill="#2d1e57" d="M944.74,396.7c-10.09,9.23-30.33,3.34-33.75-9.92c-0.19-0.75,0.73-1.29,1.28-0.73
			c8.07,8.18,20.58,11.81,31.8,9.34C944.82,395.23,945.31,396.18,944.74,396.7z"/><path fill="#2d1e57" d="M910.02,354.3c2.14-1.36,4.52-2.47,7.12-3.05c1.3-0.29,2.64-0.44,3.99-0.44c1.35,0,2.72,0.15,4.05,0.44
				l0.03,0.01c1.06,0.23,1.73,1.28,1.5,2.33c-0.23,1.06-1.28,1.73-2.33,1.5c-0.09-0.02-0.19-0.05-0.27-0.08
				c-2.05-0.77-4.27-1.09-6.52-0.91c-2.25,0.17-4.52,0.84-6.68,1.82l-0.01,0c-0.46,0.21-1.01,0.01-1.22-0.46
				C909.48,355.04,909.63,354.54,910.02,354.3z"/><path fill="#2d1e57" d="M963.13,369.91c-1.06-2.3-2.47-4.52-4.34-6.42c-0.93-0.94-1.98-1.8-3.12-2.53
				c-1.14-0.73-2.36-1.34-3.64-1.82l-0.03-0.01c-1.01-0.38-2.15,0.14-2.52,1.15c-0.38,1.01,0.14,2.15,1.15,2.52
				c0.09,0.03,0.18,0.06,0.27,0.08c2.14,0.47,4.18,1.39,5.98,2.76c1.8,1.36,3.34,3.15,4.63,5.14l0,0.01
				c0.28,0.43,0.85,0.55,1.28,0.28C963.18,370.82,963.32,370.32,963.13,369.91z"/></g><path fill="#ffcce0" d="M423.53,255.7c2.31-5.01,8.15-8.55,13.79-6.73c6.05,1.96,8.36,9.29,8.62,10.14c0,0.32,0,0.64,0,0.96
		c0.01-0.32,0.01-0.64,0.02-0.96c0.25-0.84,2.57-8.18,8.62-10.14c5.64-1.83,11.48,1.71,13.79,6.73c4.23,9.18-4.66,20.55-5.66,21.83
		c-6.01,7.69-13.96,8.96-16.84,9.22c-0.06,0.01-0.12,0.01-0.18,0.02c-0.07-0.01-0.15-0.02-0.23-0.03
		c-2.87-0.34-10.45-1.78-16.25-9.21C428.16,276.22,419.3,264.87,423.53,255.7z"/><path fill="#ffcce0" d="M287.17,383.81c-0.3-9.74,6.57-20.53,17.59-23c11.82-2.64,21.85,6.33,22.98,7.38
		c0.27,0.49,0.53,0.97,0.8,1.46c-0.26-0.49-0.52-0.98-0.78-1.48c-0.28-1.52-2.51-14.79,6.04-23.37c7.97-8.01,20.76-8.05,28.84-2.6
		c14.8,10,9.33,35.48,8.72,38.37c-3.7,17.25-16.02,26.55-20.64,29.62c-0.1,0.07-0.19,0.13-0.28,0.19c-0.13,0.06-0.27,0.12-0.42,0.18
		c-5.12,2.15-19.08,6.99-35.06,1.11C312.13,410.62,287.72,401.63,287.17,383.81z"/><path fill="#ffcce0" d="M945.01,250.97c-2.31-5.01-8.15-8.55-13.79-6.73c-6.05,1.96-8.36,9.29-8.62,10.14c0,0.32,0,0.64,0,0.96
		c-0.01-0.32-0.01-0.64-0.02-0.96c-0.25-0.84-2.57-8.18-8.62-10.14c-5.64-1.83-11.48,1.71-13.79,6.73
		c-4.23,9.18,4.66,20.55,5.66,21.83c6.01,7.69,13.96,8.96,16.84,9.22c0.06,0.01,0.12,0.01,0.18,0.02c0.07-0.01,0.15-0.02,0.23-0.03
		c2.87-0.34,10.45-1.78,16.25-9.21C940.37,271.48,949.23,260.13,945.01,250.97z"/><path fill="#ffcce0" d="M1087.04,383.81c0.3-9.74-6.57-20.53-17.59-23c-11.82-2.64-21.85,6.33-22.98,7.38
		c-0.27,0.49-0.53,0.97-0.8,1.46c0.26-0.49,0.52-0.98,0.78-1.48c0.28-1.52,2.51-14.79-6.04-23.37c-7.97-8.01-20.76-8.05-28.84-2.6
		c-14.8,10-9.33,35.48-8.72,38.37c3.7,17.25,16.02,26.55,20.64,29.62c0.1,0.07,0.19,0.13,0.28,0.19c0.13,0.06,0.27,0.12,0.42,0.18
		c5.12,2.15,19.08,6.99,35.06,1.11C1062.08,410.62,1086.49,401.63,1087.04,383.81z"/><path fill="#ffc72b" d="M383.41,236.27c-10.39-3.11-18.51-14.13-20.8-28.24l-1.25-7.7l-1.25,7.7c-2.29,14.11-10.41,25.13-20.8,28.24
		l-5.67,1.7l5.67,1.7c10.39,3.11,18.51,14.13,20.8,28.24l1.25,7.7l1.25-7.7c2.29-14.11,10.41-25.13,20.8-28.24l5.67-1.7
		L383.41,236.27z"/><path fill="#eb5b92" d="M566.66,461.19c-5.49-1.64-9.78-7.47-10.99-14.92l-0.66-4.07l-0.66,4.07c-1.21,7.46-5.5,13.28-10.99,14.92
		l-3,0.9l3,0.9c5.49,1.64,9.78,7.47,10.99,14.92l0.66,4.07l0.66-4.07c1.21-7.46,5.5-13.28,10.99-14.92l3-0.9L566.66,461.19z"/><path fill="#eb5b92" d="M466.75,159.9c-5.49-1.64-9.78-7.47-10.99-14.92l-0.66-4.07l-0.66,4.07c-1.21,7.46-5.5,13.28-10.99,14.92
		l-3,0.9l3,0.9c5.49,1.64,9.78,7.47,10.99,14.92l0.66,4.07l0.66-4.07c1.21-7.46,5.5-13.28,10.99-14.92l3-0.9L466.75,159.9z"/><path fill="#ffc72b" d="M996.96,235.8c10.4-3.11,18.51-14.13,20.8-28.24l1.25-7.7l1.25,7.7c2.29,14.11,10.41,25.13,20.8,28.24
		l5.67,1.7l-5.67,1.7c-10.4,3.11-18.51,14.13-20.8,28.24l-1.25,7.7l-1.25-7.7c-2.29-14.11-10.41-25.13-20.8-28.24l-5.67-1.7
		L996.96,235.8z"/><path fill="#eb5b92" d="M818.45,465.45c5.49-1.64,9.78-7.47,10.99-14.92l0.66-4.07l0.66,4.07c1.21,7.46,5.5,13.28,10.99,14.92l3,0.9
		l-3,0.9c-5.49,1.64-9.78,7.47-10.99,14.92l-0.66,4.07l-0.66-4.07c-1.21-7.46-5.5-13.28-10.99-14.92l-3-0.9L818.45,465.45z"/><path fill="#eb5b92" d="M922.61,159.9c5.49-1.64,9.78-7.47,10.99-14.92l0.66-4.07l0.66,4.07c1.21,7.46,5.5,13.28,10.99,14.92l3,0.9
		l-3,0.9c-5.49,1.64-9.78,7.47-10.99,14.92l-0.66,4.07l-0.66-4.07c-1.21-7.46-5.5-13.28-10.99-14.92l-3-0.9L922.61,159.9z"/><g><path fill="#fff" d="M424.91,779.72c-0.21-6.95,4.69-14.65,12.55-16.4c8.43-1.88,15.59,4.52,16.4,5.26
			c0.19,0.35,0.38,0.7,0.57,1.04c-0.18-0.35-0.37-0.7-0.55-1.05c-0.2-1.08-1.79-10.55,4.31-16.67c5.69-5.71,14.81-5.74,20.57-1.85
			c10.56,7.13,6.66,25.32,6.22,27.37c-2.64,12.3-11.43,18.94-14.73,21.13c-0.07,0.05-0.14,0.09-0.2,0.13
			c-0.09,0.04-0.19,0.08-0.3,0.13c-3.66,1.53-13.62,4.99-25.02,0.79C442.72,798.85,425.31,792.44,424.91,779.72z"/><path fill="#fff" d="M955.37,779.72c0.21-6.95-4.69-14.65-12.55-16.4c-8.43-1.88-15.59,4.52-16.4,5.26
			c-0.19,0.35-0.38,0.7-0.57,1.04c0.18-0.35,0.37-0.7,0.55-1.05c0.2-1.08,1.79-10.55-4.31-16.67c-5.69-5.71-14.81-5.74-20.57-1.85
			c-10.56,7.13-6.66,25.32-6.22,27.37c2.64,12.3,11.43,18.94,14.73,21.13c0.07,0.05,0.14,0.09,0.2,0.13
			c0.09,0.04,0.19,0.08,0.3,0.13c3.66,1.53,13.61,4.99,25.02,0.79C937.56,798.85,954.97,792.44,955.37,779.72z"/></g></svg>